<?xml version="1.0" encoding="utf-8"?><svg width="210" height="80" viewBox="0 0 210 80" fill="none" xmlns="http://www.w3.org/2000/svg">
<path d="M37.1614 41.734H29.4131C26.9402 41.734 25 43.6546 25 46.1026V53.7853C25 56.2332 26.9402 58.1538 29.4131 58.1538H37.1614C39.6342 58.1538 41.5745 56.2332 41.5745 53.7853V46.1026C41.5745 43.6546 39.5201 41.734 37.1614 41.734ZM38.886 53.6723C38.886 54.6263 38.1378 55.3795 37.1614 55.3795H29.4131C28.4493 55.3795 27.6884 54.6389 27.6884 53.6723V45.9896C27.6884 45.0355 28.4366 44.2823 29.4131 44.2823H37.1614C38.1251 44.2823 38.886 45.023 38.886 45.9896V53.6723ZM57.071 35.5451H47.8137V26.3686C47.6995 23.9207 45.772 22 43.2864 22H29.4131C26.9402 22 25 23.9207 25 26.3686V33.8379C25 36.2858 26.9402 38.2065 29.4131 38.2065H45.0111V53.6723C45.0111 56.1202 46.9513 58.0409 49.4242 58.0409H56.9569C59.4297 58.0409 61.37 56.1202 61.37 53.6723V39.9137C61.37 37.5662 59.4297 35.6456 57.071 35.5451ZM29.4131 35.5451C28.4493 35.5451 27.6884 34.8045 27.6884 33.8379V26.3686C27.6884 25.4145 28.4366 24.6613 29.4131 24.6613H43.2991C44.2629 24.6613 45.0238 25.402 45.0238 26.3686V35.5451H29.4131ZM58.783 53.6723C58.783 54.6263 58.0348 55.3795 57.0583 55.3795H49.5256C48.5619 55.3795 47.801 54.6389 47.801 53.6723V38.2065H57.0583C58.0221 38.2065 58.783 38.9471 58.783 39.9137V53.6723ZM115.38 41.734L111.93 32.5574H108.164L113.541 45.3494L110.637 51.965H114.188L122.367 32.5574H118.816L115.38 41.734ZM131.523 38.7463C130.775 38.4324 129.912 38.219 129.152 38.0056C128.403 37.7922 127.757 37.5788 127.11 37.265C126.679 37.0515 126.463 36.7377 126.463 36.3109C126.463 35.8841 126.679 35.5702 126.996 35.3568C127.96 34.8296 129.037 34.93 130.014 35.4573C130.445 35.7711 130.661 36.1979 130.661 36.7377H133.894C133.894 35.4573 133.248 34.2898 132.284 33.5366C131.206 32.683 129.811 32.2561 128.517 32.3691C127.554 32.3691 126.577 32.4696 125.715 32.8964C124.967 33.2102 124.32 33.637 123.889 34.2772C123.458 34.8045 123.242 35.5577 123.242 36.2983C123.242 37.039 123.458 37.7922 123.889 38.4324C124.32 38.9597 124.853 39.3865 125.499 39.5999C126.248 39.9137 127.11 40.1271 127.972 40.3405C128.72 40.554 129.367 40.7674 130.128 41.0812C130.559 41.2946 130.775 41.6084 130.775 42.0353C130.775 42.4621 130.559 42.7759 130.242 42.9893C129.811 43.3032 129.278 43.4161 128.733 43.4161C128.188 43.4161 127.554 43.3157 127.123 42.8889C126.691 42.5751 126.476 42.1482 126.374 41.6084H123.026C123.026 42.4621 123.344 43.2027 123.889 43.8429C124.421 44.4832 125.182 45.1234 125.931 45.4372C126.894 45.864 127.871 46.0775 128.835 46.0775C129.798 46.0775 130.775 45.977 131.637 45.5502C132.385 45.2364 133.032 44.8096 133.463 44.1693C133.894 43.5291 134.11 42.8889 134.11 42.1482C134.11 41.4076 133.894 40.6544 133.362 40.0142C132.702 39.2735 132.17 38.9597 131.523 38.7463ZM142.074 35.2188C142.721 35.2188 143.253 35.3192 143.798 35.746C144.23 36.0598 144.547 36.5996 144.762 37.1269H148.414C148.097 35.746 147.337 34.566 146.259 33.7123C145.079 32.8587 143.672 32.4319 142.175 32.5449C140.996 32.5449 139.804 32.8587 138.726 33.3985C137.762 33.9257 136.9 34.7794 136.355 35.746C135.277 37.9805 135.277 40.6544 136.355 42.8889C136.887 43.8429 137.648 44.6966 138.726 45.2364C139.804 45.7636 140.983 46.09 142.175 46.09C143.684 46.09 145.079 45.6632 146.259 44.8096C147.337 43.9559 148.085 42.7885 148.414 41.395H144.864C144.547 42.5625 143.355 43.3157 142.175 43.2027C141.313 43.2027 140.451 42.8889 139.918 42.1357C139.389 41.2477 139.11 40.2355 139.11 39.2045C139.11 38.1734 139.389 37.1612 139.918 36.2732C140.349 35.5451 141.211 35.1183 142.074 35.2188ZM160.145 33.4111C160.145 33.6245 159.929 33.8379 159.713 33.8379C159.612 33.8379 159.498 33.8379 159.498 33.7374C159.181 33.4236 158.851 33.2102 158.42 32.9968C157.672 32.57 156.695 32.3566 155.833 32.3566C154.755 32.3566 153.677 32.6704 152.713 33.2102C151.75 33.7374 150.989 34.5911 150.558 35.5577C150.025 36.6247 149.695 37.9052 149.695 39.0727C149.695 40.3531 149.911 41.5206 150.558 42.7006C150.989 43.6546 151.737 44.5083 152.713 45.1485C153.677 45.6757 154.654 46.0021 155.732 46.0021C156.594 46.0021 157.558 45.7887 158.319 45.3619C159.067 45.0481 159.612 44.5083 160.145 43.8681V45.7887H163.48V32.5574H160.145V33.4111ZM159.713 41.1942C159.396 41.7214 158.965 42.2612 158.42 42.5751C157.887 42.8889 157.241 43.0019 156.695 43.0019C156.049 43.0019 155.516 42.7885 154.971 42.5751C154.438 42.2612 154.007 41.7214 153.677 41.1942C153.36 40.554 153.145 39.8133 153.145 39.1731C153.145 38.4324 153.259 37.7922 153.677 37.152C154.641 35.4447 156.695 34.9175 158.407 35.7711H158.521C159.054 36.0849 159.485 36.5118 159.815 37.152C160.36 38.4199 160.36 39.9137 159.713 41.1942ZM88.8123 33.4111C88.8123 33.6245 88.5967 33.8379 88.3812 33.8379C88.2797 33.8379 88.1656 33.8379 88.1656 33.7374C87.8485 33.4236 87.5188 33.2102 87.0877 32.9968C86.3395 32.57 85.363 32.3566 84.5007 32.3566C83.4228 32.3566 82.3449 32.6704 81.3811 33.2102C80.4173 33.7374 79.6564 34.5911 79.2253 35.5577C78.6926 36.6247 78.3629 37.9052 78.3629 39.0727C78.3629 40.3531 78.5785 41.5206 79.2253 42.7006C79.6564 43.6546 80.4046 44.5083 81.3811 45.1485C82.3449 45.6757 83.3213 46.0021 84.3992 46.0021C85.2616 46.0021 86.2253 45.7887 86.9862 45.3619C87.7344 45.0481 88.2797 44.5083 88.8123 43.8681V45.7887H92.1475V32.5574H88.8123V33.4111ZM88.267 41.1942C87.95 41.7214 87.5188 42.2612 86.9735 42.5751C86.4409 42.8889 85.7942 43.0019 85.2489 43.0019C84.6021 43.0019 84.0695 42.7885 83.5242 42.5751C82.9916 42.2612 82.5604 41.7214 82.2307 41.1942C81.9137 40.554 81.6981 39.8133 81.6981 39.1731C81.6981 38.4324 81.7996 37.7922 82.2307 37.152C83.1945 35.4447 85.2489 34.9175 86.9609 35.7711H87.0623C87.5949 36.0849 88.0261 36.5118 88.3558 37.152C88.9138 38.4199 88.9138 39.9137 88.267 41.1942ZM169.618 28.1888H166.282V45.7887H169.618V28.1888ZM185 38.8467C185 37.6792 184.784 36.4992 184.138 35.4322C183.605 34.4781 182.844 33.6245 181.766 33.1976C179.61 32.1306 177.036 32.1306 174.88 33.1976C173.917 33.7249 173.054 34.5785 172.509 35.5451C171.862 36.7126 171.647 37.8926 171.647 39.1731C171.647 40.4535 171.862 41.621 172.509 42.688C173.042 43.6421 173.904 44.4957 174.88 45.0355C175.958 45.5628 177.138 45.8892 178.317 45.8892C179.712 45.8892 181.12 45.4623 182.299 44.7217C183.377 43.981 184.125 42.801 184.455 41.6335H181.018C180.587 42.7006 179.509 43.3408 178.33 43.2278C177.581 43.2278 176.719 42.914 176.174 42.3742C175.527 41.847 175.21 40.9933 175.21 40.1397H184.899C185 39.7003 185 39.2735 185 38.8467ZM175.21 37.8926C175.311 37.039 175.641 36.2983 176.288 35.7585C176.935 35.2313 177.683 35.0179 178.444 35.0179C179.306 35.0179 180.054 35.2313 180.701 35.7585C181.348 36.2858 181.665 37.039 181.665 37.7796L175.21 37.8926ZM102.255 32.344C101.506 32.344 100.644 32.5574 99.9972 32.8713C99.5661 33.0847 99.1349 33.2981 98.8179 33.6119C98.7164 33.7123 98.5008 33.7123 98.3867 33.6119C98.3191 33.545 98.2853 33.4738 98.2853 33.3985V32.5449H94.9501V45.7636H98.2853V38.5077C98.1838 37.6541 98.5008 36.8005 99.1476 36.0598C99.6802 35.5326 100.543 35.2062 101.303 35.2062C102.064 35.2062 102.914 35.52 103.459 36.0598C103.992 36.7001 104.322 37.5537 104.207 38.5077V45.7636H107.543V37.9805C107.644 36.4866 107.226 34.9928 106.148 33.8253C105.159 32.8838 103.662 32.2436 102.255 32.344Z" fill="#234999"/>
</svg>
