<svg width="125" height="21" viewBox="0 0 125 21" fill="none" xmlns="http://www.w3.org/2000/svg">
<path d="M2 0H18V1H2V0Z" fill="#818CF8"/>
<path d="M1 2H2V1H1V2Z" fill="#818CF8"/>
<path d="M19 2H18V1H19V2Z" fill="#818CF8"/>
<path d="M19 2V15H18V16H2V15H1V2H0V18H1V19H2V20H18V19H19V18H20V2H19Z" fill="#818CF8"/>
<path d="M7 5H9V6H11V7H13V8H15V9H13V10H11V11H9V12H7V5Z" fill="#818CF8"/>
<path d="M30 1.66699H32.347V7.67599L34.296 6.36099H36.103C38.427 6.36099 40.329 8.23899 40.329 10.587V14.108C40.329 16.432 38.427 18.333 36.103 18.333H34.296L32.347 17.019V18.333H30V1.66699ZM32.347 14.178L35.023 15.986H36.103C37.136 15.986 37.981 15.141 37.981 14.108V10.587C37.981 9.55399 37.136 8.70899 36.103 8.70899H35.023L32.347 10.516V14.178Z" fill="#151515"/>
<path d="M54.4042 6.3623V18.3333H52.0572V17.0193L50.1082 18.3333H48.3012C45.9772 18.3333 44.0752 16.4323 44.0752 14.1083V10.5873C44.0752 8.2393 45.9772 6.3623 48.3012 6.3623H50.1082L52.0572 7.6763V6.3623H54.4042ZM46.4232 14.1083C46.4232 15.1413 47.2682 15.9863 48.3012 15.9863H49.3812L52.0572 14.1783V10.5163L49.3812 8.7093H48.3012C47.2682 8.7093 46.4232 9.5543 46.4232 10.5873V14.1083Z" fill="#151515"/>
<path d="M58.1514 14.3903H60.4984V14.8593C60.4984 15.5163 61.1084 15.9863 62.1184 15.9863H64.4894C65.5924 15.9863 66.1324 15.6103 66.1324 15.0243C66.1324 12.3713 58.3154 14.0853 58.3154 9.5313C58.3154 7.6293 59.8414 6.3623 62.0714 6.3623H64.3244C66.4374 6.3623 68.0804 7.8873 68.0804 9.8593V10.0703H65.7334V9.8593C65.7334 9.2023 65.1464 8.7093 64.3244 8.7093H62.0714C61.0854 8.7093 60.6624 9.0383 60.6624 9.5313C60.6624 11.4323 68.4794 10.2353 68.4794 15.0243C68.4794 16.9953 66.8604 18.3333 64.4894 18.3333H62.1184C59.8414 18.3333 58.1514 16.8553 58.1514 14.8593V14.3903Z" fill="#151515"/>
<path d="M82.5546 10.3523V12.8873H74.5726V14.0853C74.5726 15.1173 75.4186 15.9623 76.4506 15.9623H78.3286C79.3616 15.9623 80.2066 15.1173 80.2066 14.0853V13.8503H82.5546V14.0853C82.5546 16.4083 80.6766 18.3333 78.3286 18.3333H76.4506C74.1266 18.3333 72.2256 16.4083 72.2256 14.0853V10.5873C72.2256 8.2393 74.1266 6.3623 76.4506 6.3623H78.3286C80.6056 6.3623 82.4366 8.1223 82.5546 10.3523ZM74.5726 11.0093H80.2066V10.5873C80.2066 9.5313 79.3856 8.7093 78.3286 8.7093H76.4506C75.3946 8.7093 74.5726 9.5543 74.5726 10.5873V11.0093Z" fill="#151515"/>
<path d="M86.3018 6.3623H88.6488V8.23931L91.4418 6.3623H92.4048C94.7278 6.3623 96.6298 8.2393 96.6298 10.5873V11.5263H94.2818V10.5873C94.2818 9.5543 93.4368 8.7093 92.4048 8.7093H92.1698L88.6488 11.0803V18.3333H86.3018V6.3623Z" fill="#151515"/>
<path d="M110.705 18.3333H108.358V17.0193L106.409 18.3333H104.602C102.278 18.3333 100.377 16.4553 100.377 14.1083V6.3623H102.724V14.1083C102.724 15.1413 103.569 15.9863 104.602 15.9863H105.682L108.358 14.1783V6.3623H110.705V18.3333Z" fill="#151515"/>
<path d="M114.452 6.3623H116.799V7.6763L118.747 6.3623H120.555C122.879 6.3623 124.781 8.2393 124.781 10.5873V18.3333H122.433V10.5873C122.433 9.5543 121.588 8.7093 120.555 8.7093H119.476L116.799 10.5163V18.3333H114.452V6.3623Z" fill="#151515"/>
</svg>
