<svg width="400" height="400" viewBox="0 0 400 400" fill="none" xmlns="http://www.w3.org/2000/svg">
<g clip-path="url(#clip0_609_25)">
<rect width="400" height="400" fill="black"/>
<path d="M50.6013 184.036C52.4913 185.008 52.8153 187.33 51.4653 189.004C50.4933 190.3 48.9273 190.408 47.4153 189.652C45.6873 188.842 43.7433 188.41 41.6913 188.41C33.9693 188.41 29.2713 193.594 29.2713 201.1C29.2713 209.902 34.6173 214.06 41.6913 214.06C43.6353 214.06 45.6333 213.736 47.4153 212.818C48.9273 212.116 50.4933 212.278 51.5193 213.574C52.9233 215.41 52.4373 217.57 50.6553 218.434C47.8473 219.838 44.7693 220.54 41.6913 220.54C31.3773 220.54 22.2513 213.952 22.2513 201.1C22.2513 189.976 30.4053 181.93 41.6913 181.93C44.8773 181.93 47.9553 182.686 50.6013 184.036ZM87.2648 216.868C87.2648 218.704 85.8608 220 83.9708 220H66.4208C64.5308 220 63.1268 218.596 63.1268 216.706V185.494C63.1268 183.604 64.5308 182.2 66.5828 182.2C68.3108 182.2 69.8768 183.604 69.8768 185.494V213.682H83.9708C85.8608 213.682 87.2648 214.978 87.2648 216.868ZM132.828 201.1C132.828 211.846 125.16 220.54 114.468 220.54C103.776 220.54 96.1617 211.846 96.1617 201.1C96.1617 190.354 103.776 181.66 114.468 181.66C125.16 181.66 132.828 190.354 132.828 201.1ZM125.808 201.1C125.808 193.864 121.11 188.14 114.468 188.14C107.772 188.14 103.182 193.81 103.182 201.1C103.182 208.39 107.772 214.06 114.468 214.06C121.11 214.06 125.808 208.336 125.808 201.1ZM170.994 182.146C172.884 182.146 174.126 183.55 174.126 185.44V204.988C174.126 214.006 167.97 220.27 159.168 220.27C150.312 220.27 144.156 214.006 144.156 204.988V185.44C144.156 183.55 145.56 182.146 147.612 182.146C149.286 182.146 150.852 183.55 150.852 185.44V204.988C150.852 210.388 154.794 213.79 159.168 213.79C163.812 213.79 167.97 210.388 167.97 204.988V185.44C167.97 183.55 169.104 182.146 170.994 182.146ZM190.655 182.2H203.561C213.983 182.2 219.761 190.678 219.761 201.1C219.761 211.576 213.983 220 203.561 220H190.655C188.765 220 187.361 218.596 187.361 216.706V185.494C187.361 183.604 188.765 182.2 190.655 182.2ZM203.021 188.41H194.111V213.79H203.021C209.825 213.79 212.741 207.958 212.741 201.1C212.741 194.296 209.825 188.41 203.021 188.41ZM234.98 220C232.982 220 231.092 218.596 231.092 216.706V185.494C231.092 183.604 232.496 182.2 234.386 182.2H249.938C255.554 182.2 260.684 187.06 260.684 193.81C260.684 197.482 258.47 201.154 255.446 203.152C257.768 204.772 258.956 206.986 259.172 209.524C259.55 212.278 259.334 213.952 260.738 214.708C262.304 215.626 262.79 217.732 261.602 219.082C260.414 220.486 257.93 220.162 256.742 219.46C254.852 218.38 252.854 216.058 252.854 210.442C252.854 207.958 251.18 206.23 247.94 206.23H237.842V216.706C237.842 218.596 236.762 220 234.98 220ZM249.668 188.41H237.842V200.668H249.668C251.612 200.668 253.664 197.698 253.664 193.972C253.664 190.84 251.612 188.41 249.668 188.41ZM303.21 217.084C303.21 219.028 301.698 220.27 300.186 220.27C298.89 220.27 297.81 219.406 297.216 218.056L294.408 211.522H278.316L275.508 218.11C275.022 219.46 273.888 220.27 272.646 220.27C270.702 220.27 269.784 219.082 269.784 217.462C269.784 217.138 269.838 216.814 269.946 216.436L283.392 184.144C283.986 182.686 285.228 181.876 286.632 181.984C287.928 181.984 289.116 182.794 289.656 184.144L302.94 215.788C303.102 216.22 303.21 216.652 303.21 217.084ZM280.962 205.312H291.762L286.308 192.676L280.962 205.312ZM316.315 220C314.263 220 312.913 218.596 312.913 216.706V185.494C312.913 183.604 314.317 182.2 316.207 182.2H333.757C335.647 182.2 337.051 183.496 337.051 185.386C337.051 186.952 335.647 188.41 333.757 188.41H319.663V197.914H331.327C333.217 197.914 334.621 199.21 334.621 201.1C334.621 202.666 333.217 204.124 331.327 204.124H319.663V216.706C319.663 218.596 318.097 220 316.315 220ZM361.954 220C359.956 220 358.498 218.596 358.498 216.706V188.41H350.02C348.13 188.41 346.726 187.168 346.726 185.278C346.726 183.442 348.13 182.2 350.02 182.2H373.996C375.886 182.2 377.29 183.442 377.29 185.332C377.29 187.222 375.886 188.41 373.996 188.41H365.518V216.706C365.518 218.596 364.006 220 361.954 220Z" fill="#00E887"/>
</g>
<defs>
<clipPath id="clip0_609_25">
<rect width="400" height="400" fill="white"/>
</clipPath>
</defs>
</svg>
