<?xml version="1.0" encoding="UTF-8"?>
<!DOCTYPE svg PUBLIC "-//W3C//DTD SVG 1.1//EN" "http://www.w3.org/Graphics/SVG/1.1/DTD/svg11.dtd">
<svg xmlns="http://www.w3.org/2000/svg" version="1.1" width="600px" height="81px" style="shape-rendering:geometricPrecision; text-rendering:geometricPrecision; image-rendering:optimizeQuality; fill-rule:evenodd; clip-rule:evenodd" xmlns:xlink="http://www.w3.org/1999/xlink">
<g><path style="opacity:1" fill="#fbfcfc" d="M -0.5,-0.5 C 199.5,-0.5 399.5,-0.5 599.5,-0.5C 599.5,26.5 599.5,53.5 599.5,80.5C 399.5,80.5 199.5,80.5 -0.5,80.5C -0.5,53.5 -0.5,26.5 -0.5,-0.5 Z"/></g>
<g><path style="opacity:1" fill="#2372ad" d="M 30.5,2.5 C 41.8333,2.5 53.1667,2.5 64.5,2.5C 62.226,8.38127 59.3927,14.0479 56,19.5C 50.917,20.3071 45.7503,20.8071 40.5,21C 36.3214,27.0222 32.6547,33.3555 29.5,40C 33.1505,46.3233 36.8172,52.6566 40.5,59C 48.1667,59.3333 55.8333,59.6667 63.5,60C 67.6135,65.2748 70.6135,71.1082 72.5,77.5C 58.496,77.6666 44.496,77.4999 30.5,77C 22.7883,66.4176 15.955,55.2509 10,43.5C 9.33333,41.1667 9.33333,38.8333 10,36.5C 16.0904,24.6408 22.9237,13.3074 30.5,2.5 Z"/></g>
<g><path style="opacity:1" fill="#0b1c38" d="M 71.5,2.5 C 72.4959,2.41423 73.3292,2.74756 74,3.5C 77.9658,9.78598 81.4658,16.286 84.5,23C 81.7309,30.0416 78.0642,36.5416 73.5,42.5C 68.9605,35.4181 64.9605,28.0847 61.5,20.5C 64.8289,14.5099 68.1622,8.50995 71.5,2.5 Z"/></g>
<g><path style="opacity:1" fill="#0a1c38" d="M 103.5,2.5 C 104.496,2.41423 105.329,2.74756 106,3.5C 107.934,7.75943 110.268,11.7594 113,15.5C 113.667,17.8333 113.667,20.1667 113,22.5C 104,38.5 95,54.5 86,70.5C 84.6378,73.2356 82.8044,75.5689 80.5,77.5C 75.6652,71.5179 72.8319,64.8512 72,57.5C 82.5118,39.1393 93.0118,20.8059 103.5,2.5 Z"/></g>
<g><path style="opacity:1" fill="#0a1c38" d="M 130.5,2.5 C 131.675,2.28099 132.675,2.61432 133.5,3.5C 135.802,7.63296 138.302,11.633 141,15.5C 141.667,17.8333 141.667,20.1667 141,22.5C 130.642,41.2309 119.809,59.5642 108.5,77.5C 105.063,72.7229 101.897,67.7229 99,62.5C 98.3333,61.1667 98.3333,59.8333 99,58.5C 109.777,39.9407 120.277,21.274 130.5,2.5 Z"/></g>
<g><path style="opacity:1" fill="#0c1d3a" d="M 193.5,10.5 C 202.167,10.5 210.833,10.5 219.5,10.5C 219.335,12.8268 218.669,14.9935 217.5,17C 210.5,17.3333 203.5,17.6667 196.5,18C 192.667,19.1667 190.167,21.6667 189,25.5C 188.333,34.1667 188.333,42.8333 189,51.5C 189.758,55.9218 192.258,58.7551 196.5,60C 203.5,60.3333 210.5,60.6667 217.5,61C 219.464,63.1675 219.798,65.5008 218.5,68C 211.167,68.6667 203.833,68.6667 196.5,68C 187.752,66.9165 182.585,62.0831 181,53.5C 178.742,42.402 179.076,31.402 182,20.5C 184.818,15.8388 188.651,12.5055 193.5,10.5 Z"/></g>
<g><path style="opacity:1" fill="#0d1d39" d="M 359.5,62.5 C 359.435,59.5718 358.768,56.9052 357.5,54.5C 354.499,39.8293 351.499,25.1626 348.5,10.5C 351.448,10.2229 354.281,10.5562 357,11.5C 359.426,23.4788 361.759,35.4788 364,47.5C 364.098,49.6193 364.931,51.286 366.5,52.5C 370.905,38.9523 374.905,25.2856 378.5,11.5C 381.372,10.2175 384.205,10.2175 387,11.5C 390.531,23.7631 393.864,36.0964 397,48.5C 397.196,50.2861 398.029,51.6195 399.5,52.5C 402.508,38.8024 405.674,25.1357 409,11.5C 411.381,10.565 413.881,10.2317 416.5,10.5C 412.864,29.8725 408.531,49.0391 403.5,68C 400.571,68.7772 397.737,68.6105 395,67.5C 391.593,55.9448 388.593,44.2782 386,32.5C 385.361,29.8877 384.194,27.5543 382.5,25.5C 377.783,39.1822 373.616,53.1822 370,67.5C 367.263,68.6105 364.429,68.7772 361.5,68C 359.845,66.5557 359.178,64.7224 359.5,62.5 Z"/></g>
<g><path style="opacity:1" fill="#828a98" d="M 466.5,26.5 C 474.323,25.3439 482.323,25.1772 490.5,26C 491.737,26.2321 492.737,26.7321 493.5,27.5C 484.533,26.6175 475.533,26.2841 466.5,26.5 Z"/></g>
<g><path style="opacity:1" fill="#0b1c38" d="M 239.5,24.5 C 246.608,23.7498 253.275,25.0831 259.5,28.5C 261.499,30.4935 262.999,32.8268 264,35.5C 264.667,42.8333 264.667,50.1667 264,57.5C 263.169,62.6814 260.336,66.1814 255.5,68C 234.793,74.6798 224.793,67.3465 225.5,46C 223.671,34.3687 228.338,27.202 239.5,24.5 Z"/></g>
<g><path style="opacity:1" fill="#0f1f3b" d="M 315.5,24.5 C 322.184,23.8487 328.517,25.0154 334.5,28C 336.359,29.5578 337.859,31.3911 339,33.5C 339.667,38.1667 339.667,42.8333 339,47.5C 338.228,48.8491 337.061,49.6824 335.5,50C 327.507,50.4997 319.507,50.6664 311.5,50.5C 311.107,53.9297 311.773,57.0964 313.5,60C 321.419,61.1054 329.419,61.9388 337.5,62.5C 338.348,64.4086 338.682,66.4086 338.5,68.5C 329.109,68.8527 319.775,68.3527 310.5,67C 305.577,63.9423 303.077,59.4423 303,53.5C 301.928,45.9714 302.595,38.638 305,31.5C 307.998,28.2623 311.498,25.9289 315.5,24.5 Z"/></g>
<g><path style="opacity:1" fill="#0f1f3b" d="M 434.5,24.5 C 453.725,23.0348 460.725,31.3681 455.5,49.5C 446.859,50.498 438.192,50.8314 429.5,50.5C 428.769,54.6034 429.769,58.1034 432.5,61C 439.833,61.3333 447.167,61.6667 454.5,62C 456.229,63.7889 456.896,65.9556 456.5,68.5C 446.69,69.0734 437.023,68.24 427.5,66C 423.414,63.3352 421.247,59.5018 421,54.5C 420.161,47.4333 420.494,40.4333 422,33.5C 424.917,28.6369 429.083,25.6369 434.5,24.5 Z"/></g>
<g><path style="opacity:1" fill="#101f3b" d="M 563.5,24.5 C 570.257,23.7509 576.59,24.9175 582.5,28C 587.245,33.2693 588.745,39.436 587,46.5C 586.5,48.3333 585.333,49.5 583.5,50C 575.507,50.4997 567.507,50.6664 559.5,50.5C 558.994,54.0071 559.66,57.1737 561.5,60C 569.062,61.2669 576.729,61.9336 584.5,62C 586.016,63.897 586.683,66.0637 586.5,68.5C 578.826,68.6664 571.159,68.4997 563.5,68C 556.885,67.3835 552.719,63.8835 551,57.5C 550.333,50.5 550.333,43.5 551,36.5C 553.085,30.2462 557.252,26.2462 563.5,24.5 Z"/></g>
<g><path style="opacity:1" fill="#14233f" d="M 285.5,25.5 C 289.514,25.3345 293.514,25.5012 297.5,26C 299.831,27.7998 299.831,29.7998 297.5,32C 294.167,32.3333 290.833,32.6667 287.5,33C 285.671,33.2735 284.171,34.1068 283,35.5C 282.667,46.1667 282.333,56.8333 282,67.5C 279.599,68.6023 277.099,68.769 274.5,68C 273.346,56.5762 273.18,45.0762 274,33.5C 276.954,29.3497 280.787,26.683 285.5,25.5 Z"/></g>
<g><path style="opacity:1" fill="#0f1e3a" d="M 466.5,26.5 C 475.533,26.2841 484.533,26.6175 493.5,27.5C 497.123,29.0542 499.623,31.7209 501,35.5C 501.667,45.1667 501.667,54.8333 501,64.5C 500.167,65.3333 499.333,66.1667 498.5,67C 489.5,69 480.5,69 471.5,67C 466.272,64.5034 463.939,60.3367 464.5,54.5C 464.28,48.43 466.947,44.2634 472.5,42C 479.523,41.3766 486.523,41.5432 493.5,42.5C 494.155,38.6453 492.821,35.8119 489.5,34C 481.905,32.6439 474.238,32.1439 466.5,32.5C 465.709,30.3093 465.709,28.3093 466.5,26.5 Z"/></g>
<g><path style="opacity:1" fill="#0c1c38" d="M 505.5,26.5 C 508.572,26.1826 511.572,26.5159 514.5,27.5C 517.991,37.143 521.325,46.8097 524.5,56.5C 525.5,56.5 526.5,56.5 527.5,56.5C 530.678,46.7931 534.011,37.1265 537.5,27.5C 540.086,26.52 542.753,26.1866 545.5,26.5C 541.775,37.5072 537.942,48.5072 534,59.5C 532.667,62.1667 531.333,64.8333 530,67.5C 527.205,68.7825 524.372,68.7825 521.5,67.5C 515.876,53.923 510.543,40.2563 505.5,26.5 Z"/></g>
<g><path style="opacity:1" fill="#f3f4f5" d="M 238.5,31.5 C 242.846,31.3343 247.179,31.501 251.5,32C 253.378,33.5429 254.878,35.3762 256,37.5C 256.667,43.8333 256.667,50.1667 256,56.5C 255.315,59.0573 253.815,60.8906 251.5,62C 247.167,62.6667 242.833,62.6667 238.5,62C 237.069,61.5348 235.903,60.7014 235,59.5C 233.485,52.2325 233.152,44.8992 234,37.5C 235.277,35.2528 236.777,33.2528 238.5,31.5 Z"/></g>
<g><path style="opacity:1" fill="#f6f7f8" d="M 314.5,31.5 C 318.514,31.3345 322.514,31.5012 326.5,32C 328.521,32.513 330.021,33.6797 331,35.5C 331.497,38.146 331.664,40.8127 331.5,43.5C 324.833,43.5 318.167,43.5 311.5,43.5C 310.769,38.9275 311.769,34.9275 314.5,31.5 Z"/></g>
<g><path style="opacity:1" fill="#f7f7f8" d="M 432.5,31.5 C 436.846,31.3343 441.179,31.501 445.5,32C 449.114,34.9442 450.447,38.7775 449.5,43.5C 442.833,43.5 436.167,43.5 429.5,43.5C 428.769,38.9275 429.769,34.9275 432.5,31.5 Z"/></g>
<g><path style="opacity:1" fill="#f4f5f6" d="M 562.5,31.5 C 566.846,31.3343 571.179,31.501 575.5,32C 579.114,34.9442 580.447,38.7775 579.5,43.5C 572.825,43.6663 566.158,43.4996 559.5,43C 558.235,38.6628 559.235,34.8295 562.5,31.5 Z"/></g>
<g><path style="opacity:1" fill="#f2f3f4" d="M 477.5,47.5 C 482.337,47.1162 487.003,47.7829 491.5,49.5C 492.192,50.0253 492.692,50.6919 493,51.5C 495.897,59.9012 493.063,63.2345 484.5,61.5C 475.126,63.2699 471.293,59.6032 473,50.5C 474.409,49.2189 475.909,48.2189 477.5,47.5 Z"/></g>
<g><path style="opacity:1" fill="#89909c" d="M 357.5,54.5 C 358.768,56.9052 359.435,59.5718 359.5,62.5C 357.96,60.1617 357.294,57.4951 357.5,54.5 Z"/></g>
</svg>
