<svg width="221" height="34" viewBox="0 0 221 34" fill="none" xmlns="http://www.w3.org/2000/svg">
<path d="M51.0662 2.75964V13.279C49.5603 11.8482 47.5141 10.9668 45.2583 10.9668C40.637 10.9668 36.8906 14.6571 36.8906 19.2091C36.8906 23.761 40.637 27.4514 45.2583 27.4514C49.6872 27.4514 53.3111 24.0601 53.6032 19.7696L53.6257 19.7982V2.75964H51.0662ZM45.2583 24.9303C42.0494 24.9303 39.45 22.3697 39.45 19.2091C39.45 16.0484 42.0494 13.4878 45.2583 13.4878C48.4668 13.4878 51.0662 16.0484 51.0662 19.2091C51.0662 22.3697 48.4668 24.9303 45.2583 24.9303Z" fill="#1F034F"/>
<path d="M103.268 10.9667C98.8386 10.9667 95.2151 14.3582 94.9228 18.6486L94.9004 18.6199V32.7989H97.4599V25.1392C98.9658 26.5698 101.012 27.4513 103.268 27.4513C107.889 27.4513 111.636 23.7609 111.636 19.209C111.636 14.6571 107.889 10.9667 103.268 10.9667ZM103.268 24.9303C100.059 24.9303 97.4599 22.3697 97.4599 19.209C97.4599 16.0484 100.059 13.4877 103.268 13.4877C106.477 13.4877 109.076 16.0484 109.076 19.209C109.076 22.3697 106.477 24.9303 103.268 24.9303Z" fill="#1F034F"/>
<path d="M64.9632 10.9923C60.3554 10.9923 56.6203 14.6717 56.6203 19.2104C56.6203 23.7491 60.3554 27.4285 64.9632 27.4285C67.5157 27.4285 69.8006 26.2988 71.3291 24.5185L69.8073 22.7909C68.7029 24.2393 66.9445 25.1757 64.9632 25.1757C61.8795 25.1757 59.3357 22.9051 58.9565 19.9687H72.5987C72.6211 19.7181 72.6367 19.4654 72.6367 19.2104C72.6367 14.6717 69.5709 10.9923 64.9632 10.9923ZM59.0858 17.7729C59.7398 15.1728 62.1227 13.2452 64.9653 13.2452C67.8081 13.2452 69.5217 15.1728 70.1734 17.7729H59.0858Z" fill="#1F034F"/>
<path d="M83.8045 10.9923C79.1967 10.9923 75.4615 14.6717 75.4615 19.2104C75.4615 23.7491 79.1967 27.4285 83.8045 27.4285C86.3571 27.4285 88.6419 26.2988 90.1705 24.5185L88.6487 22.7909C87.5441 24.2393 85.7859 25.1757 83.8045 25.1757C80.7207 25.1757 78.1771 22.9051 77.7977 19.9687H91.4401C91.4623 19.7181 91.478 19.4654 91.478 19.2104C91.478 14.6717 88.4121 10.9923 83.8045 10.9923ZM77.9271 17.7729C78.5809 15.1728 80.9638 13.2452 83.8067 13.2452C86.6495 13.2452 88.3631 15.1728 89.0147 17.7729H77.9271Z" fill="#1F034F"/>
<path d="M146.753 17.4063V27.2598H145.768V17.4063C145.768 15.8985 145.336 14.6809 144.472 13.7555C143.609 12.8302 142.454 12.3664 141.011 12.3664C139.523 12.3664 138.3 12.8412 137.339 13.7885C136.377 14.7359 135.895 15.9426 135.895 17.4063V27.2598H134.911V3.02734H135.895V14.239C136.966 12.3642 138.684 11.4279 141.045 11.4279C142.794 11.4279 144.181 11.9774 145.21 13.0764C146.24 14.1753 146.753 15.6172 146.753 17.4063Z" fill="#1F034F"/>
<path d="M186.933 27.2598V3.02734H187.918V27.2598H186.933ZM189.886 18.5691L198.217 27.2598H196.905L188.54 18.5361L196.051 11.751H197.461L189.886 18.5691Z" fill="#1F034F"/>
<path d="M200.021 23.8945L200.808 23.3119C202.252 25.3364 203.977 26.3496 205.992 26.3496C207.151 26.3496 208.096 26.0749 208.828 25.5253C209.56 24.976 209.926 24.2066 209.926 23.2153C209.859 22.29 209.576 21.5998 209.075 21.1471C208.57 20.6944 207.662 20.1777 206.35 19.5953L204.975 18.982C203.64 18.3996 202.666 17.8194 202.056 17.2368C201.444 16.6545 201.136 15.9005 201.136 14.9751C201.136 13.7905 201.606 12.8652 202.547 12.197C203.486 11.487 204.612 11.131 205.924 11.131C207.87 11.131 209.522 11.9596 210.878 13.6191L210.158 14.2652C208.91 12.8014 207.478 12.0673 205.86 12.0673C204.812 12.0673 203.936 12.3201 203.236 12.8256C202.537 13.3311 202.188 14.0367 202.188 14.9423C202.209 15.3093 202.28 15.6258 202.402 15.8961C202.522 16.1664 202.624 16.3752 202.714 16.527C202.8 16.6785 203.037 16.8654 203.418 17.0918C203.8 17.3182 204.074 17.4699 204.238 17.5445C204.402 17.6193 204.822 17.8194 205.5 18.1424L206.976 18.7887C208.332 19.3711 209.337 19.9843 209.993 20.6305C210.648 21.2768 210.976 22.1163 210.976 23.1516C210.976 24.4439 210.484 25.4571 209.5 26.1892C208.538 26.9212 207.346 27.2881 205.924 27.2881C203.474 27.2881 201.507 26.1562 200.021 23.8945Z" fill="#1F034F"/>
<path d="M130.428 23.7715C129.1 25.3388 127.106 26.3345 124.872 26.3345C120.878 26.3345 117.64 23.1451 117.64 19.2108C117.64 15.2766 120.878 12.0873 124.872 12.0873C127.092 12.0873 129.078 13.0742 130.406 14.6259L131.124 14.0303C129.625 12.2785 127.382 11.1642 124.874 11.1642C120.36 11.1642 116.703 14.7689 116.703 19.2131C116.703 23.6596 120.363 27.2619 124.874 27.2619C127.402 27.2619 129.663 26.13 131.16 24.3542L130.428 23.7715Z" fill="#1F034F"/>
<path d="M182.396 23.7715C181.067 25.3388 179.072 26.3345 176.84 26.3345C172.845 26.3345 169.608 23.1451 169.608 19.2108C169.608 15.2766 172.845 12.0873 176.84 12.0873C179.06 12.0873 181.046 13.0742 182.373 14.6259L183.091 14.0303C181.593 12.2785 179.35 11.1642 176.841 11.1642C172.328 11.1642 168.67 14.7689 168.67 19.2131C168.67 23.6596 172.33 27.2619 176.841 27.2619C179.37 27.2619 181.629 26.13 183.127 24.3542L182.396 23.7715Z" fill="#1F034F"/>
<path d="M158.344 11.1583C153.83 11.1583 150.172 14.7629 150.172 19.2071C150.172 23.6515 153.832 27.2561 158.344 27.2561C160.884 27.2561 163.152 26.1152 164.652 24.3241L163.934 23.6956C162.611 25.2912 160.598 26.3109 158.344 26.3109C154.361 26.3109 151.133 23.1305 151.133 19.2071H165.623C165.623 14.7629 162.856 11.1583 158.344 11.1583ZM151.191 18.3192C151.634 14.8158 154.667 12.1034 158.344 12.1034C162.021 12.1034 164.161 14.8158 164.605 18.3192H151.191Z" fill="#1F034F"/>
<path d="M7.48611 15.0383L7.50842 15.067C7.80296 10.7765 11.4244 7.38513 15.8536 7.38513C15.8558 7.38513 15.858 7.38513 15.858 7.38513C15.8603 7.38513 15.8626 7.38513 15.8626 7.38513C18.1183 7.38513 20.1668 8.26648 21.6706 9.69737V1.08579C19.8744 0.386841 17.9153 0 15.8647 0C7.10232 0 0 6.99608 0 15.6274C0 21.2278 2.99223 26.1381 7.48611 28.8965V15.0383Z" fill="#00E6FF"/>
<path d="M24.2314 2.35156V16.2184L24.209 16.1898C23.9168 20.4802 20.2932 23.8716 15.8639 23.8716C15.8617 23.8716 15.8595 23.8716 15.8595 23.8716C15.8572 23.8716 15.8551 23.8716 15.8551 23.8716C13.5991 23.8716 11.5508 22.9904 10.0469 21.5594V30.1688C11.8498 30.87 13.8111 31.2591 15.8661 31.2591C24.6286 31.2591 31.7308 24.263 31.7308 15.6315C31.7308 10.0224 28.732 5.10998 24.2314 2.35156Z" fill="#007AFF"/>
<path d="M20.7068 12.4691C20.6554 12.735 20.5618 12.9966 20.4166 13.2427C19.7228 14.4274 18.1876 14.8319 16.985 14.1483C15.7822 13.4647 15.3717 11.9525 16.0655 10.7678C16.2552 10.4447 16.5097 10.181 16.7997 9.98098C16.4962 9.93263 16.1838 9.90625 15.8648 9.90625C12.6561 9.90625 10.0566 12.4669 10.0566 15.6275C10.0566 18.7882 12.6583 21.3488 15.8648 21.3488C19.0711 21.3488 21.673 18.7882 21.673 15.6275C21.673 14.4604 21.3183 13.3746 20.7068 12.4691Z" fill="#9D60FB"/>
<path d="M217.487 27.2876C218.873 27.2876 219.999 26.1796 219.999 24.8128C219.999 23.446 218.873 22.3378 217.487 22.3378C216.099 22.3378 214.973 23.446 214.973 24.8128C214.973 26.1796 216.099 27.2876 217.487 27.2876Z" fill="#9D60FB"/>
</svg>
