<svg width="1261" height="400" viewBox="0 0 1261 400" fill="none" xmlns="http://www.w3.org/2000/svg">
<path d="M229.3 297.9C229.3 299 229.3 300.2 229.3 301.3C220.1 299.7 211.5 296.5 203.9 291.8C184.3 280 170.7 259.4 168.5 235.4C168.3 233.2 168.2 230.9 168.2 228.6C168.2 225.9 168.3 223.3 168.6 220.8C169.6 211.5 172.3 202.8 176.4 194.8C185.7 201.4 194 209.3 201.2 218.2C218.7 240.1 229.3 267.8 229.3 297.9Z" fill="#191717"/>
<path d="M203.8 291.9C184.2 280.1 170.6 259.5 168.4 235.5C168.2 233.3 168.1 231 168.1 228.7C168.1 226 168.2 223.4 168.5 220.9C172.3 224.1 175.8 227.6 179 231.3C193.3 247.7 202.4 268.7 203.8 291.9Z" fill="#191717"/>
<path d="M245.1 155.1C244 155 242.9 155 241.7 155C213.2 155 188.5 171.2 176.2 194.9C172.1 202.8 169.4 211.6 168.4 220.9C168.1 223.5 168 226.1 168 228.7C168 231 168.1 233.3 168.3 235.5C170.5 259.4 184.1 280.1 203.7 291.9C211.4 296.5 220 299.8 229.1 301.4C233.2 302.1 237.3 302.5 241.6 302.5C282.3 302.5 315.3 269.5 315.3 228.8C315.5 189.2 284.3 156.9 245.1 155.1Z" fill="url(#paint0_radial_159_862)"/>
<path d="M144.8 241C144.3 237 144 232.9 144 228.7C144 221.1 144.9 213.6 146.5 206.5C133.2 200 118.2 196.4 102.4 196.4C82.7999 196.4 64.5999 201.9 49.0999 211.5C20.1999 229.4 0.899902 261.4 0.899902 297.8C0.899902 353.8 46.2999 399.3 102.4 399.3C151.6 399.3 192.6 364.3 201.9 317.8C171.5 304.3 149.2 275.4 144.8 241Z" fill="url(#paint1_radial_159_862)"/>
<path d="M249.9 121.3C249.9 124.7 249.8 128 249.5 131.3C246.9 131.1 244.4 131 241.7 131C204.4 131 171.9 152 155.5 182.8C139.4 175.3 121.4 171.1 102.5 171.1C76.4 171.1 52.1 179 31.9 192.6C17.2 172.6 8.5 147.9 8.5 121.2C8.5 54.5 62.5 0.5 129.2 0.5C195.9 0.6 249.9 54.6 249.9 121.3Z" fill="url(#paint2_radial_159_862)"/>
<path d="M399.7 113.1H510.9V131.8H419.4V192.4H505.9V210.8H419.4V275.9H513.4V295.1H399.7V113.1Z" fill="#436DAC"/>
<path d="M551.5 182.8C563.9 169.9 578.9 163.4 596.3 163.4C607.3 163.4 617.5 166.4 626.9 172.3C636.2 178.2 642.9 185.6 647 194.5V111.4H664.7V293.4H648.1L647.4 264C643.4 272.9 636.6 280.3 627.1 286.2C617.6 292.1 607.3 295.1 596.3 295.1C578.7 295.1 563.8 288.7 551.4 275.9C539 263.1 532.9 247.6 532.9 229.4C532.9 211.2 539.1 195.7 551.5 182.8ZM550.6 229.3C550.6 242.5 555.3 253.8 564.7 263.2C574.1 272.6 585.4 277.3 598.6 277.3C612 277.3 623.4 272.6 632.8 263.3C642.2 254 646.9 242.6 646.9 229.2C646.9 216 642.2 204.6 632.8 195.1C623.4 185.6 612 180.9 598.6 180.9C585.4 180.9 574.1 185.6 564.7 195.1C555.3 204.7 550.6 216 550.6 229.3Z" fill="#436DAC"/>
<path d="M713.7 190.4C725.2 178.2 739.2 172.2 755.6 172.2C772.6 172.2 786.7 178.2 797.9 190.3C809.2 202.4 814.8 217.2 814.8 234.7C814.8 238.1 814.6 241.2 814.2 243.8H713.5C715.2 254.6 720.3 263.6 728.7 270.8C737.1 278 746.9 281.6 758.2 281.6C773.9 281.6 786.1 275.5 795 263.4L808.5 272.1C802.9 280 795.7 286.2 786.7 290.8C777.7 295.4 768.2 297.7 758.3 297.7C740.8 297.7 726.1 291.6 714.2 279.3C702.3 267.1 696.4 252.2 696.4 234.7C696.2 217.4 702 202.7 713.7 190.4ZM798.1 229.5C797.7 217.9 793.5 208.1 785.6 200.1C777.7 192.1 767.7 188.1 755.6 188.1C744.1 188.1 734.2 192.1 726.1 200.2C718 208.3 713.7 218 713.3 229.5H798.1Z" fill="#436DAC"/>
<path d="M847.1 293.9V174.7H862.1L862.7 197.7C866.1 190.5 871.1 184.6 877.8 180C884.5 175.4 892.4 173.2 901.4 173.2C915.8 173.2 927.5 178.3 936.5 188.6C945.5 198.9 950 213.8 950 233.5V294H933.9V233.5C933.9 219.2 930.6 208.3 923.9 200.8C917.3 193.3 908.8 189.5 898.5 189.5C888.2 189.5 879.7 193.2 873.1 200.7C866.5 208.1 863.1 219.1 863.1 233.5V294H847.1V293.9Z" fill="#436DAC"/>
<path d="M1119.3 118.7H1142.6L1216.1 293.6H1193.1L1171.7 243H1090.4L1069.3 293.6H1045.8L1119.3 118.7ZM1165 225.1L1131 144.3L1097 225.1H1165Z" fill="#BDBDBD"/>
<path d="M1261 294.2H1242V118.7H1261V294.2Z" fill="#BDBDBD"/>
<defs>
<radialGradient id="paint0_radial_159_862" cx="0" cy="0" r="1" gradientUnits="userSpaceOnUse" gradientTransform="translate(175.434 267.328) scale(135.003 135.003)">
<stop offset="0.033249" stop-color="#F6C180"/>
<stop offset="0.9182" stop-color="#E08139"/>
</radialGradient>
<radialGradient id="paint1_radial_159_862" cx="0" cy="0" r="1" gradientUnits="userSpaceOnUse" gradientTransform="translate(39.1263 346.458) scale(166.088 166.088)">
<stop offset="0.033249" stop-color="#5C94B6"/>
<stop offset="0.9182" stop-color="#436CAB"/>
</radialGradient>
<radialGradient id="paint2_radial_159_862" cx="0" cy="0" r="1" gradientUnits="userSpaceOnUse" gradientTransform="translate(140.122 94.6371) scale(150.569 150.569)">
<stop offset="0.033249" stop-color="#E72F5F"/>
<stop offset="1" stop-color="#EE708C"/>
</radialGradient>
</defs>
</svg>
