<?xml version="1.0" encoding="UTF-8"?>
<!DOCTYPE svg PUBLIC "-//W3C//DTD SVG 1.1//EN" "http://www.w3.org/Graphics/SVG/1.1/DTD/svg11.dtd">
<svg xmlns="http://www.w3.org/2000/svg" version="1.1" width="492px" height="474px" style="shape-rendering:geometricPrecision; text-rendering:geometricPrecision; image-rendering:optimizeQuality; fill-rule:evenodd; clip-rule:evenodd" xmlns:xlink="http://www.w3.org/1999/xlink">
<g><path style="opacity:1" fill="#fefefe" d="M -0.5,-0.5 C 163.5,-0.5 327.5,-0.5 491.5,-0.5C 491.5,157.5 491.5,315.5 491.5,473.5C 327.5,473.5 163.5,473.5 -0.5,473.5C -0.5,315.5 -0.5,157.5 -0.5,-0.5 Z"/></g>
<g><path style="opacity:1" fill="#020202" d="M 103.5,162.5 C 107.167,162.5 110.833,162.5 114.5,162.5C 114.5,210.167 114.5,257.833 114.5,305.5C 110.833,305.5 107.167,305.5 103.5,305.5C 103.5,257.833 103.5,210.167 103.5,162.5 Z"/></g>
<g><path style="opacity:1" fill="#020202" d="M 193.5,162.5 C 193.5,165.5 193.5,168.5 193.5,171.5C 182.5,171.5 171.5,171.5 160.5,171.5C 160.179,176.695 160.513,181.695 161.5,186.5C 168.5,186.5 175.5,186.5 182.5,186.5C 182.5,189.833 182.5,193.167 182.5,196.5C 175.167,196.5 167.833,196.5 160.5,196.5C 160.5,202.167 160.5,207.833 160.5,213.5C 171.833,213.5 183.167,213.5 194.5,213.5C 194.5,216.5 194.5,219.5 194.5,222.5C 179.5,222.5 164.5,222.5 149.5,222.5C 149.5,202.5 149.5,182.5 149.5,162.5C 164.167,162.5 178.833,162.5 193.5,162.5 Z"/></g>
<g><path style="opacity:1" fill="#9f9f9f" d="M 201.5,161.5 C 201.5,181.833 201.5,202.167 201.5,222.5C 205.167,222.5 208.833,222.5 212.5,222.5C 212.5,202.167 212.5,181.833 212.5,161.5C 213.497,181.993 213.831,202.66 213.5,223.5C 209.167,223.5 204.833,223.5 200.5,223.5C 200.169,202.66 200.503,181.993 201.5,161.5 Z"/></g>
<g><path style="opacity:1" fill="#010101" d="M 201.5,161.5 C 205.167,161.5 208.833,161.5 212.5,161.5C 212.5,181.833 212.5,202.167 212.5,222.5C 208.833,222.5 205.167,222.5 201.5,222.5C 201.5,202.167 201.5,181.833 201.5,161.5 Z"/></g>
<g><path style="opacity:1" fill="#ababab" d="M 137.5,305.5 C 137.5,257.833 137.5,210.167 137.5,162.5C 133.833,162.5 130.167,162.5 126.5,162.5C 126.5,210.167 126.5,257.833 126.5,305.5C 125.501,257.67 125.168,209.67 125.5,161.5C 129.833,161.5 134.167,161.5 138.5,161.5C 138.832,209.67 138.499,257.67 137.5,305.5 Z"/></g>
<g><path style="opacity:1" fill="#000000" d="M 137.5,305.5 C 133.833,305.5 130.167,305.5 126.5,305.5C 126.5,257.833 126.5,210.167 126.5,162.5C 130.167,162.5 133.833,162.5 137.5,162.5C 137.5,210.167 137.5,257.833 137.5,305.5 Z"/></g>
<g><path style="opacity:1" fill="#838383" d="M 193.5,162.5 C 178.833,162.5 164.167,162.5 149.5,162.5C 149.5,182.5 149.5,202.5 149.5,222.5C 164.5,222.5 179.5,222.5 194.5,222.5C 179.342,223.496 164.009,223.83 148.5,223.5C 148.5,202.833 148.5,182.167 148.5,161.5C 163.676,161.171 178.676,161.504 193.5,162.5 Z"/></g>
<g><path style="opacity:1" fill="#747474" d="M 103.5,162.5 C 107.298,161.517 111.298,161.183 115.5,161.5C 115.832,209.67 115.499,257.67 114.5,305.5C 114.5,257.833 114.5,210.167 114.5,162.5C 110.833,162.5 107.167,162.5 103.5,162.5 Z"/></g>
<g><path style="opacity:1" fill="#9d9d9d" d="M 193.5,171.5 C 183.013,172.494 172.346,172.828 161.5,172.5C 161.5,177.167 161.5,181.833 161.5,186.5C 160.513,181.695 160.179,176.695 160.5,171.5C 171.5,171.5 182.5,171.5 193.5,171.5 Z"/></g>
<g><path style="opacity:1" fill="#080808" d="M 262.5,196.5 C 262.5,199.167 262.5,201.833 262.5,204.5C 251.654,204.172 240.987,204.506 230.5,205.5C 230.83,209.996 233.163,212.829 237.5,214C 244.259,215.978 249.593,214.144 253.5,208.5C 256.701,209.453 259.701,210.786 262.5,212.5C 259.81,218.022 255.477,221.522 249.5,223C 227,225.833 217.167,216 220,193.5C 225.036,181.809 233.87,176.975 246.5,179C 255.887,181.217 261.221,187.051 262.5,196.5 Z"/></g>
<g><path style="opacity:1" fill="#0d0d0d" d="M 322.5,178.5 C 341.298,177.77 349.965,186.77 348.5,205.5C 338.167,205.5 327.833,205.5 317.5,205.5C 319.483,214.119 324.817,216.952 333.5,214C 336.002,212.663 338.002,210.829 339.5,208.5C 342.539,209.569 345.539,210.735 348.5,212C 345.961,217.772 341.628,221.439 335.5,223C 314.254,225.973 304.421,216.806 306,195.5C 309.019,187.316 314.519,181.649 322.5,178.5 Z"/></g>
<g><path style="opacity:1" fill="#070707" d="M 393.5,191.5 C 393.5,201.833 393.5,212.167 393.5,222.5C 389.833,222.5 386.167,222.5 382.5,222.5C 382.953,211.73 382.453,201.063 381,190.5C 373.036,186.291 368.203,188.625 366.5,197.5C 365.507,205.65 365.174,213.983 365.5,222.5C 362.167,222.5 358.833,222.5 355.5,222.5C 355.5,208.167 355.5,193.833 355.5,179.5C 359.167,179.5 362.833,179.5 366.5,179.5C 366.34,181.199 366.506,182.866 367,184.5C 374.968,176.577 382.968,176.577 391,184.5C 392.411,186.65 393.245,188.984 393.5,191.5 Z"/></g>
<g><path style="opacity:1" fill="#0c0c0c" d="M 263.5,179.5 C 267.5,179.5 271.5,179.5 275.5,179.5C 278.556,189.168 281.723,198.835 285,208.5C 288.466,199.267 291.633,189.934 294.5,180.5C 298.107,179.511 301.774,179.177 305.5,179.5C 300.708,193.873 295.708,208.207 290.5,222.5C 286.893,223.489 283.226,223.823 279.5,223.5C 274.367,208.769 269.034,194.102 263.5,179.5 Z"/></g>
<g><path style="opacity:1" fill="#ececec" d="M 237.5,187.5 C 245.827,185.979 250.493,189.312 251.5,197.5C 244.5,197.5 237.5,197.5 230.5,197.5C 230.372,195.345 230.872,193.345 232,191.5C 233.98,190.251 235.813,188.918 237.5,187.5 Z"/></g>
<g><path style="opacity:1" fill="#ededed" d="M 323.5,187.5 C 327.544,186.958 331.211,187.791 334.5,190C 336.113,192.228 336.78,194.728 336.5,197.5C 329.8,197.83 323.134,197.497 316.5,196.5C 317.745,192.595 320.079,189.595 323.5,187.5 Z"/></g>
<g><path style="opacity:1" fill="#737373" d="M 393.5,191.5 C 394.494,201.987 394.828,212.654 394.5,223.5C 390.298,223.817 386.298,223.483 382.5,222.5C 386.167,222.5 389.833,222.5 393.5,222.5C 393.5,212.167 393.5,201.833 393.5,191.5 Z"/></g>
<g><path style="opacity:1" fill="#515151" d="M 355.5,179.5 C 355.5,193.833 355.5,208.167 355.5,222.5C 358.833,222.5 362.167,222.5 365.5,222.5C 365.174,213.983 365.507,205.65 366.5,197.5C 366.5,206.167 366.5,214.833 366.5,223.5C 362.5,223.5 358.5,223.5 354.5,223.5C 354.171,208.657 354.504,193.99 355.5,179.5 Z"/></g>
<g><path style="opacity:1" fill="#656565" d="M 262.5,196.5 C 263.477,199.287 263.81,202.287 263.5,205.5C 252.5,205.5 241.5,205.5 230.5,205.5C 240.987,204.506 251.654,204.172 262.5,204.5C 262.5,201.833 262.5,199.167 262.5,196.5 Z"/></g>
<g><path style="opacity:1" fill="#a2a2a2" d="M 182.5,196.5 C 175.687,197.491 168.687,197.825 161.5,197.5C 161.5,202.5 161.5,207.5 161.5,212.5C 172.679,212.172 183.679,212.505 194.5,213.5C 183.167,213.5 171.833,213.5 160.5,213.5C 160.5,207.833 160.5,202.167 160.5,196.5C 167.833,196.5 175.167,196.5 182.5,196.5 Z"/></g>
<g><path style="opacity:1" fill="#060606" d="M 242.5,243.5 C 246.167,243.5 249.833,243.5 253.5,243.5C 253.334,251.174 253.5,258.841 254,266.5C 259.269,261.755 265.436,260.255 272.5,262C 281.744,265.643 286.077,272.476 285.5,282.5C 285.822,299.013 277.822,306.847 261.5,306C 258.438,304.939 255.938,303.106 254,300.5C 253.506,302.134 253.34,303.801 253.5,305.5C 249.833,305.5 246.167,305.5 242.5,305.5C 242.5,284.833 242.5,264.167 242.5,243.5 Z"/></g>
<g><path style="opacity:1" fill="#020202" d="M 149.5,244.5 C 153.167,244.5 156.833,244.5 160.5,244.5C 160.5,261.5 160.5,278.5 160.5,295.5C 169.833,295.5 179.167,295.5 188.5,295.5C 188.5,298.833 188.5,302.167 188.5,305.5C 175.5,305.5 162.5,305.5 149.5,305.5C 149.5,285.167 149.5,264.833 149.5,244.5 Z"/></g>
<g><path style="opacity:1" fill="#0c0c0c" d="M 206.5,261.5 C 211.844,261.334 217.177,261.501 222.5,262C 227.667,263.833 231.167,267.333 233,272.5C 233.5,283.495 233.667,294.495 233.5,305.5C 229.833,305.5 226.167,305.5 222.5,305.5C 222.66,303.801 222.494,302.134 222,300.5C 213.79,307.629 205.123,308.296 196,302.5C 193.149,297.32 192.815,291.987 195,286.5C 196.731,284.383 198.898,282.883 201.5,282C 208.387,280.145 215.22,278.312 222,276.5C 221.774,271.634 219.108,269.634 214,270.5C 208.558,269.782 205.724,272.115 205.5,277.5C 201.833,277.5 198.167,277.5 194.5,277.5C 195.055,269.608 199.055,264.275 206.5,261.5 Z"/></g>
<g><path style="opacity:1" fill="#0b0b0b" d="M 302.5,260.5 C 312.032,259.843 320.032,263.01 326.5,270C 323.888,271.889 321.055,273.389 318,274.5C 313.92,270.542 309.087,269.042 303.5,270C 299.341,273.199 299.675,275.865 304.5,278C 310.754,278.784 316.754,280.45 322.5,283C 329.478,290.531 328.811,297.531 320.5,304C 308.765,308.906 298.432,306.906 289.5,298C 292.5,296.167 295.5,294.333 298.5,292.5C 303.587,297.825 309.42,298.825 316,295.5C 316.72,293.888 316.554,292.388 315.5,291C 310.232,289.454 304.899,288.121 299.5,287C 291.462,283.757 288.629,277.923 291,269.5C 294.045,265.406 297.878,262.406 302.5,260.5 Z"/></g>
<g><path style="opacity:1" fill="#f4f4f4" d="M 259.5,270.5 C 271.624,270.355 276.457,276.355 274,288.5C 269.356,298.66 263.023,299.993 255,292.5C 250.66,283.806 252.16,276.472 259.5,270.5 Z"/></g>
<g><path style="opacity:1" fill="#f0f0f0" d="M 218.5,284.5 C 219.833,284.5 221.167,284.5 222.5,284.5C 223.152,293.179 219.152,297.846 210.5,298.5C 205.699,297.866 203.865,295.2 205,290.5C 209.153,287.518 213.653,285.518 218.5,284.5 Z"/></g>
</svg>
