<?xml version="1.0" standalone="no"?>
<!DOCTYPE svg PUBLIC "-//W3C//DTD SVG 20010904//EN"
 "http://www.w3.org/TR/2001/REC-SVG-20010904/DTD/svg10.dtd">
<svg version="1.0" xmlns="http://www.w3.org/2000/svg"
 width="434.000000pt" height="353.000000pt" viewBox="0 0 434.000000 353.000000"
 preserveAspectRatio="xMidYMid meet">

<g transform="translate(0.000000,353.000000) scale(0.100000,-0.100000)"
fill="#000000" stroke="none">
<path d="M980 3461 c-25 -26 -44 -62 -62 -117 -45 -135 -91 -404 -104 -609
-11 -179 -34 -218 -179 -294 -327 -173 -540 -487 -601 -886 -21 -136 -14 -424
14 -545 74 -319 247 -573 506 -744 252 -167 569 -260 648 -190 49 44 53 69 58
399 l5 310 214 -329 c147 -225 224 -334 245 -347 62 -38 152 -15 193 48 16 24
18 59 21 365 l3 339 136 -3 136 -3 139 -335 c76 -184 146 -346 157 -360 25
-35 58 -50 113 -50 88 0 96 13 252 405 l138 346 61 -3 62 -3 5 -355 c3 -242 9
-361 17 -375 49 -86 149 -101 303 -47 260 92 494 275 646 503 148 222 214 453
214 749 0 384 -101 664 -321 895 -98 102 -185 167 -331 244 -121 65 -125 73
-144 301 -47 565 -95 730 -214 730 -23 0 -58 -8 -78 -17 -103 -47 -292 -304
-432 -583 -18 -36 -34 -66 -35 -68 -2 -2 -41 10 -86 26 -290 102 -688 99
-1020 -7 l-88 -28 -64 131 c-111 224 -288 466 -380 521 -64 37 -102 34 -147
-14z m2319 -168 c27 -102 55 -321 71 -549 17 -252 54 -323 203 -400 50 -26
119 -65 152 -87 79 -53 196 -167 251 -244 225 -312 257 -859 73 -1226 -129
-256 -378 -474 -647 -566 -34 -11 -73 -21 -87 -21 l-25 0 0 355 c0 393 -1 397
-63 435 -27 17 -51 20 -145 20 -122 0 -154 -9 -190 -54 -11 -14 -77 -170 -147
-346 -70 -177 -128 -320 -130 -318 -2 2 -62 146 -134 321 -73 175 -139 329
-147 342 -31 47 -68 55 -259 55 -197 0 -227 -7 -268 -64 -21 -30 -22 -40 -27
-346 l-5 -314 -221 339 c-122 187 -233 348 -248 359 -54 41 -129 21 -180 -48
-20 -26 -21 -42 -24 -378 l-3 -350 -41 6 c-119 19 -312 105 -437 194 -175 125
-298 279 -371 468 -31 82 -67 235 -72 314 l-3 45 410 2 c279 2 417 6 431 14
50 26 57 97 15 140 l-29 29 -413 0 -412 0 6 78 c19 222 118 447 269 607 88 94
161 149 279 212 178 96 221 170 239 417 16 213 60 477 92 557 l14 33 64 -79
c111 -139 204 -296 283 -471 28 -65 58 -92 116 -105 27 -6 60 0 155 31 194 61
292 75 511 74 213 -1 308 -16 452 -74 88 -36 146 -37 192 -3 14 11 61 85 104
164 121 223 293 469 328 469 4 0 13 -17 18 -37z"/>
<path d="M1821 2180 c-51 -12 -112 -60 -138 -109 -22 -43 -23 -52 -23 -291 0
-239 1 -248 23 -291 36 -68 93 -103 176 -107 76 -5 125 14 173 65 54 56 58 82
58 335 0 204 -3 238 -19 273 -27 60 -89 111 -150 124 -29 6 -55 11 -59 10 -4
-1 -22 -5 -41 -9z"/>
<path d="M3075 2181 c-69 -17 -116 -55 -151 -121 -17 -31 -19 -60 -19 -275 0
-238 0 -241 26 -290 37 -74 92 -108 178 -113 54 -3 76 0 108 16 51 27 99 81
112 129 14 50 14 457 0 506 -12 46 -67 109 -112 130 -42 19 -104 27 -142 18z"/>
</g>
</svg>
