<?xml version="1.0" encoding="UTF-8" ?>
<!DOCTYPE svg PUBLIC "-//W3C//DTD SVG 1.1//EN" "http://www.w3.org/Graphics/SVG/1.1/DTD/svg11.dtd">
<svg width="1125pt" height="1125pt" viewBox="0 0 1125 1125" version="1.1" xmlns="http://www.w3.org/2000/svg">
<g id="#1b1f23ff">
<path fill="#1b1f23" opacity="1.00" d=" M 460.70 11.75 C 556.26 -5.85 656.41 1.72 748.10 33.98 C 822.77 60.14 891.68 102.49 948.91 157.11 C 1024.00 228.42 1078.75 320.94 1104.71 421.21 C 1125.69 501.76 1128.42 586.98 1112.73 668.71 C 1111.95 672.84 1111.44 677.07 1109.95 681.03 C 1078.34 703.22 1045.35 723.58 1010.72 740.74 C 977.09 757.24 941.59 770.92 904.35 776.34 C 876.29 780.38 846.90 779.09 820.25 768.79 C 794.48 759.03 772.44 740.91 755.93 719.04 C 736.69 693.49 719.93 665.90 707.70 636.29 C 693.28 601.57 685.53 563.42 689.78 525.82 C 693.31 493.93 706.07 463.15 726.14 438.12 C 750.53 407.47 784.55 385.49 821.09 372.05 C 863.73 356.45 909.87 351.45 955.02 354.94 C 984.47 356.82 1013.54 362.70 1041.87 370.80 C 1011.64 330.04 973.42 294.86 929.18 269.82 C 892.05 248.90 850.55 235.40 808.01 231.98 C 765.25 228.03 721.85 234.31 681.39 248.42 C 632.66 265.45 588.35 293.67 549.93 327.91 C 534.19 341.80 519.77 357.09 505.21 372.20 C 452.89 426.86 399.68 480.73 344.00 531.99 C 290.29 581.39 234.53 628.74 175.04 671.07 C 131.03 702.15 84.99 730.92 35.30 752.05 C 33.06 747.53 31.77 742.62 30.16 737.86 C 0.42 647.58 -5.65 549.73 12.36 456.43 C 26.12 384.36 54.43 315.13 94.97 253.99 C 137.61 189.40 193.82 133.85 258.84 91.86 C 320.01 52.28 389.00 24.82 460.70 11.75 Z" />
</g>
<g id="#00aeefff">
<path fill="#00aeef" opacity="1.00" d=" M 681.39 248.42 C 721.85 234.31 765.25 228.03 808.01 231.98 C 850.55 235.40 892.05 248.90 929.18 269.82 C 973.42 294.86 1011.64 330.04 1041.87 370.80 C 1013.54 362.70 984.47 356.82 955.02 354.94 C 909.87 351.45 863.73 356.45 821.09 372.05 C 784.55 385.49 750.53 407.47 726.14 438.12 C 706.07 463.15 693.31 493.93 689.78 525.82 C 685.53 563.42 693.28 601.57 707.70 636.29 C 719.93 665.90 736.69 693.49 755.93 719.04 C 772.44 740.91 794.48 759.03 820.25 768.79 C 846.90 779.09 876.29 780.38 904.35 776.34 C 941.59 770.92 977.09 757.24 1010.72 740.74 C 1045.35 723.58 1078.34 703.22 1109.95 681.03 C 1106.37 700.84 1100.48 720.19 1094.36 739.36 C 1068.75 816.57 1025.98 887.98 970.11 947.09 C 916.15 1004.38 850.01 1050.19 777.29 1080.32 C 691.71 1116.04 597.13 1129.59 504.92 1120.05 C 415.09 1111.05 327.64 1079.61 252.54 1029.50 C 163.80 970.63 92.40 885.96 49.57 788.44 C 44.49 776.45 39.12 764.50 35.30 752.05 C 84.99 730.92 131.03 702.15 175.04 671.07 C 234.53 628.74 290.29 581.39 344.00 531.99 C 399.68 480.73 452.89 426.86 505.21 372.20 C 519.77 357.09 534.19 341.80 549.93 327.91 C 588.35 293.67 632.66 265.45 681.39 248.42 Z" />
</g>
</svg>
