<?xml version="1.0" encoding="utf-8"?>
<!-- Generator: Adobe Illustrator 26.3.1, SVG Export Plug-In . SVG Version: 6.00 Build 0)  -->
<svg version="1.1" id="Layer_1" xmlns="http://www.w3.org/2000/svg" xmlns:xlink="http://www.w3.org/1999/xlink" x="0px" y="0px"
	 viewBox="0 0 1358 213" style="enable-background:new 0 0 1358 213;" xml:space="preserve">
<style type="text/css">
	.st0{fill-rule:evenodd;clip-rule:evenodd;}
</style>
<path d="M604.87,168.68c33.04,0,47.14-17.79,53.61-28.65v25.19h27.73v-81.8h-83.65v25.88h53.61c-1.62,15.71-16.17,33.97-45.06,33.97
	c-28.88,0-51.3-21.26-51.3-58.69c0-37.66,23.57-58.69,52.22-58.69c25.88,0,38.82,15.02,45.75,34.2l29.11-11.09
	C678.35,23.57,654.78,0,612.03,0c-46.91,0-83.65,36.05-83.65,84.8C528.39,137.72,561.89,168.68,604.87,168.68z"/>
<path d="M743.64,32.12V3.24H713.6v28.88H743.64z M742.95,165.22V50.14h-28.19v115.07H742.95z"/>
<path d="M816.67,168.45c32.12,0,50.84-14.56,50.84-36.97c0-23.57-21.26-32.35-39.28-36.05l-15.02-2.77
	c-13.86-2.54-17.33-6.01-17.33-12.71c0-6.93,5.78-12.94,18.72-12.94c14.33,0,21.95,8.78,25.19,17.56l23.8-10.17
	c-4.85-12.94-19.18-27.73-47.83-27.73c-27.96,0-47.14,14.33-47.14,35.82c0,22.18,15.25,30.04,37.43,34.43l15.48,3
	c13.4,2.54,16.87,7.86,16.87,14.33c0,7.86-7.16,13.4-20.57,13.4c-20.8,0-26.34-14.1-27.96-20.57l-25.88,8.32
	C768.84,156.44,790.79,168.45,816.67,168.45z"/>
<path d="M1012.49,165.22l-54.77-68.63l48.76-46.45h-35.35l-51.53,51.07V61.23V3.47h-27.96v161.75h27.96v-32.35l18.49-17.56
	l38.82,49.91H1012.49z"/>
<path d="M1056.24,168.68c19.41,0,31.66-9.71,38.59-20.57c1.39,10.17,6.47,17.1,21.03,17.1h21.49v-22.18h-10.63
	c-6.01,0-6.93-1.39-6.93-6.93V89.66c0-28.19-17.33-42.98-48.99-42.98c-32.35,0-50.37,16.87-52.91,33.97l25.65,6.7
	c3-10.17,10.16-19.41,27.26-19.41c14.79,0,21.03,6.93,21.03,18.25v3.93c-37.67,3.47-72.33,13.4-72.33,45.52
	C1019.5,155.97,1034.75,168.68,1056.24,168.68z M1065.49,147.42c-11.56,0-17.33-5.55-17.33-14.33c0-16.64,20.1-21.95,43.67-24.49
	v9.24C1091.83,138.41,1078.89,147.42,1065.49,147.42z"/>
<path d="M1184.15,165.22v-48.53c0-28.19,10.63-39.97,34.9-39.97c4.15,0,8.31,0.23,12.47,0.69V48.76c-2.08-0.46-4.39-0.69-7.62-0.69
	c-25.65,0-36.28,18.25-40.21,27.5V50.14h-27.5v115.07H1184.15z"/>
<path d="M1291.64,168.68c19.88,0,32.35-11.09,37.67-19.64v16.17h27.5V3.47h-28.2v42.06v20.8c-5.31-8.55-17.33-19.64-36.97-19.64
	c-29.11,0-48.98,24.03-48.98,61C1242.66,144.65,1262.53,168.68,1291.64,168.68z M1300.89,146.5c-16.18,0-28.89-9.94-28.89-38.82
	c0-28.65,12.71-38.82,28.89-38.82c17.1,0,29.11,12.71,29.11,38.82C1330,133.79,1317.99,146.5,1300.89,146.5z"/>
<path class="st0" d="M318.78,21.94c10.42-8.12,23.24-12.54,36.45-12.56v0.03c7.09-0.1,14.13,1.2,20.71,3.84
	c6.58,2.64,12.57,6.56,17.62,11.54s9.06,10.91,11.8,17.45c2.74,6.54,4.15,13.56,4.15,20.65c0,7.09-1.41,14.11-4.15,20.65
	c-2.74,6.54-6.75,12.47-11.8,17.45c-5.05,4.98-11.04,8.9-17.62,11.54s-13.62,3.95-20.71,3.84l-67.92,0.16l-35.87,49.11L116.2,212.48
	l40.81-47.24c-23.69-2.16-46.43-10.35-66.06-23.8H45.11L0,101.46h55.73C60.38,44.84,115.97,0,183.59,0
	c31.71,0,63.58,9.86,87.47,27.04c10.46,7.36,19.49,16.57,26.65,27.18C300.95,41.42,308.36,30.06,318.78,21.94z M99.85,46.03
	l55.4,55.45h21.31l-64.81-64.87C107.57,39.47,103.6,42.62,99.85,46.03z M157.63,17.58l83.9,83.9h21.29l-86.21-86.22
	C170.24,15.58,163.9,16.36,157.63,17.58z M64.79,116.52H39.72l11.1,9.82h22.44C70.26,123.22,67.43,119.94,64.79,116.52z
	 M199.06,116.52H84.8l-0.03,0.01c20.8,20.91,51.79,33.67,84.66,34.3L199.06,116.52z M164.25,179.87l77.79-26.94l26.6-36.39h-49.68
	L164.25,179.87z M311.02,101.22h46.2l0.05,0.01c9.98-0.55,19.36-4.97,26.14-12.32c6.78-7.35,10.42-17.05,10.16-27.05
	c-0.26-9.99-4.41-19.49-11.56-26.48c-7.15-6.99-16.74-10.91-26.74-10.94c-11.73,0.01-22.98,4.68-31.27,12.97
	c-8.3,8.3-12.96,19.54-12.97,31.28v30.9V101.22z M362.84,48.39c5.27,0.52,9.12,5.22,8.6,10.49c-0.52,5.27-5.22,9.12-10.49,8.6
	s-9.12-5.22-8.6-10.49C352.88,51.72,357.57,47.87,362.84,48.39z"/>
</svg>
