<svg width="117" height="31" viewBox="0 0 117 31" fill="none" xmlns="http://www.w3.org/2000/svg">
<g id="logo">
<g id="Vector">
<path d="M11.7672 13.9966V13.0402C11.7672 11.4039 13.0968 10.0775 14.7369 10.0775H17.813C19.4531 10.0775 20.7826 11.4039 20.7826 13.0402V16.1509C20.7826 17.3757 20.1864 18.5403 19.1254 19.1563C18.0615 19.7739 17.0856 20.2256 16.1976 20.5114C14.8754 20.9312 13.3041 21.1411 11.4839 21.1411C9.24292 21.1411 7.41408 20.7599 5.99738 19.9974C4.58926 19.235 3.49453 18.1 2.7132 16.5923C1.94045 15.0846 1.55408 13.3541 1.55408 11.401C1.55408 9.34503 1.97909 7.55892 2.82911 6.04266C3.67913 4.51783 4.92411 3.36135 6.56406 2.57324C7.84338 1.96502 9.56489 1.66091 11.7286 1.66091C13.815 1.66091 15.3734 1.84937 16.4037 2.2263C17.4426 2.60322 18.3012 3.19002 18.9795 3.98671C19.0099 4.02152 19.0399 4.05675 19.0696 4.0924C20.1906 5.43933 19.0278 7.26016 17.3003 7.5678L14.8969 7.99581C14.665 7.2848 14.2701 6.74083 13.712 6.3639C13.1625 5.98698 12.4584 5.79851 11.5998 5.79851C10.3205 5.79851 9.29872 6.24397 8.53456 7.13488C7.77899 8.01723 7.4012 9.41785 7.4012 11.3367C7.4012 13.3756 7.78328 14.8319 8.54744 15.7056C9.32019 16.5794 10.3935 17.0163 11.7672 17.0163C12.4198 17.0163 13.0423 16.9221 13.6347 16.7336C14.0782 16.5925 14.5698 16.3771 15.1095 16.0872C15.4612 15.8983 15.6696 15.5257 15.6696 15.1273C15.6696 14.5028 15.1622 13.9966 14.5363 13.9966H11.7672Z" fill="#07F"/>
<path d="M22.75 25.9926V10.1767C22.75 8.32863 24.2571 6.83049 26.1161 6.83049H27.7597V8.88264C28.4522 8.01995 29.0878 7.43611 29.6663 7.13112C30.4465 6.72157 31.3099 6.51679 32.2566 6.51679C34.1238 6.51679 35.5658 7.22698 36.5826 8.64736C37.6082 10.0677 38.121 11.8236 38.121 13.915C38.121 16.2242 37.5644 17.9888 36.4511 19.2087C35.3379 20.42 33.9309 21.0256 32.2304 21.0256C31.4064 21.0256 30.6525 20.8862 29.9687 20.6073C29.2938 20.3285 28.6889 19.9146 28.1542 19.3656V22.6464C28.1542 24.4944 26.6471 25.9926 24.7881 25.9926H22.75ZM28.1148 13.8104C28.1148 14.9084 28.347 15.7231 28.8116 16.2547C29.2762 16.7862 29.8636 17.052 30.5736 17.052C31.196 17.052 31.7175 16.7993 32.1383 16.2939C32.5591 15.7798 32.7695 14.9127 32.7695 13.6928C32.7695 12.5687 32.5503 11.7452 32.112 11.2223C31.6737 10.6908 31.139 10.425 30.5079 10.425C29.8241 10.425 29.2543 10.6908 28.7985 11.2223C28.3427 11.7539 28.1148 12.6166 28.1148 13.8104Z" fill="#07F"/>
<path d="M55.3987 17.3657C55.3987 19.2138 53.8916 20.7119 52.0326 20.7119H50.4021V18.4637C49.657 19.3874 48.9031 20.0453 48.1405 20.4374C47.3866 20.8295 46.4574 21.0256 45.3529 21.0256C43.8803 21.0256 42.7232 20.5899 41.8816 19.7185C41.0489 18.8384 40.6325 17.4877 40.6325 15.6665V10.1767C40.6325 8.32863 42.1395 6.83049 43.9986 6.83049H46.0104V14.464C46.0104 15.3354 46.1725 15.9541 46.4969 16.32C46.8212 16.686 47.277 16.869 47.8644 16.869C48.5043 16.869 49.0258 16.625 49.4291 16.137C49.8411 15.6491 50.0471 14.7733 50.0471 13.5098V10.1767C50.0471 8.32863 51.5541 6.83049 53.4132 6.83049H55.3987V17.3657Z" fill="#07F"/>
<path d="M58.9357 4.89598C58.9357 3.04794 60.4428 1.5498 62.3018 1.5498H66.7724L69.7967 13.2091L72.1585 4.06391C72.5406 2.58432 73.8822 1.5498 75.4189 1.5498H80.6182V17.3657C80.6182 19.2138 79.1111 20.7119 77.2521 20.7119H75.7531V6.09851L72.6287 18.1977C72.2466 19.6774 70.905 20.7119 69.3683 20.7119H67.5745L63.8139 6.09851V17.3657C63.8139 19.2138 62.3069 20.7119 60.4478 20.7119H58.9357V4.89598Z" fill="#07F"/>
<path d="M88.9546 11.3269L86.103 11.0281C84.8943 10.9015 83.9665 9.68621 84.6681 8.69964C85.0362 8.18552 85.5622 7.74111 86.2459 7.3664C86.7368 7.09627 87.4118 6.88713 88.2709 6.73899C89.1299 6.59086 90.0591 6.51679 91.0584 6.51679C92.6626 6.51679 93.9512 6.60828 94.9242 6.79128C95.8972 6.96556 96.708 7.3359 97.3567 7.90231C97.8126 8.29444 98.172 8.85214 98.4349 9.5754C98.6979 10.29 98.8294 10.974 98.8294 11.6276V17.7579C98.8294 18.4114 98.8688 18.9255 98.9477 19.3002C99.1112 19.9828 98.6794 20.7119 97.9736 20.7119H94.4771C94.2755 20.3546 94.144 20.0845 94.0827 19.9015C94.0213 19.7098 93.9599 19.4135 93.8986 19.0127C93.1973 19.6836 92.5004 20.1629 91.8079 20.4505C90.8612 20.8339 89.7611 21.0256 88.5075 21.0256C86.842 21.0256 85.5753 20.6422 84.7075 19.8754C83.8484 19.1085 83.4189 18.1631 83.4189 17.0389C83.4189 15.9846 83.7301 15.1175 84.3525 14.4378C84.9749 13.7581 86.1232 13.2527 87.7975 12.9216C89.8049 12.5207 91.1066 12.2419 91.7027 12.085C92.2988 11.9195 92.9299 11.706 93.5962 11.4446C93.5962 10.791 93.4603 10.3335 93.1885 10.0721C92.9168 9.81068 92.439 9.67997 91.7553 9.67997C90.8787 9.67997 90.2213 9.81939 89.783 10.0982C89.4411 10.3161 89.165 10.7257 88.9546 11.3269ZM93.5962 14.1241C92.8598 14.3855 92.0928 14.6165 91.2951 14.8169C90.2081 15.1044 89.52 15.3876 89.2307 15.6665C88.9327 15.9541 88.7837 16.2808 88.7837 16.6468C88.7837 17.0651 88.9283 17.4093 89.2176 17.6794C89.5156 17.9408 89.9495 18.0716 90.5193 18.0716C91.1154 18.0716 91.6676 17.9278 92.1761 17.6402C92.6933 17.3526 93.057 17.0041 93.2674 16.5945C93.4866 16.1763 93.5962 15.636 93.5962 14.9737V14.1241Z" fill="#07F"/>
<path d="M102.222 4.89598C102.222 3.04794 103.729 1.5498 105.588 1.5498H107.587V17.3657C107.587 19.2138 106.079 20.7119 104.22 20.7119H102.222V4.89598Z" fill="#07F"/>
<path d="M111.189 4.89598C111.189 3.04794 112.696 1.5498 114.555 1.5498H116.554V17.3657C116.554 19.2138 115.047 20.7119 113.188 20.7119H111.189V4.89598Z" fill="#07F"/>
</g>
</g>
</svg>
