<?xml version="1.0" standalone="no"?>
<!DOCTYPE svg PUBLIC "-//W3C//DTD SVG 20010904//EN"
 "http://www.w3.org/TR/2001/REC-SVG-20010904/DTD/svg10.dtd">
<svg version="1.0" xmlns="http://www.w3.org/2000/svg"
 width="640.000000pt" height="327.000000pt" viewBox="0 0 640.000000 327.000000"
 preserveAspectRatio="xMidYMid meet">

<g transform="translate(0.000000,327.000000) scale(0.100000,-0.100000)"
fill="#000000" stroke="none">
<path d="M1654 2017 c-3 -8 -4 -47 -2 -88 l3 -74 85 0 85 0 3 79 c2 57 -1 82
-10 87 -23 15 -158 11 -164 -4z"/>
<path d="M1382 1948 c-6 -8 -18 -44 -28 -82 -20 -80 -22 -77 79 -102 80 -19
76 -22 102 73 12 42 14 68 8 74 -6 6 -32 16 -59 23 -27 7 -58 16 -70 20 -13 4
-25 1 -32 -6z"/>
<path d="M3265 1920 c-35 -38 10 -88 62 -69 30 11 39 46 17 70 -22 25 -56 24
-79 -1z"/>
<path d="M2090 1635 l0 -285 40 0 40 0 0 125 0 125 145 0 145 0 0 -125 0 -125
40 0 40 0 0 285 0 285 -40 0 -40 0 0 -125 0 -125 -145 0 -145 0 0 125 0 125
-40 0 -40 0 0 -285z"/>
<path d="M3090 1635 l0 -285 40 0 40 0 0 285 0 285 -40 0 -40 0 0 -285z"/>
<path d="M1052 1793 l3 -88 76 -3 c96 -4 101 2 97 100 l-3 73 -88 3 -88 3 3
-88z"/>
<path d="M2733 1761 c-64 -30 -97 -86 -102 -178 -4 -91 15 -149 65 -192 79
-70 222 -62 283 15 29 37 26 50 -10 58 -26 5 -38 0 -66 -24 -72 -63 -193 -14
-193 80 0 19 5 20 150 20 l150 0 0 38 c0 86 -43 162 -107 188 -46 20 -121 17
-170 -5z m132 -55 c33 -14 65 -59 65 -91 0 -13 -17 -15 -110 -15 -93 0 -110 2
-110 16 0 36 39 81 85 96 30 9 33 9 70 -6z"/>
<path d="M3267 1774 c-4 -4 -7 -101 -7 -216 l0 -208 45 0 45 0 -2 213 -3 212
-35 3 c-20 2 -39 0 -43 -4z"/>
<path d="M3535 1764 c-78 -40 -110 -100 -109 -204 0 -118 42 -181 141 -210 50
-15 117 -7 157 19 35 23 66 69 66 99 0 19 -5 22 -35 22 -28 0 -38 -5 -47 -26
-13 -28 -55 -54 -88 -54 -33 0 -78 28 -93 58 -55 109 -4 242 92 242 41 0 91
-31 91 -56 0 -10 12 -14 40 -14 47 0 52 16 20 67 -39 65 -163 95 -235 57z"/>
<path d="M3965 1766 c-119 -53 -154 -238 -68 -354 78 -105 258 -88 320 32 59
112 18 272 -80 317 -49 22 -129 24 -172 5z m144 -72 c76 -54 64 -240 -18 -274
-40 -16 -92 -6 -120 24 -58 61 -51 199 12 248 28 22 95 23 126 2z"/>
<path d="M4320 1565 l0 -215 40 0 40 0 0 135 c0 186 18 225 104 225 22 0 45
-9 63 -24 28 -24 28 -26 30 -153 2 -70 3 -140 3 -155 0 -26 3 -28 40 -28 l40
0 0 143 c0 78 -5 160 -10 181 -13 57 -57 97 -113 103 -62 7 -95 -3 -129 -39
l-28 -30 0 36 c0 35 -1 36 -40 36 l-40 0 0 -215z"/>
<path d="M4865 1764 c-76 -41 -108 -100 -109 -194 -1 -83 17 -132 61 -175 82
-79 252 -65 299 26 19 37 19 36 -21 43 -30 6 -38 3 -59 -21 -21 -25 -31 -28
-81 -28 -51 0 -59 3 -86 33 -18 20 -29 43 -29 62 l0 30 151 0 152 0 -6 54 c-7
67 -37 128 -79 157 -42 31 -148 37 -193 13z m152 -71 c19 -13 43 -60 43 -84 0
-5 -49 -9 -110 -9 -107 0 -110 1 -110 23 0 34 41 78 80 86 40 8 65 4 97 -16z"/>
<path d="M1638 1723 c-38 -21 -68 -44 -68 -51 0 -16 66 -128 80 -137 10 -6
135 60 146 76 6 11 -66 141 -81 145 -5 2 -40 -13 -77 -33z"/>
<path d="M1050 1566 c0 -97 -1 -96 95 -96 42 0 66 5 74 14 7 9 11 42 9 88 l-3
73 -87 3 -88 3 0 -85z"/>
<path d="M1287 1643 c-4 -3 -7 -41 -7 -84 0 -89 0 -89 90 -89 90 0 90 0 90 96
l0 84 -83 0 c-46 0 -87 -3 -90 -7z"/>
<path d="M1050 1335 l0 -86 88 3 87 3 0 80 0 80 -87 3 -88 3 0 -86z"/>
<path d="M1280 1335 l0 -85 90 0 90 0 0 85 0 85 -90 0 -90 0 0 -85z"/>
<path d="M1514 1407 c-3 -8 -4 -45 -2 -83 l3 -69 88 -3 87 -3 1 51 c4 131 12
120 -86 120 -63 0 -87 -4 -91 -13z"/>
</g>
</svg>
