<?xml version="1.0" standalone="no"?>
<!DOCTYPE svg PUBLIC "-//W3C//DTD SVG 20010904//EN"
 "http://www.w3.org/TR/2001/REC-SVG-20010904/DTD/svg10.dtd">
<svg version="1.0" xmlns="http://www.w3.org/2000/svg"
 width="170.000000pt" height="170.000000pt" viewBox="0 0 170.000000 170.000000"
 preserveAspectRatio="xMidYMid meet">

<g transform="translate(0.000000,170.000000) scale(0.100000,-0.100000)"
fill="#000000" stroke="none">
<path d="M504 1230 c-32 -13 -63 -57 -79 -114 -38 -131 -38 -405 0 -534 21
-69 60 -113 102 -114 18 -1 40 5 48 12 22 18 58 91 79 160 10 30 20 62 23 70
3 9 15 -13 28 -50 86 -250 198 -259 276 -21 12 36 25 70 29 74 4 5 13 -13 19
-40 16 -63 57 -152 83 -180 23 -25 66 -30 99 -13 26 14 54 72 70 145 18 79 18
369 0 450 -27 121 -77 176 -142 153 -33 -11 -80 -94 -105 -186 -10 -34 -21
-59 -24 -55 -4 4 -17 37 -28 72 -57 171 -131 219 -205 132 -24 -29 -87 -175
-87 -203 0 -24 -17 8 -34 67 -28 91 -62 153 -96 170 -16 8 -30 15 -32 14 -2 0
-13 -4 -24 -9z m62 -110 c12 -25 36 -95 54 -157 l31 -111 -31 -114 c-58 -210
-98 -255 -132 -150 -26 78 -39 257 -28 371 22 205 59 261 106 161z m326 -5
c15 -27 41 -98 58 -157 l32 -108 -32 -108 c-17 -59 -43 -130 -58 -157 -37 -68
-58 -66 -93 5 -31 63 -79 221 -79 260 0 32 43 183 68 236 46 102 62 106 104
29z m297 42 c46 -56 64 -403 28 -536 -40 -146 -76 -118 -142 109 -32 113 -33
126 -5 222 57 197 85 245 119 205z"/>
</g>
</svg>
