<svg version="1.1" id="Layer_1" xmlns="http://www.w3.org/2000/svg" xmlns:xlink="http://www.w3.org/1999/xlink" x="0px" y="0px"
	 width="100%" viewBox="0 0 3108 523" enable-background="new 0 0 3108 523" xml:space="preserve">
<path fill="#FFFFFF" opacity="1.000000" stroke="none" 
	d="
M1.000005,280.000000 
	C1.000000,187.049942 1.000000,94.099876 1.000000,1.000000 
	C166.028000,1.000000 331.056061,1.000000 496.428833,1.359257 
	C493.776337,2.625703 492.935791,4.696544 492.950714,7.720904 
	C493.047058,27.217148 492.988220,46.714115 493.008514,66.210815 
	C493.013458,70.966072 495.067444,72.987717 499.881561,72.992409 
	C518.878357,73.010910 537.875122,73.008224 556.871948,72.994682 
	C562.147522,72.990921 563.989319,71.176224 563.993774,65.957375 
	C564.009705,47.127224 563.881958,28.295689 564.098694,9.468019 
	C564.142517,5.664612 563.254333,2.914756 560.000000,1.000000 
	C767.361389,1.000000 974.722717,1.000000 1182.375610,1.399416 
	C1169.375244,2.057339 1156.645264,5.001935 1144.392212,10.023897 
	C1126.952515,17.171682 1112.393066,28.089972 1102.057129,43.991074 
	C1090.486572,61.791939 1085.929565,81.650589 1085.994141,102.711990 
	C1086.027832,113.709473 1086.001221,124.707130 1085.999512,135.704712 
	C1085.998535,142.311615 1084.292358,143.993637 1077.501953,143.996552 
	C1055.840088,144.005844 1034.178223,143.995651 1012.516296,144.002838 
	C1006.633362,144.004791 1005.005127,145.668900 1005.002014,151.653503 
	C1004.995483,164.317383 1004.992065,176.981262 1005.003662,189.645142 
	C1005.008728,195.192307 1006.796448,196.993729 1012.315063,196.996109 
	C1034.310181,197.005569 1056.305420,196.982803 1078.300537,197.011719 
	C1084.029785,197.019257 1085.995850,199.012741 1085.997803,204.594162 
	C1086.003906,222.090317 1086.000000,239.586456 1086.000000,257.082611 
	C1086.000000,340.897491 1085.998169,424.712372 1086.003418,508.527252 
	C1086.003784,515.303894 1087.688599,516.998901 1094.320557,516.999573 
	C1109.650513,517.001038 1124.980469,517.000061 1140.310425,517.000000 
	C1148.778931,517.000000 1149.999756,515.791321 1149.999756,507.396912 
	C1150.000000,406.919037 1149.999512,306.441162 1150.001221,205.963272 
	C1150.001343,198.703918 1151.701782,197.002075 1158.953735,197.001312 
	C1188.947144,196.998199 1218.940552,197.000992 1248.933960,196.999207 
	C1255.176880,196.998825 1256.985718,195.173721 1256.994995,188.772705 
	C1257.012695,176.608734 1257.011963,164.444702 1256.995117,152.280731 
	C1256.985840,145.690430 1255.227905,144.000412 1248.487549,144.000275 
	C1218.327515,143.999664 1188.167480,144.009293 1158.007446,143.992249 
	C1151.897217,143.988785 1150.002319,142.108734 1150.001343,136.213913 
	C1149.997681,113.385605 1149.999756,90.557297 1150.000122,67.728989 
	C1150.000366,59.501884 1151.479370,58.004917 1159.704956,58.002747 
	C1187.198853,57.995491 1214.692871,58.001804 1242.186768,57.998566 
	C1248.107178,57.997868 1249.978516,56.117363 1249.991821,50.019787 
	C1250.018921,37.689228 1249.833008,25.355145 1250.085571,13.029704 
	C1250.181274,8.359277 1249.447998,4.306052 1246.000000,1.000000 
	C1866.885620,1.000000 2487.771240,1.000000 3109.000000,1.000000 
	C3109.000000,133.361176 3109.000000,265.722626 3108.600586,398.375732 
	C3108.138672,385.969391 3105.200195,373.827087 3099.731201,362.513428 
	C3087.964111,338.169373 3068.306885,322.611053 3043.392334,312.931946 
	C3023.768555,305.308167 3003.124023,303.371246 2982.527588,301.026398 
	C2966.779297,299.233490 2951.031494,297.309906 2935.232178,296.129913 
	C2924.622559,295.337494 2914.258545,293.761261 2904.385498,289.921600 
	C2893.657227,285.749451 2885.154297,278.903870 2882.046387,267.233917 
	C2878.915771,255.478409 2879.563232,243.545090 2880.915283,231.552826 
	C2882.467773,217.781097 2890.136719,208.769836 2901.913818,202.550827 
	C2915.656250,195.294159 2930.810547,194.083481 2945.795166,193.179703 
	C2962.700439,192.160065 2979.666748,192.893082 2996.263184,197.016068 
	C3009.577637,200.323624 3020.971680,206.431747 3028.290039,218.734833 
	C3033.995850,228.327332 3035.573242,239.026489 3036.864502,249.739151 
	C3037.410645,254.268265 3039.885254,255.885208 3043.523682,255.920944 
	C3061.185059,256.094452 3078.849854,256.103485 3096.511230,255.918716 
	C3100.441162,255.877609 3103.534180,254.018326 3102.995117,249.192596 
	C3102.688477,246.447586 3102.577148,243.652100 3101.963379,240.974335 
	C3094.587158,208.787460 3077.043701,183.209702 3050.345459,164.194946 
	C3027.187256,147.701584 3000.667725,139.360382 2972.586914,137.263107 
	C2954.607422,135.920288 2936.459473,136.309708 2918.612793,140.895676 
	C2894.872070,146.996277 2873.538574,157.614960 2855.065918,173.579208 
	C2841.202881,185.559677 2829.789551,199.779648 2823.184814,217.041260 
	C2819.819580,225.835419 2817.051514,235.250916 2816.339844,244.563370 
	C2815.533691,255.112976 2816.642822,265.961273 2818.162842,276.500427 
	C2820.421875,292.165924 2827.312256,306.172333 2837.681641,318.017548 
	C2855.210693,338.041473 2878.271729,348.308533 2903.977051,352.885925 
	C2915.355957,354.912170 2926.959229,355.681793 2938.461914,357.011536 
	C2952.892090,358.679779 2967.297119,360.637329 2981.761963,361.913818 
	C2995.700684,363.143799 3009.545654,364.597351 3022.580078,370.042236 
	C3033.950439,374.792053 3042.494141,382.456848 3043.863281,395.347504 
	C3044.907471,405.180298 3045.278564,415.182312 3044.749512,425.044739 
	C3044.468994,430.276672 3042.265137,435.693970 3039.826904,440.463959 
	C3034.056885,451.752533 3023.517822,457.067627 3012.084717,461.044586 
	C2996.456299,466.480865 2980.112305,466.954468 2963.885498,467.865936 
	C2956.009033,468.308411 2948.000732,467.788574 2940.145264,466.889404 
	C2929.362061,465.655060 2918.419434,464.564941 2907.994873,461.748108 
	C2893.525635,457.838318 2881.879883,449.349365 2876.445068,434.687897 
	C2873.893799,427.804932 2872.317627,420.465607 2871.145264,413.196686 
	C2870.229980,407.523315 2869.035645,405.058228 2864.286133,405.035522 
	C2846.123779,404.948608 2827.960449,404.977875 2809.797607,405.018646 
	C2806.016357,405.027161 2803.975830,407.128540 2804.052246,410.875061 
	C2804.098145,413.127686 2804.604492,415.380280 2805.005127,417.614807 
	C2808.623291,437.812988 2817.488770,455.654541 2830.742920,471.050232 
	C2845.072266,487.694885 2862.472168,500.467499 2882.885498,509.042328 
	C2898.307617,515.520630 2914.146484,520.181641 2930.798828,522.038086 
	C2934.558838,522.457275 2938.267578,523.333923 2942.000000,524.000000 
	C2836.971924,524.000000 2731.944092,524.000000 2626.621582,523.602600 
	C2640.082275,522.799011 2653.362061,519.652649 2666.239258,515.212830 
	C2694.485596,505.473816 2718.815918,490.090088 2736.997314,465.659698 
	C2750.425781,447.615967 2757.211182,427.500549 2757.870850,405.271790 
	C2758.052979,399.127502 2756.820312,392.915649 2755.972656,386.771240 
	C2753.561035,369.290863 2746.121094,354.069763 2734.431641,340.999023 
	C2723.621094,328.911011 2710.402588,320.099640 2695.372314,314.074677 
	C2680.898438,308.272705 2665.798340,304.848175 2650.348633,303.049805 
	C2642.208496,302.102234 2633.989258,301.844269 2625.840332,300.956543 
	C2611.892578,299.437134 2598.002686,297.308044 2584.030273,296.121490 
	C2573.613525,295.236877 2563.410889,293.768524 2553.664307,289.974640 
	C2542.741943,285.723114 2534.209961,278.920532 2530.989502,267.034485 
	C2527.792725,255.236115 2528.610840,243.315109 2529.955322,231.347382 
	C2531.452393,218.022324 2538.832520,209.143616 2550.260742,202.944046 
	C2564.728516,195.095505 2580.674316,194.046844 2596.513672,193.128281 
	C2611.315674,192.269867 2626.133545,193.090729 2640.762207,195.989410 
	C2651.536133,198.124207 2661.684326,201.778793 2669.799316,209.400742 
	C2679.619873,218.624710 2683.797852,230.675659 2684.907471,243.731140 
	C2685.841553,254.719330 2686.783936,256.000000 2697.765137,256.000000 
	C2712.597412,256.000000 2727.429688,256.000427 2742.261963,255.999847 
	C2751.258301,255.999496 2754.042236,252.792847 2751.916992,243.953979 
	C2746.795898,222.656082 2738.304443,202.870132 2723.683350,186.272583 
	C2707.096436,167.443710 2686.836426,153.966568 2662.967773,145.942856 
	C2643.760742,139.486160 2624.112061,136.776535 2603.831299,136.825470 
	C2587.972168,136.863724 2572.613281,139.045837 2557.625977,143.833115 
	C2530.385010,152.534439 2507.197266,167.360138 2488.820312,189.590790 
	C2467.463623,215.426819 2460.605957,244.760956 2467.059814,277.316284 
	C2471.872559,301.592438 2484.805908,321.004944 2505.349854,334.538116 
	C2526.166748,348.251038 2549.795410,354.200989 2574.524414,356.016174 
	C2582.371582,356.592194 2590.219727,357.224762 2598.041260,358.070862 
	C2609.068115,359.263702 2620.044189,360.999054 2631.090576,361.919250 
	C2645.040771,363.081329 2658.906982,364.675964 2671.891602,370.113708 
	C2683.016113,374.772369 2691.483643,382.508881 2692.857178,395.188324 
	C2693.921875,405.018738 2694.553955,415.062744 2693.772217,424.884003 
	C2692.808105,436.995544 2687.019043,447.093079 2676.463135,453.860535 
	C2662.563232,462.772186 2646.753906,465.558533 2630.791748,466.814636 
	C2618.856201,467.753937 2606.771240,467.386566 2594.783203,466.881317 
	C2584.675537,466.455383 2574.503662,465.599274 2564.557373,463.827789 
	C2553.669189,461.888580 2543.377686,457.660980 2535.345215,449.714478 
	C2525.594482,440.068268 2521.425537,427.654755 2520.103760,414.342255 
	C2519.357422,406.823944 2517.991455,405.000427 2510.309814,405.000183 
	C2493.977539,404.999664 2477.645508,404.998871 2461.313232,405.000488 
	C2454.152100,405.001160 2452.816895,406.285217 2453.041260,413.359009 
	C2453.102295,415.277466 2453.586182,417.198212 2454.012939,419.086914 
	C2458.395996,438.475708 2466.689941,456.071960 2479.712891,471.053101 
	C2494.125244,487.633057 2511.463135,500.462677 2531.877686,509.040192 
	C2547.300781,515.520447 2563.142334,520.182434 2579.797363,522.038208 
	C2583.557861,522.457214 2587.267090,523.333923 2591.000000,524.000000 
	C2478.971924,524.000000 2366.944092,524.000000 2254.617676,523.605469 
	C2256.479004,523.132202 2258.695557,523.342651 2260.789307,522.929688 
	C2280.289795,519.084045 2299.181641,513.527161 2316.709229,503.785248 
	C2335.782471,493.184326 2352.887207,480.278564 2367.611328,464.037262 
	C2381.585205,448.623566 2393.103027,431.795166 2401.094238,412.560974 
	C2404.168945,405.160950 2401.602051,401.012024 2393.640381,401.004822 
	C2376.307861,400.989166 2358.975586,400.999481 2341.643066,401.000244 
	C2332.530029,401.000641 2331.638672,402.119995 2329.917236,410.884064 
	C2327.388916,423.756165 2322.517334,435.765320 2313.149658,445.242493 
	C2297.857910,460.712616 2277.948730,465.124207 2257.342041,466.853088 
	C2247.236816,467.700867 2236.968018,467.519928 2226.834961,466.857819 
	C2216.132080,466.158508 2205.315918,465.170807 2194.876465,462.841980 
	C2163.319336,455.802246 2143.658691,436.292358 2135.946533,404.717010 
	C2132.200928,389.383240 2131.747803,373.855347 2131.981934,358.219910 
	C2132.091553,350.904846 2132.894531,350.000885 2140.146484,350.000793 
	C2226.141846,349.999573 2312.137207,350.000458 2398.132568,349.998932 
	C2404.031250,349.998810 2406.958008,347.259827 2406.986084,341.502747 
	C2407.078857,322.398895 2406.358154,303.407501 2403.186768,284.452087 
	C2400.120850,266.127350 2394.533203,248.699066 2386.450439,232.198120 
	C2376.070557,211.007462 2362.423584,192.132278 2344.282471,176.552948 
	C2333.482178,167.277527 2321.990723,159.235825 2309.350830,152.931366 
	C2293.375244,144.963135 2276.534668,139.696991 2258.612549,137.917709 
	C2241.609375,136.229691 2224.622314,136.075226 2207.874512,139.184311 
	C2188.773438,142.730270 2170.642090,149.333359 2153.919189,159.523865 
	C2132.898926,172.333282 2115.132812,188.552704 2100.749023,208.584824 
	C2086.877686,227.903214 2076.704102,248.976440 2070.097412,271.744446 
	C2064.732910,290.232666 2061.564453,309.165039 2061.098145,328.424652 
	C2060.866455,337.998352 2061.221436,347.638947 2062.120361,357.173004 
	C2063.094727,367.511932 2064.405762,377.896210 2066.650146,388.021210 
	C2070.457520,405.196503 2076.278809,421.816620 2085.561279,436.840363 
	C2092.096680,447.418152 2099.113525,457.855743 2107.142822,467.313995 
	C2117.453613,479.459473 2129.724609,489.644409 2143.447266,498.004547 
	C2163.967041,510.505646 2185.954102,518.776062 2209.800537,522.017700 
	C2213.881348,522.572327 2217.934326,523.333923 2222.000000,524.000000 
	C1969.305298,524.000000 1716.610596,524.000000 1463.617432,523.605469 
	C1465.477905,523.132263 1467.743042,523.452393 1469.777954,522.909180 
	C1481.737427,519.716614 1493.924683,517.087463 1505.506104,512.829834 
	C1526.652344,505.056091 1545.786499,493.509277 1562.288696,478.065948 
	C1570.294067,470.574066 1578.060059,462.702515 1585.030029,454.256561 
	C1595.854980,441.139374 1604.710083,426.662781 1610.950562,410.744385 
	C1612.974487,405.581482 1610.082031,401.096191 1604.564819,401.055084 
	C1585.568115,400.913635 1566.569092,400.924103 1547.572510,401.060913 
	C1543.439575,401.090668 1539.929077,402.409027 1539.656860,407.669312 
	C1539.525879,410.202148 1538.640869,412.709412 1537.987793,415.199493 
	C1534.675293,427.829987 1529.234741,439.483856 1519.236938,448.064331 
	C1504.128296,461.031158 1485.565674,465.464874 1466.285400,466.869751 
	C1456.163574,467.607269 1445.909912,467.519989 1435.777588,466.857788 
	C1425.076416,466.158447 1414.270996,465.141724 1403.823608,462.843109 
	C1375.164917,456.537750 1355.571655,439.627502 1346.678955,411.221100 
	C1341.268555,393.938416 1340.527588,376.129761 1340.971191,358.191162 
	C1341.151489,350.899719 1341.893921,350.000824 1349.174072,350.000732 
	C1434.997070,349.999573 1520.819946,350.000183 1606.642944,349.999634 
	C1613.382202,349.999573 1616.201782,347.353394 1615.952759,340.495148 
	C1615.443848,326.482361 1615.040283,312.447968 1613.868652,298.483276 
	C1613.097778,289.296204 1611.719116,280.047729 1609.447144,271.123444 
	C1605.279297,254.751846 1599.309937,239.031723 1591.134766,224.097488 
	C1583.661133,210.445099 1574.628174,197.993027 1564.070312,186.745026 
	C1548.638428,170.304260 1530.185059,157.968048 1509.516235,148.893219 
	C1494.729858,142.400970 1479.216187,138.393127 1463.262695,137.240967 
	C1451.098755,136.362518 1438.749634,137.260590 1426.532837,138.097687 
	C1409.781982,139.245407 1393.823486,144.160339 1378.709961,151.176834 
	C1357.584717,160.984329 1339.110474,174.501862 1323.360229,191.940948 
	C1308.622681,208.258621 1297.038208,226.377289 1288.181763,246.393661 
	C1277.383911,270.797852 1271.822021,296.530609 1270.190918,322.964172 
	C1268.924927,343.481903 1270.474976,363.927490 1274.818604,384.235809 
	C1281.338867,414.720520 1294.017822,442.098358 1314.331055,465.595703 
	C1328.316650,481.773590 1344.844971,495.139587 1364.227173,504.716888 
	C1379.926880,512.474609 1396.141724,518.493347 1413.552490,521.043030 
	C1419.061157,521.849792 1424.518921,523.004517 1430.000000,524.000000 
	C1035.638672,524.000000 641.277283,524.000000 246.531982,523.669922 
	C292.458649,477.028625 338.769226,430.717438 385.079681,384.406067 
	C390.485474,379.000183 390.474823,377.002686 384.980560,371.498474 
	C372.972412,359.468567 360.933868,347.468811 348.961334,335.403534 
	C344.924103,331.335022 344.980499,329.546173 348.887695,325.635742 
	C360.784302,313.729462 372.687103,301.829346 384.586670,289.926025 
	C390.672791,283.837982 390.699158,281.197144 384.710236,275.207916 
	C347.709167,238.204788 310.705109,201.204681 273.703461,164.202148 
	C265.808594,156.307098 257.932587,148.393112 250.022842,140.513016 
	C245.074005,135.582718 240.933899,135.550461 236.151779,140.330841 
	C224.248596,152.229660 212.348419,164.131485 200.442123,176.027176 
	C196.047272,180.418121 193.897522,180.384445 189.388855,175.877884 
	C177.838303,164.332748 166.289291,152.786057 154.739883,141.239777 
	C148.609695,135.111237 145.343185,135.127319 139.112732,141.379837 
	C93.072121,187.583527 47.036922,233.792618 1.000005,280.000000 
M663.597595,517.000000 
	C677.593506,517.000000 691.589417,517.000061 705.585327,517.000000 
	C714.784485,516.999939 715.999573,515.774658 715.999634,506.481384 
	C716.000183,429.499573 715.899109,352.517487 716.132385,275.536377 
	C716.160339,266.290924 717.077698,256.833710 719.190796,247.852982 
	C723.791809,228.298294 734.634827,213.158768 753.109070,203.923676 
	C768.278931,196.340378 784.646790,194.214752 801.114807,193.158859 
	C816.865295,192.148941 832.631470,193.236328 848.087646,196.997650 
	C865.345093,201.197342 880.239929,209.134644 889.863586,224.661652 
	C898.638855,238.820007 901.803406,254.814392 901.865051,271.096588 
	C902.164001,350.076782 902.000061,429.058716 902.000183,508.040039 
	C902.000183,515.906372 903.062500,516.999634 910.709106,516.999878 
	C925.538940,517.000366 940.368713,517.000000 955.198547,517.000000 
	C964.856140,516.999939 966.034058,515.875671 965.994263,506.368286 
	C965.671021,429.131287 965.313354,351.894470 965.017761,274.657379 
	C964.962524,260.206909 962.229187,246.234940 958.117920,232.461304 
	C952.794006,214.625336 944.597900,198.378006 932.600281,183.996948 
	C921.677551,170.904221 909.249512,159.860733 894.031616,151.952286 
	C879.839844,144.577194 865.044983,139.570816 849.054016,137.892853 
	C832.723328,136.179230 816.450317,136.219650 800.376587,139.385864 
	C783.977722,142.616119 768.735962,149.047104 754.454285,157.853882 
	C740.308655,166.576721 728.608276,177.913239 717.893250,190.436340 
	C716.923340,191.569931 715.282471,192.129486 713.953247,192.955658 
	C713.302124,191.458527 712.105286,189.968307 712.086243,188.463196 
	C711.932434,176.301346 712.002686,164.136688 711.998901,151.972900 
	C711.996826,145.399185 710.557983,144.001511 703.803528,144.000595 
	C689.306946,143.998627 674.810425,143.998611 660.313843,144.000565 
	C652.809875,144.001556 652.000244,144.835220 652.000244,152.550262 
	C651.999878,271.188873 652.000000,389.827484 652.000122,508.466095 
	C652.000122,509.632477 651.531372,511.156097 652.093506,511.895294 
	C653.529114,513.782959 655.190002,515.754150 657.216003,516.850830 
	C658.633728,517.618225 660.801758,516.999573 663.597595,517.000000 
M1994.000000,435.500000 
	C1994.000000,400.681030 1994.000000,365.862030 1994.000000,331.043060 
	C1994.000000,224.920151 1994.000732,118.797249 1993.997681,12.674341 
	C1993.997437,6.088429 1992.909424,5.005221 1986.312256,5.002302 
	C1970.318848,4.995225 1954.325439,4.991086 1938.332031,5.004575 
	C1932.282227,5.009677 1931.006836,6.211917 1931.006592,12.030474 
	C1930.998291,177.962051 1930.998779,343.893646 1931.005249,509.825226 
	C1931.005493,515.711182 1932.291626,516.988464 1938.187744,516.994446 
	C1954.347778,517.010742 1970.507690,517.009277 1986.667725,516.995361 
	C1992.859375,516.990051 1993.994873,515.817383 1993.996948,509.469910 
	C1994.004395,485.146606 1994.000000,460.823303 1994.000000,435.500000 
M1717.500000,144.000000 
	C1708.669312,144.000000 1699.838623,143.999817 1691.007935,144.000061 
	C1683.451660,144.000290 1682.000488,145.492249 1682.000488,153.283783 
	C1681.999634,271.415710 1682.000000,389.547607 1682.000000,507.679535 
	C1682.000000,508.512634 1681.967407,509.347198 1682.005737,510.178558 
	C1682.224121,514.923523 1684.304688,516.988708 1688.971802,516.993591 
	C1704.967163,517.010254 1720.962402,517.000061 1736.957764,516.999878 
	C1744.552979,516.999817 1745.999268,515.524048 1745.999390,507.750549 
	C1746.000366,434.272156 1745.797119,360.792603 1746.223755,287.316711 
	C1746.286011,276.574860 1748.489258,265.626190 1751.221069,255.170120 
	C1755.388916,239.217865 1764.614014,226.181183 1778.956177,217.673950 
	C1794.219727,208.620224 1811.186401,205.199600 1828.811279,205.025635 
	C1841.972778,204.895691 1855.136597,205.000031 1868.299316,204.999939 
	C1874.188232,204.999908 1877.286743,201.901138 1877.149292,196.155670 
	C1876.735352,178.837341 1877.008057,161.502762 1876.995239,144.174530 
	C1876.991333,138.912567 1875.147461,137.090698 1870.005615,136.991745 
	C1857.652344,136.754028 1845.447021,137.646530 1833.233643,139.874863 
	C1815.578003,143.096100 1799.131104,149.007584 1783.886597,158.517548 
	C1770.381836,166.942230 1758.861816,177.479233 1748.710571,189.659393 
	C1747.478149,191.138138 1745.318237,191.843689 1743.588257,192.907547 
	C1743.058838,190.970627 1742.092529,189.038559 1742.071045,187.096024 
	C1741.932129,174.601242 1741.921631,162.103378 1742.045532,149.608292 
	C1742.085205,145.610214 1740.563477,143.852676 1736.493530,143.959457 
	C1730.499390,144.116730 1724.498169,144.000015 1717.500000,144.000000 
M560.000000,225.500000 
	C560.000000,200.346863 559.931152,175.193344 560.063477,150.040909 
	C560.087280,145.519577 558.427612,143.892487 553.929626,143.935562 
	C537.106934,144.096680 520.281799,143.993393 503.457550,144.003555 
	C497.487488,144.007172 497.002350,144.510239 497.002197,150.652252 
	C496.999237,270.254211 496.998993,389.856201 497.002838,509.458160 
	C497.003021,515.939636 498.107544,516.995850 504.818451,516.998230 
	C520.476624,517.003906 536.134827,517.001709 551.793030,516.999329 
	C559.097961,516.998230 559.999146,516.104431 559.999207,508.847260 
	C560.000366,414.731506 560.000000,320.615753 560.000000,225.500000 
z"/>
<path fill="#004615" opacity="1.000000" stroke="none" 
	d="
M2222.468750,524.000000 
	C2217.934326,523.333923 2213.881348,522.572327 2209.800537,522.017700 
	C2185.954102,518.776062 2163.967041,510.505646 2143.447266,498.004547 
	C2129.724609,489.644409 2117.453613,479.459473 2107.142822,467.313995 
	C2099.113525,457.855743 2092.096680,447.418152 2085.561279,436.840363 
	C2076.278809,421.816620 2070.457520,405.196503 2066.650146,388.021210 
	C2064.405762,377.896210 2063.094727,367.511932 2062.120361,357.173004 
	C2061.221436,347.638947 2060.866455,337.998352 2061.098145,328.424652 
	C2061.564453,309.165039 2064.732910,290.232666 2070.097412,271.744446 
	C2076.704102,248.976440 2086.877686,227.903214 2100.749023,208.584824 
	C2115.132812,188.552704 2132.898926,172.333282 2153.919189,159.523865 
	C2170.642090,149.333359 2188.773438,142.730270 2207.874512,139.184311 
	C2224.622314,136.075226 2241.609375,136.229691 2258.612549,137.917709 
	C2276.534668,139.696991 2293.375244,144.963135 2309.350830,152.931366 
	C2321.990723,159.235825 2333.482178,167.277527 2344.282471,176.552948 
	C2362.423584,192.132278 2376.070557,211.007462 2386.450439,232.198120 
	C2394.533203,248.699066 2400.120850,266.127350 2403.186768,284.452087 
	C2406.358154,303.407501 2407.078857,322.398895 2406.986084,341.502747 
	C2406.958008,347.259827 2404.031250,349.998810 2398.132568,349.998932 
	C2312.137207,350.000458 2226.141846,349.999573 2140.146484,350.000793 
	C2132.894531,350.000885 2132.091553,350.904846 2131.981934,358.219910 
	C2131.747803,373.855347 2132.200928,389.383240 2135.946533,404.717010 
	C2143.658691,436.292358 2163.319336,455.802246 2194.876465,462.841980 
	C2205.315918,465.170807 2216.132080,466.158508 2226.834961,466.857819 
	C2236.968018,467.519928 2247.236816,467.700867 2257.342041,466.853088 
	C2277.948730,465.124207 2297.857910,460.712616 2313.149658,445.242493 
	C2322.517334,435.765320 2327.388916,423.756165 2329.917236,410.884064 
	C2331.638672,402.119995 2332.530029,401.000641 2341.643066,401.000244 
	C2358.975586,400.999481 2376.307861,400.989166 2393.640381,401.004822 
	C2401.602051,401.012024 2404.168945,405.160950 2401.094238,412.560974 
	C2393.103027,431.795166 2381.585205,448.623566 2367.611328,464.037262 
	C2352.887207,480.278564 2335.782471,493.184326 2316.709229,503.785248 
	C2299.181641,513.527161 2280.289795,519.084045 2260.789307,522.929688 
	C2258.695557,523.342651 2256.479004,523.132202 2254.159668,523.605469 
	C2243.645752,524.000000 2233.291748,524.000000 2222.468750,524.000000 
M2279.977051,197.473404 
	C2269.852295,195.982300 2259.768066,193.677017 2249.594482,193.173203 
	C2229.728516,192.189392 2209.929443,193.558411 2190.657471,199.032379 
	C2169.208496,205.124710 2152.102295,216.860718 2141.952148,237.385239 
	C2134.035645,253.392899 2131.743164,270.486176 2131.987061,288.096313 
	C2132.075195,294.455719 2133.513672,295.998138 2139.765869,295.998383 
	C2202.585693,296.001007 2265.405518,296.000885 2328.225342,295.998505 
	C2334.110107,295.998291 2336.092773,294.093597 2335.955811,287.982056 
	C2335.833984,282.557281 2335.231689,277.145020 2335.019287,271.720276 
	C2334.414307,256.287140 2331.254639,241.505600 2323.480225,228.018829 
	C2313.907471,211.412674 2299.240479,201.864090 2279.977051,197.473404 
z"/>
<path fill="#004615" opacity="1.000000" stroke="none" 
	d="
M1430.468628,524.000000 
	C1424.518921,523.004517 1419.061157,521.849792 1413.552490,521.043030 
	C1396.141724,518.493347 1379.926880,512.474609 1364.227173,504.716888 
	C1344.844971,495.139587 1328.316650,481.773590 1314.331055,465.595703 
	C1294.017822,442.098358 1281.338867,414.720520 1274.818604,384.235809 
	C1270.474976,363.927490 1268.924927,343.481903 1270.190918,322.964172 
	C1271.822021,296.530609 1277.383911,270.797852 1288.181763,246.393661 
	C1297.038208,226.377289 1308.622681,208.258621 1323.360229,191.940948 
	C1339.110474,174.501862 1357.584717,160.984329 1378.709961,151.176834 
	C1393.823486,144.160339 1409.781982,139.245407 1426.532837,138.097687 
	C1438.749634,137.260590 1451.098755,136.362518 1463.262695,137.240967 
	C1479.216187,138.393127 1494.729858,142.400970 1509.516235,148.893219 
	C1530.185059,157.968048 1548.638428,170.304260 1564.070312,186.745026 
	C1574.628174,197.993027 1583.661133,210.445099 1591.134766,224.097488 
	C1599.309937,239.031723 1605.279297,254.751846 1609.447144,271.123444 
	C1611.719116,280.047729 1613.097778,289.296204 1613.868652,298.483276 
	C1615.040283,312.447968 1615.443848,326.482361 1615.952759,340.495148 
	C1616.201782,347.353394 1613.382202,349.999573 1606.642944,349.999634 
	C1520.819946,350.000183 1434.997070,349.999573 1349.174072,350.000732 
	C1341.893921,350.000824 1341.151489,350.899719 1340.971191,358.191162 
	C1340.527588,376.129761 1341.268555,393.938416 1346.678955,411.221100 
	C1355.571655,439.627502 1375.164917,456.537750 1403.823608,462.843109 
	C1414.270996,465.141724 1425.076416,466.158447 1435.777588,466.857788 
	C1445.909912,467.519989 1456.163574,467.607269 1466.285400,466.869751 
	C1485.565674,465.464874 1504.128296,461.031158 1519.236938,448.064331 
	C1529.234741,439.483856 1534.675293,427.829987 1537.987793,415.199493 
	C1538.640869,412.709412 1539.525879,410.202148 1539.656860,407.669312 
	C1539.929077,402.409027 1543.439575,401.090668 1547.572510,401.060913 
	C1566.569092,400.924103 1585.568115,400.913635 1604.564819,401.055084 
	C1610.082031,401.096191 1612.974487,405.581482 1610.950562,410.744385 
	C1604.710083,426.662781 1595.854980,441.139374 1585.030029,454.256561 
	C1578.060059,462.702515 1570.294067,470.574066 1562.288696,478.065948 
	C1545.786499,493.509277 1526.652344,505.056091 1505.506104,512.829834 
	C1493.924683,517.087463 1481.737427,519.716614 1469.777954,522.909180 
	C1467.743042,523.452393 1465.477905,523.132263 1463.159546,523.605469 
	C1452.312378,524.000000 1441.624878,524.000000 1430.468628,524.000000 
M1342.000000,268.538269 
	C1341.666748,275.121124 1341.205933,281.700714 1341.036987,288.287781 
	C1340.878052,294.482819 1342.566162,295.998718 1348.955078,295.998901 
	C1411.601562,296.000702 1474.248047,296.000458 1536.894531,295.999329 
	C1543.173096,295.999207 1545.131104,294.186981 1544.965210,287.814423 
	C1544.583130,273.127380 1543.539429,258.618042 1539.248047,244.316605 
	C1533.494507,225.142334 1522.469238,210.981934 1504.185181,202.653427 
	C1489.297729,195.872070 1473.343994,193.956650 1457.298218,193.138611 
	C1448.586182,192.694443 1439.730469,193.082977 1431.067627,194.142517 
	C1419.358887,195.574615 1407.492432,197.027313 1396.199463,200.246155 
	C1378.425903,205.312302 1363.720581,215.438217 1353.914673,231.627502 
	C1347.208862,242.698837 1343.869629,254.933975 1342.000000,268.538269 
z"/>
<path fill="#004615" opacity="1.000000" stroke="none" 
	d="
M1.000005,280.416656 
	C47.036922,233.792618 93.072121,187.583527 139.112732,141.379837 
	C145.343185,135.127319 148.609695,135.111237 154.739883,141.239777 
	C166.289291,152.786057 177.838303,164.332748 189.388855,175.877884 
	C193.897522,180.384445 196.047272,180.418121 200.442123,176.027176 
	C212.348419,164.131485 224.248596,152.229660 236.151779,140.330841 
	C240.933899,135.550461 245.074005,135.582718 250.022842,140.513016 
	C257.932587,148.393112 265.808594,156.307098 273.703461,164.202148 
	C310.705109,201.204681 347.709167,238.204788 384.710236,275.207916 
	C390.699158,281.197144 390.672791,283.837982 384.586670,289.926025 
	C372.687103,301.829346 360.784302,313.729462 348.887695,325.635742 
	C344.980499,329.546173 344.924103,331.335022 348.961334,335.403534 
	C360.933868,347.468811 372.972412,359.468567 384.980560,371.498474 
	C390.474823,377.002686 390.485474,379.000183 385.079681,384.406067 
	C338.769226,430.717438 292.458649,477.028625 246.074036,523.669922 
	C243.958328,524.000000 241.916672,524.000000 239.363480,523.669922 
	C225.807220,510.299652 212.748856,497.273071 199.729767,484.207336 
	C197.265793,481.734528 194.773483,479.761200 191.593155,482.964478 
	C178.037109,496.618164 164.526917,510.317383 151.000000,524.000000 
	C148.958328,524.000000 146.916672,524.000000 144.363480,523.669922 
	C97.848061,477.339966 51.841496,431.342773 5.850793,385.329681 
	C4.154453,383.632477 2.613412,381.780090 1.000000,380.000000 
	C1.000000,378.933319 1.000000,377.866669 1.336830,376.310150 
	C2.754383,374.408203 3.694659,372.856537 4.937659,371.605682 
	C16.883568,359.584320 28.880985,347.614136 40.862610,335.628296 
	C45.511955,330.977325 45.502163,330.001099 40.728741,325.224731 
	C33.211899,317.703339 25.657207,310.219421 18.179495,302.659363 
	C12.404547,296.820831 6.723048,290.889862 0.999999,285.000000 
	C1.000000,283.611115 1.000000,282.222198 1.000005,280.416656 
M332.019745,322.532013 
	C288.561951,279.026031 245.106140,235.518066 201.643921,192.016510 
	C196.277969,186.645706 193.822342,186.535538 188.919907,191.437531 
	C144.611023,235.742371 100.305122,280.050171 56.007271,324.366058 
	C50.660225,329.715271 50.688694,331.137390 56.044750,336.493774 
	C100.114449,380.566528 144.184006,424.639374 188.255081,468.710724 
	C194.126511,474.582184 195.906448,474.556396 201.937531,468.525391 
	C245.419739,425.043488 288.901184,381.560883 332.382416,338.078033 
	C338.901184,331.559052 338.922424,329.427795 332.019745,322.532013 
z"/>
<path fill="#004615" opacity="1.000000" stroke="none" 
	d="
M2942.468750,524.000000 
	C2938.267578,523.333923 2934.558838,522.457275 2930.798828,522.038086 
	C2914.146484,520.181641 2898.307617,515.520630 2882.885498,509.042328 
	C2862.472168,500.467499 2845.072266,487.694885 2830.742920,471.050232 
	C2817.488770,455.654541 2808.623291,437.812988 2805.005127,417.614807 
	C2804.604492,415.380280 2804.098145,413.127686 2804.052246,410.875061 
	C2803.975830,407.128540 2806.016357,405.027161 2809.797607,405.018646 
	C2827.960449,404.977875 2846.123779,404.948608 2864.286133,405.035522 
	C2869.035645,405.058228 2870.229980,407.523315 2871.145264,413.196686 
	C2872.317627,420.465607 2873.893799,427.804932 2876.445068,434.687897 
	C2881.879883,449.349365 2893.525635,457.838318 2907.994873,461.748108 
	C2918.419434,464.564941 2929.362061,465.655060 2940.145264,466.889404 
	C2948.000732,467.788574 2956.009033,468.308411 2963.885498,467.865936 
	C2980.112305,466.954468 2996.456299,466.480865 3012.084717,461.044586 
	C3023.517822,457.067627 3034.056885,451.752533 3039.826904,440.463959 
	C3042.265137,435.693970 3044.468994,430.276672 3044.749512,425.044739 
	C3045.278564,415.182312 3044.907471,405.180298 3043.863281,395.347504 
	C3042.494141,382.456848 3033.950439,374.792053 3022.580078,370.042236 
	C3009.545654,364.597351 2995.700684,363.143799 2981.761963,361.913818 
	C2967.297119,360.637329 2952.892090,358.679779 2938.461914,357.011536 
	C2926.959229,355.681793 2915.355957,354.912170 2903.977051,352.885925 
	C2878.271729,348.308533 2855.210693,338.041473 2837.681641,318.017548 
	C2827.312256,306.172333 2820.421875,292.165924 2818.162842,276.500427 
	C2816.642822,265.961273 2815.533691,255.112976 2816.339844,244.563370 
	C2817.051514,235.250916 2819.819580,225.835419 2823.184814,217.041260 
	C2829.789551,199.779648 2841.202881,185.559677 2855.065918,173.579208 
	C2873.538574,157.614960 2894.872070,146.996277 2918.612793,140.895676 
	C2936.459473,136.309708 2954.607422,135.920288 2972.586914,137.263107 
	C3000.667725,139.360382 3027.187256,147.701584 3050.345459,164.194946 
	C3077.043701,183.209702 3094.587158,208.787460 3101.963379,240.974335 
	C3102.577148,243.652100 3102.688477,246.447586 3102.995117,249.192596 
	C3103.534180,254.018326 3100.441162,255.877609 3096.511230,255.918716 
	C3078.849854,256.103485 3061.185059,256.094452 3043.523682,255.920944 
	C3039.885254,255.885208 3037.410645,254.268265 3036.864502,249.739151 
	C3035.573242,239.026489 3033.995850,228.327332 3028.290039,218.734833 
	C3020.971680,206.431747 3009.577637,200.323624 2996.263184,197.016068 
	C2979.666748,192.893082 2962.700439,192.160065 2945.795166,193.179703 
	C2930.810547,194.083481 2915.656250,195.294159 2901.913818,202.550827 
	C2890.136719,208.769836 2882.467773,217.781097 2880.915283,231.552826 
	C2879.563232,243.545090 2878.915771,255.478409 2882.046387,267.233917 
	C2885.154297,278.903870 2893.657227,285.749451 2904.385498,289.921600 
	C2914.258545,293.761261 2924.622559,295.337494 2935.232178,296.129913 
	C2951.031494,297.309906 2966.779297,299.233490 2982.527588,301.026398 
	C3003.124023,303.371246 3023.768555,305.308167 3043.392334,312.931946 
	C3068.306885,322.611053 3087.964111,338.169373 3099.731201,362.513428 
	C3105.200195,373.827087 3108.138672,385.969391 3108.600586,398.833679 
	C3109.000000,402.692902 3109.000000,406.385834 3108.600830,410.705383 
	C3107.801758,415.231750 3107.617676,419.167877 3106.966309,423.025085 
	C3103.644531,442.696045 3094.228516,459.400665 3081.250000,474.176666 
	C3067.504395,489.825836 3050.660645,501.333740 3031.665039,509.708771 
	C3017.758545,515.839966 3003.320068,520.168762 2988.180908,522.032471 
	C2984.429932,522.494202 2980.725830,523.333923 2977.000000,524.000000 
	C2965.645752,524.000000 2954.291748,524.000000 2942.468750,524.000000 
z"/>
<path fill="#004615" opacity="1.000000" stroke="none" 
	d="
M2591.468750,524.000000 
	C2587.267090,523.333923 2583.557861,522.457214 2579.797363,522.038208 
	C2563.142334,520.182434 2547.300781,515.520447 2531.877686,509.040192 
	C2511.463135,500.462677 2494.125244,487.633057 2479.712891,471.053101 
	C2466.689941,456.071960 2458.395996,438.475708 2454.012939,419.086914 
	C2453.586182,417.198212 2453.102295,415.277466 2453.041260,413.359009 
	C2452.816895,406.285217 2454.152100,405.001160 2461.313232,405.000488 
	C2477.645508,404.998871 2493.977539,404.999664 2510.309814,405.000183 
	C2517.991455,405.000427 2519.357422,406.823944 2520.103760,414.342255 
	C2521.425537,427.654755 2525.594482,440.068268 2535.345215,449.714478 
	C2543.377686,457.660980 2553.669189,461.888580 2564.557373,463.827789 
	C2574.503662,465.599274 2584.675537,466.455383 2594.783203,466.881317 
	C2606.771240,467.386566 2618.856201,467.753937 2630.791748,466.814636 
	C2646.753906,465.558533 2662.563232,462.772186 2676.463135,453.860535 
	C2687.019043,447.093079 2692.808105,436.995544 2693.772217,424.884003 
	C2694.553955,415.062744 2693.921875,405.018738 2692.857178,395.188324 
	C2691.483643,382.508881 2683.016113,374.772369 2671.891602,370.113708 
	C2658.906982,364.675964 2645.040771,363.081329 2631.090576,361.919250 
	C2620.044189,360.999054 2609.068115,359.263702 2598.041260,358.070862 
	C2590.219727,357.224762 2582.371582,356.592194 2574.524414,356.016174 
	C2549.795410,354.200989 2526.166748,348.251038 2505.349854,334.538116 
	C2484.805908,321.004944 2471.872559,301.592438 2467.059814,277.316284 
	C2460.605957,244.760956 2467.463623,215.426819 2488.820312,189.590790 
	C2507.197266,167.360138 2530.385010,152.534439 2557.625977,143.833115 
	C2572.613281,139.045837 2587.972168,136.863724 2603.831299,136.825470 
	C2624.112061,136.776535 2643.760742,139.486160 2662.967773,145.942856 
	C2686.836426,153.966568 2707.096436,167.443710 2723.683350,186.272583 
	C2738.304443,202.870132 2746.795898,222.656082 2751.916992,243.953979 
	C2754.042236,252.792847 2751.258301,255.999496 2742.261963,255.999847 
	C2727.429688,256.000427 2712.597412,256.000000 2697.765137,256.000000 
	C2686.783936,256.000000 2685.841553,254.719330 2684.907471,243.731140 
	C2683.797852,230.675659 2679.619873,218.624710 2669.799316,209.400742 
	C2661.684326,201.778793 2651.536133,198.124207 2640.762207,195.989410 
	C2626.133545,193.090729 2611.315674,192.269867 2596.513672,193.128281 
	C2580.674316,194.046844 2564.728516,195.095505 2550.260742,202.944046 
	C2538.832520,209.143616 2531.452393,218.022324 2529.955322,231.347382 
	C2528.610840,243.315109 2527.792725,255.236115 2530.989502,267.034485 
	C2534.209961,278.920532 2542.741943,285.723114 2553.664307,289.974640 
	C2563.410889,293.768524 2573.613525,295.236877 2584.030273,296.121490 
	C2598.002686,297.308044 2611.892578,299.437134 2625.840332,300.956543 
	C2633.989258,301.844269 2642.208496,302.102234 2650.348633,303.049805 
	C2665.798340,304.848175 2680.898438,308.272705 2695.372314,314.074677 
	C2710.402588,320.099640 2723.621094,328.911011 2734.431641,340.999023 
	C2746.121094,354.069763 2753.561035,369.290863 2755.972656,386.771240 
	C2756.820312,392.915649 2758.052979,399.127502 2757.870850,405.271790 
	C2757.211182,427.500549 2750.425781,447.615967 2736.997314,465.659698 
	C2718.815918,490.090088 2694.485596,505.473816 2666.239258,515.212830 
	C2653.362061,519.652649 2640.082275,522.799011 2626.163574,523.602600 
	C2614.645752,524.000000 2603.291748,524.000000 2591.468750,524.000000 
z"/>
<path fill="#004615" opacity="1.000000" stroke="none" 
	d="
M1245.531372,1.000000 
	C1249.447998,4.306052 1250.181274,8.359277 1250.085571,13.029704 
	C1249.833008,25.355145 1250.018921,37.689228 1249.991821,50.019787 
	C1249.978516,56.117363 1248.107178,57.997868 1242.186768,57.998566 
	C1214.692871,58.001804 1187.198853,57.995491 1159.704956,58.002747 
	C1151.479370,58.004917 1150.000366,59.501884 1150.000122,67.728989 
	C1149.999756,90.557297 1149.997681,113.385605 1150.001343,136.213913 
	C1150.002319,142.108734 1151.897217,143.988785 1158.007446,143.992249 
	C1188.167480,144.009293 1218.327515,143.999664 1248.487549,144.000275 
	C1255.227905,144.000412 1256.985840,145.690430 1256.995117,152.280731 
	C1257.011963,164.444702 1257.012695,176.608734 1256.994995,188.772705 
	C1256.985718,195.173721 1255.176880,196.998825 1248.933960,196.999207 
	C1218.940552,197.000992 1188.947144,196.998199 1158.953735,197.001312 
	C1151.701782,197.002075 1150.001343,198.703918 1150.001221,205.963272 
	C1149.999512,306.441162 1150.000000,406.919037 1149.999756,507.396912 
	C1149.999756,515.791321 1148.778931,517.000000 1140.310425,517.000000 
	C1124.980469,517.000061 1109.650513,517.001038 1094.320557,516.999573 
	C1087.688599,516.998901 1086.003784,515.303894 1086.003418,508.527252 
	C1085.998169,424.712372 1086.000000,340.897491 1086.000000,257.082611 
	C1086.000000,239.586456 1086.003906,222.090317 1085.997803,204.594162 
	C1085.995850,199.012741 1084.029785,197.019257 1078.300537,197.011719 
	C1056.305420,196.982803 1034.310181,197.005569 1012.315063,196.996109 
	C1006.796448,196.993729 1005.008728,195.192307 1005.003662,189.645142 
	C1004.992065,176.981262 1004.995483,164.317383 1005.002014,151.653503 
	C1005.005127,145.668900 1006.633362,144.004791 1012.516296,144.002838 
	C1034.178223,143.995651 1055.840088,144.005844 1077.501953,143.996552 
	C1084.292358,143.993637 1085.998535,142.311615 1085.999512,135.704712 
	C1086.001221,124.707130 1086.027832,113.709473 1085.994141,102.711990 
	C1085.929565,81.650589 1090.486572,61.791939 1102.057129,43.991074 
	C1112.393066,28.089972 1126.952515,17.171682 1144.392212,10.023897 
	C1156.645264,5.001935 1169.375244,2.057339 1182.833496,1.399416 
	C1203.687622,1.000000 1224.375122,1.000000 1245.531372,1.000000 
z"/>
<path fill="#FFFFFF" opacity="1.000000" stroke="none" 
	d="
M1.000000,380.468658 
	C2.613412,381.780090 4.154453,383.632477 5.850793,385.329681 
	C51.841496,431.342773 97.848061,477.339966 143.925980,523.669922 
	C96.406090,524.000000 48.812183,524.000000 1.000000,524.000000 
	C1.000000,476.312653 1.000000,428.625000 1.000000,380.468658 
z"/>
<path fill="#004615" opacity="1.000000" stroke="none" 
	d="
M559.531372,1.000000 
	C563.254333,2.914756 564.142517,5.664612 564.098694,9.468019 
	C563.881958,28.295689 564.009705,47.127224 563.993774,65.957375 
	C563.989319,71.176224 562.147522,72.990921 556.871948,72.994682 
	C537.875122,73.008224 518.878357,73.010910 499.881561,72.992409 
	C495.067444,72.987717 493.013458,70.966072 493.008514,66.210815 
	C492.988220,46.714115 493.047058,27.217148 492.950714,7.720904 
	C492.935791,4.696544 493.776337,2.625703 496.886780,1.359257 
	C517.687561,1.000000 538.375122,1.000000 559.531372,1.000000 
z"/>
<path fill="#FFFFFF" opacity="1.000000" stroke="none" 
	d="
M2977.468750,524.000000 
	C2980.725830,523.333923 2984.429932,522.494202 2988.180908,522.032471 
	C3003.320068,520.168762 3017.758545,515.839966 3031.665039,509.708771 
	C3050.660645,501.333740 3067.504395,489.825836 3081.250000,474.176666 
	C3094.228516,459.400665 3103.644531,442.696045 3106.966309,423.025085 
	C3107.617676,419.167877 3107.801758,415.231750 3108.600830,411.166016 
	C3109.000000,448.599274 3109.000000,486.198517 3109.000000,524.000000 
	C3065.312744,524.000000 3021.625000,524.000000 2977.468750,524.000000 
z"/>
<path fill="#FFFFFF" opacity="1.000000" stroke="none" 
	d="
M0.999999,285.468658 
	C6.723048,290.889862 12.404547,296.820831 18.179495,302.659363 
	C25.657207,310.219421 33.211899,317.703339 40.728741,325.224731 
	C45.502163,330.001099 45.511955,330.977325 40.862610,335.628296 
	C28.880985,347.614136 16.883568,359.584320 4.937659,371.605682 
	C3.694659,372.856537 2.754383,374.408203 1.336830,375.910156 
	C1.000000,345.979095 1.000000,315.958221 0.999999,285.468658 
z"/>
<path fill="#FFFFFF" opacity="1.000000" stroke="none" 
	d="
M151.468658,524.000000 
	C164.526917,510.317383 178.037109,496.618164 191.593155,482.964478 
	C194.773483,479.761200 197.265793,481.734528 199.729767,484.207336 
	C212.748856,497.273071 225.807220,510.299652 238.925980,523.669922 
	C209.979111,524.000000 180.958206,524.000000 151.468658,524.000000 
z"/>
<path fill="#004615" opacity="1.000000" stroke="none" 
	d="
M663.116089,517.000000 
	C660.801758,516.999573 658.633728,517.618225 657.216003,516.850830 
	C655.190002,515.754150 653.529114,513.782959 652.093506,511.895294 
	C651.531372,511.156097 652.000122,509.632477 652.000122,508.466095 
	C652.000000,389.827484 651.999878,271.188873 652.000244,152.550262 
	C652.000244,144.835220 652.809875,144.001556 660.313843,144.000565 
	C674.810425,143.998611 689.306946,143.998627 703.803528,144.000595 
	C710.557983,144.001511 711.996826,145.399185 711.998901,151.972900 
	C712.002686,164.136688 711.932434,176.301346 712.086243,188.463196 
	C712.105286,189.968307 713.302124,191.458527 713.953247,192.955627 
	C715.282471,192.129486 716.923340,191.569931 717.893250,190.436340 
	C728.608276,177.913239 740.308655,166.576721 754.454285,157.853882 
	C768.735962,149.047104 783.977722,142.616119 800.376587,139.385864 
	C816.450317,136.219650 832.723328,136.179230 849.054016,137.892853 
	C865.044983,139.570816 879.839844,144.577194 894.031616,151.952286 
	C909.249512,159.860733 921.677551,170.904221 932.600281,183.996948 
	C944.597900,198.378006 952.794006,214.625336 958.117920,232.461304 
	C962.229187,246.234940 964.962524,260.206909 965.017761,274.657379 
	C965.313354,351.894470 965.671021,429.131287 965.994263,506.368286 
	C966.034058,515.875671 964.856140,516.999939 955.198547,517.000000 
	C940.368713,517.000000 925.538940,517.000366 910.709106,516.999878 
	C903.062500,516.999634 902.000183,515.906372 902.000183,508.040039 
	C902.000061,429.058716 902.164001,350.076782 901.865051,271.096588 
	C901.803406,254.814392 898.638855,238.820007 889.863586,224.661652 
	C880.239929,209.134644 865.345093,201.197342 848.087646,196.997650 
	C832.631470,193.236328 816.865295,192.148941 801.114807,193.158859 
	C784.646790,194.214752 768.278931,196.340378 753.109070,203.923676 
	C734.634827,213.158768 723.791809,228.298294 719.190796,247.852982 
	C717.077698,256.833710 716.160339,266.290924 716.132385,275.536377 
	C715.899109,352.517487 716.000183,429.499573 715.999634,506.481384 
	C715.999573,515.774658 714.784485,516.999939 705.585327,517.000000 
	C691.589417,517.000061 677.593506,517.000000 663.116089,517.000000 
z"/>
<path fill="#004615" opacity="1.000000" stroke="none" 
	d="
M1994.000000,436.000000 
	C1994.000000,460.823303 1994.004395,485.146606 1993.996948,509.469910 
	C1993.994873,515.817383 1992.859375,516.990051 1986.667725,516.995361 
	C1970.507690,517.009277 1954.347778,517.010742 1938.187744,516.994446 
	C1932.291626,516.988464 1931.005493,515.711182 1931.005249,509.825226 
	C1930.998779,343.893646 1930.998291,177.962051 1931.006592,12.030474 
	C1931.006836,6.211917 1932.282227,5.009677 1938.332031,5.004575 
	C1954.325439,4.991086 1970.318848,4.995225 1986.312256,5.002302 
	C1992.909424,5.005221 1993.997437,6.088429 1993.997681,12.674341 
	C1994.000732,118.797249 1994.000000,224.920151 1994.000000,331.043060 
	C1994.000000,365.862030 1994.000000,400.681030 1994.000000,436.000000 
z"/>
<path fill="#004615" opacity="1.000000" stroke="none" 
	d="
M1718.000000,144.000000 
	C1724.498169,144.000015 1730.499390,144.116730 1736.493530,143.959457 
	C1740.563477,143.852676 1742.085205,145.610214 1742.045532,149.608292 
	C1741.921631,162.103378 1741.932129,174.601242 1742.071045,187.096024 
	C1742.092529,189.038559 1743.058838,190.970627 1743.588135,192.907562 
	C1745.318237,191.843689 1747.478149,191.138138 1748.710571,189.659393 
	C1758.861816,177.479233 1770.381836,166.942230 1783.886597,158.517548 
	C1799.131104,149.007584 1815.578003,143.096100 1833.233643,139.874863 
	C1845.447021,137.646530 1857.652344,136.754028 1870.005615,136.991745 
	C1875.147461,137.090698 1876.991333,138.912567 1876.995239,144.174530 
	C1877.008057,161.502762 1876.735352,178.837341 1877.149292,196.155670 
	C1877.286743,201.901138 1874.188232,204.999908 1868.299316,204.999939 
	C1855.136597,205.000031 1841.972778,204.895691 1828.811279,205.025635 
	C1811.186401,205.199600 1794.219727,208.620224 1778.956177,217.673950 
	C1764.614014,226.181183 1755.388916,239.217865 1751.221069,255.170120 
	C1748.489258,265.626190 1746.286011,276.574860 1746.223755,287.316711 
	C1745.797119,360.792603 1746.000366,434.272156 1745.999390,507.750549 
	C1745.999268,515.524048 1744.552979,516.999817 1736.957764,516.999878 
	C1720.962402,517.000061 1704.967163,517.010254 1688.971802,516.993591 
	C1684.304688,516.988708 1682.224121,514.923523 1682.005737,510.178558 
	C1681.967407,509.347198 1682.000000,508.512634 1682.000000,507.679535 
	C1682.000000,389.547607 1681.999634,271.415710 1682.000488,153.283783 
	C1682.000488,145.492249 1683.451660,144.000290 1691.007935,144.000061 
	C1699.838623,143.999817 1708.669312,144.000000 1718.000000,144.000000 
z"/>
<path fill="#004615" opacity="1.000000" stroke="none" 
	d="
M560.000000,226.000000 
	C560.000000,320.615753 560.000366,414.731506 559.999207,508.847260 
	C559.999146,516.104431 559.097961,516.998230 551.793030,516.999329 
	C536.134827,517.001709 520.476624,517.003906 504.818451,516.998230 
	C498.107544,516.995850 497.003021,515.939636 497.002838,509.458160 
	C496.998993,389.856201 496.999237,270.254211 497.002197,150.652252 
	C497.002350,144.510239 497.487488,144.007172 503.457550,144.003555 
	C520.281799,143.993393 537.106934,144.096680 553.929626,143.935562 
	C558.427612,143.892487 560.087280,145.519577 560.063477,150.040909 
	C559.931152,175.193344 560.000000,200.346863 560.000000,226.000000 
z"/>
<path fill="#FFFFFF" opacity="1.000000" stroke="none" 
	d="
M2280.329590,197.711761 
	C2299.240479,201.864090 2313.907471,211.412674 2323.480225,228.018829 
	C2331.254639,241.505600 2334.414307,256.287140 2335.019287,271.720276 
	C2335.231689,277.145020 2335.833984,282.557281 2335.955811,287.982056 
	C2336.092773,294.093597 2334.110107,295.998291 2328.225342,295.998505 
	C2265.405518,296.000885 2202.585693,296.001007 2139.765869,295.998383 
	C2133.513672,295.998138 2132.075195,294.455719 2131.987061,288.096313 
	C2131.743164,270.486176 2134.035645,253.392899 2141.952148,237.385239 
	C2152.102295,216.860718 2169.208496,205.124710 2190.657471,199.032379 
	C2209.929443,193.558411 2229.728516,192.189392 2249.594482,193.173203 
	C2259.768066,193.677017 2269.852295,195.982300 2280.329590,197.711761 
z"/>
<path fill="#FFFFFF" opacity="1.000000" stroke="none" 
	d="
M1342.000000,268.084778 
	C1343.869629,254.933975 1347.208862,242.698837 1353.914673,231.627502 
	C1363.720581,215.438217 1378.425903,205.312302 1396.199463,200.246155 
	C1407.492432,197.027313 1419.358887,195.574615 1431.067627,194.142517 
	C1439.730469,193.082977 1448.586182,192.694443 1457.298218,193.138611 
	C1473.343994,193.956650 1489.297729,195.872070 1504.185181,202.653427 
	C1522.469238,210.981934 1533.494507,225.142334 1539.248047,244.316605 
	C1543.539429,258.618042 1544.583130,273.127380 1544.965210,287.814423 
	C1545.131104,294.186981 1543.173096,295.999207 1536.894531,295.999329 
	C1474.248047,296.000458 1411.601562,296.000702 1348.955078,295.998901 
	C1342.566162,295.998718 1340.878052,294.482819 1341.036987,288.287781 
	C1341.205933,281.700714 1341.666748,275.121124 1342.000000,268.084778 
z"/>
<path fill="#CAFF4D" opacity="1.000000" stroke="none" 
	d="
M332.279602,322.783661 
	C338.922424,329.427795 338.901184,331.559052 332.382416,338.078033 
	C288.901184,381.560883 245.419739,425.043488 201.937531,468.525391 
	C195.906448,474.556396 194.126511,474.582184 188.255081,468.710724 
	C144.184006,424.639374 100.114449,380.566528 56.044750,336.493774 
	C50.688694,331.137390 50.660225,329.715271 56.007271,324.366058 
	C100.305122,280.050171 144.611023,235.742371 188.919907,191.437531 
	C193.822342,186.535538 196.277969,186.645706 201.643921,192.016510 
	C245.106140,235.518066 288.561951,279.026031 332.279602,322.783661 
z"/>
</svg>