<?xml version="1.0" encoding="UTF-8"?>
<svg id="Layer_1" data-name="Layer 1" xmlns="http://www.w3.org/2000/svg" xmlns:xlink="http://www.w3.org/1999/xlink" viewBox="0 0 202.01 258">
  <defs>
    <style>
      .cls-1 {
        fill: none;
      }

      .cls-2 {
        clip-path: url(#clippath);
      }

      .cls-3 {
        fill: #ffdf3a;
      }

      .cls-4 {
        fill: #ff5353;
      }

      .cls-5 {
        fill: #40a8f5;
      }

      .cls-6 {
        fill: #1a1a1a;
      }

      .cls-7 {
        fill: #28f77e;
      }
    </style>
    <clipPath id="clippath">
      <rect class="cls-1" width="202" height="258"/>
    </clipPath>
  </defs>
  <g class="cls-2">
    <g>
      <path class="cls-6" d="m163.34,253.54h-4.46v4.46h4.46v-4.46Z"/>
      <path class="cls-6" d="m181.05,235.71h0s-8.8-.01-8.8-.01v4.46h4.46v8.92h-8.92v-4.46h4.46v-4.46h-4.46v4.46h-4.46v8.92h13.37v4.46h4.46v-22.29h-.12Z"/>
      <path class="cls-6" d="m199.01,240.16v-4.46h-13.37v4.46h4.46v13.38h-4.46v4.46h13.37v-4.46h-4.46v-13.38h4.46Z"/>
      <path class="cls-6" d="m51.86,244.62v-4.46h13.38v-4.46h-17.84v13.38h17.84v4.46h4.46v-8.92h-17.84Z"/>
      <path class="cls-6" d="m65.12,253.54h-17.73v4.46h17.73v-4.46Z"/>
      <path class="cls-6" d="m2.81,240.16h4.46v13.38H2.81v4.46h13.38v-4.46h-4.46v-13.38h4.46v-4.46H2.81v4.46Z"/>
      <path class="cls-6" d="m69.69,240.16h8.92v17.84h4.46v-17.84h9.02v-4.46h-22.4v4.46Z"/>
      <path class="cls-6" d="m96.5,240.16h4.43v13.38h-4.43v4.46h13.32v-4.46h-4.43v-13.38h4.43v-4.46h-13.32v4.46Z"/>
      <path class="cls-6" d="m118.74,235.69h-4.45v22.31h13.37v-4.46h-8.92v-17.84Z"/>
      <path class="cls-6" d="m136.59,235.69h-4.46v22.31h13.38v-4.46h-8.92v-17.84Z"/>
      <path class="cls-6" d="m25.1,240.16v-4.46h-4.46v22.31h4.46v-13.38h4.46v-4.46h-4.46Z"/>
      <path class="cls-6" d="m34.02,244.62h-4.46v4.46h4.46v-4.46Z"/>
      <path class="cls-6" d="m38.48,249.08h-4.46v4.46h4.46v4.46h4.46v-22.31h-4.46v13.38Z"/>
      <path class="cls-6" d="m202.01,186.53v15.55H0V0h202.01v186.53Zm-15.54,0v-46.8h-15.55v46.8h15.55Zm0-62.35v-46.46h-46.8v46.46h46.8Zm0-62.01v-15.55h-46.8v15.55h46.8Zm0-31.08v-15.55h-46.8v15.55h46.8Zm-31.08,155.44v-46.8h-15.72v46.8h15.72Zm-31.26-15.55v-31.28h-15.36v15.64h-15.35v15.64h30.71Zm0-46.8v-46.46h-15.36v46.46h15.36Zm0-77.65V15.55h-30.89v15.38l-.09.27h-15.45v30.98h31.07v-15.64h15.36Zm-30.89,108.57v-15.37h-15.54v15.37h15.54Zm0-30.92v-46.46h-15.54v46.46h15.54Zm-31.08,62.35v-46.8H15.54v46.8h46.61Zm0-62.35v-46.46h-15.54v46.46h15.54Zm0-62.01v-30.98h-.13v-15.64h-15.41v46.63h15.54Zm-31.07,62.01v-46.46h-15.54v46.46h15.54Zm0-62.01V15.55h-15.54v46.63h15.54Z"/>
      <path class="cls-5" d="m186.46,139.73h-15.54v46.8h15.54v-46.8Z"/>
      <path class="cls-5" d="m186.46,77.72h-46.8v46.46h46.8v-46.46Z"/>
      <path class="cls-4" d="m186.46,46.63h-46.8v15.55h46.8v-15.55Z"/>
      <path class="cls-3" d="m186.46,15.55h-46.8v15.55h46.8v-15.55Z"/>
      <path class="cls-3" d="m155.38,139.73h-15.72v46.8h15.72v-46.8Z"/>
      <path class="cls-4" d="m124.13,139.73v31.26h-30.72v-15.63h15.35v-15.62h15.36Z"/>
      <path class="cls-3" d="m124.12,77.72h-15.36v46.46h15.36v-46.46Z"/>
      <path class="cls-5" d="m124.13,15.55v30.99h-15.45v-15.6h-15.45v-15.38h30.9Z"/>
      <path class="cls-3" d="m108.77,46.53v15.65h-31.07v-30.98h15.44v15.33h15.63Z"/>
      <path class="cls-6" d="m108.67,30.93v15.6h-15.54v-15.33l.09-.27h15.45Z"/>
      <path class="cls-7" d="m93.23,139.73h-15.54v15.37h15.54v-15.37Z"/>
      <path class="cls-4" d="m93.23,77.72h-15.54v46.46h15.54v-46.46Z"/>
      <path class="cls-5" d="m62.15,139.73v46.8H15.54v-46.8h46.61Z"/>
      <path class="cls-5" d="m62.15,77.72h-15.54v46.46h15.54v-46.46Z"/>
      <path class="cls-3" d="m62.15,31.2v30.98h-15.54V15.55h15.43v15.65h.11Z"/>
      <path class="cls-3" d="m31.08,77.72h-15.54v46.46h15.54v-46.46Z"/>
      <path class="cls-4" d="m31.08,15.55h-15.54v46.63h15.54V15.55Z"/>
    </g>
  </g>
</svg>