<?xml version="1.0" encoding="UTF-8" standalone="no"?>
<!-- Generator: Adobe Illustrator 25.0.1, SVG Export Plug-In . SVG Version: 6.00 Build 0)  -->

<svg
   version="1.1"
   id="Layer_1"
   x="0px"
   y="0px"
   viewBox="0 0 145.89 114.35"
   xml:space="preserve"
   sodipodi:docname="JuiceFS_logo_y.svg"
   width="145.89"
   height="114.35"
   inkscape:version="1.1.2 (b8e25be8, 2022-02-05)"
   xmlns:inkscape="http://www.inkscape.org/namespaces/inkscape"
   xmlns:sodipodi="http://sodipodi.sourceforge.net/DTD/sodipodi-0.dtd"
   xmlns:xlink="http://www.w3.org/1999/xlink"
   xmlns="http://www.w3.org/2000/svg"
   xmlns:svg="http://www.w3.org/2000/svg"><defs
   id="defs28"><clipPath
     clipPathUnits="userSpaceOnUse"
     id="clipPath126"><use
       x="0"
       y="0"
       xlink:href="#g122"
       id="use128"
       width="100%"
       height="100%" /></clipPath></defs><sodipodi:namedview
   id="namedview26"
   pagecolor="#ffffff"
   bordercolor="#666666"
   borderopacity="1.0"
   inkscape:pageshadow="2"
   inkscape:pageopacity="0.0"
   inkscape:pagecheckerboard="0"
   showgrid="false"
   fit-margin-top="10"
   fit-margin-left="10"
   fit-margin-right="10"
   fit-margin-bottom="10"
   lock-margins="true"
   inkscape:zoom="1.11"
   inkscape:cx="250.45045"
   inkscape:cy="-5.8558559"
   inkscape:window-width="1920"
   inkscape:window-height="957"
   inkscape:window-x="0"
   inkscape:window-y="25"
   inkscape:window-maximized="1"
   inkscape:current-layer="Layer_1" />
<style
   type="text/css"
   id="style9">
	.st0{fill-rule:evenodd;clip-rule:evenodd;fill:#35B558;}
	.st1{fill-rule:evenodd;clip-rule:evenodd;fill:#A9D7AA;}
</style>
<path
   id="JuiceFS_10_"
   class="st0"
   d="m 28.8,82.55 h 4.29 v 15.04 c 0,2.08 -0.68,3.72 -2.03,4.94 -1.35,1.21 -3.06,1.82 -5.13,1.82 -2.24,0 -4.02,-0.55 -5.33,-1.64 -1.31,-1.09 -1.94,-2.7 -1.89,-4.83 l 0.03,-0.09 h 4.19 c 0,1.13 0.27,1.96 0.81,2.47 0.54,0.52 1.27,0.77 2.18,0.77 0.8,0 1.47,-0.31 2.03,-0.92 0.56,-0.61 0.83,-1.46 0.83,-2.53 V 82.55 Z m 17.65,19.18 c -0.49,0.84 -1.12,1.48 -1.87,1.93 -0.76,0.45 -1.63,0.68 -2.61,0.68 -1.68,0 -3,-0.54 -3.95,-1.62 -0.95,-1.08 -1.42,-2.75 -1.42,-5.02 v -9.64 h 4.29 v 9.67 c 0,1.16 0.2,1.99 0.59,2.5 0.39,0.51 0.97,0.76 1.74,0.76 0.69,0 1.28,-0.11 1.77,-0.33 0.49,-0.22 0.9,-0.55 1.21,-0.98 V 88.07 h 4.31 v 15.97 h -3.68 z m 11.83,2.3 H 53.97 V 88.06 h 4.31 z m 0,-19.79 h -4.31 v -3.23 h 4.31 z m 10.24,16.8 c 0.77,0 1.38,-0.22 1.84,-0.67 0.46,-0.45 0.69,-1.05 0.69,-1.79 h 3.91 L 75,98.67 c 0.04,1.61 -0.57,2.96 -1.82,4.05 -1.25,1.09 -2.81,1.63 -4.67,1.63 -2.38,0 -4.22,-0.75 -5.5,-2.26 -1.29,-1.51 -1.93,-3.44 -1.93,-5.8 v -0.44 c 0,-2.35 0.64,-4.28 1.93,-5.8 1.28,-1.51 3.12,-2.27 5.5,-2.27 1.97,0 3.55,0.56 4.76,1.68 1.21,1.12 1.79,2.6 1.75,4.43 l -0.03,0.09 h -3.93 c 0,-0.83 -0.23,-1.51 -0.68,-2.06 -0.45,-0.55 -1.08,-0.82 -1.87,-0.82 -1.14,0 -1.95,0.44 -2.41,1.33 -0.47,0.89 -0.7,2.03 -0.7,3.42 v 0.44 c 0,1.43 0.23,2.57 0.7,3.45 0.46,0.86 1.27,1.3 2.42,1.3 z m 16.01,3.3 c -2.3,0 -4.14,-0.74 -5.52,-2.21 -1.38,-1.48 -2.07,-3.35 -2.07,-5.62 v -0.59 c 0,-2.37 0.65,-4.32 1.96,-5.86 1.31,-1.54 3.05,-2.3 5.25,-2.29 2.15,0 3.83,0.65 5.02,1.95 1.19,1.3 1.79,3.05 1.79,5.27 v 2.35 h -9.53 l -0.03,0.09 c 0.08,1.05 0.43,1.92 1.06,2.6 0.62,0.68 1.47,1.02 2.55,1.02 0.95,0 1.75,-0.1 2.38,-0.29 0.63,-0.19 1.32,-0.49 2.07,-0.91 l 1.17,2.66 c -0.65,0.53 -1.5,0.97 -2.55,1.32 -1.09,0.34 -2.26,0.51 -3.55,0.51 z M 84.15,91.09 c -0.8,0 -1.43,0.3 -1.89,0.91 -0.46,0.61 -0.75,1.41 -0.86,2.41 l 0.04,0.07 h 5.28 V 94.1 c 0,-0.91 -0.21,-1.65 -0.64,-2.19 -0.42,-0.55 -1.06,-0.82 -1.93,-0.82 z m 22.98,4.02 h -9 v 8.93 H 93.82 V 82.55 h 14.82 v 3.32 H 98.13 v 5.92 h 9 z m 15.73,3.32 c 0,-0.83 -0.29,-1.49 -0.88,-1.99 -0.59,-0.5 -1.61,-0.97 -3.08,-1.42 -2.56,-0.74 -4.49,-1.61 -5.8,-2.63 -1.31,-1.02 -1.96,-2.4 -1.96,-4.16 0,-1.76 0.75,-3.2 2.25,-4.32 1.5,-1.12 3.42,-1.67 5.75,-1.67 2.36,0 4.28,0.63 5.77,1.88 1.49,1.25 2.2,2.8 2.15,4.64 l -0.03,0.09 h -4.18 c 0,-0.99 -0.33,-1.8 -1,-2.41 -0.66,-0.61 -1.6,-0.92 -2.8,-0.92 -1.15,0 -2.04,0.26 -2.67,0.77 -0.63,0.51 -0.94,1.17 -0.94,1.96 0,0.73 0.34,1.33 1.01,1.79 0.67,0.47 1.84,0.96 3.49,1.48 2.37,0.66 4.17,1.53 5.39,2.61 1.22,1.08 1.83,2.5 1.83,4.26 0,1.84 -0.73,3.29 -2.18,4.35 -1.45,1.06 -3.37,1.59 -5.75,1.59 -2.34,0 -4.38,-0.6 -6.12,-1.81 -1.74,-1.21 -2.59,-2.89 -2.54,-5.07 l 0.03,-0.09 h 4.19 c 0,1.28 0.39,2.22 1.17,2.81 0.78,0.6 1.87,0.89 3.27,0.89 1.17,0 2.07,-0.24 2.69,-0.72 0.63,-0.46 0.94,-1.11 0.94,-1.91 z" />
<g
   id="g15"
   transform="translate(-234.17,-304.94)">
	<path
   id="Fill-1_13_"
   class="st1"
   d="m 316.3,364.26 c 12.28,12.46 32.26,12.46 44.55,0 12.28,-12.46 12.28,-32.74 0,-45.2 l -0.44,-0.44 c -2.41,-2.45 -5.57,-3.67 -8.73,-3.67 -3.16,0 -6.32,1.22 -8.74,3.67 l -4.41,4.47 c 0.23,0.23 1.82,1.77 3.6,3.57 l 5.61,5.7 c 5.06,5.13 5.06,13.48 0,18.61 -5.06,5.13 -13.28,5.13 -18.34,0 l -31.88,-32.35 c -2.41,-2.45 -5.57,-3.67 -8.73,-3.67 -3.16,0 -6.32,1.22 -8.74,3.67 l -4.41,4.47 c 0.24,0.22 40.66,41.17 40.66,41.17 z" />
	<path
   class="st0"
   d="m 343.05,318.52 c 2.21,-2.21 5.27,-3.58 8.64,-3.58 h -26.75 c -3.55,0 -5.75,1.46 -6.73,2.29 -0.67,0.57 -1.32,1.18 -1.95,1.82 l -31.44,31.91 c -5.06,5.13 -13.29,5.13 -18.34,0 -5.06,-5.13 -5.06,-13.48 0,-18.61 l 13.69,-13.83 c 2.21,-2.21 5.27,-3.58 8.64,-3.58 h -24.43 c -3.37,0 -7.41,0.75 -11,4.11 -12.28,12.46 -12.28,32.74 0,45.2 12.28,12.46 32.26,12.46 44.55,0 l 31.44,-31.91 z"
   id="path13" />
</g>

<g
   id="g124"
   clip-path="url(#clipPath126)"
   transform="translate(-234.17,-304.94)"><g
     inkscape:label="Clip"
     id="g122"><path
       id="path110"
       class="st0"
       d="m 262.97,387.49 h 4.29 v 15.04 c 0,2.08 -0.68,3.72 -2.03,4.94 -1.35,1.21 -3.06,1.82 -5.13,1.82 -2.24,0 -4.02,-0.55 -5.33,-1.64 -1.31,-1.09 -1.94,-2.7 -1.89,-4.83 l 0.03,-0.09 h 4.19 c 0,1.13 0.27,1.96 0.81,2.47 0.54,0.52 1.27,0.77 2.18,0.77 0.8,0 1.47,-0.31 2.03,-0.92 0.56,-0.61 0.83,-1.46 0.83,-2.53 v -15.03 z m 17.65,19.18 c -0.49,0.84 -1.12,1.48 -1.87,1.93 -0.76,0.45 -1.63,0.68 -2.61,0.68 -1.68,0 -3,-0.54 -3.95,-1.62 -0.95,-1.08 -1.42,-2.75 -1.42,-5.02 V 393 h 4.29 v 9.67 c 0,1.16 0.2,1.99 0.59,2.5 0.39,0.51 0.97,0.76 1.74,0.76 0.69,0 1.28,-0.11 1.77,-0.33 0.49,-0.22 0.9,-0.55 1.21,-0.98 v -11.61 h 4.31 v 15.97 H 281 Z m 11.83,2.3 h -4.31 V 393 h 4.31 z m 0,-19.79 h -4.31 v -3.23 h 4.31 z m 10.24,16.8 c 0.77,0 1.38,-0.22 1.84,-0.67 0.46,-0.45 0.69,-1.05 0.69,-1.79 h 3.91 l 0.04,0.09 c 0.04,1.61 -0.57,2.96 -1.82,4.05 -1.25,1.09 -2.81,1.63 -4.67,1.63 -2.38,0 -4.22,-0.75 -5.5,-2.26 -1.29,-1.51 -1.93,-3.44 -1.93,-5.8 v -0.44 c 0,-2.35 0.64,-4.28 1.93,-5.8 1.28,-1.51 3.12,-2.27 5.5,-2.27 1.97,0 3.55,0.56 4.76,1.68 1.21,1.12 1.79,2.6 1.75,4.43 l -0.03,0.09 h -3.93 c 0,-0.83 -0.23,-1.51 -0.68,-2.06 -0.45,-0.55 -1.08,-0.82 -1.87,-0.82 -1.14,0 -1.95,0.44 -2.41,1.33 -0.47,0.89 -0.7,2.03 -0.7,3.42 v 0.44 c 0,1.43 0.23,2.57 0.7,3.45 0.46,0.86 1.27,1.3 2.42,1.3 z m 16.01,3.3 c -2.3,0 -4.14,-0.74 -5.52,-2.21 -1.38,-1.48 -2.07,-3.35 -2.07,-5.62 v -0.59 c 0,-2.37 0.65,-4.32 1.96,-5.86 1.31,-1.54 3.05,-2.3 5.25,-2.29 2.15,0 3.83,0.65 5.02,1.95 1.19,1.3 1.79,3.05 1.79,5.27 v 2.35 h -9.53 l -0.03,0.09 c 0.08,1.05 0.43,1.92 1.06,2.6 0.62,0.68 1.47,1.02 2.55,1.02 0.95,0 1.75,-0.1 2.38,-0.29 0.63,-0.19 1.32,-0.49 2.07,-0.91 l 1.17,2.66 c -0.65,0.53 -1.5,0.97 -2.55,1.32 -1.09,0.34 -2.26,0.51 -3.55,0.51 z m -0.38,-13.25 c -0.8,0 -1.43,0.3 -1.89,0.91 -0.46,0.61 -0.75,1.41 -0.86,2.41 l 0.04,0.07 h 5.28 v -0.38 c 0,-0.91 -0.21,-1.65 -0.64,-2.19 -0.42,-0.55 -1.06,-0.82 -1.93,-0.82 z m 22.98,4.02 h -9 v 8.93 h -4.31 v -21.49 h 14.82 v 3.32 H 332.3 v 5.92 h 9 z m 15.73,3.32 c 0,-0.83 -0.29,-1.49 -0.88,-1.99 -0.59,-0.5 -1.61,-0.97 -3.08,-1.42 -2.56,-0.74 -4.49,-1.61 -5.8,-2.63 -1.31,-1.02 -1.96,-2.4 -1.96,-4.16 0,-1.76 0.75,-3.2 2.25,-4.32 1.5,-1.12 3.42,-1.67 5.75,-1.67 2.36,0 4.28,0.63 5.77,1.88 1.49,1.25 2.2,2.8 2.15,4.64 l -0.03,0.09 h -4.18 c 0,-0.99 -0.33,-1.8 -1,-2.41 -0.66,-0.61 -1.6,-0.92 -2.8,-0.92 -1.15,0 -2.04,0.26 -2.67,0.77 -0.63,0.51 -0.94,1.17 -0.94,1.96 0,0.73 0.34,1.33 1.01,1.79 0.67,0.47 1.84,0.96 3.49,1.48 2.37,0.66 4.17,1.53 5.39,2.61 1.22,1.08 1.83,2.5 1.83,4.26 0,1.84 -0.73,3.29 -2.18,4.35 -1.45,1.06 -3.37,1.59 -5.75,1.59 -2.34,0 -4.38,-0.6 -6.12,-1.81 -1.74,-1.21 -2.59,-2.89 -2.54,-5.07 l 0.03,-0.09 h 4.19 c 0,1.28 0.39,2.22 1.17,2.81 0.78,0.6 1.87,0.89 3.27,0.89 1.17,0 2.07,-0.24 2.69,-0.72 0.63,-0.46 0.94,-1.11 0.94,-1.91 z" /><g
       id="g116">
	<path
   id="path112"
   class="st1"
   d="m 316.3,364.26 c 12.28,12.46 32.26,12.46 44.55,0 12.28,-12.46 12.28,-32.74 0,-45.2 l -0.44,-0.44 c -2.41,-2.45 -5.57,-3.67 -8.73,-3.67 -3.16,0 -6.32,1.22 -8.74,3.67 l -4.41,4.47 c 0.23,0.23 1.82,1.77 3.6,3.57 l 5.61,5.7 c 5.06,5.13 5.06,13.48 0,18.61 -5.06,5.13 -13.28,5.13 -18.34,0 l -31.88,-32.35 c -2.41,-2.45 -5.57,-3.67 -8.73,-3.67 -3.16,0 -6.32,1.22 -8.74,3.67 l -4.41,4.47 c 0.24,0.22 40.66,41.17 40.66,41.17 z" />
	<path
   class="st0"
   d="m 343.05,318.52 c 2.21,-2.21 5.27,-3.58 8.64,-3.58 h -26.75 c -3.55,0 -5.75,1.46 -6.73,2.29 -0.67,0.57 -1.32,1.18 -1.95,1.82 l -31.44,31.91 c -5.06,5.13 -13.29,5.13 -18.34,0 -5.06,-5.13 -5.06,-13.48 0,-18.61 l 13.69,-13.83 c 2.21,-2.21 5.27,-3.58 8.64,-3.58 h -24.43 c -3.37,0 -7.41,0.75 -11,4.11 -12.28,12.46 -12.28,32.74 0,45.2 12.28,12.46 32.26,12.46 44.55,0 l 31.44,-31.91 z"
   id="path114" />
</g></g></g></svg>
