<?xml version="1.0" encoding="utf-8"?>
<!-- Generator: Adobe Illustrator 26.0.3, SVG Export Plug-In . SVG Version: 6.00 Build 0)  -->
<svg version="1.0" id="katman_1" xmlns="http://www.w3.org/2000/svg" xmlns:xlink="http://www.w3.org/1999/xlink" x="0px" y="0px"
	 viewBox="0 0 800 600" style="enable-background:new 0 0 800 600;" xml:space="preserve">
<style type="text/css">
	.st0{fill:#4279F4;}
	.st1{fill:#0028AA;}
	.st2{fill:#014BD1;}
	.st3{fill:#BEDCFF;}
	.st4{fill:#6CA1FF;}
	.st5{fill:#A1C3FF;}
	
		.st6{clip-path:url(#SVGID_00000151505652981712344040000015851399941536428971_);fill:none;stroke:#4279F4;stroke-width:5.3126;stroke-miterlimit:10;}
	
		.st7{clip-path:url(#SVGID_00000140732803956877361720000005913103859438536860_);fill:none;stroke:#0028AA;stroke-width:5.3126;stroke-miterlimit:10;}
</style>
<g>
	<path class="st0" d="M329,175.2l6.8,169.5l122.4-156.3c3.9-4.9,11-5.8,15.9-1.8l76.4,61.3L525.6,139L329,175.2z M329,175.2"/>
	<path class="st1" d="M340,375.8h108.6L382,322.3L340,375.8z M340,375.8"/>
	<path class="st2" d="M468.9,211.3l-73,93.2l77.8,62.4l73.8-92.6L468.9,211.3z M468.9,211.3"/>
	<path class="st3" d="M308.5,158.8L308.5,158.8l64.2-80.6l-103.6,49.9l-25.6,112.1L308.5,158.8z M308.5,158.8"/>
	<path class="st4" d="M245,274.6l68.8,86.3l-6.6-164.3L245,274.6z M245,274.6"/>
	<path class="st5" d="M505.7,119.7l-99-47.7L345,149.3L505.7,119.7z M505.7,119.7"/>
	<path class="st0" d="M172.4,523.6v-74.3h9.5v38.9l34-38.9h10.6l-28.9,32.7l31.5,41.6h-11.2L191.7,489l-9.7,11v23.5H172.4z
		 M238.9,507.3v-36.9h9v37.2c-0.1,2.9,1.4,5.5,3.9,7c5.6,3.3,12.6,3.3,18.3,0c2.5-1.4,4-4.1,3.9-7v-37.2h9v36.8
		c0.2,5.2-2.4,10.2-6.8,13.1c-9.2,6.3-21.3,6.3-30.5,0C241.3,517.5,238.7,512.5,238.9,507.3L238.9,507.3z M298.4,523.6v-79.7h9v27.9
		c5-1.8,10.2-2.8,15.5-2.9c3.6-0.1,7.1,0.7,10.3,2.3c2.8,1.4,5.2,3.6,6.9,6.2c1.7,2.6,2.9,5.4,3.7,8.4c0.8,3,1.2,6.1,1.2,9.3
		c0,9.3-2.4,16.4-7.3,21.2c-4.8,4.8-12.5,7.2-22.9,7.2H298.4z M307.4,515.5h7.5c7.5,0,12.9-1.6,16.1-4.9c3.3-3.3,4.9-8.5,5-15.8
		c0.1-4.4-1.1-8.7-3.3-12.5c-2.1-3.5-5.9-5.6-10-5.3c-5.2-0.1-10.5,0.7-15.4,2.6L307.4,515.5z M356.3,496.9c0-8.5,2.3-15.3,6.8-20.4
		c4.5-5.1,11.1-7.9,17.9-7.6c14.8,0,22.2,10.4,22.2,31.3h-37.9c0.3,4.3,2,8.4,4.8,11.7c2.9,3.4,7.2,5.2,13.1,5.1
		c6,0.2,12-1,17.5-3.3v8.3c-5.2,2-10.8,3.1-16.4,3.1c-4.4,0.1-8.7-0.7-12.8-2.3c-3.4-1.3-6.4-3.5-8.8-6.2c-2.2-2.6-3.9-5.7-5-8.9
		C356.8,504.2,356.3,500.6,356.3,496.9L356.3,496.9z M365.7,493.4h28.7c-0.3-4.2-1.6-8.3-3.9-11.8c-2.1-3-5.6-4.8-9.3-4.6
		c-3.9-0.1-7.7,1.6-10.3,4.5C367.8,484.8,366,489,365.7,493.4L365.7,493.4z M365.7,493.4"/>
	<g>
		<defs>
			<rect id="SVGID_1_" x="169.8" y="72" width="460.4" height="456"/>
		</defs>
		<clipPath id="SVGID_00000024684908370752010650000013768090432584037515_">
			<use xlink:href="#SVGID_1_"  style="overflow:visible;"/>
		</clipPath>
		
			<path style="clip-path:url(#SVGID_00000024684908370752010650000013768090432584037515_);fill:none;stroke:#4279F4;stroke-width:5.3126;stroke-miterlimit:10;" d="
			M172.4,523.6v-74.3h9.5v38.9l34-38.9h10.6l-28.9,32.7l31.5,41.6h-11.2L191.7,489l-9.7,11v23.5H172.4z M238.9,507.3v-36.9h9v37.2
			c-0.1,2.9,1.4,5.5,3.9,7c5.6,3.3,12.6,3.3,18.3,0c2.5-1.4,4-4.1,3.9-7v-37.2h9v36.8c0.2,5.2-2.4,10.2-6.8,13.1
			c-9.2,6.3-21.3,6.3-30.5,0C241.3,517.5,238.7,512.5,238.9,507.3L238.9,507.3z M298.4,523.6v-79.7h9v27.9c5-1.8,10.2-2.8,15.5-2.9
			c3.6-0.1,7.1,0.7,10.3,2.3c2.8,1.4,5.2,3.6,6.9,6.2c1.7,2.6,2.9,5.4,3.7,8.4c0.8,3,1.2,6.1,1.2,9.3c0,9.3-2.4,16.4-7.3,21.2
			c-4.8,4.8-12.5,7.2-22.9,7.2H298.4z M307.4,515.5h7.5c7.5,0,12.9-1.6,16.1-4.9c3.3-3.3,4.9-8.5,5-15.8c0.1-4.4-1.1-8.7-3.3-12.5
			c-2.1-3.5-5.9-5.6-10-5.3c-5.2-0.1-10.5,0.7-15.4,2.6L307.4,515.5z M356.3,496.9c0-8.5,2.3-15.3,6.8-20.4
			c4.5-5.1,11.1-7.9,17.9-7.6c14.8,0,22.2,10.4,22.2,31.3h-37.9c0.3,4.3,2,8.4,4.8,11.7c2.9,3.4,7.2,5.2,13.1,5.1
			c6,0.2,12-1,17.5-3.3v8.3c-5.2,2-10.8,3.1-16.4,3.1c-4.4,0.1-8.7-0.7-12.8-2.3c-3.4-1.3-6.4-3.5-8.8-6.2c-2.2-2.6-3.9-5.7-5-8.9
			C356.8,504.2,356.3,500.6,356.3,496.9L356.3,496.9z M365.7,493.4h28.7c-0.3-4.2-1.6-8.3-3.9-11.8c-2.1-3-5.6-4.8-9.3-4.6
			c-3.9-0.1-7.7,1.6-10.3,4.5C367.8,484.8,366,489,365.7,493.4L365.7,493.4z M365.7,493.4"/>
	</g>
	<path class="st1" d="M414.4,478.6v-8.1h8.3v-12.6c-0.2-3.7,1.2-7.4,3.8-10c2.5-2.5,5.9-3.9,9.4-3.8H449v8.2h-8.3
		c-3.7,0-6.1,0.7-7.3,2.2c-1.2,1.5-1.8,4.2-1.8,8.3v7.7h14v8.1h-14v45h-9v-45L414.4,478.6z M460.8,523.6v-79.7h9v79.7H460.8z
		 M492.5,517c-10.3-9.8-12.2-25.5-4.6-37.5c7.7-12,22.7-16.8,35.9-11.6c13.2,5.2,20.8,19.1,18.2,33.1c-2.7,14-14.8,24.1-29.1,24.1
		C505.4,525.4,497.9,522.5,492.5,517L492.5,517z M498.9,482.7c-7.1,8.2-7.1,20.4,0,28.6c7.8,7.7,20.4,7.7,28.2,0
		c7.1-8.2,7.1-20.4,0-28.6C519.3,475,506.7,475,498.9,482.7L498.9,482.7z M549.1,470.4h9.5l12.1,42l12.3-42h8.9l12.2,42.1l12.2-42.1
		h9.5l-16.7,53.1h-10.2l-11.3-40.8l-11.2,40.8h-10.7L549.1,470.4z M549.1,470.4"/>
	<g>
		<defs>
			<rect id="SVGID_00000085230472506434434580000001608029978330199465_" x="169.8" y="72" width="460.4" height="456"/>
		</defs>
		<clipPath id="SVGID_00000010306900198246888990000000641100890585240501_">
			<use xlink:href="#SVGID_00000085230472506434434580000001608029978330199465_"  style="overflow:visible;"/>
		</clipPath>
		
			<path style="clip-path:url(#SVGID_00000010306900198246888990000000641100890585240501_);fill:none;stroke:#0028AA;stroke-width:5.3126;stroke-miterlimit:10;" d="
			M414.4,478.6v-8.1h8.3v-12.6c-0.2-3.7,1.2-7.4,3.8-10c2.5-2.5,5.9-3.9,9.4-3.8H449v8.2h-8.3c-3.7,0-6.1,0.7-7.3,2.2
			c-1.2,1.5-1.8,4.2-1.8,8.3v7.7h14v8.1h-14v45h-9v-45L414.4,478.6z M460.8,523.6v-79.7h9v79.7H460.8z M492.5,517
			c-10.3-9.8-12.2-25.5-4.6-37.5c7.7-12,22.7-16.8,35.9-11.6c13.2,5.2,20.8,19.1,18.2,33.1c-2.7,14-14.8,24.1-29.1,24.1
			C505.4,525.4,497.9,522.5,492.5,517L492.5,517z M498.9,482.7c-7.1,8.2-7.1,20.4,0,28.6c7.8,7.7,20.4,7.7,28.2,0
			c7.1-8.2,7.1-20.4,0-28.6C519.3,475,506.7,475,498.9,482.7L498.9,482.7z M549.1,470.4h9.5l12.1,42l12.3-42h8.9l12.2,42.1
			l12.2-42.1h9.5l-16.7,53.1h-10.2l-11.3-40.8l-11.2,40.8h-10.7L549.1,470.4z M549.1,470.4"/>
	</g>
</g>
</svg>
