<svg xmlns="http://www.w3.org/2000/svg" viewBox="0 0 179.63 140.2"><defs><style>.cls-1{fill:#258c82;}.cls-2{fill:#2ce5b5;}</style></defs><title>logo 4</title><g id="Layer_2" data-name="Layer 2"><g id="Layer_1-2" data-name="Layer 1"><path class="cls-1" d="M0,139.38V99.78H8.8v39.6Z"/><path class="cls-1" d="M44.77,139.38H36v-2.2a12.36,12.36,0,0,1-8.58,3,12.7,12.7,0,0,1-9.54-4.1,16,16,0,0,1,0-21,12.69,12.69,0,0,1,9.54-4.13A12.32,12.32,0,0,1,36,114v-2.2h8.8ZM34,130.72a7.55,7.55,0,0,0,0-10.26,6.45,6.45,0,0,0-4.76-2,6.24,6.24,0,0,0-4.78,2,8,8,0,0,0,0,10.31,6.29,6.29,0,0,0,4.78,2A6.52,6.52,0,0,0,34,130.72Z"/><path class="cls-1" d="M71.06,139.38l-9-10H60.5v10H51.7V99.78h8.8v21.39h1.21l8.74-9.4H81.07L69,124.91l13.36,14.47Z"/><path class="cls-1" d="M111.15,127.83H90.91a7.18,7.18,0,0,0,2.15,3.9,5.46,5.46,0,0,0,3.79,1.43,6.19,6.19,0,0,0,5.89-3.19l7.81,1.6a13.23,13.23,0,0,1-5.31,6.46,15.72,15.72,0,0,1-8.39,2.17,14.29,14.29,0,0,1-10.34-4.1,15.18,15.18,0,0,1,0-21,14.35,14.35,0,0,1,10.4-4.13A13.75,13.75,0,0,1,107,115a14.6,14.6,0,0,1,4.18,10.61Zm-17.82-8.58a5.74,5.74,0,0,0-2.25,3.19h11.38a5.87,5.87,0,0,0-2.09-3.25,5.67,5.67,0,0,0-3.46-1.1A6.12,6.12,0,0,0,93.33,119.25Z"/><path class="cls-2" d="M125.34,118.26h17.27v7.92H125.34v13.2h-9.07V102.53h28.49v8H125.34Z"/><path class="cls-2" d="M174.07,104.54a12.27,12.27,0,0,1,5.12,7.83l-8.91,1.82a6,6,0,0,0-2.31-3.82,6.75,6.75,0,0,0-4.13-1.35,5.66,5.66,0,0,0-3.57,1.07,3.27,3.27,0,0,0-1.38,2.67q0,2.42,3,3.08l7.65,1.7q10.11,2.26,10.11,10.73a10.22,10.22,0,0,1-4.34,8.8,18,18,0,0,1-10.83,3.13,19.49,19.49,0,0,1-10.92-2.94,11.23,11.23,0,0,1-5.2-8.22l9.35-1.82q1.32,5.44,7.26,5.45a6.7,6.7,0,0,0,4-1,3.23,3.23,0,0,0,1.46-2.75,2.88,2.88,0,0,0-.75-2.09,5,5,0,0,0-2.66-1.15l-7.7-1.65q-9.9-2.25-9.9-10.67a10.19,10.19,0,0,1,4-8.47q4-3.14,10.56-3.13A17.26,17.26,0,0,1,174.07,104.54Z"/><path class="cls-1" d="M160.93,40a25.74,25.74,0,0,0-5-9.56c-1.13-5.66-3.54-11-7.52-14.32a21.08,21.08,0,0,0-8.63-4.63,1,1,0,0,0-1.16,1.31c1,2.61,2.64,8,1.91,12.21a23.73,23.73,0,0,0-3.24-5.6c-1.87-2.42-2.92-3.77-2.35-6.65.49-2.5,3.81-4.58,7.89-5.29a1,1,0,0,0,.5-1.65C141,3.73,136.21,0,130.56,0c-7.9,0-12.13,4.06-13.34,10.87-1,5.79.55,9.92,1.69,12.94.19.48.35.92.49,1.31-.92-.63-2-1.29-3.11-1.95A53.54,53.54,0,0,0,89.6,16.32a53.56,53.56,0,0,0-26.7,6.85c-1.15.66-2.19,1.32-3.11,1.95.14-.39.3-.83.49-1.31,1.14-3,2.71-7.15,1.69-12.94C60.77,4.06,56.53,0,48.63,0,43,0,38.17,3.73,35.89,5.86a1,1,0,0,0,.5,1.65c4.08.71,7.4,2.79,7.89,5.29.57,2.88-.48,4.23-2.35,6.65a24.08,24.08,0,0,0-3.24,5.6c-.73-4.23.94-9.6,1.91-12.21a1,1,0,0,0-1.15-1.31,21,21,0,0,0-8.64,4.63c-4,3.36-6.39,8.66-7.52,14.32a25.74,25.74,0,0,0-5,9.56c-1.9,8.07-2.5,16.78,4.59,25.11,4.55,5.34,11.82,8.11,20.82,8.11a23.12,23.12,0,0,1,5.41,1.61C56,77.42,67.57,81.68,89.6,81.68s33.6-4.26,40.51-6.81a23.12,23.12,0,0,1,5.41-1.61c9,0,16.28-2.77,20.82-8.11C163.43,56.82,162.83,48.11,160.93,40Z"/><path class="cls-2" d="M135.52,68.36c-6.12,0-15.31,8.42-45.92,8.42s-39.8-8.42-45.93-8.42c-24.49,0-21.73-23.11-21.73-23.11S26.47,56.79,38,56.79a20.33,20.33,0,0,0,4.16-.44.56.56,0,0,0,0-1.08c-17.83-5.33-18-26.17-7.4-36.2-4.48,19.06,8.88,25,14,26.61a.51.51,0,0,0,.51-.84C46,41.43,38.47,32,45.82,22.44,55,10.5,42.75,5.91,42.75,5.91a19.24,19.24,0,0,1,5.88-1c3.54,0,7.54,1.29,8.51,6.82,1.81,10.23-7,13.81-.66,22.06a.41.41,0,0,0,.66,0h0s11-12.55,32.46-12.55,32.45,12.55,32.45,12.55h0a.41.41,0,0,0,.66,0c6.37-8.25-2.47-11.83-.66-22.06,1-5.53,5-6.82,8.51-6.82a19.24,19.24,0,0,1,5.88,1s-12.25,4.59-3.06,16.53c7.34,9.54-.19,19-3.5,22.4a.51.51,0,0,0,.51.84c5.13-1.56,18.49-7.55,14-26.61,10.62,10,10.44,30.87-7.4,36.2a.56.56,0,0,0,0,1.08,20.33,20.33,0,0,0,4.16.44c11.52,0,16.06-11.54,16.06-11.54S160,68.36,135.52,68.36Z"/><path class="cls-1" d="M69.39,48a4.29,4.29,0,1,0-8.57,0c0,2.36,1.92,3.06,4.28,3.06S69.39,50.39,69.39,48Z"/><path class="cls-1" d="M118.37,48a4.29,4.29,0,1,0-8.57,0c0,2.36,1.92,3.06,4.29,3.06S118.37,50.39,118.37,48Z"/><path class="cls-1" d="M89.6,64.87A39.58,39.58,0,0,1,70.82,60a2,2,0,0,1-.3-3.22h0a2,2,0,0,1,2.22-.24C76.55,58.68,82.82,60,89.6,60s13.05-1.29,16.85-3.4a2,2,0,0,1,2.22.24h0a2,2,0,0,1-.3,3.22A39.57,39.57,0,0,1,89.6,64.87Z"/><path class="cls-1" d="M51.34,70.52a11.71,11.71,0,0,1-5.9-5.22.24.24,0,0,0-.45.11V66a2.82,2.82,0,0,1-1.15,2.27l-.19.14,1.34.14Z"/><path class="cls-1" d="M127.81,70.52a11.7,11.7,0,0,0,5.91-5.22.24.24,0,0,1,.45.11V66a2.82,2.82,0,0,0,1.15,2.27l.19.14-1.34.14Z"/><path class="cls-1" d="M58.66,32.28a28.16,28.16,0,0,0-2.9,3.17.23.23,0,0,1-.41-.19c.13-.65.26-1.25.36-1.68a1.71,1.71,0,0,0-.2-1.25l-.34-.57Z"/><path class="cls-1" d="M120.54,32.28a28.13,28.13,0,0,1,2.91,3.17.23.23,0,0,0,.41-.19c-.14-.65-.27-1.25-.37-1.68a1.76,1.76,0,0,1,.2-1.25l.35-.57Z"/></g></g></svg>