<svg xmlns="http://www.w3.org/2000/svg" viewBox="0 0 569.03 131.61"><path d="M181.51,90.48h31.91v15.24H163.3V25.48h18.21ZM4.87,5.62H126.81V126H4.87ZM15.65,115.39H116V16.22H15.65ZM37.08,25.64,58.29,62.82l-23.6,43.06h15.2L65.62,76.49l16.75,29.39H97.85L52.56,25.63ZM348.81,46.2a21,21,0,0,0-11.07,2.86,25.84,25.84,0,0,0-7.5,7H330c-2.5-6.07-8.45-9.88-15.95-9.88-10,0-15.12,5.47-17.62,9.17h-.36l-.83-7.86H280.48v58.21H298.1V71.79a11.91,11.91,0,0,1,.71-4.52c1.07-3,3.81-6.55,8.45-6.55,5.72,0,8.34,5,8.34,12.38v32.62h17.62v-34a15.06,15.06,0,0,1,.71-4.65,8.86,8.86,0,0,1,8.33-6.31c5.84,0,8.58,4.88,8.58,13.34v31.66h17.61V71.44C368.45,54.06,360,46.2,348.81,46.2Zm136.62-23h18.1l0,82.47H487.93l-.83-8.57h-.24c-3.69,6.55-10.72,9.88-18.22,9.88-13.81,0-24.88-11.78-24.88-29.88-.12-19.64,12.14-30.95,26.07-30.95,7.15,0,12.74,2.5,15.36,6.55h.24Zm0,48.9a28.89,28.89,0,0,0-.24-3.21c-1.07-4.88-5-8.93-10.59-8.93-8.22,0-12.5,7.38-12.5,16.55,0,9.88,4.88,16.07,12.38,16.07A10.58,10.58,0,0,0,485,83.94a15.3,15.3,0,0,0,.48-4.17Zm78.08-.84v34.41h-15.6l-1.07-5.83h-.36c-3.82,4.64-9.8,7.14-16.73,7.14-11.83,0-18.88-8.57-18.88-17.86,0-15.12,15.39-19.56,34.29-19.56V66.07c0-3.09-1.67-7.5-10.63-7.5a33.85,33.85,0,0,0-13.67,3.09l-5.8-10.35c4.06-2.26,12.06-5.12,22.7-5.12C557.23,46.19,563.51,57.62,563.51,71.31Zm-17.75,9c-10,0-18.11.68-18.15,8,0,4.67,4.29,5.93,8.35,5.93a9.91,9.91,0,0,0,9.44-6.67,12.83,12.83,0,0,0,.36-3.09Zm-109-4.76c0,20.94-13.16,31.4-26.32,31.4-6.7,0-13.16-2.5-17.27-9.39H393l-.7,8.08H377.6V23.25h17.84V54.38h.23c3.41-5,9.4-8.2,17.39-8.2C426.81,46.18,436.91,57.71,436.8,75.55Zm-18.22.72c0-9-4-16.18-12.33-16.18-4.82,0-9.28,3.69-10.46,8.92a15.53,15.53,0,0,0-.35,3.33v8.57a13.72,13.72,0,0,0,.35,3.21,10.85,10.85,0,0,0,10.46,8.56C413.89,92.68,418.58,86.73,418.58,76.27Zm-146-5v34.41H257l-1.07-5.83h-.36c-3.83,4.64-9.8,7.14-16.73,7.14C227,107,220,98.46,220,89.17c0-15.12,15.39-19.56,34.29-19.56V66.07c0-3.09-1.67-7.5-10.63-7.5A33.77,33.77,0,0,0,230,61.66l-5.81-10.35c4.07-2.26,12.07-5.12,22.71-5.12C266.33,46.19,272.61,57.62,272.61,71.31Zm-17.75,9c-10,0-18.11.68-18.15,8,0,4.67,4.29,5.93,8.35,5.93a9.9,9.9,0,0,0,9.44-6.67,12.83,12.83,0,0,0,.36-3.09Z"/></svg>
