<?xml version="1.0" encoding="UTF-8"?>
<!DOCTYPE svg PUBLIC "-//W3C//DTD SVG 1.1//EN" "http://www.w3.org/Graphics/SVG/1.1/DTD/svg11.dtd">
<svg xmlns="http://www.w3.org/2000/svg" version="1.1" width="478px" height="105px" style="shape-rendering:geometricPrecision; text-rendering:geometricPrecision; image-rendering:optimizeQuality; fill-rule:evenodd; clip-rule:evenodd" xmlns:xlink="http://www.w3.org/1999/xlink">
<g><path style="opacity:1" fill="#fdfcfe" d="M -0.5,-0.5 C 14.1667,-0.5 28.8333,-0.5 43.5,-0.5C 39.3699,2.4032 35.0366,5.06987 30.5,7.5C 23.6628,11.7529 16.6628,15.7529 9.5,19.5C 5.77924,21.3535 2.4459,23.6869 -0.5,26.5C -0.5,17.5 -0.5,8.5 -0.5,-0.5 Z"/></g>
<g><path style="opacity:1" fill="#fdfdfd" d="M 46.5,-0.5 C 190.167,-0.5 333.833,-0.5 477.5,-0.5C 477.5,8.16667 477.5,16.8333 477.5,25.5C 472.167,25.5 466.833,25.5 461.5,25.5C 461.5,27.1667 461.5,28.8333 461.5,30.5C 463.5,30.5 465.5,30.5 467.5,30.5C 467.5,33.8333 467.5,37.1667 467.5,40.5C 465.5,40.5 463.5,40.5 461.5,40.5C 461.5,42.1667 461.5,43.8333 461.5,45.5C 466.833,45.5 472.167,45.5 477.5,45.5C 477.5,65.1667 477.5,84.8333 477.5,104.5C 333.833,104.5 190.167,104.5 46.5,104.5C 49.0094,103.079 51.3428,101.412 53.5,99.5C 58.5003,97.3357 63.167,94.669 67.5,91.5C 73.165,89.0031 78.4984,86.0031 83.5,82.5C 86.4001,81.5568 88.7334,79.8901 90.5,77.5C 90.5,72.1667 90.5,66.8333 90.5,61.5C 90.6665,49.4954 90.4999,37.4954 90,25.5C 75.5194,16.6815 61.0194,8.01482 46.5,-0.5 Z"/></g>
<g><path style="opacity:1" fill="#7633e2" d="M 43.5,-0.5 C 44.5,-0.5 45.5,-0.5 46.5,-0.5C 61.0194,8.01482 75.5194,16.6815 90,25.5C 90.4999,37.4954 90.6665,49.4954 90.5,61.5C 89.5269,59.0521 89.1936,56.3854 89.5,53.5C 89.7935,49.5633 89.4601,45.73 88.5,42C 68.336,29.8371 49.0027,18.3371 30.5,7.5C 35.0366,5.06987 39.3699,2.4032 43.5,-0.5 Z"/></g>
<g><path style="opacity:1" fill="#fbfafd" d="M 52.5,32.5 C 50.2601,36.4772 49.4268,40.8105 50,45.5C 53.0359,48.7044 56.2026,51.7044 59.5,54.5C 60.1408,55.4822 60.8075,56.4822 61.5,57.5C 59.4773,59.8528 57.4773,62.1862 55.5,64.5C 50.5,68.8333 45.8333,73.5 41.5,78.5C 37.3896,82.983 36.0563,82.3163 37.5,76.5C 37.6997,73.3704 38.3664,70.3704 39.5,67.5C 39.9347,64.404 40.4347,61.404 41,58.5C 36.9585,54.2902 32.7918,50.2902 28.5,46.5C 30.5227,44.1472 32.5227,41.8138 34.5,39.5C 40.4796,33.8549 46.4796,28.1883 52.5,22.5C 53.1919,25.7697 53.1919,29.103 52.5,32.5 Z"/></g>
<g><path style="opacity:1" fill="#713ede" d="M 30.5,7.5 C 49.0027,18.3371 68.336,29.8371 88.5,42C 89.4601,45.73 89.7935,49.5633 89.5,53.5C 77.3706,46.8324 65.0373,39.8324 52.5,32.5C 53.1919,29.103 53.1919,25.7697 52.5,22.5C 46.4796,28.1883 40.4796,33.8549 34.5,39.5C 34.6567,38.1266 34.49,36.7932 34,35.5C 33.6667,35.8333 33.3333,36.1667 33,36.5C 31.9032,34.9474 30.5699,33.614 29,32.5C 28.6667,32.8333 28.3333,33.1667 28,33.5C 22.4299,28.7491 16.2633,25.0824 9.5,22.5C 9.5,21.5 9.5,20.5 9.5,19.5C 16.6628,15.7529 23.6628,11.7529 30.5,7.5 Z"/></g>
<g><path style="opacity:1" fill="#000000" d="M 127.5,69.5 C 135.167,69.5 142.833,69.5 150.5,69.5C 150.5,72.1667 150.5,74.8333 150.5,77.5C 139.833,77.5 129.167,77.5 118.5,77.5C 118.5,60.1667 118.5,42.8333 118.5,25.5C 121.167,25.5 123.833,25.5 126.5,25.5C 126.171,40.3428 126.504,55.0095 127.5,69.5 Z"/></g>
<g><path style="opacity:1" fill="#020202" d="M 227.5,25.5 C 227.334,31.8421 227.5,38.1754 228,44.5C 235.218,39.1464 242.218,39.4797 249,45.5C 250.122,47.4068 250.955,49.4068 251.5,51.5C 251.5,60.1667 251.5,68.8333 251.5,77.5C 248.833,77.5 246.167,77.5 243.5,77.5C 243.666,69.8261 243.5,62.1594 243,54.5C 241.253,50.0658 238.086,48.2324 233.5,49C 230.921,50.0757 229.254,51.909 228.5,54.5C 227.508,61.9818 227.175,69.6484 227.5,77.5C 224.833,77.5 222.167,77.5 219.5,77.5C 219.5,60.1667 219.5,42.8333 219.5,25.5C 222.167,25.5 224.833,25.5 227.5,25.5 Z"/></g>
<g><path style="opacity:1" fill="#000000" d="M 340.5,25.5 C 340.5,28.1667 340.5,30.8333 340.5,33.5C 337.833,33.5 335.167,33.5 332.5,33.5C 332.5,30.8333 332.5,28.1667 332.5,25.5C 335.167,25.5 337.833,25.5 340.5,25.5 Z"/></g>
<g><path style="opacity:1" fill="#070707" d="M 442.5,25.5 C 445.833,25.5 449.167,25.5 452.5,25.5C 454.422,32.021 456.422,38.521 458.5,45C 453.595,43.0546 448.262,42.2212 442.5,42.5C 442.5,43.5 442.5,44.5 442.5,45.5C 440.396,45.7989 438.396,45.4656 436.5,44.5C 438.51,38.1386 440.51,31.8053 442.5,25.5 Z"/></g>
<g><path style="opacity:1" fill="#000000" d="M 477.5,25.5 C 477.5,27.1667 477.5,28.8333 477.5,30.5C 475.833,30.5 474.167,30.5 472.5,30.5C 472.5,33.8333 472.5,37.1667 472.5,40.5C 474.167,40.5 475.833,40.5 477.5,40.5C 477.5,42.1667 477.5,43.8333 477.5,45.5C 472.167,45.5 466.833,45.5 461.5,45.5C 461.5,43.8333 461.5,42.1667 461.5,40.5C 463.5,40.5 465.5,40.5 467.5,40.5C 467.5,37.1667 467.5,33.8333 467.5,30.5C 465.5,30.5 463.5,30.5 461.5,30.5C 461.5,28.8333 461.5,27.1667 461.5,25.5C 466.833,25.5 472.167,25.5 477.5,25.5 Z"/></g>
<g><path style="opacity:1" fill="#949494" d="M 227.5,25.5 C 224.833,25.5 222.167,25.5 219.5,25.5C 219.5,42.8333 219.5,60.1667 219.5,77.5C 222.167,77.5 224.833,77.5 227.5,77.5C 227.175,69.6484 227.508,61.9818 228.5,54.5C 228.5,62.5 228.5,70.5 228.5,78.5C 225.167,78.5 221.833,78.5 218.5,78.5C 218.5,60.5 218.5,42.5 218.5,24.5C 221.713,24.19 224.713,24.5233 227.5,25.5 Z"/></g>
<g><path style="opacity:1" fill="#949494" d="M 340.5,25.5 C 337.833,25.5 335.167,25.5 332.5,25.5C 332.5,28.1667 332.5,30.8333 332.5,33.5C 335.167,33.5 337.833,33.5 340.5,33.5C 337.713,34.4767 334.713,34.81 331.5,34.5C 331.5,31.1667 331.5,27.8333 331.5,24.5C 334.713,24.19 337.713,24.5233 340.5,25.5 Z"/></g>
<g><path style="opacity:1" fill="#060606" d="M 281.5,41.5 C 281.5,43.8333 281.5,46.1667 281.5,48.5C 278.167,48.5 274.833,48.5 271.5,48.5C 271.177,54.69 271.51,60.69 272.5,66.5C 272.511,68.0174 273.177,69.1841 274.5,70C 276.473,70.4955 278.473,70.6621 280.5,70.5C 280.5,73.1667 280.5,75.8333 280.5,78.5C 275.382,79.111 270.715,77.9443 266.5,75C 264.503,72.5084 263.503,69.675 263.5,66.5C 263.5,60.5 263.5,54.5 263.5,48.5C 261.167,48.5 258.833,48.5 256.5,48.5C 256.5,46.1667 256.5,43.8333 256.5,41.5C 259.167,41.5 261.833,41.5 264.5,41.5C 264.5,38.1667 264.5,34.8333 264.5,31.5C 267.112,30.6295 269.779,29.9628 272.5,29.5C 272.5,33.5 272.5,37.5 272.5,41.5C 275.5,41.5 278.5,41.5 281.5,41.5 Z"/></g>
<g><path style="opacity:1" fill="#d1d1d1" d="M 445.5,30.5 C 446.822,30.33 447.989,30.6634 449,31.5C 449.346,33.2182 449.846,34.8849 450.5,36.5C 448.604,37.4656 446.604,37.7989 444.5,37.5C 444.674,35.139 445.007,32.8056 445.5,30.5 Z"/></g>
<g><path style="opacity:1" fill="#f4f4f4" d="M 477.5,30.5 C 477.5,33.8333 477.5,37.1667 477.5,40.5C 475.833,40.5 474.167,40.5 472.5,40.5C 472.5,37.1667 472.5,33.8333 472.5,30.5C 474.167,30.5 475.833,30.5 477.5,30.5 Z"/></g>
<g><path style="opacity:1" fill="#6853d6" d="M 9.5,19.5 C 9.5,20.5 9.5,21.5 9.5,22.5C 16.2633,25.0824 22.4299,28.7491 28,33.5C 28.3333,33.1667 28.6667,32.8333 29,32.5C 30.5699,33.614 31.9032,34.9474 33,36.5C 33.3333,36.1667 33.6667,35.8333 34,35.5C 34.49,36.7932 34.6567,38.1266 34.5,39.5C 32.5227,41.8138 30.5227,44.1472 28.5,46.5C 32.7918,50.2902 36.9585,54.2902 41,58.5C 40.4347,61.404 39.9347,64.404 39.5,67.5C 38.946,64.5419 37.6126,61.8752 35.5,59.5C 23.6358,53.407 11.6358,46.7403 -0.5,39.5C -0.5,35.1667 -0.5,30.8333 -0.5,26.5C 2.4459,23.6869 5.77924,21.3535 9.5,19.5 Z"/></g>
<g><path style="opacity:1" fill="#949494" d="M 166.5,25.5 C 167.477,28.2869 167.81,31.2869 167.5,34.5C 164.167,34.5 160.833,34.5 157.5,34.5C 157.5,31.1667 157.5,27.8333 157.5,24.5C 160.713,24.19 163.713,24.5233 166.5,25.5 Z"/></g>
<g><path style="opacity:1" fill="#000000" d="M 166.5,25.5 C 166.5,28.1667 166.5,30.8333 166.5,33.5C 163.833,33.5 161.167,33.5 158.5,33.5C 158.5,30.8333 158.5,28.1667 158.5,25.5C 161.167,25.5 163.833,25.5 166.5,25.5 Z"/></g>
<g><path style="opacity:1" fill="#ababab" d="M 264.5,31.5 C 264.5,34.8333 264.5,38.1667 264.5,41.5C 261.833,41.5 259.167,41.5 256.5,41.5C 258.607,40.5318 260.941,40.1984 263.5,40.5C 263.19,37.2869 263.523,34.2869 264.5,31.5 Z"/></g>
<g><path style="opacity:1" fill="#6e45db" d="M 52.5,32.5 C 65.0373,39.8324 77.3706,46.8324 89.5,53.5C 89.1936,56.3854 89.5269,59.0521 90.5,61.5C 90.5,66.8333 90.5,72.1667 90.5,77.5C 89.6805,74.6946 89.1805,71.6946 89,68.5C 86.0125,65.4347 82.6791,63.7681 79,63.5C 78.6258,62.5838 78.1258,61.7504 77.5,61C 71.5613,59.0549 66.3946,55.8882 62,51.5C 60.583,52.0779 59.7496,53.0779 59.5,54.5C 56.2026,51.7044 53.0359,48.7044 50,45.5C 49.4268,40.8105 50.2601,36.4772 52.5,32.5 Z"/></g>
<g><path style="opacity:1" fill="#645ad3" d="M -0.5,39.5 C 11.6358,46.7403 23.6358,53.407 35.5,59.5C 37.6126,61.8752 38.946,64.5419 39.5,67.5C 38.3664,70.3704 37.6997,73.3704 37.5,76.5C 36.4419,73.6028 34.4419,71.4361 31.5,70C 23.6182,66.1422 16.1182,61.6422 9,56.5C 8.66667,56.8333 8.33333,57.1667 8,57.5C 6.66667,56.1667 5.33333,54.8333 4,53.5C 3.66667,53.8333 3.33333,54.1667 3,54.5C 2.18405,53.1772 1.01739,52.5106 -0.5,52.5C -0.5,48.1667 -0.5,43.8333 -0.5,39.5 Z"/></g>
<g><path style="opacity:1" fill="#050505" d="M 189.5,40.5 C 194.18,40.3754 198.346,41.7087 202,44.5C 202.483,43.552 202.649,42.552 202.5,41.5C 205.167,41.5 207.833,41.5 210.5,41.5C 210.95,56.2387 210.45,70.9054 209,85.5C 205.214,91.06 199.88,93.7267 193,93.5C 184.074,93.8013 178.241,89.8013 175.5,81.5C 180.843,79.3934 185.177,80.5601 188.5,85C 193.437,86.3694 197.604,85.2027 201,81.5C 201.808,79.4213 201.641,77.4213 200.5,75.5C 190.282,79.9825 182.115,77.6492 176,68.5C 171.12,54.5941 175.62,45.2608 189.5,40.5 Z"/></g>
<g><path style="opacity:1" fill="#040404" d="M 403.5,40.5 C 409.001,39.6395 413.834,40.9729 418,44.5C 418.483,43.552 418.649,42.552 418.5,41.5C 421.167,41.5 423.833,41.5 426.5,41.5C 426.667,55.1707 426.5,68.8374 426,82.5C 423.174,90.007 417.674,93.6736 409.5,93.5C 400.39,93.9576 394.39,89.9576 391.5,81.5C 396.799,79.3938 401.133,80.5604 404.5,85C 413.563,87.0745 418.063,83.5745 418,74.5C 409.259,79.191 401.259,78.191 394,71.5C 386.853,57.7841 390.02,47.4508 403.5,40.5 Z"/></g>
<g><path style="opacity:1" fill="#060606" d="M 298.5,50.5 C 298.5,47.5 298.5,44.5 298.5,41.5C 309.118,38.7705 316.952,42.1038 322,51.5C 322.5,60.4938 322.666,69.4938 322.5,78.5C 319.833,78.5 317.167,78.5 314.5,78.5C 314.666,71.1591 314.5,63.8258 314,56.5C 313.315,53.9427 311.815,52.1094 309.5,51C 305.848,50.5014 302.182,50.3347 298.5,50.5 Z"/></g>
<g><path style="opacity:1" fill="#090909" d="M 359.5,50.5 C 359.5,47.5 359.5,44.5 359.5,41.5C 364.93,41.161 370.264,41.661 375.5,43C 378.333,44.5 380.5,46.6667 382,49.5C 383.448,59.0607 383.948,68.7274 383.5,78.5C 380.5,78.5 377.5,78.5 374.5,78.5C 374.666,70.4931 374.5,62.4931 374,54.5C 372.833,53.3333 371.667,52.1667 370.5,51C 366.848,50.5014 363.182,50.3347 359.5,50.5 Z"/></g>
<g><path style="opacity:1" fill="#a7a7a7" d="M 158.5,41.5 C 158.5,53.5 158.5,65.5 158.5,77.5C 161.167,77.5 163.833,77.5 166.5,77.5C 166.5,65.5 166.5,53.5 166.5,41.5C 167.495,53.6554 167.829,65.9887 167.5,78.5C 164.167,78.5 160.833,78.5 157.5,78.5C 157.171,65.9887 157.505,53.6554 158.5,41.5 Z"/></g>
<g><path style="opacity:1" fill="#000000" d="M 158.5,41.5 C 161.167,41.5 163.833,41.5 166.5,41.5C 166.5,53.5 166.5,65.5 166.5,77.5C 163.833,77.5 161.167,77.5 158.5,77.5C 158.5,65.5 158.5,53.5 158.5,41.5 Z"/></g>
<g><path style="opacity:1" fill="#999999" d="M 340.5,41.5 C 341.495,53.6554 341.829,65.9887 341.5,78.5C 338.167,78.5 334.833,78.5 331.5,78.5C 331.5,65.8333 331.5,53.1667 331.5,40.5C 334.713,40.19 337.713,40.5233 340.5,41.5 Z"/></g>
<g><path style="opacity:1" fill="#000000" d="M 340.5,41.5 C 340.5,53.5 340.5,65.5 340.5,77.5C 337.833,77.5 335.167,77.5 332.5,77.5C 332.5,65.5 332.5,53.5 332.5,41.5C 335.167,41.5 337.833,41.5 340.5,41.5 Z"/></g>
<g><path style="opacity:1" fill="#f6f6f6" d="M 189.5,48.5 C 201.505,49.5075 205.005,55.5075 200,66.5C 192.808,71.4786 187.141,70.1453 183,62.5C 181.669,56.1632 183.836,51.4965 189.5,48.5 Z"/></g>
<g><path style="opacity:1" fill="#666666" d="M 281.5,41.5 C 282.473,43.9479 282.806,46.6146 282.5,49.5C 279.167,49.5 275.833,49.5 272.5,49.5C 272.5,55.1667 272.5,60.8333 272.5,66.5C 271.51,60.69 271.177,54.69 271.5,48.5C 274.833,48.5 278.167,48.5 281.5,48.5C 281.5,46.1667 281.5,43.8333 281.5,41.5 Z"/></g>
<g><path style="opacity:1" fill="#f6f6f6" d="M 406.5,48.5 C 416.111,49.0522 419.945,54.0522 418,63.5C 414.608,69.4667 409.774,70.9667 403.5,68C 396.305,60.1528 397.305,53.6528 406.5,48.5 Z"/></g>
<g><path style="opacity:1" fill="#bebebe" d="M 256.5,41.5 C 256.5,43.8333 256.5,46.1667 256.5,48.5C 258.833,48.5 261.167,48.5 263.5,48.5C 263.5,54.5 263.5,60.5 263.5,66.5C 262.511,61.0247 262.178,55.358 262.5,49.5C 260.167,49.5 257.833,49.5 255.5,49.5C 255.194,46.6146 255.527,43.9479 256.5,41.5 Z"/></g>
<g><path style="opacity:1" fill="#0e0e0e" d="M 298.5,50.5 C 298.5,59.8333 298.5,69.1667 298.5,78.5C 295.5,78.5 292.5,78.5 289.5,78.5C 289.5,69.1667 289.5,59.8333 289.5,50.5C 292.5,50.5 295.5,50.5 298.5,50.5 Z"/></g>
<g><path style="opacity:1" fill="#000000" d="M 359.5,50.5 C 359.5,59.8333 359.5,69.1667 359.5,78.5C 356.5,78.5 353.5,78.5 350.5,78.5C 350.5,69.1667 350.5,59.8333 350.5,50.5C 353.5,50.5 356.5,50.5 359.5,50.5 Z"/></g>
<g><path style="opacity:1" fill="#797979" d="M 251.5,51.5 C 252.493,60.3178 252.827,69.3178 252.5,78.5C 249.287,78.81 246.287,78.4767 243.5,77.5C 246.167,77.5 248.833,77.5 251.5,77.5C 251.5,68.8333 251.5,60.1667 251.5,51.5 Z"/></g>
<g><path style="opacity:1" fill="#694ed8" d="M 90.5,77.5 C 88.7334,79.8901 86.4001,81.5568 83.5,82.5C 83.3893,81.6634 83.056,80.6634 82.5,79.5C 73.2158,74.0306 64.2158,69.0306 55.5,64.5C 57.4773,62.1862 59.4773,59.8528 61.5,57.5C 60.8075,56.4822 60.1408,55.4822 59.5,54.5C 59.7496,53.0779 60.583,52.0779 62,51.5C 66.3946,55.8882 71.5613,59.0549 77.5,61C 78.1258,61.7504 78.6258,62.5838 79,63.5C 82.6791,63.7681 86.0125,65.4347 89,68.5C 89.1805,71.6946 89.6805,74.6946 90.5,77.5 Z"/></g>
<g><path style="opacity:1" fill="#5f65cf" d="M -0.5,52.5 C 1.01739,52.5106 2.18405,53.1772 3,54.5C 3.33333,54.1667 3.66667,53.8333 4,53.5C 5.33333,54.8333 6.66667,56.1667 8,57.5C 8.33333,57.1667 8.66667,56.8333 9,56.5C 16.1182,61.6422 23.6182,66.1422 31.5,70C 34.4419,71.4361 36.4419,73.6028 37.5,76.5C 36.0563,82.3163 37.3896,82.983 41.5,78.5C 43.9267,78.523 46.26,79.023 48.5,80C 54.8611,83.8446 61.1945,87.6779 67.5,91.5C 63.167,94.669 58.5003,97.3357 53.5,99.5C 35.7514,88.42 17.7514,77.7534 -0.5,67.5C -0.5,62.5 -0.5,57.5 -0.5,52.5 Z"/></g>
<g><path style="opacity:1" fill="#6559d4" d="M 55.5,64.5 C 64.2158,69.0306 73.2158,74.0306 82.5,79.5C 83.056,80.6634 83.3893,81.6634 83.5,82.5C 78.4984,86.0031 73.165,89.0031 67.5,91.5C 61.1945,87.6779 54.8611,83.8446 48.5,80C 46.26,79.023 43.9267,78.523 41.5,78.5C 45.8333,73.5 50.5,68.8333 55.5,64.5 Z"/></g>
<g><path style="opacity:1" fill="#5d6dcc" d="M -0.5,67.5 C 17.7514,77.7534 35.7514,88.42 53.5,99.5C 51.3428,101.412 49.0094,103.079 46.5,104.5C 45.5,104.5 44.5,104.5 43.5,104.5C 28.8333,95.5 14.1667,86.5 -0.5,77.5C -0.5,74.1667 -0.5,70.8333 -0.5,67.5 Z"/></g>
<g><path style="opacity:1" fill="#6b6b6b" d="M 127.5,69.5 C 126.504,55.0095 126.171,40.3428 126.5,25.5C 123.833,25.5 121.167,25.5 118.5,25.5C 118.5,42.8333 118.5,60.1667 118.5,77.5C 129.167,77.5 139.833,77.5 150.5,77.5C 139.679,78.4946 128.679,78.8279 117.5,78.5C 117.5,60.5 117.5,42.5 117.5,24.5C 120.833,24.5 124.167,24.5 127.5,24.5C 127.5,39.5 127.5,54.5 127.5,69.5 Z"/></g>
<g><path style="opacity:1" fill="#fdfdfe" d="M -0.5,77.5 C 14.1667,86.5 28.8333,95.5 43.5,104.5C 28.8333,104.5 14.1667,104.5 -0.5,104.5C -0.5,95.5 -0.5,86.5 -0.5,77.5 Z"/></g>
</svg>
