<svg viewBox="0.5 27.97 128.46 112.73" width="128.46" height="112.73">
  <defs>
    <style type="text/css">
    .st0 {
      fill: #5724E8;
    }
  </style>
  </defs>
  <g transform="matrix(1, 0, 0, 1, -10, -266)">
    <path class="st0" d="m82.6 385.05c-19.14 0-34.71-15.57-34.71-34.72 0-19.14 15.57-34.71 34.71-34.71s34.71 15.57 34.71 34.71c0.01 19.14-15.57 34.72-34.71 34.72m0-91.08c-27.42 0-50.26 19.59-55.31 45.54h-16.79v21.65h16.79c5.05 25.95 27.89 45.54 55.31 45.54 31.13 0 56.36-25.23 56.36-56.36s-25.23-56.37-56.36-56.37"></path>
    <path class="st0" d="m82.6 353.09c-1.52 0-2.76-1.24-2.76-2.76s1.24-2.76 2.76-2.76 2.76 1.24 2.76 2.76-1.24 2.76-2.76 2.76m0-13.57c-5.97 0-10.81 4.84-10.81 10.81s4.84 10.81 10.81 10.81 10.81-4.84 10.81-10.81-4.84-10.81-10.81-10.81"></path>
  </g>
</svg>
