<?xml version="1.0" encoding="UTF-8"?><svg id="Layer_1" xmlns="http://www.w3.org/2000/svg" viewBox="0 0 579.03 110.44"><defs><style>.cls-1{fill:#5724e8;}</style></defs><polygon points="218.42 81.55 218.42 98.18 159.59 98.18 159.59 10.63 178.36 10.63 178.36 81.55 218.42 81.55"/><path d="M284.8,31.79V98.18h-17.51v-6.3c-4.66,4.79-11.46,7.94-19.4,7.94-16.88,0-25.7-11.59-25.7-26.7V31.79h18.64v38.92c0,7.31,4.79,12.47,12.6,12.47s12.72-5.17,12.72-12.09V31.79h18.64Z"/><polygon points="339.48 98.18 323.6 77.14 307.48 98.18 287.7 98.18 313.65 63.91 289.47 31.79 310.12 31.79 324.99 51.57 339.73 31.79 359.5 31.79 334.94 64.79 360.01 98.18 339.48 98.18"/><path d="M406.49,64.92c0-10.58-6.8-18.01-17.13-18.01s-17.26,7.43-17.26,18.14,6.93,18.14,17.26,18.14,17.13-7.56,17.13-18.27m-53.16,.13c0-19.9,14.87-34.77,35.9-34.77s35.9,14.87,35.9,34.77-14.99,34.77-35.9,34.77-35.9-14.99-35.9-34.77"/><path d="M493.91,56.35v41.82h-18.52V60.01c0-8.44-5.54-13.23-13.1-13.23s-13.23,5.29-13.35,12.09v39.3h-18.64V31.79h17.64v6.17c4.53-4.66,11.46-7.81,20.03-7.81,15.87,0,25.95,10.71,25.95,26.2"/><path d="M500.34,31.79h18.64V98.17h-18.64V31.79Zm0-12.08c0-5.22,4.15-9.08,9.37-9.08s9.27,3.86,9.27,9.08-4.06,9.08-9.27,9.08-9.37-3.77-9.37-9.08"/><path d="M521.97,82.3l15.75-6.05c1.76,5.79,6.55,9.2,13.98,9.2,5.54,0,8.82-2.27,8.82-6.05,0-11.59-35.4-6.05-35.4-28.85,0-12.6,10.33-20.28,26.45-20.28,13.23,0,22.8,5.42,25.57,14.61l-15.75,6.05c-1.64-4.53-5.17-6.8-10.08-6.8s-7.81,2.02-7.81,5.42c0,10.71,35.52,4.28,35.52,28.72,0,13.35-10.96,21.54-27.96,21.54-14.74,0-25.32-6.05-29.1-17.51"/><path class="cls-1" d="M70.64,89.23c-18.75,0-34.01-15.26-34.01-34.01s15.26-34.01,34.01-34.01,34.01,15.26,34.01,34.01-15.26,34.01-34.01,34.01M70.64,0C43.77,0,21.4,19.19,16.45,44.62H0v21.21H16.45c4.95,25.42,27.32,44.62,54.19,44.62,30.5,0,55.22-24.72,55.22-55.22S101.14,0,70.64,0"/><path class="cls-1" d="M70.64,57.92c-1.49,0-2.7-1.21-2.7-2.7s1.21-2.7,2.7-2.7,2.7,1.21,2.7,2.7-1.21,2.7-2.7,2.7m0-13.3c-5.85,0-10.59,4.74-10.59,10.59s4.74,10.59,10.59,10.59,10.59-4.74,10.59-10.59-4.74-10.59-10.59-10.59"/></svg>