<svg width="232" height="232" viewBox="0 0 232 232" fill="none" xmlns="http://www.w3.org/2000/svg">
<rect width="232" height="232" rx="10" fill="black"/>
<path fill-rule="evenodd" clip-rule="evenodd" d="M59.8168 120.305C57.6178 124.614 55.8586 129.254 54.7592 134.115C53.6597 138.865 53 143.726 53 148.698C53 166.153 60.0366 181.951 71.4712 193.44C82.9058 204.93 98.6283 212 116 212C133.372 212 149.094 204.93 160.529 193.44C171.963 181.951 179 166.153 179 148.698C179 143.726 178.45 138.865 177.351 134.225C176.251 129.364 174.162 124.172 172.073 119.974L119.628 22.5345C118.639 20.6565 116.66 19.6622 114.571 20.1041C112.592 20.6565 111.492 22.4241 111.162 24.5231L102.037 81.9704C101.817 83.6275 101.157 85.1741 99.6178 85.9475C98.0785 86.7208 96.4293 86.6103 95 85.6161L86.0942 79.2085C84.8848 78.4351 83.6754 78.2142 82.356 78.5456C81.0366 78.877 80.0471 79.6504 79.3874 80.8656L74.4398 90.8084L59.9267 120.084L59.8168 120.305ZM81.9162 140.522C82.5759 137.76 83.5654 135.109 84.7749 132.789L89.7225 122.846C90.3822 121.631 91.3717 120.858 92.6911 120.526C94.0105 120.195 95.3298 120.416 96.4293 121.189L107.974 129.475L122.927 140.301C124.246 141.296 126.005 141.406 127.545 140.633C129.084 139.86 129.963 138.423 129.963 136.656V118.096V117.102C129.963 115.003 131.283 113.124 133.372 112.683C135.461 112.241 137.44 113.235 138.429 115.113L147.335 133.01C148.545 135.44 149.424 137.981 150.084 140.633C150.634 143.174 150.963 145.825 150.963 148.698C150.963 158.419 147.115 167.147 140.738 173.555C134.361 179.852 125.675 183.829 116 183.829C106.325 183.829 97.6387 179.962 91.2618 173.555C84.9948 167.147 81.0366 158.419 81.0366 148.698C81.0366 145.825 81.2565 143.063 81.9162 140.522Z" fill="url(#paint0_linear_1011_35)"/>
<defs>
<linearGradient id="paint0_linear_1011_35" x1="116.004" y1="211.936" x2="116.004" y2="19.6843" gradientUnits="userSpaceOnUse">
<stop stop-color="#B02EF4"/>
<stop offset="0.129412" stop-color="#A433F4"/>
<stop offset="0.490196" stop-color="#5753EF"/>
<stop offset="0.780392" stop-color="#42CEFD"/>
<stop offset="1" stop-color="#40D9FF"/>
</linearGradient>
</defs>
</svg>
