<svg width="1295" height="336" fill="none" xmlns="http://www.w3.org/2000/svg">
  <path d="M113 316.381a65.55 65.55 0 0 1-21.405 14.557A64.709 64.709 0 0 1 66.325 336c-13.112 0-25.93-3.949-36.834-11.349-10.903-7.399-19.404-17.916-24.428-30.222a68.409 68.409 0 0 1-3.8-38.919c2.548-13.069 8.85-25.078 18.11-34.51l19.583 19.898c-5.354 5.508-8.987 12.501-10.442 20.101a39.857 39.857 0 0 0 2.265 22.611c2.932 7.147 7.877 13.253 14.213 17.552a38.221 38.221 0 0 0 21.4 6.611 37.507 37.507 0 0 0 14.672-2.938 38.009 38.009 0 0 0 12.422-8.457L113 316.381ZM140.194.234a122.533 122.533 0 0 0-49.68 7.231 122.935 122.935 0 0 0-42.668 26.561 125.082 125.082 0 0 0-28.67 41.239A125.536 125.536 0 0 0 9 124.51c0 2.507 0 4.977.243 7.379 2.013 28.496 14.397 55.253 34.79 75.17l64.871 65.288 27.721 27.841 16.321 16.392a66.205 66.205 0 0 0 21.583 14.422A66.006 66.006 0 0 0 199.97 336a66.793 66.793 0 0 0 37.233-11.32 67.203 67.203 0 0 0 24.691-30.191 67.544 67.544 0 0 0 3.82-38.88 67.37 67.37 0 0 0-18.338-34.455l-19.683 19.977a39.278 39.278 0 0 1 10.551 20.073 39.372 39.372 0 0 1-2.289 22.581 39.174 39.174 0 0 1-14.361 17.527 38.931 38.931 0 0 1-21.624 6.602 38.203 38.203 0 0 1-14.825-2.929 38.321 38.321 0 0 1-12.55-8.451l-9.218-9.222-53.919-54.117-45.81-46.007c-15.486-15.064-24.931-35.31-26.545-56.901v-5.742c.018-25.54 10.117-50.032 28.083-68.108 17.967-18.076 42.335-28.263 67.766-28.327h5.649c24.308 1.725 47.086 12.553 63.823 30.341 16.735 17.789 26.212 41.24 26.551 65.711v5.116c-1.382 21.96-10.856 42.618-26.579 57.945l-49.561 49.924 19.786 19.871 49.424-49.924c20.644-20.294 33.002-47.598 34.652-76.563v-6.578c-.145-31.624-12.265-62.008-33.902-84.985C201.158 15.991 171.627 2.143 140.194.234Z" fill="#08F"/>
  <path d="M377.582 164.847c0-56.576 37.921-85.323 78.289-85.323 40.369 0 78.29 28.747 78.29 85.323 0 56.577-37.921 85.629-78.29 85.629-40.368 0-78.289-29.052-78.289-85.629Zm-30.582 0C347 237.326 401.436 278 455.871 278c54.436 0 108.872-40.674 108.872-113.153C564.743 92.368 510.307 52 455.871 52 401.436 52 347 92.368 347 164.847ZM664.672 148.333c25.077 0 35.78 16.82 39.45 31.193l25.995-11.009c-6.117-22.325-26.301-46.79-65.445-46.79-41.898 0-74.009 32.111-74.009 77.983 0 44.65 31.5 78.29 74.314 78.29 38.228 0 59.329-24.771 66.363-45.873l-25.383-11.009c-3.364 11.621-13.456 30.276-40.98 30.276-23.853 0-44.955-18.044-44.955-51.684 0-34.251 21.407-51.377 44.65-51.377ZM803.597 79.83h-26.301v23.853c0 12.845-6.728 22.631-22.63 22.631h-7.951v25.995h28.135v80.736c0 26.606 15.902 41.897 40.98 41.897 9.786 0 17.125-1.835 19.572-2.753v-24.465c-2.447.612-7.646 1.223-11.315 1.223-14.985 0-20.49-6.728-20.49-20.184v-76.454h31.805v-25.995h-31.805V79.83ZM935.278 252.311c-24.465 0-45.873-18.349-45.873-52.601 0-33.945 21.408-52.295 45.873-52.295 24.466 0 45.873 18.35 45.873 52.295 0 34.252-21.407 52.601-45.873 52.601Zm0-130.584c-44.038 0-75.231 33.334-75.231 77.983 0 44.956 31.193 78.29 75.231 78.29s75.232-33.334 75.232-78.29c0-44.649-31.194-77.983-75.232-77.983ZM1200.5 273.413h32.42l-86.24-216.826h-34.56l-86.24 216.826h32.11l22.94-60.552h96.03l23.54 60.552Zm-71.86-185.632 37.61 97.25h-74.62l37.01-97.25ZM1294.17 273.413V56.587h-30.59v216.826h30.59Z" fill="#0D3B72"/>
</svg>
