<svg width="316" height="80" viewBox="0 0 316 80" fill="none" xmlns="http://www.w3.org/2000/svg">
<path d="M99.7994 64.5822V33.663L112.613 64.5822H119.577L132.39 33.663V64.5822H140.189V15.8357H131.554L116.095 53.4401L100.635 15.8357H92V64.5822H99.7994Z" fill="#101509"/>
<path d="M163.192 65C173.498 65 181.019 57.3398 181.019 47.1727C181.019 37.0056 173.498 29.3454 163.192 29.3454C152.885 29.3454 145.364 37.0056 145.364 47.1727C145.364 57.3398 152.885 65 163.192 65ZM163.192 57.6184C157.203 57.6184 153.164 53.2312 153.164 47.1727C153.164 41.1142 157.203 36.727 163.192 36.727C169.181 36.727 173.22 41.1142 173.22 47.1727C173.22 53.2312 169.181 57.6184 163.192 57.6184Z" fill="#101509"/>
<path d="M201.757 65C206.353 65 209.765 63.1198 211.994 60.961V64.5822H219.654V19.4323L211.994 15V33.3844C209.835 31.0167 206.074 29.3454 201.757 29.3454C191.381 29.3454 184.487 36.3092 184.487 47.1727C184.487 58.0362 191.381 65 201.757 65ZM202.105 57.6184C196.047 57.6184 192.008 53.1616 192.008 47.1727C192.008 41.1838 196.047 36.727 202.105 36.727C208.164 36.727 212.133 41.1838 212.133 47.1727C212.133 53.1616 208.164 57.6184 202.105 57.6184Z" fill="#101509"/>
<path d="M242.458 65C250.327 65 257.082 60.7521 259.45 54.415H250.327C248.865 56.6435 246.01 57.7577 242.458 57.7577C237.444 57.7577 233.475 54.2061 232.639 49.8189H259.728C259.868 48.9833 259.937 48.078 259.937 47.1727C259.937 37.2841 252.138 29.3454 242.249 29.3454C232.361 29.3454 224.561 37.2841 224.561 47.1727C224.561 57.0613 232.361 65 242.458 65ZM232.918 43.273C233.962 39.234 237.723 36.4485 242.249 36.4485C246.776 36.4485 250.536 39.234 251.581 43.273H232.918Z" fill="#101509"/>
<path d="M272.464 64.5822V19.4323L264.804 15V64.5822H272.464Z" fill="#101509"/>
<path d="M315.046 64.5822V57.2006H286.703L311.912 22.3816V15.8357H279.809V23.2173H302.302L277.093 58.0362V64.5822H315.046Z" fill="#101509"/>
<path d="M46.2624 10.3735C46.8812 10.0162 47.6435 10.0162 48.2622 10.3735L77.0784 27.009C77.7451 27.3939 77.7451 28.3562 77.0784 28.7411L55.0836 41.4387C54.4169 41.8236 54.4169 42.7859 55.0836 43.1708L70.3069 51.9592C70.9736 52.3441 70.9736 53.3064 70.3069 53.6913L55.0927 62.4744C54.474 62.8316 53.7116 62.8316 53.0929 62.4744L22.7223 44.9415C22.0556 44.5566 22.0556 43.5943 22.7223 43.2094L38.9315 33.8519C38.9335 33.8507 38.9359 33.8501 38.9382 33.8501C38.9406 33.8501 38.9429 33.8494 38.945 33.8483L44.7208 30.5139C45.3875 30.129 45.3875 29.1667 44.7208 28.7818L31.0482 20.8887C30.3815 20.5038 30.3815 19.5415 31.0482 19.1566L46.2624 10.3735Z" fill="#5E785F"/>
<path d="M12.8645 0.134828C12.023 -0.342652 11.0614 0.534279 11.4596 1.41612L25.0532 31.7347C25.2896 32.2581 25.0376 32.8726 24.5018 33.0793L1.64011 44.2848C0.833855 44.5959 0.775113 45.7141 1.54434 46.1079L67.4377 79.8419C68.3152 80.2912 69.2447 79.3338 68.7696 78.4699L60.313 63.0914C60.043 62.6003 59.4222 62.427 58.9368 62.7072L54.5657 65.2306C54.2563 65.4092 53.8751 65.4092 53.5657 65.2306L18.4209 44.9415C17.7542 44.5566 17.7542 43.5943 18.4209 43.2094L34.6331 33.8501H34.6369H34.6406L40.4194 30.5141C41.0861 30.1292 41.0861 29.1669 40.4194 28.782L26.7468 20.8888C26.0801 20.5039 26.0801 19.5416 26.7468 19.1567L34.9704 14.4093C35.6399 14.0227 35.6363 13.055 34.9639 12.6735L12.8645 0.134828Z" fill="#101509"/>
</svg>
