<svg version="1.1" id="Layer_1" xmlns="http://www.w3.org/2000/svg" xmlns:xlink="http://www.w3.org/1999/xlink" x="0px" y="0px"
	 width="100%" viewBox="0 0 590 232" enable-background="new 0 0 590 232" xml:space="preserve">
<path fill="#FEFEFF" opacity="1.000000" stroke="none" 
	d="
M365.000000,233.000000 
	C243.370178,233.000000 122.240364,233.000000 1.055271,233.000000 
	C1.055271,155.727066 1.055271,78.454079 1.055271,1.090547 
	C197.546448,1.090547 394.092957,1.090547 590.819702,1.090547 
	C590.819702,78.333000 590.819702,155.666458 590.819702,233.000000 
	C515.787476,233.000000 440.643738,233.000000 365.000000,233.000000 
M278.962402,133.254791 
	C277.383148,122.131577 270.890381,115.089027 260.237885,112.513123 
	C244.204697,108.636108 229.379135,111.937233 215.548691,121.666611 
	C218.660110,126.182579 221.611099,130.465668 223.695816,133.491455 
	C232.022797,131.478546 239.397980,128.844452 246.958237,128.106491 
	C254.587448,127.361816 257.809784,131.289444 258.343048,139.605286 
	C254.501740,139.989548 250.636124,140.608887 246.757690,140.703705 
	C242.189758,140.815369 237.569870,140.010773 233.043915,140.410950 
	C217.819794,141.757050 209.115829,155.211258 213.699127,169.871368 
	C218.793320,186.165619 241.163132,192.609344 255.314133,181.892441 
	C256.769135,180.790527 258.427216,179.956787 259.817322,179.908447 
	C259.817322,181.846161 259.817322,183.783890 259.817322,185.734680 
	C266.435760,185.734680 272.645721,185.734680 278.841156,185.734680 
	C278.841156,168.251358 278.841156,151.142990 278.962402,133.254791 
M491.971161,147.162186 
	C490.430389,125.638649 480.417603,114.192200 460.548187,111.239967 
	C443.309021,108.678535 425.802216,118.646004 420.039154,134.303696 
	C413.504517,152.057602 419.409515,171.645569 434.136719,181.068100 
	C449.740051,191.051178 472.121063,188.623260 485.475769,175.114258 
	C481.776764,171.029755 478.056122,166.921387 474.361053,162.841248 
	C472.258026,164.242661 470.809082,165.360672 469.226257,166.236664 
	C462.291412,170.074554 455.118835,171.733139 447.616791,167.912140 
	C442.922363,165.521164 438.974457,162.433273 439.841431,156.628387 
	C457.149597,156.628387 474.457794,156.628387 491.844879,156.628387 
	C491.844879,153.261627 491.844879,150.646942 491.971161,147.162186 
M572.938477,135.251266 
	C568.222046,120.927704 557.871216,113.613754 543.377625,111.314400 
	C527.603638,108.811882 511.037872,116.914009 503.942871,130.732239 
	C496.510315,145.207855 499.489380,164.992096 510.344666,176.187088 
	C523.887390,190.153580 551.688293,191.583511 568.031921,175.153030 
	C564.251526,171.054031 560.454224,166.936630 556.692993,162.858337 
	C540.682739,173.815216 524.049316,171.029709 521.149719,156.863098 
	C522.421082,156.695572 523.673157,156.530609 525.679016,156.685760 
	C529.821472,156.579498 533.963989,156.473236 539.011108,156.547852 
	C546.973572,156.488281 554.936035,156.428711 563.770020,156.673782 
	C567.122620,156.102798 570.475281,155.531799 573.914551,154.035629 
	C573.782288,149.053268 573.650085,144.070908 573.642334,138.459702 
	C573.405579,137.636963 573.168762,136.814224 572.938477,135.251266 
M133.724625,211.946701 
	C142.092438,208.908661 148.486801,204.396637 148.519104,194.212616 
	C148.535797,188.945267 149.397736,183.680603 149.904205,178.124893 
	C150.947693,178.900528 151.935577,179.489746 152.749802,180.262054 
	C163.139053,190.116470 179.617783,188.091751 188.170959,181.751556 
	C198.764923,173.898605 204.196625,163.476257 204.549026,150.356400 
	C204.972183,134.602432 198.999283,121.984421 184.987717,114.414764 
	C172.468994,107.651604 160.623962,110.770592 149.542343,118.477585 
	C149.426010,116.511848 149.309662,114.546112 149.189972,112.523544 
	C142.187607,112.523544 135.485992,112.523544 128.607697,112.523544 
	C128.607697,145.826767 128.607697,178.750763 128.607697,212.182144 
	C130.144547,212.073242 131.566711,211.972458 133.724625,211.946701 
M385.914429,212.219681 
	C392.172760,212.219681 398.431091,212.219681 404.795227,212.219681 
	C404.795227,178.898056 404.795227,145.969971 404.516022,112.233139 
	C397.890564,112.233139 391.265106,112.233139 384.369202,112.233139 
	C384.189850,114.611679 384.036072,116.650894 383.844879,119.186386 
	C382.169006,118.119598 380.934967,117.359810 379.726746,116.560959 
	C367.218109,108.290527 353.382080,109.194710 342.156708,119.043358 
	C332.005829,127.949287 328.283875,139.401932 329.094574,152.555222 
	C330.381165,173.429886 347.048889,188.485718 367.678528,186.750977 
	C373.225494,186.284531 378.585144,183.590698 384.089905,181.901169 
	C384.089905,190.176071 384.046448,198.828888 384.131592,207.480438 
	C384.146240,208.968521 384.708130,210.451202 385.914429,212.219681 
M100.101974,178.081940 
	C100.101974,146.994598 100.101974,115.907257 100.101974,84.574890 
	C102.209503,84.574890 103.506737,84.502922 104.793907,84.586273 
	C115.080666,85.252403 124.676254,83.763000 132.620377,76.360008 
	C143.324142,66.385330 146.227737,50.722542 139.569565,38.045589 
	C132.729401,25.022137 117.701126,18.015570 103.798904,21.368389 
	C89.070732,24.920404 79.322334,36.852421 78.994225,51.795750 
	C78.914955,55.406082 78.982445,59.019634 78.982445,63.108715 
	C76.519196,63.108715 74.718147,63.035946 72.924599,63.121075 
	C64.301064,63.530369 55.409592,62.781788 47.108894,64.648407 
	C23.947989,69.856705 10.376914,93.839264 16.444605,117.170692 
	C21.656553,137.211624 41.867023,151.055267 62.215286,148.167603 
	C67.809647,147.373688 73.252586,145.512756 78.931610,144.100006 
	C78.931610,148.957825 78.840561,153.782944 78.949890,158.603546 
	C79.205688,169.882767 84.265015,176.475067 95.499931,179.939133 
	C95.499931,179.939133 95.969482,179.881241 96.703072,180.069672 
	C97.456245,180.084198 98.209419,180.098724 99.567017,180.086060 
	C99.698364,179.727997 99.829704,179.369919 100.101974,178.081940 
M316.327271,119.500099 
	C316.327271,107.883209 316.327271,96.266319 316.327271,84.561836 
	C309.141144,84.561836 302.432007,84.561836 295.613342,84.561836 
	C295.613342,118.489380 295.613342,152.060974 295.613342,185.792938 
	C302.601898,185.792938 309.319641,185.792938 316.326080,185.792938 
	C316.326080,163.756302 316.326080,142.128235 316.327271,119.500099 
z"/>
<path fill="#FF686D" opacity="1.000000" stroke="none" 
	d="
M98.962593,180.113235 
	C98.209419,180.098724 97.456245,180.084198 96.262894,179.827698 
	C95.518097,179.348999 95.262177,179.413223 95.054970,179.778397 
	C84.265015,176.475067 79.205688,169.882767 78.949890,158.603546 
	C78.840561,153.782944 78.931610,148.957825 78.931610,144.100006 
	C73.252586,145.512756 67.809647,147.373688 62.215286,148.167603 
	C41.867023,151.055267 21.656553,137.211624 16.444605,117.170692 
	C10.376914,93.839264 23.947989,69.856705 47.108894,64.648407 
	C55.409592,62.781788 64.301064,63.530369 72.924599,63.121075 
	C74.718147,63.035946 76.519196,63.108715 78.982445,63.108715 
	C78.982445,59.019634 78.914955,55.406082 78.994225,51.795750 
	C79.322334,36.852421 89.070732,24.920404 103.798904,21.368389 
	C117.701126,18.015570 132.729401,25.022137 139.569565,38.045589 
	C146.227737,50.722542 143.324142,66.385330 132.620377,76.360008 
	C124.676254,83.763000 115.080666,85.252403 104.793907,84.586273 
	C103.506737,84.502922 102.209503,84.574890 100.101974,84.574890 
	C100.101974,115.907257 100.101974,146.994598 99.803467,178.666443 
	C99.324181,179.538376 99.143387,179.825806 98.962593,180.113235 
M64.513138,84.734230 
	C62.183987,84.756058 59.852928,84.724937 57.526001,84.808670 
	C46.036964,85.222061 37.205433,93.818390 36.822567,104.925430 
	C36.440647,116.005203 44.554192,125.703819 55.136662,126.817383 
	C66.654594,128.029373 77.384445,120.176216 78.609283,108.658112 
	C79.426186,100.976212 78.764412,93.137070 78.764412,84.727669 
	C74.071648,84.727669 69.787895,84.727669 64.513138,84.734230 
M103.100723,45.662807 
	C99.081604,50.932751 100.008247,56.816929 100.617073,63.047993 
	C107.935898,62.437050 116.031357,65.839073 120.345680,56.941837 
	C122.301376,52.908714 121.009903,47.425331 117.752197,44.625950 
	C113.784935,41.216858 109.238297,41.373642 103.100723,45.662807 
z"/>
<path fill="#032454" opacity="1.000000" stroke="none" 
	d="
M385.017242,211.936386 
	C384.708130,210.451202 384.146240,208.968521 384.131592,207.480438 
	C384.046448,198.828888 384.089905,190.176071 384.089905,181.901169 
	C378.585144,183.590698 373.225494,186.284531 367.678528,186.750977 
	C347.048889,188.485718 330.381165,173.429886 329.094574,152.555222 
	C328.283875,139.401932 332.005829,127.949287 342.156708,119.043358 
	C353.382080,109.194710 367.218109,108.290527 379.726746,116.560959 
	C380.934967,117.359810 382.169006,118.119598 383.844879,119.186386 
	C384.036072,116.650894 384.189850,114.611679 384.369202,112.233139 
	C391.265106,112.233139 397.890564,112.233139 404.397644,112.957382 
	C404.184967,115.331459 404.009399,116.981239 404.008453,118.631126 
	C403.992126,147.546249 403.882599,176.462265 404.111603,205.375595 
	C404.149261,210.126938 402.643250,211.315155 398.190094,211.116226 
	C393.820099,210.920990 389.409821,211.626282 385.017242,211.936386 
M352.962036,137.655426 
	C352.138367,139.808517 351.003693,141.897964 350.547516,144.126282 
	C348.991760,151.725800 350.372437,158.675262 356.028870,164.327652 
	C360.808807,169.104156 366.629852,170.618790 372.915100,168.200180 
	C380.833038,165.153290 383.759735,158.454178 384.378815,150.514893 
	C385.095215,141.327881 379.771912,131.885101 372.570343,129.349304 
	C365.581970,126.888557 358.606384,129.655273 352.962036,137.655426 
z"/>
<path fill="#032353" opacity="1.000000" stroke="none" 
	d="
M149.882568,119.320137 
	C160.623962,110.770592 172.468994,107.651604 184.987717,114.414764 
	C198.999283,121.984421 204.972183,134.602432 204.549026,150.356400 
	C204.196625,163.476257 198.764923,173.898605 188.170959,181.751556 
	C179.617783,188.091751 163.139053,190.116470 152.749802,180.262054 
	C151.935577,179.489746 150.947693,178.900528 149.904205,178.124893 
	C149.397736,183.680603 148.535797,188.945267 148.519104,194.212616 
	C148.486801,204.396637 142.092438,208.908661 133.083527,211.650513 
	C131.625656,209.634766 130.122757,207.924179 130.100082,206.194214 
	C129.910156,191.704437 129.992035,177.211090 129.992081,162.718826 
	C129.992126,148.059982 129.968719,133.401062 130.020142,118.742386 
	C130.027069,116.764328 129.170807,114.042274 132.710220,114.019417 
	C137.652725,113.987503 142.595581,114.011368 146.213074,114.011368 
	C147.924927,116.487961 148.903748,117.904045 149.882568,119.320137 
M176.158554,132.217499 
	C167.950928,126.617859 159.293716,127.693497 153.666061,135.012161 
	C147.839096,142.589981 147.431747,153.629883 152.681656,161.690170 
	C158.298386,170.313644 169.073639,171.815338 176.823853,165.054749 
	C186.188629,156.885742 186.142761,142.779449 176.158554,132.217499 
z"/>
<path fill="#032453" opacity="1.000000" stroke="none" 
	d="
M524.925171,156.365631 
	C523.673157,156.530609 522.421082,156.695572 521.149719,156.863098 
	C524.049316,171.029709 540.682739,173.815216 556.692993,162.858337 
	C560.454224,166.936630 564.251526,171.054031 568.031921,175.153030 
	C551.688293,191.583511 523.887390,190.153580 510.344666,176.187088 
	C499.489380,164.992096 496.510315,145.207855 503.942871,130.732239 
	C511.037872,116.914009 527.603638,108.811882 543.377625,111.314400 
	C557.871216,113.613754 568.222046,120.927704 572.758057,135.840179 
	C572.890991,137.315582 573.204407,138.202057 573.517822,139.088547 
	C573.650085,144.070908 573.782288,149.053268 573.434814,154.552338 
	C569.602905,155.502396 566.250732,155.935760 562.898499,156.369141 
	C554.936035,156.428711 546.973572,156.488281 538.351501,156.154083 
	C533.436340,155.962082 529.180725,156.163864 524.925171,156.365631 
M522.515076,142.511322 
	C531.503357,142.670593 540.491333,142.861343 549.480286,142.937912 
	C550.330078,142.945145 551.185913,142.235199 552.524414,141.373795 
	C551.955811,133.673248 546.719299,128.679108 538.693542,128.183014 
	C530.749268,127.691963 522.289734,133.708511 521.244690,140.651657 
	C521.190491,141.011978 521.710571,141.458755 522.515076,142.511322 
z"/>
<path fill="#052554" opacity="1.000000" stroke="none" 
	d="
M438.916565,156.458939 
	C438.974457,162.433273 442.922363,165.521164 447.616791,167.912140 
	C455.118835,171.733139 462.291412,170.074554 469.226257,166.236664 
	C470.809082,165.360672 472.258026,164.242661 474.361053,162.841248 
	C478.056122,166.921387 481.776764,171.029755 485.475769,175.114258 
	C472.121063,188.623260 449.740051,191.051178 434.136719,181.068100 
	C419.409515,171.645569 413.504517,152.057602 420.039154,134.303696 
	C425.802216,118.646004 443.309021,108.678535 460.548187,111.239967 
	C480.417603,114.192200 490.430389,125.638649 491.646942,147.892517 
	C491.081085,150.553970 490.839478,152.485107 490.524933,154.998810 
	C488.594421,154.998810 486.818024,154.998764 485.041595,154.998810 
	C471.278229,154.999130 457.514496,154.951477 443.752045,155.064072 
	C442.136505,155.077286 440.528229,155.972565 438.916565,156.458939 
M455.494293,128.184235 
	C445.096283,129.682083 440.068756,133.691483 439.319946,141.342529 
	C449.560455,141.342529 459.772430,141.342529 470.018158,141.342529 
	C469.242462,133.271729 465.792480,130.046616 455.494293,128.184235 
z"/>
<path fill="#032454" opacity="1.000000" stroke="none" 
	d="
M259.991058,178.998627 
	C258.427216,179.956787 256.769135,180.790527 255.314133,181.892441 
	C241.163132,192.609344 218.793320,186.165619 213.699127,169.871368 
	C209.115829,155.211258 217.819794,141.757050 233.043915,140.410950 
	C237.569870,140.010773 242.189758,140.815369 246.757690,140.703705 
	C250.636124,140.608887 254.501740,139.989548 258.343048,139.605286 
	C257.809784,131.289444 254.587448,127.361816 246.958237,128.106491 
	C239.397980,128.844452 232.022797,131.478546 223.695816,133.491455 
	C221.611099,130.465668 218.660110,126.182579 215.548691,121.666611 
	C229.379135,111.937233 244.204697,108.636108 260.237885,112.513123 
	C270.890381,115.089027 277.383148,122.131577 278.635101,133.958893 
	C278.205139,136.145142 278.015869,137.627106 278.013336,139.109421 
	C277.989716,152.907196 278.057312,166.705673 277.911743,180.501968 
	C277.896118,181.983765 276.791992,184.669235 276.027740,184.730286 
	C271.160736,185.119141 266.247406,184.928162 261.839447,184.928162 
	C261.039307,182.361343 260.515167,180.679977 259.991058,178.998627 
M236.331131,156.660034 
	C235.553116,159.288162 233.370285,162.721237 234.311691,164.364136 
	C235.900223,167.136398 239.210648,170.025009 242.252991,170.652023 
	C250.972366,172.449066 258.769318,164.305267 257.880402,153.795486 
	C250.901260,154.602173 243.929535,155.407990 236.331131,156.660034 
z"/>
<path fill="#072756" opacity="1.000000" stroke="none" 
	d="
M316.326660,120.000122 
	C316.326080,142.128235 316.326080,163.756302 316.326080,185.792938 
	C309.319641,185.792938 302.601898,185.792938 295.613342,185.792938 
	C295.613342,152.060974 295.613342,118.489380 295.613342,84.561836 
	C302.432007,84.561836 309.141144,84.561836 316.327271,84.561836 
	C316.327271,96.266319 316.327271,107.883209 316.326660,120.000122 
z"/>
<path fill="#102555" opacity="1.000000" stroke="none" 
	d="
M149.712463,118.898865 
	C148.903748,117.904045 147.924927,116.487961 146.213074,114.011368 
	C142.595581,114.011368 137.652725,113.987503 132.710220,114.019417 
	C129.170807,114.042274 130.027069,116.764328 130.020142,118.742386 
	C129.968719,133.401062 129.992126,148.059982 129.992081,162.718826 
	C129.992035,177.211090 129.910156,191.704437 130.100082,206.194214 
	C130.122757,207.924179 131.625656,209.634766 132.715652,211.613007 
	C131.566711,211.972458 130.144547,212.073242 128.607697,212.182144 
	C128.607697,178.750763 128.607697,145.826767 128.607697,112.523544 
	C135.485992,112.523544 142.187607,112.523544 149.189972,112.523544 
	C149.309662,114.546112 149.426010,116.511848 149.712463,118.898865 
z"/>
<path fill="#000C41" opacity="1.000000" stroke="none" 
	d="
M385.465820,212.078033 
	C389.409821,211.626282 393.820099,210.920990 398.190094,211.116226 
	C402.643250,211.315155 404.149261,210.126938 404.111603,205.375595 
	C403.882599,176.462265 403.992126,147.546249 404.008453,118.631126 
	C404.009399,116.981239 404.184967,115.331459 404.537231,113.361748 
	C404.795227,145.969971 404.795227,178.898056 404.795227,212.219681 
	C398.431091,212.219681 392.172760,212.219681 385.465820,212.078033 
z"/>
<path fill="#001447" opacity="1.000000" stroke="none" 
	d="
M439.378998,156.543671 
	C440.528229,155.972565 442.136505,155.077286 443.752045,155.064072 
	C457.514496,154.951477 471.278229,154.999130 485.041595,154.998810 
	C486.818024,154.998764 488.594421,154.998810 490.524933,154.998810 
	C490.839478,152.485107 491.081085,150.553970 491.583801,148.327560 
	C491.844879,150.646942 491.844879,153.261627 491.844879,156.628387 
	C474.457794,156.628387 457.149597,156.628387 439.378998,156.543671 
z"/>
<path fill="#000D41" opacity="1.000000" stroke="none" 
	d="
M259.904175,179.453537 
	C260.515167,180.679977 261.039307,182.361343 261.839447,184.928162 
	C266.247406,184.928162 271.160736,185.119141 276.027740,184.730286 
	C276.791992,184.669235 277.896118,181.983765 277.911743,180.501968 
	C278.057312,166.705673 277.989716,152.907196 278.013336,139.109421 
	C278.015869,137.627106 278.205139,136.145142 278.574463,134.348816 
	C278.841156,151.142990 278.841156,168.251358 278.841156,185.734680 
	C272.645721,185.734680 266.435760,185.734680 259.817322,185.734680 
	C259.817322,183.783890 259.817322,181.846161 259.904175,179.453537 
z"/>
<path fill="#364A71" opacity="1.000000" stroke="none" 
	d="
M525.302124,156.525696 
	C529.180725,156.163864 533.436340,155.962082 537.899170,156.063644 
	C533.963989,156.473236 529.821472,156.579498 525.302124,156.525696 
z"/>
<path fill="#364A71" opacity="1.000000" stroke="none" 
	d="
M563.334229,156.521454 
	C566.250732,155.935760 569.602905,155.502396 573.391479,155.014923 
	C570.475281,155.531799 567.122620,156.102798 563.334229,156.521454 
z"/>
<path fill="#364A71" opacity="1.000000" stroke="none" 
	d="
M573.580078,138.774124 
	C573.204407,138.202057 572.890991,137.315582 572.754761,136.210297 
	C573.168762,136.814224 573.405579,137.636963 573.580078,138.774124 
z"/>
<path fill="#FF5B61" opacity="1.000000" stroke="none" 
	d="
M95.277451,179.858765 
	C95.262177,179.413223 95.518097,179.348999 95.896103,179.733475 
	C95.969482,179.881241 95.499931,179.939133 95.277451,179.858765 
z"/>
<path fill="#FF5B61" opacity="1.000000" stroke="none" 
	d="
M99.264801,180.099640 
	C99.143387,179.825806 99.324181,179.538376 99.733002,179.131409 
	C99.829704,179.369919 99.698364,179.727997 99.264801,180.099640 
z"/>
<path fill="#FFFEFE" opacity="1.000000" stroke="none" 
	d="
M65.008636,84.730949 
	C69.787895,84.727669 74.071648,84.727669 78.764412,84.727669 
	C78.764412,93.137070 79.426186,100.976212 78.609283,108.658112 
	C77.384445,120.176216 66.654594,128.029373 55.136662,126.817383 
	C44.554192,125.703819 36.440647,116.005203 36.822567,104.925430 
	C37.205433,93.818390 46.036964,85.222061 57.526001,84.808670 
	C59.852928,84.724937 62.183987,84.756058 65.008636,84.730949 
z"/>
<path fill="#FFFBFC" opacity="1.000000" stroke="none" 
	d="
M103.362854,45.387962 
	C109.238297,41.373642 113.784935,41.216858 117.752197,44.625950 
	C121.009903,47.425331 122.301376,52.908714 120.345680,56.941837 
	C116.031357,65.839073 107.935898,62.437050 100.617073,63.047993 
	C100.008247,56.816929 99.081604,50.932751 103.362854,45.387962 
z"/>
<path fill="#FCFDFD" opacity="1.000000" stroke="none" 
	d="
M353.134949,137.322388 
	C358.606384,129.655273 365.581970,126.888557 372.570343,129.349304 
	C379.771912,131.885101 385.095215,141.327881 384.378815,150.514893 
	C383.759735,158.454178 380.833038,165.153290 372.915100,168.200180 
	C366.629852,170.618790 360.808807,169.104156 356.028870,164.327652 
	C350.372437,158.675262 348.991760,151.725800 350.547516,144.126282 
	C351.003693,141.897964 352.138367,139.808517 353.134949,137.322388 
z"/>
<path fill="#FDFDFD" opacity="1.000000" stroke="none" 
	d="
M176.438599,132.457825 
	C186.142761,142.779449 186.188629,156.885742 176.823853,165.054749 
	C169.073639,171.815338 158.298386,170.313644 152.681656,161.690170 
	C147.431747,153.629883 147.839096,142.589981 153.666061,135.012161 
	C159.293716,127.693497 167.950928,126.617859 176.438599,132.457825 
z"/>
<path fill="#F1F3F6" opacity="1.000000" stroke="none" 
	d="
M521.963196,141.865295 
	C521.710571,141.458755 521.190491,141.011978 521.244690,140.651657 
	C522.289734,133.708511 530.749268,127.691963 538.693542,128.183014 
	C546.719299,128.679108 551.955811,133.673248 551.818176,141.521240 
	C541.395691,141.734222 531.679443,141.799759 521.963196,141.865295 
z"/>
<path fill="#001347" opacity="1.000000" stroke="none" 
	d="
M522.239136,142.188309 
	C531.679443,141.799759 541.395691,141.734222 551.575439,141.763458 
	C551.185913,142.235199 550.330078,142.945145 549.480286,142.937912 
	C540.491333,142.861343 531.503357,142.670593 522.239136,142.188309 
z"/>
<path fill="#F3F5F7" opacity="1.000000" stroke="none" 
	d="
M455.904907,128.192596 
	C465.792480,130.046616 469.242462,133.271729 470.018158,141.342529 
	C459.772430,141.342529 449.560455,141.342529 439.319946,141.342529 
	C440.068756,133.691483 445.096283,129.682083 455.904907,128.192596 
z"/>
<path fill="#F8F9FA" opacity="1.000000" stroke="none" 
	d="
M236.644470,156.436920 
	C243.929535,155.407990 250.901260,154.602173 257.880402,153.795486 
	C258.769318,164.305267 250.972366,172.449066 242.252991,170.652023 
	C239.210648,170.025009 235.900223,167.136398 234.311691,164.364136 
	C233.370285,162.721237 235.553116,159.288162 236.644470,156.436920 
z"/>
</svg>