<svg width="648" height="115" viewBox="0 0 648 115" fill="none" xmlns="http://www.w3.org/2000/svg">
<g opacity="0.6">
<path d="M1 43.6816L51.8848 73.0147V114.786L1 85.4528V43.6816Z" fill="white"/>
<path d="M1 43.6816L51.8848 73.0147V114.786L1 85.4528V43.6816Z" fill="url(#paint0_linear_69_538)"/>
<path d="M1 43.6816L51.8848 73.0147V114.786L1 85.4528V43.6816Z" stroke="#A9A9A9" stroke-width="0.2"/>
<path d="M52.2905 73.0147L103.176 43.6816V85.4528L52.2905 114.786V73.0147Z" fill="url(#paint1_linear_69_538)" stroke="#A9A9A9" stroke-width="0.2"/>
<path d="M52.0861 14L102.971 43.3329L52.0861 72.6659L1.20117 43.3329L52.0861 14Z" fill="url(#paint2_linear_69_538)"/>
<path d="M52.0861 14L102.971 43.3329L52.0861 72.6659L1.20117 43.3329L52.0861 14Z" stroke="#A9A9A9" stroke-width="0.2"/>
</g>
<g clip-path="url(#clip0_69_538)">
<path d="M126.2 94V19.5H154C159.067 19.5 163.533 20.4333 167.4 22.3C171.333 24.1 174.4 26.7667 176.6 30.3C178.8 33.7667 179.9 38 179.9 43C179.9 47.9333 178.767 52.1667 176.5 55.7C174.3 59.1667 171.267 61.8333 167.4 63.7C163.533 65.5667 159.067 66.5 154 66.5H139.8V94H126.2ZM139.8 54.5H154.2C156.667 54.5 158.8 54.0333 160.6 53.1C162.4 52.1 163.8 50.7333 164.8 49C165.8 47.2667 166.3 45.2667 166.3 43C166.3 40.6667 165.8 38.6667 164.8 37C163.8 35.2667 162.4 33.9333 160.6 33C158.8 32 156.667 31.5 154.2 31.5H139.8V54.5ZM198.221 95.2C194.421 95.2 191.121 94.5667 188.321 93.3C185.521 92.0333 183.355 90.2333 181.821 87.9C180.288 85.5 179.521 82.7333 179.521 79.6C179.521 76.6 180.188 73.9333 181.521 71.6C182.855 69.2 184.921 67.2 187.721 65.6C190.521 64 194.055 62.8667 198.321 62.2L216.121 59.3V69.3L200.821 71.9C198.221 72.3667 196.288 73.2 195.021 74.4C193.755 75.6 193.121 77.1667 193.121 79.1C193.121 80.9667 193.821 82.4667 195.221 83.6C196.688 84.6667 198.488 85.2 200.621 85.2C203.355 85.2 205.755 84.6333 207.821 83.5C209.955 82.3 211.588 80.6667 212.721 78.6C213.921 76.5333 214.521 74.2667 214.521 71.8V57.8C214.521 55.4667 213.588 53.5333 211.721 52C209.921 50.4 207.521 49.6 204.521 49.6C201.721 49.6 199.221 50.3667 197.021 51.9C194.888 53.3667 193.321 55.3333 192.321 57.8L181.621 52.6C182.688 49.7333 184.355 47.2667 186.621 45.2C188.955 43.0667 191.688 41.4 194.821 40.2C197.955 39 201.355 38.4 205.021 38.4C209.488 38.4 213.421 39.2333 216.821 40.9C220.221 42.5 222.855 44.7667 224.721 47.7C226.654 50.5667 227.621 53.9333 227.621 57.8V94H215.221V84.7L218.021 84.5C216.621 86.8333 214.955 88.8 213.021 90.4C211.088 91.9333 208.888 93.1333 206.421 94C203.955 94.8 201.221 95.2 198.221 95.2ZM258.552 94.6C252.419 94.6 247.652 92.9333 244.252 89.6C240.919 86.2 239.252 81.4333 239.252 75.3V51.3H229.852V39.6H230.852C233.519 39.6 235.586 38.9 237.052 37.5C238.519 36.1 239.252 34.0667 239.252 31.4V27.2H252.352V39.6H264.852V51.3H252.352V74.6C252.352 76.4 252.652 77.9333 253.252 79.2C253.919 80.4667 254.919 81.4333 256.252 82.1C257.652 82.7667 259.419 83.1 261.552 83.1C262.019 83.1 262.552 83.0667 263.152 83C263.819 82.9333 264.452 82.8667 265.052 82.8V94C264.119 94.1333 263.052 94.2667 261.852 94.4C260.652 94.5333 259.552 94.6 258.552 94.6ZM270.061 94V39.6H282.361V51.7L281.361 49.9C282.628 45.8333 284.594 43 287.261 41.4C289.994 39.8 293.261 39 297.061 39H300.261V50.6H295.561C291.828 50.6 288.828 51.7667 286.561 54.1C284.294 56.3667 283.161 59.5667 283.161 63.7V94H270.061ZM329.063 95.2C323.73 95.2 318.863 93.9667 314.463 91.5C310.13 89.0333 306.663 85.6667 304.063 81.4C301.53 77.1333 300.263 72.2667 300.263 66.8C300.263 61.3333 301.53 56.4667 304.063 52.2C306.663 47.9333 310.13 44.5667 314.463 42.1C318.797 39.6333 323.663 38.4 329.063 38.4C334.397 38.4 339.23 39.6333 343.563 42.1C347.897 44.5667 351.33 47.9333 353.863 52.2C356.463 56.4 357.763 61.2667 357.763 66.8C357.763 72.2667 356.463 77.1333 353.863 81.4C351.263 85.6667 347.797 89.0333 343.463 91.5C339.13 93.9667 334.33 95.2 329.063 95.2ZM329.063 83.2C331.997 83.2 334.563 82.5 336.763 81.1C339.03 79.7 340.797 77.7667 342.063 75.3C343.397 72.7667 344.063 69.9333 344.063 66.8C344.063 63.6 343.397 60.8 342.063 58.4C340.797 55.9333 339.03 54 336.763 52.6C334.563 51.1333 331.997 50.4 329.063 50.4C326.063 50.4 323.43 51.1333 321.163 52.6C318.897 54 317.097 55.9333 315.763 58.4C314.497 60.8 313.863 63.6 313.863 66.8C313.863 69.9333 314.497 72.7667 315.763 75.3C317.097 77.7667 318.897 79.7 321.163 81.1C323.43 82.5 326.063 83.2 329.063 83.2ZM362.698 94V39.6H374.998V50.3L373.998 48.4C375.264 45.1333 377.331 42.6667 380.198 41C383.131 39.2667 386.531 38.4 390.398 38.4C394.398 38.4 397.931 39.2667 400.998 41C404.131 42.7333 406.564 45.1667 408.298 48.3C410.031 51.3667 410.898 54.9333 410.898 59V94H397.798V62.1C397.798 59.7 397.331 57.6333 396.398 55.9C395.464 54.1667 394.164 52.8333 392.498 51.9C390.898 50.9 388.998 50.4 386.798 50.4C384.664 50.4 382.764 50.9 381.098 51.9C379.431 52.8333 378.131 54.1667 377.198 55.9C376.264 57.6333 375.798 59.7 375.798 62.1V94H362.698ZM436.375 95.2C432.175 95.2 428.508 94.2667 425.375 92.4C422.308 90.5333 419.942 87.9333 418.275 84.6C416.675 81.2667 415.875 77.3667 415.875 72.9V39.6H428.975V71.8C428.975 74.0667 429.408 76.0667 430.275 77.8C431.208 79.4667 432.508 80.8 434.175 81.8C435.908 82.7333 437.842 83.2 439.975 83.2C442.108 83.2 444.008 82.7333 445.675 81.8C447.342 80.8 448.642 79.4333 449.575 77.7C450.508 75.9667 450.975 73.9 450.975 71.5V39.6H464.075V94H451.675V83.3L452.775 85.2C451.508 88.5333 449.408 91.0333 446.475 92.7C443.608 94.3667 440.242 95.2 436.375 95.2ZM491.952 95.2C486.152 95.2 481.086 93.8333 476.752 91.1C472.486 88.3 469.552 84.5333 467.952 79.8L477.752 75.1C479.152 78.1667 481.086 80.5667 483.552 82.3C486.086 84.0333 488.886 84.9 491.952 84.9C494.352 84.9 496.252 84.3667 497.652 83.3C499.052 82.2333 499.752 80.8333 499.752 79.1C499.752 78.0333 499.452 77.1667 498.852 76.5C498.319 75.7667 497.552 75.1667 496.552 74.7C495.619 74.1667 494.586 73.7333 493.452 73.4L484.552 70.9C479.952 69.5667 476.452 67.5333 474.052 64.8C471.719 62.0667 470.552 58.8333 470.552 55.1C470.552 51.7667 471.386 48.8667 473.052 46.4C474.786 43.8667 477.152 41.9 480.152 40.5C483.219 39.1 486.719 38.4 490.652 38.4C495.786 38.4 500.319 39.6333 504.252 42.1C508.186 44.5667 510.986 48.0333 512.652 52.5L502.652 57.2C501.719 54.7333 500.152 52.7667 497.952 51.3C495.752 49.8333 493.286 49.1 490.552 49.1C488.352 49.1 486.619 49.6 485.352 50.6C484.086 51.6 483.452 52.9 483.452 54.5C483.452 55.5 483.719 56.3667 484.252 57.1C484.786 57.8333 485.519 58.4333 486.452 58.9C487.452 59.3667 488.586 59.8 489.852 60.2L498.552 62.8C503.019 64.1333 506.452 66.1333 508.852 68.8C511.319 71.4667 512.552 74.7333 512.552 78.6C512.552 81.8667 511.686 84.7667 509.952 87.3C508.219 89.7667 505.819 91.7 502.752 93.1C499.686 94.5 496.086 95.2 491.952 95.2ZM538.166 94L563.866 19.5H581.466L607.166 94H592.366L587.066 78H558.266L552.866 94H538.166ZM562.166 66H583.166L570.766 28.9H574.566L562.166 66ZM610.458 94V19.5H624.058V94H610.458Z" fill="url(#paint3_linear_69_538)"/>
</g>
<defs>
<linearGradient id="paint0_linear_69_538" x1="11.8714" y1="32.2798" x2="23.308" y2="121.693" gradientUnits="userSpaceOnUse">
<stop stop-color="#F3DBFF"/>
<stop offset="0.475703" stop-color="#A388F2"/>
<stop offset="1" stop-color="#2A3EF5"/>
</linearGradient>
<linearGradient id="paint1_linear_69_538" x1="97.321" y1="104.598" x2="44.7634" y2="52.0401" gradientUnits="userSpaceOnUse">
<stop offset="0.324002" stop-color="#8078E7"/>
<stop offset="1" stop-color="#E6E4FF"/>
</linearGradient>
<linearGradient id="paint2_linear_69_538" x1="15" y1="5.5" x2="26.8893" y2="79.3622" gradientUnits="userSpaceOnUse">
<stop offset="0.475703" stop-color="#A388F2"/>
<stop offset="1" stop-color="#2A3EF5"/>
</linearGradient>
<linearGradient id="paint3_linear_69_538" x1="647.398" y1="84.1876" x2="45.6061" y2="-43.3142" gradientUnits="userSpaceOnUse">
<stop stop-color="#2C3ABD"/>
<stop offset="1" stop-color="#A687FF"/>
</linearGradient>
<clipPath id="clip0_69_538">
<rect width="499" height="77" fill="white" transform="translate(126 19)"/>
</clipPath>
</defs>
</svg>
