<svg width="122" height="45" viewBox="0 0 122 45" fill="none" xmlns="http://www.w3.org/2000/svg">
<path d="M18.5761 13.6016C13.14 13.6016 8.73224 18.0093 8.73224 23.4454C8.73224 28.8815 13.14 33.2892 18.5761 33.2892C24.0121 33.2892 28.4199 28.8815 28.4199 23.4454C28.4199 18.0093 24.0121 13.6016 18.5761 13.6016ZM21.7423 23.597L16.9435 27.0885C16.9172 27.1074 16.8862 27.1187 16.8539 27.1211C16.8216 27.1235 16.7892 27.117 16.7604 27.1022C16.7315 27.0875 16.7073 27.0651 16.6904 27.0374C16.6735 27.0098 16.6645 26.9781 16.6644 26.9457V19.9671C16.6643 19.9346 16.6732 19.9028 16.6901 19.875C16.707 19.8473 16.7312 19.8248 16.7601 19.81C16.789 19.7952 16.8214 19.7887 16.8538 19.7913C16.8862 19.7938 16.9172 19.8052 16.9435 19.8243L21.7423 23.3136C21.765 23.3296 21.7835 23.3508 21.7963 23.3755C21.809 23.4001 21.8157 23.4275 21.8157 23.4553C21.8157 23.483 21.809 23.5104 21.7963 23.5351C21.7835 23.5597 21.765 23.581 21.7423 23.597V23.597Z" fill="#01DA72"/>
<path d="M37.1434 15.6662H42.6497C43.4869 15.6662 44.2436 15.7789 44.9198 16.0043C45.6121 16.2297 46.1998 16.5517 46.6828 16.9703C47.1658 17.3728 47.5361 17.8638 47.7937 18.4435C48.0513 19.0231 48.1801 19.6751 48.1801 20.3996C48.1801 21.2691 48.0433 22.0419 47.7696 22.7181C47.512 23.3782 47.1417 23.9337 46.6586 24.3845C46.1756 24.8192 45.596 25.1492 44.9198 25.3746C44.2597 25.6 43.5271 25.7127 42.7221 25.7127H40.7418V31.3156H37.1434V15.6662ZM40.7418 18.5642V22.9354H42.384C43.2051 22.9354 43.8089 22.7181 44.1953 22.2834C44.5978 21.8487 44.7991 21.3093 44.7991 20.6653C44.7991 20.0535 44.5817 19.5544 44.147 19.168C43.7284 18.7655 43.1327 18.5642 42.3599 18.5642H40.7418Z" fill="black"/>
<path d="M53.8637 14.9336V31.3156H50.0781V14.9336H53.8637Z" fill="black"/>
<path d="M64.0978 30.2289C63.6791 30.6475 63.2203 30.9775 62.7212 31.219C62.2382 31.4605 61.6505 31.5813 60.9582 31.5813C60.2337 31.5813 59.5575 31.4525 58.9296 31.1949C58.3177 30.9373 57.7864 30.5589 57.3356 30.0598C56.8848 29.5607 56.5306 28.9409 56.273 28.2002C56.0154 27.4596 55.8866 26.6063 55.8866 25.6403C55.8866 24.7709 56.0154 23.9739 56.273 23.2494C56.5306 22.5249 56.8848 21.905 57.3356 21.3898C57.7864 20.8746 58.3177 20.4801 58.9296 20.2064C59.5575 19.9166 60.2337 19.7717 60.9582 19.7717C61.6183 19.7717 62.1979 19.8764 62.697 20.0857C63.2122 20.295 63.6791 20.5848 64.0978 20.9551V20.0132H67.672V31.3156H64.0978V30.2289ZM61.8035 28.6349C62.5924 28.6349 63.2042 28.3532 63.6389 27.7897C64.0736 27.2262 64.291 26.5178 64.291 25.6644C64.291 24.6984 64.0495 23.9659 63.5664 23.4668C63.0995 22.9676 62.5038 22.7181 61.7793 22.7181C60.9904 22.7181 60.3786 22.9998 59.9439 23.5634C59.5253 24.1108 59.316 24.8111 59.316 25.6644C59.316 26.5339 59.5333 27.2503 59.968 27.8138C60.4027 28.3612 61.0145 28.6349 61.8035 28.6349Z" fill="black"/>
<path d="M81.9629 20.0857L74.919 36.6489H71.216L73.792 30.9333L69.2236 20.0857H73.0675L75.6637 27.1094L78.2397 20.0857H81.9629Z" fill="black"/>
<path d="M93.262 24.9882H87.321V31.3156H83.7226V15.6662H87.321V21.8728H93.262V15.6662H96.8604V31.3156H93.262V24.9882Z" fill="black"/>
<path d="M98.9478 15.6662H110.757V18.8057H106.652V31.3156H103.077V18.8057H98.9478V15.6662Z" fill="black"/>
</svg>
