<?xml version="1.0" encoding="UTF-8"?>
<!DOCTYPE svg PUBLIC "-//W3C//DTD SVG 1.1//EN" "http://www.w3.org/Graphics/SVG/1.1/DTD/svg11.dtd">
<svg xmlns="http://www.w3.org/2000/svg" version="1.1" width="303px" height="166px" style="shape-rendering:geometricPrecision; text-rendering:geometricPrecision; image-rendering:optimizeQuality; fill-rule:evenodd; clip-rule:evenodd" xmlns:xlink="http://www.w3.org/1999/xlink">
<g><path style="opacity:1" fill="#fefefe" d="M -0.5,-0.5 C 100.5,-0.5 201.5,-0.5 302.5,-0.5C 302.5,54.8333 302.5,110.167 302.5,165.5C 201.5,165.5 100.5,165.5 -0.5,165.5C -0.5,110.167 -0.5,54.8333 -0.5,-0.5 Z"/></g>
<g><path style="opacity:1" fill="#825368" d="M 43.5,47.5 C 42.9543,49.2361 42.9543,51.2361 43.5,53.5C 47.4454,54.4909 51.4454,54.8242 55.5,54.5C 58.0593,54.1984 60.3926,54.5318 62.5,55.5C 53.8333,55.5 45.1667,55.5 36.5,55.5C 34.9121,53.8867 33.9121,51.8867 33.5,49.5C 33.9175,48.7784 34.5842,48.2784 35.5,48C 38.146,47.5026 40.8127,47.3359 43.5,47.5 Z"/></g>
<g><path style="opacity:1" fill="#a22f41" d="M 53.5,47.5 C 57.3714,47.185 61.0381,47.5184 64.5,48.5C 63.448,48.3505 62.448,48.5172 61.5,49C 62.0283,52.038 63.3616,54.538 65.5,56.5C 64.609,55.8902 63.609,55.5569 62.5,55.5C 60.3926,54.5318 58.0593,54.1984 55.5,54.5C 56.2666,51.9133 55.6,49.5799 53.5,47.5 Z"/></g>
<g><path style="opacity:1" fill="#91384f" d="M 43.5,47.5 C 46.8333,47.5 50.1667,47.5 53.5,47.5C 55.6,49.5799 56.2666,51.9133 55.5,54.5C 51.4454,54.8242 47.4454,54.4909 43.5,53.5C 42.9543,51.2361 42.9543,49.2361 43.5,47.5 Z"/></g>
<g><path style="opacity:1" fill="#b82838" d="M 64.5,48.5 C 68.634,48.9932 71.634,50.9932 73.5,54.5C 73.0766,55.2646 72.7432,56.0979 72.5,57C 75.1597,59.7985 75.8263,62.9651 74.5,66.5C 75.4544,68.9106 76.7877,71.0772 78.5,73C 78.4301,73.7648 78.0967,74.2648 77.5,74.5C 73.983,68.119 69.983,62.119 65.5,56.5C 63.3616,54.538 62.0283,52.038 61.5,49C 62.448,48.5172 63.448,48.3505 64.5,48.5 Z"/></g>
<g><path style="opacity:1" fill="#fcfbfb" d="M 36.5,55.5 C 45.1667,55.5 53.8333,55.5 62.5,55.5C 63.609,55.5569 64.609,55.8902 65.5,56.5C 69.983,62.119 73.983,68.119 77.5,74.5C 79.6315,77.4461 80.6315,80.7794 80.5,84.5C 76.5971,91.3032 72.9304,98.3032 69.5,105.5C 67.3477,107.985 64.6811,109.651 61.5,110.5C 58.5,110.5 55.5,110.5 52.5,110.5C 47.5,110.5 42.5,110.5 37.5,110.5C 35.563,109.069 33.7297,107.402 32,105.5C 28.6667,99.5 25.3333,93.5 22,87.5C 21.3333,84.5 21.3333,81.5 22,78.5C 23.5133,75.4734 25.0133,72.4734 26.5,69.5C 29.1442,66.2266 31.3109,62.5599 33,58.5C 34.5185,57.8366 35.6851,56.8366 36.5,55.5 Z"/></g>
<g><path style="opacity:1" fill="#c3222b" d="M 73.5,54.5 C 78.966,61.4972 83.466,69.1639 87,77.5C 88.4669,84.5869 86.9669,90.9202 82.5,96.5C 81.596,95.791 81.2627,94.791 81.5,93.5C 80.448,93.6495 79.448,93.4828 78.5,93C 79.9915,90.3788 80.6582,87.5455 80.5,84.5C 80.6315,80.7794 79.6315,77.4461 77.5,74.5C 78.0967,74.2648 78.4301,73.7648 78.5,73C 76.7877,71.0772 75.4544,68.9106 74.5,66.5C 75.8263,62.9651 75.1597,59.7985 72.5,57C 72.7432,56.0979 73.0766,55.2646 73.5,54.5 Z"/></g>
<g><path style="opacity:1" fill="#5e5873" d="M 33.5,49.5 C 33.9121,51.8867 34.9121,53.8867 36.5,55.5C 35.6851,56.8366 34.5185,57.8366 33,58.5C 31.3109,62.5599 29.1442,66.2266 26.5,69.5C 25.5868,67.9139 25.5868,66.4139 26.5,65C 25.5291,63.5187 24.1958,62.6854 22.5,62.5C 23.5472,58.7393 25.3805,55.406 28,52.5C 29.7409,51.2423 31.5742,50.2423 33.5,49.5 Z"/></g>
<g><path style="opacity:1" fill="#060606" d="M 203.5,59.5 C 205.833,59.5 208.167,59.5 210.5,59.5C 210.334,66.5079 210.5,73.5079 211,80.5C 213.951,77.4276 216.784,74.2609 219.5,71C 222.167,70.3333 224.833,70.3333 227.5,71C 224.017,74.3172 221.017,77.9839 218.5,82C 221.618,86.3972 224.618,90.8972 227.5,95.5C 225.235,96.6474 222.902,96.8141 220.5,96C 218.045,92.9223 215.711,89.7556 213.5,86.5C 210.857,89.266 209.857,92.5994 210.5,96.5C 208.167,96.5 205.833,96.5 203.5,96.5C 203.5,84.1667 203.5,71.8333 203.5,59.5 Z"/></g>
<g><path style="opacity:1" fill="#060606" d="M 180.5,77.5 C 180.5,75.5 180.5,73.5 180.5,71.5C 181.791,71.7373 182.791,71.404 183.5,70.5C 184.117,70.3893 184.617,70.056 185,69.5C 185.497,67.1902 185.663,64.8568 185.5,62.5C 187.5,62.5 189.5,62.5 191.5,62.5C 191.5,65.5 191.5,68.5 191.5,71.5C 193.167,71.5 194.833,71.5 196.5,71.5C 196.5,73.5 196.5,75.5 196.5,77.5C 194.833,77.5 193.167,77.5 191.5,77.5C 191.334,81.5138 191.501,85.5138 192,89.5C 193.699,90.4061 195.533,90.7394 197.5,90.5C 197.756,92.7925 197.423,94.9592 196.5,97C 190.814,98.7389 186.98,96.9055 185,91.5C 184.501,86.8452 184.334,82.1785 184.5,77.5C 183.167,77.5 181.833,77.5 180.5,77.5 Z"/></g>
<g><path style="opacity:1" fill="#070707" d="M 100.5,70.5 C 102.5,70.5 104.5,70.5 106.5,70.5C 106.351,71.552 106.517,72.552 107,73.5C 111.478,70.1509 116.312,69.6509 121.5,72C 125.489,74.8129 127.156,78.6462 126.5,83.5C 126.441,91.73 122.275,96.3966 114,97.5C 111.402,96.6991 109.069,95.3658 107,93.5C 106.501,98.1548 106.334,102.821 106.5,107.5C 104.5,107.5 102.5,107.5 100.5,107.5C 100.5,95.1667 100.5,82.8333 100.5,70.5 Z"/></g>
<g><path style="opacity:1" fill="#090909" d="M 139.5,70.5 C 154.03,69.8557 159.53,76.5224 156,90.5C 148.6,99.241 140.934,99.5743 133,91.5C 128.298,82.2634 130.464,75.2634 139.5,70.5 Z"/></g>
<g><path style="opacity:1" fill="#101010" d="M 162.5,70.5 C 164.833,70.5 167.167,70.5 169.5,70.5C 169.351,71.552 169.517,72.552 170,73.5C 172.305,71.0695 175.138,70.0695 178.5,70.5C 178.5,72.8333 178.5,75.1667 178.5,77.5C 174.51,76.6155 171.677,77.9489 170,81.5C 169.501,86.4889 169.334,91.4889 169.5,96.5C 167.167,96.5 164.833,96.5 162.5,96.5C 162.5,87.8333 162.5,79.1667 162.5,70.5 Z"/></g>
<g><path style="opacity:1" fill="#0a0a0a" d="M 238.5,70.5 C 250.034,69.0433 256.034,74.0433 256.5,85.5C 250.167,85.5 243.833,85.5 237.5,85.5C 238.509,90.3464 241.509,92.1798 246.5,91C 248.081,90.2935 249.581,89.4601 251,88.5C 255.879,91.9335 255.379,94.4335 249.5,96C 234.855,98.6894 228.688,92.5227 231,77.5C 232.742,74.2543 235.242,71.921 238.5,70.5 Z"/></g>
<g><path style="opacity:1" fill="#050505" d="M 258.5,70.5 C 260.924,70.1924 263.257,70.5258 265.5,71.5C 267.503,76.5096 269.503,81.5096 271.5,86.5C 273.882,81.6932 275.882,76.6932 277.5,71.5C 279.833,70.1667 282.167,70.1667 284.5,71.5C 280.823,82.3639 276.657,93.0305 272,103.5C 269.056,107.114 265.223,108.447 260.5,107.5C 260.5,105.5 260.5,103.5 260.5,101.5C 264.703,102.298 267.37,100.631 268.5,96.5C 264.964,87.888 261.63,79.2213 258.5,70.5 Z"/></g>
<g><path style="opacity:1" fill="#636363" d="M 100.5,70.5 C 100.5,82.8333 100.5,95.1667 100.5,107.5C 102.5,107.5 104.5,107.5 106.5,107.5C 104.393,108.468 102.059,108.802 99.5,108.5C 99.1713,95.6557 99.5046,82.989 100.5,70.5 Z"/></g>
<g><path style="opacity:1" fill="#777777" d="M 183.5,70.5 C 182.791,71.404 181.791,71.7373 180.5,71.5C 180.5,73.5 180.5,75.5 180.5,77.5C 179.532,75.3926 179.198,73.0593 179.5,70.5C 180.833,70.5 182.167,70.5 183.5,70.5 Z"/></g>
<g><path style="opacity:1" fill="#9f3446" d="M 64.5,74.5 C 65.764,76.2701 67.264,77.9368 69,79.5C 69.6667,81.8333 69.6667,84.1667 69,86.5C 68.6174,87.056 68.1174,87.3893 67.5,87.5C 65.8333,87.5 64.1667,87.5 62.5,87.5C 62.7261,84.7508 62.3928,82.0841 61.5,79.5C 62.2745,77.6036 63.2745,75.937 64.5,74.5 Z"/></g>
<g><path style="opacity:1" fill="#f7f6f6" d="M 110.5,76.5 C 118.322,76.1659 121.156,79.8325 119,87.5C 114.132,91.911 110.132,91.2443 107,85.5C 106.481,81.8679 107.647,78.8679 110.5,76.5 Z"/></g>
<g><path style="opacity:1" fill="#f5f5f5" d="M 248.5,79.5 C 245.038,80.4816 241.371,80.815 237.5,80.5C 238.033,77.4752 239.867,76.1419 243,76.5C 245.655,76.124 247.488,77.124 248.5,79.5 Z"/></g>
<g><path style="opacity:1" fill="#f4f4f4" d="M 141.5,76.5 C 148.771,76.0357 151.604,79.3691 150,86.5C 146.098,91.8036 142.098,91.8036 138,86.5C 137.333,84.5 137.333,82.5 138,80.5C 139.376,79.2949 140.542,77.9616 141.5,76.5 Z"/></g>
<g><path style="opacity:1" fill="#818181" d="M 248.5,79.5 C 249.043,79.56 249.376,79.8933 249.5,80.5C 245.351,81.8095 241.351,81.8095 237.5,80.5C 241.371,80.815 245.038,80.4816 248.5,79.5 Z"/></g>
<g><path style="opacity:1" fill="#43688b" d="M 22.5,62.5 C 24.1958,62.6854 25.5291,63.5187 26.5,65C 25.5868,66.4139 25.5868,67.9139 26.5,69.5C 25.0133,72.4734 23.5133,75.4734 22,78.5C 21.3333,81.5 21.3333,84.5 22,87.5C 25.3333,93.5 28.6667,99.5 32,105.5C 33.7297,107.402 35.563,109.069 37.5,110.5C 36.5655,111.568 36.2322,112.901 36.5,114.5C 38.4286,114.231 40.0953,114.731 41.5,116C 39.2922,116.191 37.2922,116.691 35.5,117.5C 31.6681,116.182 28.5014,113.848 26,110.5C 21.7299,102.959 17.7299,95.2927 14,87.5C 13.2093,83.0745 13.5427,78.7411 15,74.5C 17.2874,70.2347 19.7874,66.2347 22.5,62.5 Z"/></g>
<g><path style="opacity:1" fill="#8d3d52" d="M 64.5,74.5 C 63.2745,75.937 62.2745,77.6036 61.5,79.5C 62.3928,82.0841 62.7261,84.7508 62.5,87.5C 64.1667,87.5 65.8333,87.5 67.5,87.5C 64.194,91.9165 60.5273,96.0831 56.5,100C 53.4473,101.072 51.4473,100.072 50.5,97C 53.7714,92.0574 57.4381,87.3907 61.5,83C 58,78.8333 54.5,74.6667 51,70.5C 50.8355,66.0233 53.0022,64.5233 57.5,66C 59.6677,68.9981 62.0011,71.8314 64.5,74.5 Z"/></g>
<g><path style="opacity:1" fill="#a63242" d="M 80.5,84.5 C 80.6582,87.5455 79.9915,90.3788 78.5,93C 79.448,93.4828 80.448,93.6495 81.5,93.5C 81.2627,94.791 81.596,95.791 82.5,96.5C 79.6532,102.206 76.3198,107.539 72.5,112.5C 71.5,112.5 70.5,112.5 69.5,112.5C 69.5,110.167 69.5,107.833 69.5,105.5C 72.9304,98.3032 76.5971,91.3032 80.5,84.5 Z"/></g>
<g><path style="opacity:1" fill="#8e3c54" d="M 69.5,105.5 C 69.5,107.833 69.5,110.167 69.5,112.5C 70.5,112.5 71.5,112.5 72.5,112.5C 70.5156,115.164 67.8489,116.831 64.5,117.5C 63.8333,117.5 63.1667,117.5 62.5,117.5C 62.2167,114.835 61.8834,112.501 61.5,110.5C 64.6811,109.651 67.3477,107.985 69.5,105.5 Z"/></g>
<g><path style="opacity:1" fill="#625b78" d="M 37.5,110.5 C 42.5,110.5 47.5,110.5 52.5,110.5C 51.3915,111.29 50.0581,111.79 48.5,112C 49.1667,113.667 49.8333,115.333 50.5,117C 54.4862,117.499 58.4862,117.666 62.5,117.5C 63.1667,117.5 63.8333,117.5 64.5,117.5C 54.9316,118.817 45.2649,118.817 35.5,117.5C 37.2922,116.691 39.2922,116.191 41.5,116C 40.0953,114.731 38.4286,114.231 36.5,114.5C 36.2322,112.901 36.5655,111.568 37.5,110.5 Z"/></g>
<g><path style="opacity:1" fill="#754863" d="M 52.5,110.5 C 55.5,110.5 58.5,110.5 61.5,110.5C 61.8834,112.501 62.2167,114.835 62.5,117.5C 58.4862,117.666 54.4862,117.499 50.5,117C 49.8333,115.333 49.1667,113.667 48.5,112C 50.0581,111.79 51.3915,111.29 52.5,110.5 Z"/></g>
</svg>
