<?xml version="1.0" encoding="UTF-8"?>
<!DOCTYPE svg PUBLIC "-//W3C//DTD SVG 1.1//EN" "http://www.w3.org/Graphics/SVG/1.1/DTD/svg11.dtd">
<svg xmlns="http://www.w3.org/2000/svg" version="1.1" width="2000px" height="350px" style="shape-rendering:geometricPrecision; text-rendering:geometricPrecision; image-rendering:optimizeQuality; fill-rule:evenodd; clip-rule:evenodd" xmlns:xlink="http://www.w3.org/1999/xlink">
<g><path style="opacity:0.912" fill="#7bca79" d="M 256.5,77.5 C 248.833,63.8333 238.167,53.1667 224.5,45.5C 226.502,42.6662 229.002,40.3329 232,38.5C 235.612,45.8832 241.445,50.2166 249.5,51.5C 250.898,59.6328 255.231,65.6328 262.5,69.5C 260.86,72.4681 258.86,75.1348 256.5,77.5 Z"/></g>
<g><path style="opacity:0.992" fill="#ef4c74" d="M 224.5,45.5 C 238.167,53.1667 248.833,63.8333 256.5,77.5C 256.517,79.5648 256.85,81.5648 257.5,83.5C 256.745,86.0529 256.078,88.7196 255.5,91.5C 251.269,99.5623 244.936,105.396 236.5,109C 225.89,113.27 214.89,114.603 203.5,113C 191.667,108.178 186.334,99.3451 187.5,86.5C 187.5,83.8333 187.5,81.1667 187.5,78.5C 190.089,67.1534 195.422,57.3201 203.5,49C 209.926,44.5803 216.926,43.4137 224.5,45.5 Z"/></g>
<g><path style="opacity:0.979" fill="#364150" d="M 413.5,73.5 C 444.168,73.3334 474.835,73.5 505.5,74C 541.79,77.6233 561.123,97.6233 563.5,134C 562.43,168.733 544.763,188.733 510.5,194C 492.17,194.5 473.836,194.667 455.5,194.5C 455.5,216.833 455.5,239.167 455.5,261.5C 441.5,261.5 427.5,261.5 413.5,261.5C 413.5,198.833 413.5,136.167 413.5,73.5 Z M 455.5,106.5 C 468.171,106.333 480.838,106.5 493.5,107C 516.343,108.851 525.51,121.017 521,143.5C 517.129,154.531 509.296,160.364 497.5,161C 483.504,161.5 469.504,161.667 455.5,161.5C 455.5,143.167 455.5,124.833 455.5,106.5 Z"/></g>
<g><path style="opacity:0.985" fill="#364150" d="M 1295.5,73.5 C 1309.5,73.5 1323.5,73.5 1337.5,73.5C 1337.5,124.5 1337.5,175.5 1337.5,226.5C 1367.83,226.5 1398.17,226.5 1428.5,226.5C 1428.5,238.167 1428.5,249.833 1428.5,261.5C 1384.17,261.5 1339.83,261.5 1295.5,261.5C 1295.5,198.833 1295.5,136.167 1295.5,73.5 Z"/></g>
<g><path style="opacity:0.988" fill="#ffc483" d="M 187.5,78.5 C 187.5,81.1667 187.5,83.8333 187.5,86.5C 177.828,86.3335 168.161,86.5002 158.5,87C 130.833,104 103.167,121 75.5,138C 154.822,130.401 234.155,122.401 313.5,114C 302.393,105.614 290.06,99.6139 276.5,96C 269.561,94.1789 262.561,92.6789 255.5,91.5C 256.078,88.7196 256.745,86.0529 257.5,83.5C 278.693,86.6184 298.359,93.785 316.5,105C 320.036,108.201 323.203,111.701 326,115.5C 326.667,161.833 326.667,208.167 326,254.5C 325.5,255 325,255.5 324.5,256C 235.197,265.33 145.864,273.997 56.5,282C 55.3333,281.5 54.5,280.667 54,279.5C 53.0103,233.083 53.3437,186.75 55,140.5C 88.5839,119.623 122.417,99.1231 156.5,79C 166.828,78.5002 177.161,78.3335 187.5,78.5 Z"/></g>
<g><path style="opacity:0.972" fill="#364150" d="M 1215.5,84.5 C 1228.17,84.5 1240.83,84.5 1253.5,84.5C 1253.5,98.1667 1253.5,111.833 1253.5,125.5C 1262.5,125.5 1271.5,125.5 1280.5,125.5C 1280.5,134.167 1280.5,142.833 1280.5,151.5C 1271.5,151.5 1262.5,151.5 1253.5,151.5C 1253.04,176.552 1253.54,201.552 1255,226.5C 1255.83,229.333 1257.67,231.167 1260.5,232C 1267.08,232.81 1273.58,232.643 1280,231.5C 1280.67,241.5 1280.67,251.5 1280,261.5C 1263.67,264.592 1247.5,263.759 1231.5,259C 1222.85,254.885 1217.68,248.051 1216,238.5C 1215.5,209.502 1215.33,180.502 1215.5,151.5C 1207.83,151.5 1200.17,151.5 1192.5,151.5C 1192.5,142.833 1192.5,134.167 1192.5,125.5C 1200.17,125.5 1207.83,125.5 1215.5,125.5C 1215.5,111.833 1215.5,98.1667 1215.5,84.5 Z"/></g>
<g><path style="opacity:1" fill="#feec9e" d="M 187.5,86.5 C 186.334,99.3451 191.667,108.178 203.5,113C 214.89,114.603 225.89,113.27 236.5,109C 244.936,105.396 251.269,99.5623 255.5,91.5C 262.561,92.6789 269.561,94.1789 276.5,96C 290.06,99.6139 302.393,105.614 313.5,114C 234.155,122.401 154.822,130.401 75.5,138C 103.167,121 130.833,104 158.5,87C 168.161,86.5002 177.828,86.3335 187.5,86.5 Z"/></g>
<g><path style="opacity:0.976" fill="#364150" d="M 650.5,121.5 C 655.537,121.413 660.537,121.746 665.5,122.5C 665.5,134.5 665.5,146.5 665.5,158.5C 651.278,155.203 638.278,157.703 626.5,166C 620.279,173.317 616.779,181.817 616,191.5C 615.5,214.831 615.333,238.164 615.5,261.5C 602.833,261.5 590.167,261.5 577.5,261.5C 577.5,216.167 577.5,170.833 577.5,125.5C 589.5,125.5 601.5,125.5 613.5,125.5C 613.334,133.174 613.5,140.841 614,148.5C 621.803,133.522 633.97,124.522 650.5,121.5 Z"/></g>
<g><path style="opacity:0.972" fill="#364150" d="M 725.5,121.5 C 781.909,121.746 808.075,150.079 804,206.5C 796.797,245.124 773.464,264.791 734,265.5C 688.702,263.202 665.202,239.369 663.5,194C 664.445,152.579 685.111,128.413 725.5,121.5 Z M 729.5,150.5 C 747.214,149.732 758.714,157.732 764,174.5C 767.333,187.5 767.333,200.5 764,213.5C 756.182,233.325 742.016,240.158 721.5,234C 712.212,229.289 706.379,221.789 704,211.5C 700.2,195.704 701.533,180.37 708,165.5C 713.142,157.365 720.309,152.365 729.5,150.5 Z"/></g>
<g><path style="opacity:0.981" fill="#364150" d="M 893.5,121.5 C 906.435,120.597 918.435,123.43 929.5,130C 933.675,133.528 937.008,137.695 939.5,142.5C 957.446,121.735 979.446,116.235 1005.5,126C 1021.04,133.558 1029.21,146.058 1030,163.5C 1030.5,196.165 1030.67,228.832 1030.5,261.5C 1017.83,261.5 1005.17,261.5 992.5,261.5C 992.91,230.477 992.41,199.477 991,168.5C 988.476,157.395 981.476,152.062 970,152.5C 957.477,152.265 949.811,158.265 947,170.5C 945.547,200.797 945.047,231.13 945.5,261.5C 932.833,261.5 920.167,261.5 907.5,261.5C 907.938,229.804 907.438,198.138 906,166.5C 901.432,154.066 892.599,149.566 879.5,153C 869.933,155.632 864.1,161.799 862,171.5C 860.54,201.458 860.04,231.458 860.5,261.5C 847.833,261.5 835.167,261.5 822.5,261.5C 822.5,216.167 822.5,170.833 822.5,125.5C 834.5,125.5 846.5,125.5 858.5,125.5C 858.334,131.176 858.501,136.843 859,142.5C 867.645,130.665 879.145,123.665 893.5,121.5 Z"/></g>
<g><path style="opacity:0.977" fill="#364150" d="M 1122.5,121.5 C 1159.26,120.747 1181.42,138.414 1189,174.5C 1194.13,199.707 1189.8,223.04 1176,244.5C 1159.34,263.127 1138.84,269.294 1114.5,263C 1104.7,260.187 1096.87,254.687 1091,246.5C 1090.5,267.497 1090.33,288.497 1090.5,309.5C 1077.83,309.5 1065.17,309.5 1052.5,309.5C 1052.5,248.167 1052.5,186.833 1052.5,125.5C 1064.5,125.5 1076.5,125.5 1088.5,125.5C 1088.33,130.844 1088.5,136.177 1089,141.5C 1097.02,129.574 1108.19,122.907 1122.5,121.5 Z M 1116.5,150.5 C 1135.25,150.742 1146.75,160.076 1151,178.5C 1154.44,194.628 1152.44,209.962 1145,224.5C 1135.07,236.026 1122.9,239.192 1108.5,234C 1100.46,229.631 1094.96,223.131 1092,214.5C 1087.23,197.826 1088.23,181.493 1095,165.5C 1100.14,157.365 1107.31,152.365 1116.5,150.5 Z"/></g>
<g><path style="opacity:0.97" fill="#364150" d="M 1493.5,121.5 C 1508.05,121.022 1522.38,122.522 1536.5,126C 1550.59,130.084 1559.09,139.251 1562,153.5C 1562.33,183.5 1562.67,213.5 1563,243.5C 1563.18,249.705 1564.68,255.539 1567.5,261C 1554.5,261.667 1541.5,261.667 1528.5,261C 1527.34,257.572 1526.34,254.072 1525.5,250.5C 1512.55,260.763 1497.71,265.763 1481,265.5C 1466.33,265.948 1453.67,261.281 1443,251.5C 1436.66,243.641 1433.83,234.641 1434.5,224.5C 1433.97,205.544 1442.64,193.044 1460.5,187C 1475.96,183.146 1491.63,180.479 1507.5,179C 1522.79,177.407 1527.63,169.573 1522,155.5C 1516.36,149.504 1509.36,146.837 1501,147.5C 1486.44,147.234 1478.27,154.234 1476.5,168.5C 1463.83,168.5 1451.17,168.5 1438.5,168.5C 1439.4,148.096 1449.4,134.262 1468.5,127C 1476.81,124.44 1485.15,122.607 1493.5,121.5 Z M 1523.5,196.5 C 1525.43,207.065 1524.26,217.399 1520,227.5C 1513.91,236.374 1505.41,240.374 1494.5,239.5C 1478.56,240.401 1471.4,233.067 1473,217.5C 1475.67,210.903 1480.5,206.737 1487.5,205C 1496.78,203.055 1506.11,201.388 1515.5,200C 1518.48,199.295 1521.14,198.129 1523.5,196.5 Z"/></g>
<g><path style="opacity:0.966" fill="#364150" d="M 1768.5,121.5 C 1811.1,120.596 1835.6,141.263 1842,183.5C 1842.5,190.158 1842.67,196.825 1842.5,203.5C 1809.83,203.167 1777.16,203.5 1744.5,204.5C 1746.42,227.921 1759.09,238.421 1782.5,236C 1793.62,234.521 1801.62,228.855 1806.5,219C 1817.85,218.168 1829.18,218.334 1840.5,219.5C 1830.59,250.474 1809.26,265.808 1776.5,265.5C 1735.83,264.329 1712.67,243.663 1707,203.5C 1703.88,175.851 1712.71,153.018 1733.5,135C 1744.17,127.656 1755.84,123.156 1768.5,121.5 Z M 1770.5,150.5 C 1790.09,149.754 1801.09,159.088 1803.5,178.5C 1783.83,178.667 1764.16,178.5 1744.5,178C 1746.9,162.773 1755.56,153.607 1770.5,150.5 Z"/></g>
<g><path style="opacity:0.963" fill="#364150" d="M 1930.5,121.5 C 1935.53,121.503 1940.53,121.836 1945.5,122.5C 1945.5,134.5 1945.5,146.5 1945.5,158.5C 1935.37,156.748 1925.37,157.248 1915.5,160C 1903.94,165.921 1897.44,175.421 1896,188.5C 1895.5,212.831 1895.33,237.164 1895.5,261.5C 1882.5,261.5 1869.5,261.5 1856.5,261.5C 1856.5,216.167 1856.5,170.833 1856.5,125.5C 1868.83,125.5 1881.17,125.5 1893.5,125.5C 1893.33,132.841 1893.5,140.174 1894,147.5C 1902.19,133.129 1914.36,124.463 1930.5,121.5 Z"/></g>
<g><path style="opacity:0.973" fill="#364150" d="M 1568.5,125.5 C 1582.17,125.5 1595.83,125.5 1609.5,125.5C 1618.82,155.97 1628.66,186.303 1639,216.5C 1649.13,186.599 1658.97,156.599 1668.5,126.5C 1681.82,125.334 1695.15,125.167 1708.5,126C 1689.28,176.329 1670.45,226.829 1652,277.5C 1644,300.3 1627.84,310.967 1603.5,309.5C 1596.5,309 1589.5,308.5 1582.5,308C 1581.51,297.582 1581.18,287.082 1581.5,276.5C 1587,276.722 1592.5,277.056 1598,277.5C 1609.45,278.217 1615.95,272.884 1617.5,261.5C 1616.8,257.042 1615.64,252.709 1614,248.5C 1598.33,207.657 1583.16,166.657 1568.5,125.5 Z"/></g>
<g><path style="opacity:1" fill="#ffec9e" d="M 311.5,163.5 C 313.833,163.5 316.167,163.5 318.5,163.5C 319.14,178.244 318.473,192.744 316.5,207C 231.833,215.233 147.167,223.4 62.5,231.5C 62.5,217.167 62.5,202.833 62.5,188.5C 145.714,180.879 228.714,172.545 311.5,163.5 Z"/></g>
</svg>
