<?xml version="1.0" encoding="utf-8"?><svg width="210" height="80" viewBox="0 0 210 80" fill="none" xmlns="http://www.w3.org/2000/svg">
<path d="M56.0057 23V26.0883H34.4593V50.4355H31V23H56.0057Z" fill="black"/>
<path d="M56.0057 28.8571V31.9454H40.9925V50.4351H37.5303V28.8571H56.0057Z" fill="black"/>
<path d="M56.0056 34.6945V37.8H47.5228V50.4351H44.0607V34.6945H56.0056ZM65.8544 34.3925C69.9721 34.3925 73.4314 37.1243 73.4314 42.2025C73.4314 42.5389 73.4314 42.8236 73.3969 43.3383H61.0263C61.1874 45.9119 63.2635 47.6142 65.8716 47.6142C68.0714 47.6142 69.5465 46.6021 70.3603 45.2189L73.0058 47.0995C71.5853 49.3367 69.1382 50.7543 65.8371 50.7543C61.0637 50.7543 57.6217 47.3641 57.6217 42.5734C57.6389 37.9409 61.081 34.3925 65.8572 34.3925M61.2075 40.7992H69.9577C69.5839 38.5275 67.758 37.3026 65.7336 37.3026C63.7092 37.3026 61.6704 38.4729 61.2075 40.7992ZM76.9453 34.6945H80.4046V36.8051C81.2931 35.5456 83.2082 34.3925 85.4626 34.3925C89.776 34.3925 93.0397 38.0675 93.0397 42.5734C93.0397 47.0794 89.7731 50.7543 85.4626 50.7543C83.191 50.7543 81.273 49.584 80.4046 48.3216V57H76.9453V34.6945ZM84.8415 37.5326C82.0379 37.5326 80.1199 39.7324 80.1199 42.5734C80.1199 45.4145 82.0379 47.6142 84.8415 47.6142C87.6452 47.6142 89.5258 45.4145 89.5258 42.5734C89.5258 39.7324 87.6078 37.5326 84.8415 37.5326ZM96.5737 26.8327H100.033V50.4179H96.5737V26.8327ZM106.425 31.2697C105.166 31.2697 104.102 30.2402 104.102 28.9463C104.102 27.6523 105.166 26.6573 106.425 26.6573C107.685 26.6573 108.714 27.704 108.714 28.9463C108.714 30.1885 107.719 31.2697 106.425 31.2697ZM104.703 34.6945H108.162V50.4179H104.703V34.6945ZM119.983 50.7371C115.262 50.7371 111.679 47.2059 111.679 42.5562C111.679 37.9064 115.265 34.3753 119.983 34.3753C123.23 34.3753 125.965 36.115 127.313 38.7231L124.297 40.3564C123.535 38.7605 122.008 37.5872 119.983 37.5872C117.18 37.5872 115.21 39.7525 115.21 42.5562C115.21 45.3598 117.197 47.5251 119.983 47.5251C121.988 47.5251 123.532 46.3548 124.297 44.756L127.313 46.3893C125.965 49.0146 123.213 50.7371 119.983 50.7371ZM136.932 34.3925C139.204 34.3925 141.084 35.5629 141.973 36.8051V34.6945H145.432V50.4179H141.973V48.3072C141.084 49.5667 139.204 50.74 136.932 50.74C132.619 50.74 129.355 47.065 129.355 42.559C129.355 38.0531 132.621 34.3954 136.932 34.3954M137.57 37.5355C134.767 37.5355 132.886 39.7353 132.886 42.5763C132.886 45.4173 134.767 47.6171 137.57 47.6171C140.374 47.6171 142.255 45.4173 142.255 42.5763C142.255 39.7353 140.357 37.5355 137.57 37.5355ZM151.358 50.4351V37.7828H148.075V34.6945H151.358V30.3294H154.821V34.6945H160.782V37.7828H154.821V47.3296H160.782V50.4351H151.358ZM170.65 34.3925C174.768 34.3925 178.228 37.1243 178.228 42.2025C178.228 42.5389 178.228 42.8236 178.193 43.3383H165.822C165.983 45.9119 168.06 47.6142 170.668 47.6142C172.867 47.6142 174.343 46.6021 175.156 45.2189L177.802 47.0995C176.381 49.3367 173.934 50.7543 170.633 50.7543C165.86 50.7543 162.418 47.3641 162.418 42.5734C162.452 37.9409 165.877 34.3925 170.653 34.3925M166.004 40.7992H174.754C174.38 38.5275 172.554 37.3026 170.53 37.3026C168.505 37.3026 166.484 38.4729 166.004 40.7992Z" fill="black"/>
</svg>
