<?xml version="1.0" standalone="no"?>
<!DOCTYPE svg PUBLIC "-//W3C//DTD SVG 20010904//EN"
 "http://www.w3.org/TR/2001/REC-SVG-20010904/DTD/svg10.dtd">
<svg version="1.0" xmlns="http://www.w3.org/2000/svg"
 width="200.000000pt" height="200.000000pt" viewBox="0 0 200.000000 200.000000"
 preserveAspectRatio="xMidYMid meet">

<g transform="translate(0.000000,200.000000) scale(0.100000,-0.100000)"
fill="#673ab7" stroke="none">
<path d="M745 1489 c-254 -149 -270 -160 -296 -202 -18 -30 -19 -53 -19 -323
0 -217 3 -294 13 -306 19 -25 467 -279 485 -276 15 3 17 31 20 277 2 219 0
278 -11 295 -8 12 -99 68 -202 126 -103 58 -194 115 -202 127 -18 26 -9 59 18
74 16 8 63 0 218 -40 109 -28 211 -51 227 -51 44 0 499 259 499 284 0 16 -34
28 -240 82 -132 35 -251 63 -265 63 -14 -1 -124 -59 -245 -130z"/>
<path d="M1372 1319 l-33 -21 63 -37 c35 -20 63 -43 63 -51 0 -9 -80 -61 -194
-126 -106 -60 -200 -119 -207 -129 -12 -16 -14 -72 -12 -294 3 -248 5 -276 20
-279 18 -3 466 251 486 276 9 12 12 88 12 302 0 214 -3 290 -12 302 -16 19
-121 78 -139 78 -8 0 -29 -10 -47 -21z"/>
</g>
</svg>