<svg width="120" height="52" viewBox="0 0 120 52" fill="none" xmlns="http://www.w3.org/2000/svg">
<g clip-path="url(#clip0_445_2318)">
<path fill-rule="evenodd" clip-rule="evenodd" d="M56.5147 38.3016C55.6345 37.8704 54.9902 37.2325 54.5801 36.386L56.06 35.366C56.3173 36.0312 56.7651 36.5299 57.4024 36.8624C58.0397 37.1946 58.7908 37.3611 59.6561 37.3611C60.5507 37.3611 61.2336 37.202 61.7046 36.8847C62.1746 36.5678 62.4097 36.1676 62.4097 35.6833C62.4097 35.2462 62.19 34.8946 61.7501 34.63C61.3093 34.365 60.5354 34.1346 59.4281 33.9384C58.3356 33.7428 57.4711 33.5041 56.8338 33.2238C56.1961 32.9448 55.733 32.5895 55.445 32.1589C55.1565 31.7287 55.013 31.1958 55.013 30.5616C55.013 29.9417 55.1946 29.375 55.5588 28.8611C55.9234 28.3476 56.4469 27.9359 57.1292 27.626C57.8121 27.3161 58.6008 27.1606 59.4963 27.1606C60.7101 27.1606 61.6851 27.3836 62.4213 27.8291C63.1571 28.2755 63.6847 28.9596 64.0029 29.8811L62.4552 30.7873C62.2127 30.0624 61.8444 29.5416 61.3515 29.2233C60.8582 28.906 60.24 28.7482 59.4963 28.7482C58.7527 28.7482 58.1233 28.9143 57.6077 29.246C57.0912 29.5795 56.8338 29.9644 56.8338 30.4024C56.8338 30.9011 57.0573 31.286 57.505 31.558C57.9523 31.83 58.7527 32.065 59.9065 32.2606C61.4839 32.5183 62.5997 32.9032 63.2523 33.4171C63.904 33.9306 64.2305 34.6559 64.2305 35.5931C64.2305 36.2426 64.0373 36.8208 63.6504 37.3269C63.2634 37.8334 62.7093 38.2303 61.9888 38.5167C61.2679 38.8039 60.43 38.9473 59.4736 38.9473C58.3815 38.9473 57.3949 38.7327 56.5147 38.3016" fill="black"/>
<path fill-rule="evenodd" clip-rule="evenodd" d="M72.2995 36.6794C72.9893 36.2266 73.3349 35.6368 73.3349 34.9114V33.3474L70.7857 33.8234C69.7694 34.0052 69.0104 34.2652 68.5097 34.6061C68.0094 34.9457 67.759 35.38 67.759 35.9088C67.759 36.3778 67.9406 36.7363 68.3048 36.9857C68.6694 37.235 69.1771 37.3599 69.8302 37.3599C70.7857 37.3599 71.6088 37.1328 72.2995 36.6794M76.9312 37.2924L76.8174 38.7199C76.3924 38.8707 75.9367 38.9466 75.4513 38.9466C74.86 38.9466 74.3932 38.8185 74.0513 38.5617C73.7104 38.3045 73.4939 37.8743 73.4029 37.2697C73.0535 37.7985 72.5412 38.2106 71.8663 38.5048C71.1914 38.7995 70.4821 38.9466 69.7384 38.9466C68.6153 38.9466 67.69 38.6866 66.9616 38.1653C66.2333 37.6439 65.8691 36.8922 65.8691 35.9093C65.8691 35.0484 66.2486 34.3036 67.0072 33.6768C67.7657 33.0496 68.8656 32.6152 70.3074 32.3737L73.3346 31.875V31.2399C73.3346 30.4845 73.0995 29.8804 72.629 29.4266C72.1585 28.9732 71.5058 28.7475 70.6716 28.7475C69.9126 28.7475 69.2567 28.9279 68.7031 29.291C68.1484 29.6537 67.7206 30.1903 67.4169 30.9004L66.0744 29.9252C66.3773 29.0796 66.9426 28.4066 67.7699 27.9079C68.5967 27.4092 69.5638 27.1599 70.6716 27.1599C72.0219 27.1599 73.107 27.4851 73.9263 28.1346C74.7462 28.7845 75.1554 29.7439 75.1554 31.0132V36.5897C75.1554 36.8617 75.2237 37.0657 75.3603 37.2013C75.4968 37.3377 75.7165 37.4053 76.0208 37.4053C76.3236 37.4053 76.6269 37.3682 76.9312 37.2924" fill="black"/>
<path fill-rule="evenodd" clip-rule="evenodd" d="M80.3892 35.6832C80.3892 36.2577 80.4761 36.6546 80.6507 36.8739C80.8249 37.0927 81.1477 37.2019 81.6183 37.2019C81.9369 37.2019 82.2137 37.1792 82.4493 37.1343C82.6838 37.089 82.9611 37.0057 83.2798 36.885L82.9839 38.6303C82.4832 38.8417 81.9216 38.9477 81.2996 38.9477C80.3739 38.9477 79.6869 38.6983 79.2396 38.1992C78.7922 37.7005 78.5684 36.9382 78.5684 35.9099V22.1743H80.3892V35.6832Z" fill="black"/>
<path fill-rule="evenodd" clip-rule="evenodd" d="M90.3246 36.6794C91.0144 36.2266 91.36 35.6368 91.36 34.9114V33.3474L88.8108 33.8234C87.7945 34.0052 87.0355 34.2652 86.5348 34.6061C86.0345 34.9457 85.7841 35.38 85.7841 35.9088C85.7841 36.3778 85.9658 36.7363 86.3299 36.9857C86.6946 37.235 87.2023 37.3599 87.8553 37.3599C88.8108 37.3599 89.6339 37.1328 90.3246 36.6794M94.9566 37.2924L94.8428 38.7199C94.4178 38.8707 93.9621 38.9466 93.4767 38.9466C92.8854 38.9466 92.4186 38.8185 92.0767 38.5617C91.7357 38.3045 91.5193 37.8743 91.4282 37.2697C91.0789 37.7985 90.5666 38.2106 89.8917 38.5048C89.2168 38.7995 88.5075 38.9466 87.7638 38.9466C86.6407 38.9466 85.7154 38.6866 84.987 38.1653C84.2587 37.6439 83.8945 36.8922 83.8945 35.9093C83.8945 35.0484 84.274 34.3036 85.0326 33.6768C85.7911 33.0496 86.891 32.6152 88.3328 32.3737L91.36 31.875V31.2399C91.36 30.4845 91.1249 29.8804 90.6544 29.4266C90.1839 28.9732 89.5312 28.7475 88.697 28.7475C87.938 28.7475 87.2821 28.9279 86.7284 29.291C86.1738 29.6537 85.746 30.1903 85.4422 30.9004L84.0998 29.9252C84.4027 29.0796 84.968 28.4066 85.7953 27.9079C86.6221 27.4092 87.5892 27.1599 88.697 27.1599C90.0473 27.1599 91.1324 27.4851 91.9517 28.1346C92.7716 28.7845 93.1808 29.7439 93.1808 31.0132V36.5897C93.1808 36.8617 93.2491 37.0657 93.3856 37.2013C93.5222 37.3377 93.7419 37.4053 94.0462 37.4053C94.349 37.4053 94.6523 37.3682 94.9566 37.2924" fill="black"/>
<path fill-rule="evenodd" clip-rule="evenodd" d="M104.004 36.2282C104.649 35.4719 104.971 34.4602 104.971 33.1909V32.9189C104.971 31.6495 104.649 30.6365 104.004 29.8811C103.359 29.1257 102.49 28.7482 101.398 28.7482C100.29 28.7482 99.4176 29.1368 98.7808 29.9158C98.1435 30.6934 97.8244 31.7397 97.8244 33.0544C97.8244 34.3686 98.1435 35.4159 98.7808 36.194C99.4176 36.9725 100.29 37.3611 101.398 37.3611C102.49 37.3611 103.359 36.9836 104.004 36.2282V36.2282ZM106.793 22.1733V38.72H105.199L105.085 36.7485C104.751 37.4132 104.239 37.9457 103.549 38.3458C102.859 38.7459 102.074 38.9467 101.193 38.9467C99.6005 38.9467 98.3371 38.4217 97.4039 37.372C96.4707 36.3211 96.0039 34.8819 96.0039 33.0533C96.0039 31.2252 96.4707 29.7861 97.4039 28.7356C98.3371 27.6855 99.6005 27.1595 101.193 27.1595C102.028 27.1595 102.775 27.3413 103.435 27.7035C104.095 28.0667 104.608 28.5501 104.972 29.1547V22.1733H106.793Z" fill="black"/>
<path fill-rule="evenodd" clip-rule="evenodd" d="M32.8633 19.4289L44.0023 12.9527L32.8633 6.47607V19.4289Z" fill="#DBF1C1"/>
<path fill-rule="evenodd" clip-rule="evenodd" d="M10.5859 32.3809L21.725 38.8575L10.5859 45.3333V32.3809Z" fill="#53A626"/>
<path fill-rule="evenodd" clip-rule="evenodd" d="M21.725 25.9045L10.5859 32.3807L21.725 38.8569V25.9045Z" fill="#1F4F22"/>
<path fill-rule="evenodd" clip-rule="evenodd" d="M10.5859 45.3329L21.725 51.8086V38.8567L10.5859 45.3329Z" fill="#1F4F22"/>
<path fill-rule="evenodd" clip-rule="evenodd" d="M-0.552734 38.8571V38.8575L10.5858 45.3333V32.3809L-0.552734 38.8571Z" fill="#1F4F22"/>
<path fill-rule="evenodd" clip-rule="evenodd" d="M32.8633 32.3805L44.0023 38.8567V25.9043L32.8633 32.3805Z" fill="#B2D530"/>
<path fill-rule="evenodd" clip-rule="evenodd" d="M21.7246 12.9521L32.8637 19.4283L21.7246 25.9045V12.9521Z" fill="#B2D530"/>
<path fill-rule="evenodd" clip-rule="evenodd" d="M-0.552734 25.904V25.9044L10.5858 32.3806V19.4282L-0.552734 25.904Z" fill="#B2D530"/>
<path fill-rule="evenodd" clip-rule="evenodd" d="M21.7246 51.8093L32.8632 45.3336L21.7246 38.8569V51.8093Z" fill="#53A626"/>
<path fill-rule="evenodd" clip-rule="evenodd" d="M32.8633 45.333L44.0023 38.8568L32.8633 32.3806V45.333Z" fill="#1F4F22"/>
<path fill-rule="evenodd" clip-rule="evenodd" d="M21.725 -0.000488281L10.5859 6.47525L21.725 12.9519V-0.000488281Z" fill="#DBF1C1"/>
<path fill-rule="evenodd" clip-rule="evenodd" d="M32.8637 19.4285L21.7246 25.9047L32.8637 32.3809V19.4285Z" fill="#DBF1C1"/>
<path fill-rule="evenodd" clip-rule="evenodd" d="M32.8637 32.3809L21.7246 38.8575L32.8637 45.3333V32.3809Z" fill="#B2D530"/>
</g>
<defs>
<clipPath id="clip0_445_2318">
<rect width="120" height="51.8096" fill="white"/>
</clipPath>
</defs>
</svg>
