<?xml version="1.0" encoding="UTF-8"?> <svg xmlns="http://www.w3.org/2000/svg" width="227" height="39" viewBox="0 0 227 39" fill="none"><g clip-path="url(#clip0_1342_325)"><g clip-path="url(#clip1_1342_325)"><path d="M44.1309 35.9382C44.1309 36.6698 44.4431 37.2942 45.5941 37.2942C46.5354 37.2942 47.0573 36.8748 47.0573 36.1479C47.0573 34.4797 43.1943 35.3138 43.1943 33.0166C43.1943 31.8703 44.2381 31.1387 45.5941 31.1387C47.1598 31.1387 48.0964 31.8703 48.0964 33.1191H46.9501C46.9501 32.4947 46.5307 31.9728 45.6966 31.9728C44.965 31.9728 44.4431 32.3921 44.4431 33.0166C44.4431 34.5822 48.3061 33.641 48.3061 36.1479C48.3061 37.4014 47.1598 38.1283 45.8038 38.1283C43.9259 38.1283 43.0918 37.2942 43.0918 35.9382H44.1356H44.1309Z" fill="#253746"></path><path d="M63.6465 31.3442H64.9L62.6027 35.3097V38.0217H61.4564V35.3097L59.1592 31.3442H60.4127L62.0809 34.2659L63.6465 31.3442Z" fill="#253746"></path><path d="M77.108 35.9382C77.108 36.6698 77.4202 37.2942 78.5711 37.2942C79.5124 37.2942 80.0343 36.8748 80.0343 36.1479C80.0343 34.4797 76.1714 35.3138 76.1714 33.0166C76.1714 31.8703 77.2152 31.1387 78.5711 31.1387C80.1368 31.1387 81.0734 31.8703 81.0734 33.1191H79.9271C79.9271 32.4947 79.5077 31.9728 78.6737 31.9728C77.9421 31.9728 77.4202 32.3921 77.4202 33.0166C77.4202 34.5822 81.2831 33.641 81.2831 36.1479C81.2831 37.4014 80.1368 38.1283 78.7808 38.1283C76.9029 38.1283 76.0688 37.2942 76.0688 35.9382H77.1126H77.108Z" fill="#253746"></path><path d="M97.3504 31.3442V32.1783H95.575V38.0217H94.4287V32.1783H92.6533V31.3442H97.3504Z" fill="#253746"></path><path d="M109.246 38.0217V31.3442H113.421V32.1783H110.397V34.0562H113.421V34.9975H110.397V37.1876H113.421V38.0217H109.246Z" fill="#253746"></path><path d="M124.483 38.0217V31.3442H126.152L127.927 36.251L129.595 31.3442H131.263V38.0217H130.117V32.9099L128.449 38.0217H127.508L125.63 32.9099V38.0217H124.483Z" fill="#253746"></path><path d="M142.848 35.9382C142.848 36.6698 143.16 37.2942 144.311 37.2942C145.252 37.2942 145.774 36.8748 145.774 36.1479C145.774 34.4797 141.911 35.3138 141.911 33.0166C141.911 31.8703 142.955 31.1387 144.311 31.1387C145.877 31.1387 146.813 31.8703 146.813 33.1191H145.667C145.667 32.4947 145.247 31.9728 144.413 31.9728C143.682 31.9728 143.16 32.3921 143.16 33.0166C143.16 34.5822 147.023 33.641 147.023 36.1479C147.023 37.4014 145.877 38.1283 144.521 38.1283C142.643 38.1283 141.809 37.2942 141.809 35.9382H142.852H142.848Z" fill="#253746"></path><path d="M164.45 26.5437L153.495 9.22335H153.393V26.4412H150.159V4.21411H153.705L164.557 21.2222H164.66V4.21411H167.894V26.5437H164.45Z" fill="#253746"></path><path d="M178.747 26.9634C173.114 26.9634 169.772 22.2663 169.772 18.0958C169.772 13.506 173.635 9.43335 178.747 9.43335C183.859 9.43335 187.722 13.3988 187.722 18.1984C187.824 22.1638 184.488 26.9634 178.747 26.9634ZM178.747 12.2478C175.201 12.2478 172.904 15.1695 172.904 18.1937C172.904 21.2179 175.304 24.1396 178.747 24.1396C182.191 24.1396 184.591 21.3204 184.591 18.1937C184.693 15.1695 182.293 12.2478 178.747 12.2478Z" fill="#253746"></path><path d="M195.754 26.5438H193.564L186.887 9.8479H190.228L194.613 21.7443H194.715L198.993 9.8479H202.334L195.759 26.5438H195.754Z" fill="#253746"></path><path d="M215.996 26.5438V23.9343H215.894C214.64 26.0219 212.45 26.9585 210.26 26.9585C204.626 26.9585 201.393 22.6808 201.393 18.296C201.393 14.228 204.212 9.42847 210.26 9.42847C212.557 9.42847 214.747 10.3697 215.894 12.2476H215.996V9.84785H219.128V26.5438H215.996ZM210.363 12.2476C206.5 12.2476 204.622 15.5887 204.622 18.1935C204.622 21.2177 207.022 24.0368 210.363 24.0368C213.704 24.0368 216.206 21.3248 216.206 18.1935C216.103 14.6474 213.494 12.2476 210.363 12.2476Z" fill="#253746"></path><path d="M46.2183 19.8664C46.2183 20.598 46.5305 23.8319 49.7644 23.8319C51.7448 23.8319 53.3104 22.4759 53.3104 20.0761C53.3104 17.6763 51.3301 17.0519 49.7644 16.4229C46.8427 15.2766 46.1111 14.9597 45.0673 13.9206C44.0235 12.9793 43.6042 11.3111 43.6042 9.74541C43.6042 7.13595 45.5846 3.69238 49.7597 3.69238C53.413 3.69238 56.1249 6.09216 56.1249 9.84793H52.8911C52.8911 7.34564 51.1157 6.61405 49.7597 6.61405C47.8818 6.61405 46.838 8.38942 46.838 9.63824C46.838 11.7258 48.8184 12.3502 49.7597 12.6624C52.5789 13.7062 56.5443 14.5403 56.5443 19.8618C56.5443 23.7247 53.8323 26.5392 49.7597 26.5392C46.7355 26.5392 42.9751 24.5588 42.9751 19.5496H46.209V19.8618L46.2183 19.8664Z" fill="#253746"></path><path d="M73.0398 26.4413V23.8318H72.9372C71.7909 25.8122 69.5962 26.856 67.3036 26.856C61.6699 26.856 58.5386 22.5783 58.5386 18.1935C58.5386 14.1255 61.3577 9.42847 67.3036 9.42847C69.6008 9.42847 71.6884 10.3697 72.9372 12.2476H73.0398V9.84785H76.1711V26.4413H73.0398ZM67.2989 12.2476C63.436 12.2476 61.6653 15.5887 61.6653 18.1935C61.6653 21.2177 64.0651 24.0368 67.2989 24.0368C70.5328 24.0368 73.0398 21.3248 73.0398 18.1935C73.0398 14.6474 70.5375 12.2476 67.2989 12.2476Z" fill="#253746"></path><path d="M102.047 26.4415V17.2571C102.047 15.9011 101.837 12.2478 98.0815 12.2478C94.3257 12.2478 94.2185 15.7939 94.2185 17.2571V26.544H91.0872V17.2571C91.0872 15.9011 91.0872 14.9598 90.3556 13.8135C89.624 12.6672 88.3752 12.2478 87.2242 12.2478C83.1563 12.2478 83.1563 16.0036 83.1563 17.1546V26.4415H80.0249V9.84807H82.9466V11.6234H83.0491C83.6735 10.8919 84.7173 9.32617 87.8486 9.32617C89.829 9.32617 92.1263 10.2674 92.9604 12.1453C93.4823 11.3112 94.7358 9.32617 98.3844 9.32617C101.204 9.32617 103.184 10.4725 104.228 12.3504C104.852 13.3941 105.169 14.7501 105.169 16.4183V26.4368H102.038L102.047 26.4415Z" fill="#253746"></path><path d="M109.144 26.4414V4.31689H112.275V12.1453H112.378C113.734 10.2674 115.821 9.43331 118.012 9.43331C122.396 9.43331 126.567 13.0866 126.567 18.1983C126.567 22.9979 122.914 26.8608 118.012 26.8608C116.446 26.8608 113.944 26.3389 112.271 24.0417H112.168V26.4414H109.144ZM117.807 24.0417C120.831 24.0417 123.44 21.4322 123.44 18.1983C123.44 14.9644 121.04 12.355 117.807 12.355C114.363 12.355 112.173 15.2767 112.173 18.1983C112.173 21.8516 115.095 24.0417 117.807 24.0417Z" fill="#253746"></path><path d="M143.789 26.4413V23.8318H143.687C142.54 25.8122 140.346 26.856 138.053 26.856C132.419 26.856 129.288 22.5783 129.288 18.1935C129.288 14.1255 132.107 9.42847 138.053 9.42847C140.35 9.42847 142.438 10.3697 143.687 12.2476H143.789V9.84785H146.921V26.4413H143.789ZM138.048 12.2476C134.186 12.2476 132.415 15.5887 132.415 18.1935C132.415 21.2177 134.815 24.0368 138.048 24.0368C141.282 24.0368 143.789 21.3248 143.789 18.1935C143.789 14.6474 141.287 12.2476 138.048 12.2476Z" fill="#253746"></path><path d="M223.722 9.63867C225.185 9.63867 226.331 10.785 226.331 12.141C226.331 13.497 225.185 14.7504 223.722 14.7504C222.259 14.7504 221.112 13.6041 221.112 12.141C221.112 10.6778 222.259 9.63867 223.722 9.63867ZM223.722 10.1606C222.575 10.1606 221.741 11.1018 221.741 12.141C221.741 13.2873 222.575 14.1214 223.722 14.1214C224.868 14.1214 225.702 13.1801 225.702 12.141C225.702 11.1018 224.868 10.1606 223.722 10.1606ZM223.302 13.5016H222.678V10.9993C222.888 10.9993 223.2 10.8968 223.619 10.8968C224.141 10.8968 224.351 10.9993 224.453 11.1065C224.556 11.209 224.766 11.4187 224.766 11.6284C224.766 11.9406 224.556 12.1503 224.244 12.2528C224.453 12.3553 224.663 12.565 224.663 12.8772C224.766 13.2966 224.766 13.3991 224.873 13.5016H224.248C224.146 13.3991 224.146 13.1894 224.039 12.8772C224.039 12.565 223.829 12.4578 223.517 12.4578H223.205V13.5016H223.307H223.302ZM223.302 12.1456H223.615C223.927 12.1456 224.239 12.0431 224.239 11.7262C224.239 11.5166 224.029 11.3069 223.717 11.3069H223.405V12.141H223.302V12.1456Z" fill="#253746"></path><path d="M37.8717 38.1285H35.7841V12.5604C35.7841 7.23896 31.3993 2.6491 25.9753 2.6491H12.3036C6.87961 2.6491 2.49478 7.02927 2.49478 12.3554C2.49478 17.6815 6.87961 22.0617 12.3036 22.0617H13.6596C15.9568 22.0617 17.8347 23.9395 17.8347 26.2368C17.8347 28.5341 15.9568 30.412 13.6596 30.412H0.304688V28.3244H13.557C14.7034 28.3244 15.6446 27.3831 15.6446 26.344C15.6446 25.1977 14.7034 24.3636 13.557 24.3636H12.2011C5.72865 24.2471 0.304688 18.9256 0.304688 12.3554C0.304688 5.78512 5.72865 0.561523 12.3036 0.561523H26.0778C32.5456 0.561523 37.8717 6.09266 37.8717 12.5604V38.1285Z" fill="#EE7624"></path><path d="M13.7667 20.4912C16.6884 20.5937 19.5076 23.2032 19.5076 26.3345C19.5076 29.4659 16.8981 32.1779 13.6642 32.1779H0.304688V34.2655H13.5571C17.9419 34.2655 21.5905 30.7194 21.5905 26.3345C21.5905 25.1882 21.3808 24.1444 20.8589 23.1007C20.4395 22.1594 19.7126 21.2228 18.981 20.4912C18.1469 19.7596 17.2056 19.2377 16.1619 18.823C14.9084 18.4036 13.6596 18.5108 12.2989 18.4036C11.5673 18.4036 9.89914 17.9842 8.95786 17.3598C8.01659 16.7354 7.28967 15.8967 6.87029 14.9601C6.55809 14.126 6.3484 13.2919 6.3484 12.3506C6.3484 9.11672 8.95786 6.50725 12.1917 6.50725H25.966C29.1999 6.50725 31.8093 9.32641 31.8093 12.4531V38.1237H33.8969V12.5603C33.8969 8.17545 30.3508 4.41968 25.966 4.41968H12.3036C7.91874 4.41968 4.27014 7.96576 4.27014 12.3506C4.27014 13.4969 4.47983 14.5407 5.00173 15.5845C5.42111 16.5257 6.04551 17.4624 6.87961 18.1939C7.61119 18.9255 8.65498 19.4474 9.59159 19.8621C10.1135 20.0718 10.6354 20.1743 11.2598 20.2815C12.723 20.384 13.6596 20.4912 13.7621 20.4912H13.7667Z" fill="#EE7624"></path><path d="M13.557 38.1285H0.304688V36.0409H13.557C18.981 36.0409 23.3658 31.6561 23.3658 26.3347C23.3658 21.0132 18.981 16.6284 13.557 16.6284H12.2011C9.9038 16.6284 8.02591 14.7505 8.02591 12.4532C8.02591 10.156 9.9038 8.27808 12.2011 8.27808H25.9753C28.2726 8.27808 30.1505 10.2585 30.1505 12.5557V38.1238H28.0629V12.5604C28.0629 11.4141 27.1216 10.3703 26.0825 10.3703H12.3036C11.1573 10.3703 10.3232 11.3116 10.3232 12.3507C10.3232 13.3898 11.2644 14.3311 12.4107 14.3311H13.7667C20.3417 14.3311 25.6631 19.6526 25.6631 26.125C25.5606 32.8024 20.132 38.1238 13.557 38.1238V38.1285Z" fill="#EE7624"></path></g></g><defs><clipPath id="clip0_1342_325"><rect width="226.02" height="37.5254" fill="white" transform="translate(0 0.660156)"></rect></clipPath><clipPath id="clip1_1342_325"><rect width="226.022" height="37.567" fill="white" transform="translate(0.306152 0.562988)"></rect></clipPath></defs></svg> 