<?xml version="1.0" encoding="utf-8"?>
<!-- Generator: Adobe Illustrator 27.9.0, SVG Export Plug-In . SVG Version: 6.00 Build 0)  -->
<svg version="1.1" id="Layer_1" xmlns="http://www.w3.org/2000/svg" xmlns:xlink="http://www.w3.org/1999/xlink" x="0px" y="0px"
	 viewBox="0 0 1282.5 966.2" style="enable-background:new 0 0 1282.5 966.2;" xml:space="preserve">
<style type="text/css">
	.st0{enable-background:new    ;}
	.st1{fill:#4C4C4D;}
	.st2{fill:none;}
	.st3{fill:#372F8A;}
	.st4{fill:#195D7F;}
	.st5{fill:#39A4DD;}
</style>
<g>
	<g class="st0">
		<path class="st1" d="M204.1,795.2c0-9-3.2-15.9-9.5-20.7c-6.3-4.8-17.8-9.9-34.3-15.2c-16.5-5.3-29.6-10.6-39.2-15.8
			c-26.2-14.2-39.4-33.3-39.4-57.3c0-12.5,3.5-23.6,10.6-33.4c7-9.8,17.1-17.4,30.3-22.9c13.2-5.5,28-8.3,44.4-8.3
			c16.5,0,31.2,3,44.1,9c12.9,6,22.9,14.4,30.1,25.3c7.1,10.9,10.7,23.3,10.7,37.1h-47.6c0-10.6-3.3-18.8-10-24.7
			c-6.7-5.9-16-8.8-28.1-8.8c-11.6,0-20.7,2.5-27.1,7.4c-6.5,4.9-9.7,11.4-9.7,19.4c0,7.5,3.8,13.8,11.3,18.9
			c7.6,5.1,18.7,9.8,33.4,14.3c27.1,8.1,46.8,18.2,59.2,30.3c12.4,12.1,18.6,27.1,18.6,45.1c0,20-7.6,35.7-22.7,47.1
			C214,853.3,193.7,859,168,859c-17.8,0-34-3.3-48.6-9.8c-14.6-6.5-25.7-15.4-33.4-26.7c-7.7-11.3-11.5-24.4-11.5-39.4h47.8
			c0,25.5,15.2,38.2,45.7,38.2c11.3,0,20.2-2.3,26.5-6.9C200.9,809.9,204.1,803.5,204.1,795.2z"/>
		<path class="st1" d="M333.7,787l-16.5,16.5v52.4h-45.9V612.1h45.9v135l8.9-11.4l44-51.6h55.1l-62,71.6l67.4,100.1h-52.7L333.7,787
			z"/>
		<path class="st1" d="M499.3,790.9L531,684.1h49.2l-69,198.4l-3.8,9c-10.3,22.4-27.2,33.6-50.8,33.6c-6.7,0-13.4-1-20.3-3v-34.8
			l7,0.2c8.7,0,15.2-1.3,19.4-4c4.3-2.6,7.6-7,10.1-13.2l5.4-14.1L418,684.1h49.4L499.3,790.9z"/>
		<path class="st1" d="M639.2,774.4v81.4h-47.6V624.8h90.1c17.3,0,32.6,3.2,45.8,9.5c13.2,6.3,23.3,15.4,30.4,27.1
			c7.1,11.7,10.6,25,10.6,39.9c0,22.6-7.8,40.5-23.2,53.6c-15.5,13.1-37,19.6-64.3,19.6H639.2z M639.2,735.9h42.5
			c12.6,0,22.2-3,28.8-8.9c6.6-5.9,9.9-14.4,9.9-25.4c0-11.3-3.3-20.5-10-27.5c-6.7-7-15.9-10.6-27.6-10.8h-43.6V735.9z"/>
		<path class="st1" d="M788.1,639.7c0-6.9,2.3-12.5,6.9-17c4.6-4.4,10.9-6.7,18.8-6.7c7.8,0,14.1,2.2,18.7,6.7c4.7,4.4,7,10.1,7,17
			c0,7-2.4,12.7-7.1,17.1c-4.7,4.4-10.9,6.7-18.6,6.7c-7.7,0-13.9-2.2-18.6-6.7C790.4,652.4,788.1,646.7,788.1,639.7z M836.8,855.8
			h-46V684.1h46V855.8z"/>
		<path class="st1" d="M913.2,855.8h-46V612.1h46V855.8z"/>
		<path class="st1" d="M934.1,768.4c0-17,3.3-32.2,9.8-45.5c6.6-13.3,16-23.6,28.3-30.9c12.3-7.3,26.6-11,42.9-11
			c23.2,0,42.1,7.1,56.7,21.3c14.7,14.2,22.8,33.4,24.5,57.8l0.3,11.7c0,26.3-7.4,47.5-22.1,63.4c-14.7,15.9-34.4,23.9-59.2,23.9
			s-44.5-7.9-59.3-23.8c-14.8-15.9-22.1-37.5-22.1-64.7V768.4z M980,771.7c0,16.3,3.1,28.8,9.2,37.4c6.1,8.6,14.9,13,26.3,13
			c11.1,0,19.8-4.3,26-12.8c6.2-8.5,9.4-22.2,9.4-40.9c0-16-3.1-28.4-9.4-37.2c-6.2-8.8-15-13.2-26.3-13.2c-11.2,0-19.9,4.4-26,13.1
			C983,739.8,980,753.3,980,771.7z"/>
		<path class="st1" d="M1170.2,641.9v42.2h29.4v33.6h-29.4v85.7c0,6.3,1.2,10.9,3.7,13.6c2.4,2.8,7.1,4.1,14,4.1
			c5.1,0,9.6-0.4,13.5-1.1v34.8c-9,2.8-18.2,4.1-27.8,4.1c-32.2,0-48.6-16.2-49.2-48.7v-92.5h-25.1v-33.6h25.1v-42.2H1170.2z"/>
	</g>
	<g id="abstract_paperplane">
		<line class="st2" x1="390.3" y1="219.2" x2="826.5" y2="95.5"/>
		<line class="st2" x1="481.4" y1="238.3" x2="468.4" y2="197.1"/>
		<line class="st2" x1="531.1" y1="354.6" x2="569" y2="392.6"/>
		<line class="st2" x1="762.7" y1="159.1" x2="749.7" y2="117.9"/>
		<polygon class="st3" points="620.6,386.4 565.5,394.4 702.8,531.7 680.7,446.5 		"/>
		<path class="st3" d="M826.5,95.5L390.3,219.2l137.3,137.3l12.9-59.1l-59.1-59.1l281.3-79.2C762.7,159.1,818.6,103.5,826.5,95.5z"
			/>
		<path class="st3" d="M762.7,159.1l-82,287.4l22.1,85.2L826.5,95.5C818.6,103.5,762.7,159.1,762.7,159.1z"/>
		<polygon class="st4" points="584.9,337.1 584.9,337.1 565.5,394.4 620.6,386.4 670.2,252.1 669.7,252.3 		"/>
		<polygon class="st5" points="540.5,297.4 527.6,356.5 584.9,337.1 669.7,252.3 		"/>
	</g>
</g>
</svg>
