<svg width="1091" height="638" viewBox="0 0 1091 638" fill="none" xmlns="http://www.w3.org/2000/svg">
<path d="M545.731 221.547L493.139 193.747L401.847 145.497C401.763 145.413 401.597 145.413 401.513 145.413C398.18 143.83 394.763 147.163 396.013 150.497L442.53 269.139L442.539 269.164C442.589 269.28 442.63 269.397 442.68 269.514C444.589 273.939 448.755 276.672 453.289 277.747C453.672 277.83 453.946 277.906 454.406 277.998C454.864 278.1 455.505 278.239 456.055 278.28C456.147 278.289 456.23 278.289 456.322 278.297H456.389C456.455 278.305 456.522 278.305 456.589 278.314H456.68C456.739 278.322 456.805 278.322 456.864 278.322H456.972C457.039 278.33 457.105 278.33 457.172 278.33V278.33C516.084 284.753 575.519 284.753 634.431 278.33V278.33C635.139 278.33 635.831 278.297 636.497 278.23C636.714 278.205 636.922 278.18 637.131 278.155C637.156 278.147 637.189 278.147 637.214 278.139C637.356 278.122 637.497 278.097 637.639 278.072C637.847 278.047 638.056 278.005 638.264 277.964C638.681 277.872 638.87 277.805 639.436 277.611C640.001 277.417 640.94 277.077 641.527 276.794C642.115 276.51 642.522 276.239 643.014 275.93C643.622 275.547 644.201 275.155 644.788 274.715C645.041 274.521 645.214 274.397 645.397 274.222L645.297 274.164L545.731 221.547Z" fill="#FF4B4B"/>
<path d="M689.766 145.498H689.683L598.357 193.748L649.124 269.357L695.524 150.498V150.331C696.691 146.831 693.108 143.665 689.766 145.498" fill="#7D353B"/>
<path d="M550.598 122.555C548.264 119.147 543.181 119.147 540.931 122.555L493.139 193.747L545.731 221.547L645.398 274.222C646.024 273.609 646.526 273.012 647.056 272.381C647.806 271.456 648.506 270.464 649.123 269.356L598.356 193.747L550.598 122.555Z" fill="#BD4043"/>
<path d="M213.705 397.293H232.097C231.254 373.614 209.414 355.912 179.067 355.912C149.028 355.912 125.425 373.384 125.425 399.745C125.425 420.896 140.751 433.464 165.273 440.514L184.585 446.031C201.137 450.629 215.851 456.453 215.851 472.086C215.851 489.252 199.298 500.593 177.535 500.593C158.836 500.593 142.284 492.317 140.751 474.538H121.133C122.973 500.287 143.817 517.759 177.535 517.759C213.705 517.759 234.242 497.834 234.242 472.393C234.242 442.966 206.348 433.464 190.102 429.172L174.163 424.881C162.515 421.815 143.817 415.685 143.817 398.826C143.817 383.806 157.61 372.771 178.454 372.771C197.459 372.771 211.866 381.814 213.705 397.293ZM309.911 397.293H284.776V369.093H266.691V397.293H248.912V412.62H266.691V486.186C266.691 506.724 283.243 516.533 298.57 516.533C305.313 516.533 309.605 515.307 312.057 514.387L308.378 498.141C306.846 498.447 304.394 499.061 300.409 499.061C292.439 499.061 284.776 496.608 284.776 481.282V412.62H309.911V397.293ZM332.8 515H350.885V440.514C350.885 424.574 363.452 412.926 380.618 412.926C385.446 412.926 390.427 413.846 391.653 414.152V395.761C389.584 395.607 384.833 395.454 382.151 395.454C368.05 395.454 355.789 403.424 351.498 415.072H350.272V397.293H332.8V515ZM454.543 517.452C478.453 517.452 495.925 505.498 501.442 487.719L483.97 482.815C479.372 495.076 468.72 501.206 454.543 501.206C433.316 501.206 418.68 487.489 417.837 462.277H503.281V454.614C503.281 410.78 477.226 395.761 452.704 395.761C420.825 395.761 399.675 420.896 399.675 457.066C399.675 493.237 420.519 517.452 454.543 517.452ZM417.837 446.644C419.063 428.329 432.014 412.007 452.704 412.007C472.322 412.007 484.89 426.72 484.89 446.644H417.837ZM561.114 517.759C581.651 517.759 592.38 506.724 596.058 499.061H596.978V515H615.063V437.448C615.063 400.052 586.556 395.761 571.536 395.761C553.757 395.761 533.526 401.891 524.331 423.348L541.496 429.479C545.481 420.896 554.907 411.7 572.149 411.7C588.778 411.7 596.978 420.513 596.978 435.609V436.222C596.978 444.958 588.088 444.192 566.632 446.951C544.791 449.786 520.959 454.614 520.959 481.588C520.959 504.578 538.737 517.759 561.114 517.759ZM563.873 501.513C549.466 501.513 539.044 495.076 539.044 482.508C539.044 468.714 551.612 464.423 565.712 462.584C573.375 461.664 593.913 459.518 596.978 455.84V472.393C596.978 487.106 585.33 501.513 563.873 501.513ZM643.756 515H661.841V441.433C661.841 424.191 674.409 412.007 688.509 412.007C702.227 412.007 711.806 420.972 711.806 434.383V515H730.197V438.368C730.197 423.195 739.7 412.007 756.252 412.007C769.126 412.007 780.161 418.827 780.161 436.222V515H798.246V436.222C798.246 408.558 783.38 395.761 762.383 395.761C745.524 395.761 733.186 403.5 727.132 415.685H725.906C720.082 403.117 709.813 395.761 694.333 395.761C679.007 395.761 667.665 403.117 662.761 415.685H661.228V397.293H643.756V515ZM845.082 358.058H826.997V515H845.082V358.058ZM873.891 515H891.976V397.293H873.891V515ZM883.087 377.675C890.137 377.675 895.961 372.158 895.961 365.414C895.961 358.671 890.137 353.153 883.087 353.153C876.036 353.153 870.212 358.671 870.212 365.414C870.212 372.158 876.036 377.675 883.087 377.675ZM971.974 397.293H946.839V369.093H928.754V397.293H910.975V412.62H928.754V486.186C928.754 506.724 945.306 516.533 960.633 516.533C967.376 516.533 971.668 515.307 974.12 514.387L970.442 498.141C968.909 498.447 966.457 499.061 962.472 499.061C954.502 499.061 946.839 496.608 946.839 481.282V412.62H971.974V397.293Z" fill="#262730"/>
</svg>
