<svg xmlns="http://www.w3.org/2000/svg" xmlns:xlink="http://www.w3.org/1999/xlink" version="1.0" x="0" y="0" width="2400" height="622.546140090012" viewBox="44.1575 92.3571841430664 251.685 65.28563552856446" preserveAspectRatio="xMidYMid meet" color-interpolation-filters="sRGB"><g><defs><linearGradient id="92" x1="0%" y1="0%" x2="100%" y2="0%"><stop offset="0%" stop-color="#fa71cd"></stop> <stop offset="100%" stop-color="#9b59b6"></stop></linearGradient><linearGradient id="93" x1="0%" y1="0%" x2="100%" y2="0%"><stop offset="0%" stop-color="#f9d423"></stop> <stop offset="100%" stop-color="#f83600"></stop></linearGradient><linearGradient id="94" x1="0%" y1="0%" x2="100%" y2="0%"><stop offset="0%" stop-color="#0064d2"></stop> <stop offset="100%" stop-color="#1cb0f6"></stop></linearGradient><linearGradient id="95" x1="0%" y1="0%" x2="100%" y2="0%"><stop offset="0%" stop-color="#f00978"></stop> <stop offset="100%" stop-color="#3f51b1"></stop></linearGradient><linearGradient id="96" x1="0%" y1="0%" x2="100%" y2="0%"><stop offset="0%" stop-color="#7873f5"></stop> <stop offset="100%" stop-color="#ec77ab"></stop></linearGradient><linearGradient id="97" x1="0%" y1="0%" x2="100%" y2="0%"><stop offset="0%" stop-color="#f9d423"></stop> <stop offset="100%" stop-color="#e14fad"></stop></linearGradient><linearGradient id="98" x1="0%" y1="0%" x2="100%" y2="0%"><stop offset="0%" stop-color="#009efd"></stop> <stop offset="100%" stop-color="#2af598"></stop></linearGradient><linearGradient id="99" x1="0%" y1="0%" x2="100%" y2="0%"><stop offset="0%" stop-color="#ffcc00"></stop> <stop offset="100%" stop-color="#00b140"></stop></linearGradient><linearGradient id="100" x1="0%" y1="0%" x2="100%" y2="0%"><stop offset="0%" stop-color="#d51007"></stop> <stop offset="100%" stop-color="#ff8177"></stop></linearGradient><linearGradient id="102" x1="0%" y1="0%" x2="100%" y2="0%"><stop offset="0%" stop-color="#a2b6df"></stop> <stop offset="100%" stop-color="#0c3483"></stop></linearGradient><linearGradient id="103" x1="0%" y1="0%" x2="100%" y2="0%"><stop offset="0%" stop-color="#7ac5d8"></stop> <stop offset="100%" stop-color="#eea2a2"></stop></linearGradient><linearGradient id="104" x1="0%" y1="0%" x2="100%" y2="0%"><stop offset="0%" stop-color="#00ecbc"></stop> <stop offset="100%" stop-color="#007adf"></stop></linearGradient><linearGradient id="105" x1="0%" y1="0%" x2="100%" y2="0%"><stop offset="0%" stop-color="#b88746"></stop> <stop offset="100%" stop-color="#fdf5a6"></stop></linearGradient></defs><g fill="#0083ce" class="icon-text-wrapper icon-svg-group iconsvg" transform="translate(46.625,94.82468223945176)"><g style="transform: scale(0.6);
transform-origin: 25% 50%;" class="iconsvg-imagesvg" transform="translate(0,0)"><g><rect fill="#0083ce" fill-opacity="0" stroke-width="2" x="0" y="0" width="60" height="60.350637202144455" class="image-rect"></rect> <svg x="0" y="0" width="60" height="60.350637202144455" filtersec="colorsb4039051635" class="image-svg-svg primary" style="overflow: visible;"><svg xmlns="http://www.w3.org/2000/svg" viewBox="-9.5367431640625e-7 0.049999237060546875 59.86000061035156 60.209999084472656"><g><g><path style="fill:" d="M17.46 25.44a3.51 3.51 0 0 1-2-6.55 31.91 31.91 0 0 1-.46-3.73l-15 15 10 10a30.47 30.47 0 0 1 9.71.27A30.91 30.91 0 0 1 22 32.71a30.77 30.77 0 0 1-4.54-7.27z" fill="#673ab7"></path><path style="fill:" d="M19.49 41.87a28.93 28.93 0 0 0-8.14-.39l8.31 8.31a30.49 30.49 0 0 1-.17-7.92z" fill="#673ab7"></path><path style="fill:#673ab7" d="M20.54 20.9a3.51 3.51 0 0 1-1.6 4.1 28.58 28.58 0 0 0 3.75 6.22A30.2 30.2 0 0 1 34 19.08a3.51 3.51 0 0 1 6.24-2.85 29.69 29.69 0 0 1 4.93-1.18l-15-15-13.72 13.64a27.38 27.38 0 0 0 .46 4.75 3.51 3.51 0 0 1 3.63 2.46zM23.08 34a28.87 28.87 0 0 0-1.9 6.69 31 31 0 0 1 5.92 2.11 3.52 3.52 0 0 1 5.82 3.63A30.41 30.41 0 0 1 38.37 52l8.4-8.38A30.53 30.53 0 0 1 23.08 34z" fill="#00a0e9"></path><path style="fill:" d="M46.13 16.4a29 29 0 0 0-5.67 1.21 3.5 3.5 0 0 1-6.22 2.86 28.79 28.79 0 0 0-10.89 12A28.94 28.94 0 0 0 48 42l11.86-11.88z" fill="#673ab7"></path><path style="fill:" d="M32.1 47.71a3.51 3.51 0 0 1-5.82-3.62 29 29 0 0 0-5.3-1.9 28.38 28.38 0 0 0 .62 9.52l8.53 8.55 7.15-7.15a28.12 28.12 0 0 0-5.18-5.4z" fill="#673ab7"></path></g></g></svg></svg> </g></g> <g transform="translate(67,20.590317726135254)"><g fill-rule="" class="tp-name iconsvg-namesvg"><g transform="scale(1)"><g><path style="fill:#673ab7" d="M6.14 0L6.14-15.59 0.11-15.59 0.11-18.97 16.47-18.97 16.47-15.59 10.18-15.59 10.18 0 6.14 0ZM21.76-8.42L29.78-8.42 29.78-5.46 21.76-5.46Q21.87-4.1 22.64-3.53 23.41-2.96 25.15-2.96L25.15-2.96 29.78-2.96 29.78 0 24.72 0Q23.07 0 22.03-0.3 20.99-0.6 20.08-1.28L20.08-1.28Q17.55-3.24 17.55-7.11L17.55-7.11Q17.55-9.61 18.89-11.49L18.89-11.49Q19.8-12.77 21.08-13.31 22.36-13.85 24.43-13.85L24.43-13.85 29.78-13.85 29.78-10.89 24.72-10.89Q23.15-10.89 22.53-10.37 21.9-9.84 21.76-8.42L21.76-8.42ZM32.88 0L32.88-13.85 40.22-13.85Q41.87-13.85 42.74-13.61 43.61-13.37 44.32-12.74L44.32-12.74Q45.77-11.41 45.77-8.53L45.77-8.53 45.77 0 41.96 0 41.96-8.96Q41.96-9.98 41.5-10.44 41.05-10.89 39.99-10.89L39.99-10.89 36.69-10.89 36.69 0 32.88 0ZM53.22-13.85L61.36-13.85 61.36-10.89 54.61-10.89Q53.45-10.89 53.14-10.78L53.14-10.78Q52.48-10.55 52.48-9.67L52.48-9.67Q52.48-8.93 53.11-8.53L53.11-8.53Q53.45-8.31 54.96-8.31L54.96-8.31 57.2-8.31Q59.36-8.31 60.62-7.4L60.62-7.4Q62.01-6.37 62.01-4.38L62.01-4.38Q62.01-2.87 61.16-1.62L61.16-1.62Q60.53-0.63 59.63-0.31 58.74 0 56.63 0L56.63 0 48.75 0 48.75-2.96 55.55-2.96Q56.8-2.96 57.26-2.99L57.26-2.99Q58.28-3.1 58.28-4.15L58.28-4.15Q58.28-5.01 57.6-5.32L57.6-5.32Q57.26-5.49 55.95-5.49L55.95-5.49 53.65-5.49Q52.28-5.49 51.56-5.66 50.83-5.83 50.21-6.29L50.21-6.29Q49.44-6.83 49-7.78 48.56-8.73 48.56-9.81L48.56-9.81Q48.56-11.89 50.06-13.11L50.06-13.11Q50.97-13.85 53.22-13.85L53.22-13.85ZM71.31-14.05L71.31-14.05Q75.15-14.05 76.97-11.83L76.97-11.83Q78.65-9.81 78.65-6.74L78.65-6.74Q78.65-3.5 76.55-1.56L76.55-1.56Q74.61 0.2 71.25 0.2L71.25 0.2Q67.78 0.2 65.82-1.79L65.82-1.79Q64-3.58 64-7.03L64-7.03Q64-9.93 65.74-11.86L65.74-11.86Q67.67-14.02 71.31-14.05ZM71.34-11.15L71.34-11.15Q67.9-11.15 67.9-6.88L67.9-6.88Q67.9-5.15 68.47-4.24L68.47-4.24Q69.41-2.7 71.37-2.7L71.37-2.7Q74.75-2.7 74.75-6.94L74.75-6.94Q74.75-11.09 71.34-11.15ZM81.47 0L81.47-13.85 87.1-13.85Q88.83-13.85 89.79-13.61 90.74-13.37 91.37-12.8L91.37-12.8Q91.99-12.23 92.25-11.38 92.5-10.52 92.5-8.93L92.5-8.93 92.5-7.59 88.83-7.59 88.83-8.33Q88.83-9.81 88.32-10.35 87.81-10.89 86.36-10.89L86.36-10.89 85.28-10.89 85.28 0 81.47 0ZM94.78 0L94.78-13.85 108.77-13.85Q110.68-13.85 111.68-13.57 112.67-13.28 113.35-12.57L113.35-12.57Q114.6-11.21 114.6-8.82L114.6-8.82 114.6 0 110.79 0 110.79-8.22Q110.79-9.22 110.71-9.61 110.62-10.01 110.31-10.33L110.31-10.33Q109.71-10.89 108.52-10.89L108.52-10.89 106.5-10.89 106.5 0 102.69 0 102.69-10.89 98.59-10.89 98.59 0 94.78 0ZM123.05-8.42L127.72-8.42Q127.72-9.87 127.13-10.38 126.55-10.89 124.82-10.89L124.82-10.89 118.39-10.89 118.39-13.85 124.82-13.85Q126.55-13.85 127.21-13.78 127.86-13.71 128.54-13.51L128.54-13.51Q131.7-12.32 131.53-7.79L131.53-7.79 131.53 0 123.51 0Q121.35 0 120.52-0.13 119.7-0.26 119.07-0.65L119.07-0.65Q117.39-1.79 117.39-4.1L117.39-4.1Q117.39-5.49 118.06-6.59 118.73-7.68 119.84-8.08L119.84-8.08Q120.81-8.42 123.05-8.42L123.05-8.42ZM127.72-2.96L127.72-5.46 123.34-5.46 122.68-5.46Q122.03-5.46 121.65-5.12 121.26-4.78 121.26-4.18L121.26-4.18Q121.26-3.53 121.73-3.24 122.2-2.96 123.34-2.96L123.34-2.96 127.72-2.96ZM133.69-13.85L136.11-13.85 136.11-18.97 139.92-18.97 139.92-13.85 143.45-13.85 143.45-10.89 139.92-10.89 139.92-5.86Q139.92-4.1 140.23-3.64L140.23-3.64Q140.72-2.96 141.94-2.96L141.94-2.96 143.45-2.96 143.45 0 140.69 0Q138.21 0 137.16-1.19 136.11-2.39 136.11-5.21L136.11-5.21 136.11-10.89 133.69-10.89 133.69-13.85ZM146.04 0L146.04-13.85 151.67-13.85Q153.4-13.85 154.36-13.61 155.31-13.37 155.94-12.8L155.94-12.8Q156.56-12.23 156.82-11.38 157.07-10.52 157.07-8.93L157.07-8.93 157.07-7.59 153.4-7.59 153.4-8.33Q153.4-9.81 152.89-10.35 152.38-10.89 150.93-10.89L150.93-10.89 149.85-10.89 149.85 0 146.04 0ZM159.35 0L159.35-13.85 163.16-13.85 163.16 0 159.35 0ZM163.16-15.27L159.35-15.27 159.35-18.97 163.16-18.97 163.16-15.27ZM165.15 0L170.36-6.86 165.35-13.85 169.62-13.85 172.55-9.76 175.36-13.85 179.86-13.85 174.68-6.86 179.86 0 175.36 0 172.55-3.95 169.62 0 165.15 0Z" transform="translate(-0.10999999940395355, 18.969999313354492)"></path></g> </g></g> </g></g><defs v-gra="od"></defs></g></svg>