<?xml version="1.0" encoding="UTF-8"?>
<svg id="Logos" xmlns="http://www.w3.org/2000/svg" viewBox="0 0 1200 1200">
  <defs>
    <style>
      .cls-1 {
        fill: #00b828;
      }
    </style>
  </defs>
  <path class="cls-1" d="m682.28579,240c-153.13408,0-277.71421,124.58014-277.71421,277.71421,0,122.8862,99.97139,222.85716,222.85674,222.85716,92.63832,0,168.00011-75.36137,168.00011-168.00011,0-62.38366-50.75898-113.14264-113.14264-113.14264-47.26353,0-85.71433,38.4508-85.71433,85.71433,0,32.18956,26.09603,58.28559,58.28517,58.28559,5.22412,0,10.28646-.68986,15.10827-1.97556-9.26841,13.60066-24.87724,22.54722-42.53658,22.54722-58.60701,0-106.28556-47.67897-106.28556-106.28598,0-88.8549,72.28814-161.14303,161.14303-161.14303,119.10278,0,216.00051,96.89731,216.00051,216.00008,0,149.35066-121.50733,270.85756-270.85798,270.85756-179.59854,0-325.71461-146.11607-325.71461-325.71461,0-22.04285,1.94803-43.95441,5.69842-65.49755h-117.93904c-2.86954,21.64477-4.33056,43.52585-4.33056,65.49755,0,243.87729,198.40892,442.28579,442.28579,442.28579,213.62984,0,387.42916-173.7989,387.42916-387.42874,0-183.38153-149.18973-332.57126-332.57169-332.57126Z"/>
</svg>