<svg xmlns="http://www.w3.org/2000/svg" fill="none" viewBox="0 0.5 66.152 18" class="styles_icon__x_9Ga"><path fill="currentColor" d="M0 9.5c0 4.97 2.565 9 5.729 9s5.729-4.03 5.729-9zM18 9.5c0-4.97-2.565-9-5.729-9s-5.729 4.03-5.729 9zM28.04 16.66c-1.053 0-1.98-.2-2.78-.6a4.723 4.723 0 0 1-1.88-1.7c-.453-.733-.7-1.587-.74-2.56h2.54c.067.787.347 1.413.84 1.88.507.467 1.18.7 2.02.7.773 0 1.387-.16 1.84-.48.467-.32.7-.78.7-1.38 0-.413-.127-.74-.38-.98a2.654 2.654 0 0 0-.98-.6c-.387-.147-.92-.307-1.6-.48-.96-.24-1.747-.487-2.36-.74-.6-.253-1.12-.66-1.56-1.22-.427-.56-.64-1.313-.64-2.26 0-.76.2-1.433.6-2.02.413-.6.987-1.06 1.72-1.38.733-.333 1.567-.5 2.5-.5.973 0 1.833.18 2.58.54.76.347 1.353.847 1.78 1.5.44.653.68 1.413.72 2.28h-2.52c-.053-.613-.313-1.107-.78-1.48-.453-.373-1.047-.56-1.78-.56-.693 0-1.24.147-1.64.44-.4.293-.6.687-.6 1.18 0 .413.127.753.38 1.02.267.253.593.453.98.6.4.133.953.28 1.66.44.973.227 1.76.46 2.36.7.613.24 1.14.64 1.58 1.2.44.547.66 1.307.66 2.28 0 .853-.22 1.593-.66 2.22-.44.627-1.053 1.113-1.84 1.46-.787.333-1.693.5-2.72.5m15.554-.16h-2.44v-1.56a3.02 3.02 0 0 1-1.24 1.28c-.547.293-1.18.44-1.9.44-.747 0-1.407-.167-1.98-.5-.56-.333-1-.8-1.32-1.4-.307-.613-.46-1.313-.46-2.1V6.42h2.46v5.72c0 .693.193 1.26.58 1.7.386.427.893.64 1.52.64.453 0 .853-.107 1.2-.32.36-.227.64-.533.84-.92.2-.387.3-.827.3-1.32v-5.5h2.44zm1.698-10.08h2.46v1.56a2.788 2.788 0 0 1 1.22-1.26c.56-.307 1.2-.46 1.92-.46.734 0 1.387.167 1.96.5a3.318 3.318 0 0 1 1.32 1.42c.307.6.46 1.293.46 2.08v6.24h-2.44v-5.72c0-.693-.2-1.253-.6-1.68-.386-.44-.893-.66-1.52-.66-.44 0-.84.113-1.2.34-.346.213-.62.513-.82.9-.2.387-.3.827-.3 1.32v5.5h-2.46zm15.6 10.24c-1.014 0-1.92-.227-2.72-.68a4.939 4.939 0 0 1-1.88-1.86c-.454-.787-.68-1.673-.68-2.66 0-.987.226-1.873.68-2.66a4.939 4.939 0 0 1 1.88-1.86c.8-.453 1.706-.68 2.72-.68 1 0 1.9.227 2.7.68a4.939 4.939 0 0 1 1.88 1.86c.452.787.68 1.673.68 2.66 0 .987-.228 1.873-.68 2.66a4.939 4.939 0 0 1-1.88 1.86c-.8.453-1.7.68-2.7.68m0-2.12c.546 0 1.026-.127 1.44-.38.426-.267.752-.633.98-1.1.24-.467.36-1 .36-1.6 0-.6-.12-1.133-.36-1.6a2.486 2.486 0 0 0-.98-1.08 2.66 2.66 0 0 0-1.44-.4c-.548 0-1.034.133-1.46.4-.428.253-.76.613-1 1.08-.228.467-.34 1-.34 1.6 0 .6.112 1.133.34 1.6.24.467.572.833 1 1.1.426.253.912.38 1.46.38"></path></svg>
