<?xml version="1.0" encoding="UTF-8"?>
<!DOCTYPE svg PUBLIC "-//W3C//DTD SVG 1.1//EN" "http://www.w3.org/Graphics/SVG/1.1/DTD/svg11.dtd">
<svg xmlns="http://www.w3.org/2000/svg" version="1.1" width="1624px" height="452px" style="shape-rendering:geometricPrecision; text-rendering:geometricPrecision; image-rendering:optimizeQuality; fill-rule:evenodd; clip-rule:evenodd" xmlns:xlink="http://www.w3.org/1999/xlink">
<g><path style="opacity:1" fill="#fefefe" d="M -0.5,-0.5 C 540.833,-0.5 1082.17,-0.5 1623.5,-0.5C 1623.5,150.167 1623.5,300.833 1623.5,451.5C 1082.17,451.5 540.833,451.5 -0.5,451.5C -0.5,419.167 -0.5,386.833 -0.5,354.5C 54.501,354.667 109.501,354.5 164.5,354C 177.087,332.162 189.42,310.162 201.5,288C 157.499,287.689 113.499,287.856 69.5,288.5C 69.5,214.833 69.5,141.167 69.5,67.5C 46.1667,67.5 22.8333,67.5 -0.5,67.5C -0.5,44.8333 -0.5,22.1667 -0.5,-0.5 Z"/></g>
<g><path style="opacity:1" fill="#c6c6c6" d="M 888.5,64.5 C 888.56,63.9569 888.893,63.6236 889.5,63.5C 890.832,160.999 890.832,258.332 889.5,355.5C 889.5,355.167 889.5,354.833 889.5,354.5C 889.833,257.665 889.499,160.999 888.5,64.5 Z"/></g>
<g><path style="opacity:1" fill="#202120" d="M 987.5,63.5 C 1010.17,63.5 1032.83,63.5 1055.5,63.5C 1055.5,160.833 1055.5,258.167 1055.5,355.5C 1032.83,355.5 1010.17,355.5 987.5,355.5C 987.5,258.167 987.5,160.833 987.5,63.5 Z"/></g>
<g><path style="opacity:1" fill="#212121" d="M 1155.5,63.5 C 1217.39,111.37 1279.23,159.37 1341,207.5C 1341.5,159.501 1341.67,111.501 1341.5,63.5C 1364.83,63.5 1388.17,63.5 1411.5,63.5C 1411.67,160.834 1411.5,258.167 1411,355.5C 1349.33,306.167 1287.67,256.833 1226,207.5C 1225.5,256.832 1225.33,306.166 1225.5,355.5C 1202.17,355.5 1178.83,355.5 1155.5,355.5C 1155.5,258.167 1155.5,160.833 1155.5,63.5 Z"/></g>
<g><path style="opacity:1" fill="#202120" d="M 1503.5,63.5 C 1526.17,63.5 1548.83,63.5 1571.5,63.5C 1571.5,160.833 1571.5,258.167 1571.5,355.5C 1548.83,355.5 1526.17,355.5 1503.5,355.5C 1503.5,258.167 1503.5,160.833 1503.5,63.5 Z"/></g>
<g><path style="opacity:1" fill="#212121" d="M 888.5,64.5 C 889.499,160.999 889.833,257.665 889.5,354.5C 862.833,354.5 836.167,354.5 809.5,354.5C 809.828,342.655 809.495,330.988 808.5,319.5C 807.565,307.853 803.231,297.687 795.5,289C 821.168,272.049 831.335,248.216 826,217.5C 825.422,214.097 824.255,210.93 822.5,208C 820.097,207.37 818.263,208.203 817,210.5C 802.236,231.706 787.236,252.706 772,273.5C 761.453,271.011 750.953,270.844 740.5,273C 725.167,251.333 709.833,229.667 694.5,208C 693.167,207.333 691.833,207.333 690.5,208C 681.922,235.45 687.256,259.783 706.5,281C 709.99,283.911 713.656,286.578 717.5,289C 711.056,297.117 706.889,306.284 705,316.5C 704.5,329.496 704.333,342.496 704.5,355.5C 677.5,355.5 650.5,355.5 623.5,355.5C 623.167,258.498 623.5,161.498 624.5,64.5C 666.686,100.43 708.686,136.597 750.5,173C 752.01,173.85 753.51,174.683 755,175.5C 799.79,138.854 844.29,101.854 888.5,64.5 Z"/></g>
<g><path style="opacity:1" fill="#212121" d="M 315.5,354.5 C 291.661,354.831 267.994,354.498 244.5,353.5C 296.9,257.034 349.567,160.7 402.5,64.5C 454.96,161.254 507.294,258.087 559.5,355C 535.167,355.667 510.833,355.667 486.5,355C 477.627,338.087 468.627,321.254 459.5,304.5C 421.504,303.333 383.504,303.167 345.5,304C 335.6,320.979 325.6,337.813 315.5,354.5 Z"/></g>
<g><path style="opacity:1" fill="#212121" d="M -0.5,67.5 C 22.8333,67.5 46.1667,67.5 69.5,67.5C 69.5,141.167 69.5,214.833 69.5,288.5C 113.499,287.856 157.499,287.689 201.5,288C 189.42,310.162 177.087,332.162 164.5,354C 109.501,354.5 54.501,354.667 -0.5,354.5C -0.5,258.833 -0.5,163.167 -0.5,67.5 Z"/></g>
<g><path style="opacity:1" fill="#fcfcfc" d="M 429.5,248.5 C 411.341,249.497 393.008,249.83 374.5,249.5C 383.148,232.87 392.315,216.537 402,200.5C 411.443,216.392 420.61,232.392 429.5,248.5 Z"/></g>
<g><path style="opacity:1" fill="#acacac" d="M 429.5,248.5 C 430.043,248.56 430.376,248.893 430.5,249.5C 411.671,250.828 393.004,250.828 374.5,249.5C 393.008,249.83 411.341,249.497 429.5,248.5 Z"/></g>
<g><path style="opacity:1" fill="#5a5a5a" d="M 244.5,353.5 C 267.994,354.498 291.661,354.831 315.5,354.5C 291.663,355.829 267.663,355.829 243.5,354.5C 243.624,353.893 243.957,353.56 244.5,353.5 Z"/></g>
<g><path style="opacity:1" fill="#595959" d="M 808.5,319.5 C 809.495,330.988 809.828,342.655 809.5,354.5C 836.167,354.5 862.833,354.5 889.5,354.5C 889.5,354.833 889.5,355.167 889.5,355.5C 862.5,355.5 835.5,355.5 808.5,355.5C 808.5,343.5 808.5,331.5 808.5,319.5 Z"/></g>
</svg>
