<?xml version="1.0" encoding="UTF-8"?>
<!DOCTYPE svg PUBLIC "-//W3C//DTD SVG 1.1//EN" "http://www.w3.org/Graphics/SVG/1.1/DTD/svg11.dtd">
<svg xmlns="http://www.w3.org/2000/svg" version="1.1" width="650px" height="166px" style="shape-rendering:geometricPrecision; text-rendering:geometricPrecision; image-rendering:optimizeQuality; fill-rule:evenodd; clip-rule:evenodd" xmlns:xlink="http://www.w3.org/1999/xlink">
<g><path style="opacity:0.81" fill="#151743" d="M 235.5,-0.5 C 246.5,-0.5 257.5,-0.5 268.5,-0.5C 271.46,2.76919 271.126,5.60252 267.5,8C 257.151,8.1677 246.817,8.6677 236.5,9.5C 246.756,14.4226 257.089,19.2559 267.5,24C 270.829,28.1369 271.329,32.6369 269,37.5C 267.786,39.0488 266.286,40.2155 264.5,41C 252.757,41.8106 241.091,41.6439 229.5,40.5C 228.232,38.3298 228.232,36.1632 229.5,34C 240.658,33.9777 251.658,33.3111 262.5,32C 259.222,30.3525 256.055,28.5192 253,26.5C 251.127,27.0891 249.46,26.4224 248,24.5C 247.667,24.8333 247.333,25.1667 247,25.5C 242.897,22.5732 238.397,20.4065 233.5,19C 225.241,11.6951 225.908,5.19514 235.5,-0.5 Z"/></g>
<g><path style="opacity:0.822" fill="#151744" d="M 279.5,-0.5 C 290.5,-0.5 301.5,-0.5 312.5,-0.5C 315.101,2.33713 315.101,5.17047 312.5,8C 303.506,8.49977 294.506,8.66644 285.5,8.5C 285.5,10.8333 285.5,13.1667 285.5,15.5C 292.508,15.3337 299.508,15.5004 306.5,16C 309.183,18.9686 309.016,21.802 306,24.5C 299.377,24.4252 292.544,24.4252 285.5,24.5C 285.5,27.5 285.5,30.5 285.5,33.5C 295.506,33.3335 305.506,33.5002 315.5,34C 318.167,36.3333 318.167,38.6667 315.5,41C 303.167,41.6667 290.833,41.6667 278.5,41C 278,40.5 277.5,40 277,39.5C 276.333,27.1667 276.333,14.8333 277,2.5C 277.698,1.30943 278.531,0.309426 279.5,-0.5 Z"/></g>
<g><path style="opacity:0.833" fill="#151743" d="M 325.5,-0.5 C 326.833,-0.5 328.167,-0.5 329.5,-0.5C 329.783,0.28913 330.283,0.955796 331,1.5C 331.5,12.1615 331.667,22.8281 331.5,33.5C 341.506,33.3335 351.506,33.5002 361.5,34C 362.982,36.5918 362.648,38.9251 360.5,41C 348.833,41.6667 337.167,41.6667 325.5,41C 324.692,40.6924 324.025,40.1924 323.5,39.5C 322.975,27.5995 322.642,15.7662 322.5,4C 323.386,2.38533 324.386,0.885333 325.5,-0.5 Z"/></g>
<g><path style="opacity:0.802" fill="#141642" d="M 369.5,-0.5 C 376.833,-0.5 384.167,-0.5 391.5,-0.5C 406.609,4.04219 412.109,14.0422 408,29.5C 403.691,36.9186 397.191,41.2519 388.5,42.5C 382.833,41.1667 377.167,41.1667 371.5,42.5C 369.803,41.6364 368.637,40.3031 368,38.5C 367.333,26.1667 367.333,13.8333 368,1.5C 368.717,0.955796 369.217,0.28913 369.5,-0.5 Z M 376.5,8.5 C 382.593,8.1392 388.593,8.6392 394.5,10C 402.497,15.9746 403.164,22.6413 396.5,30C 390.193,33.0285 383.526,34.1952 376.5,33.5C 376.5,25.1667 376.5,16.8333 376.5,8.5 Z"/></g>
<g><path style="opacity:0.84" fill="#151745" d="M 428.5,-0.5 C 433.833,-0.5 439.167,-0.5 444.5,-0.5C 461.488,9.46387 463.821,22.1305 451.5,37.5C 448.626,39.9355 445.293,41.2688 441.5,41.5C 440.167,41.8333 438.833,42.1667 437.5,42.5C 434.794,42.4249 432.127,42.0916 429.5,41.5C 428.329,40.6554 426.995,39.9887 425.5,39.5C 418.229,35.3041 414.229,28.9707 413.5,20.5C 414.36,10.4152 419.36,3.41518 428.5,-0.5 Z M 443.5,9.5 C 443.973,10.9063 444.973,11.573 446.5,11.5C 452.976,20.4842 451.31,27.6509 441.5,33C 429.142,34.9335 422.976,29.7669 423,17.5C 427.653,8.34822 434.486,5.68155 443.5,9.5 Z"/></g>
<g><path style="opacity:0.833" fill="#161846" d="M 466.5,-0.5 C 467.833,-0.5 469.167,-0.5 470.5,-0.5C 471.469,0.309426 472.302,1.30943 473,2.5C 473.168,12.8494 473.668,23.1827 474.5,33.5C 479.01,24.8093 482.843,15.8093 486,6.5C 487.666,4.00432 489.5,1.67098 491.5,-0.5C 494.5,-0.5 497.5,-0.5 500.5,-0.5C 503.228,1.06914 505.062,3.40247 506,6.5C 506.667,17.5 506.667,28.5 506,39.5C 503.182,42.9307 500.516,42.5973 498,38.5C 497.832,28.4834 497.332,18.4834 496.5,8.5C 491.316,18.7034 486.316,29.0367 481.5,39.5C 474.742,43.7696 469.242,42.4362 465,35.5C 464.333,24.1667 464.333,12.8333 465,1.5C 465.717,0.955796 466.217,0.28913 466.5,-0.5 Z"/></g>
<g><path style="opacity:0.929" fill="#4f57f9" d="M 87.5,-0.5 C 88.1667,-0.5 88.8333,-0.5 89.5,-0.5C 109.147,2.31441 120.314,13.6477 123,33.5C 123.5,53.4972 123.667,73.4972 123.5,93.5C 122.5,93.5 121.5,93.5 120.5,93.5C 119.486,92.3263 118.153,91.6596 116.5,91.5C 114.127,90.1611 111.793,88.8278 109.5,87.5C 109.167,86.5 108.5,85.8333 107.5,85.5C 105.216,85.0248 103.216,84.0248 101.5,82.5C 101.158,81.6618 100.492,81.3284 99.5,81.5C 97.1667,80.1667 94.8333,78.8333 92.5,77.5C 92.1583,76.6618 91.4916,76.3284 90.5,76.5C 88.3374,74.9172 86.0041,73.5839 83.5,72.5C 82.3406,70.7497 80.674,69.7497 78.5,69.5C 71.9289,66.2514 66.2622,61.918 61.5,56.5C 61.1667,55.5 60.5,54.8333 59.5,54.5C 59.6716,53.5084 59.3382,52.8417 58.5,52.5C 57.8333,51.5 57.1667,50.5 56.5,49.5C 56.7373,48.209 56.404,47.209 55.5,46.5C 51.9273,36.6744 52.7607,26.6744 58,16.5C 65.3334,6.30094 75.1667,0.634269 87.5,-0.5 Z M 94.5,19.5 C 95.0347,21.4456 96.368,22.4456 98.5,22.5C 99.4584,22.9528 100.292,23.6195 101,24.5C 102.167,27 103.333,29.5 104.5,32C 104.615,41.9622 104.448,52.1289 104,62.5C 95.2488,57.2072 86.4154,52.0405 77.5,47C 70.3392,37.765 71.0059,29.0983 79.5,21C 84.2846,18.3135 89.2846,17.8135 94.5,19.5 Z"/></g>
<g><path style="opacity:0.012" fill="#2c2f8b" d="M 443.5,9.5 C 445.027,9.42702 446.027,10.0937 446.5,11.5C 444.973,11.573 443.973,10.9063 443.5,9.5 Z"/></g>
<g><path style="opacity:0.012" fill="#2c2f8b" d="M 94.5,19.5 C 96.2303,20.0256 97.5637,21.0256 98.5,22.5C 96.368,22.4456 95.0347,21.4456 94.5,19.5 Z"/></g>
<g><path style="opacity:0.012" fill="#2c2f8b" d="M 451.5,37.5 C 452.833,38.1667 452.833,38.1667 451.5,37.5 Z"/></g>
<g><path style="opacity:0.012" fill="#2b2f89" d="M 425.5,39.5 C 426.995,39.9887 428.329,40.6554 429.5,41.5C 429.565,41.9382 429.399,42.2716 429,42.5C 427.271,42.0257 426.105,41.0257 425.5,39.5 Z"/></g>
<g><path style="opacity:0.012" fill="#2c2f8b" d="M 481.5,39.5 C 482.833,40.1667 482.833,40.1667 481.5,39.5 Z"/></g>
<g><path style="opacity:0.012" fill="#2c2f8b" d="M 229.5,40.5 C 228.833,41.1667 228.833,41.1667 229.5,40.5 Z"/></g>
<g><path style="opacity:0.012" fill="#2b2f89" d="M 441.5,41.5 C 440.462,43.5195 439.128,43.8528 437.5,42.5C 438.833,42.1667 440.167,41.8333 441.5,41.5 Z"/></g>
<g><path style="opacity:0.012" fill="#2b2f88" d="M 55.5,46.5 C 56.404,47.209 56.7373,48.209 56.5,49.5C 55.7326,48.828 55.0659,47.9947 54.5,47C 54.7284,46.6012 55.0618,46.4346 55.5,46.5 Z"/></g>
<g><path style="opacity:0.039" fill="#2a2e86" d="M 58.5,52.5 C 59.3382,52.8417 59.6716,53.5084 59.5,54.5C 57.8946,53.9941 57.5613,53.3274 58.5,52.5 Z"/></g>
<g><path style="opacity:0.012" fill="#2b2f88" d="M 59.5,54.5 C 60.5,54.8333 61.1667,55.5 61.5,56.5C 60.1667,56.5 59.5,55.8333 59.5,54.5 Z"/></g>
<g><path style="opacity:0.92" fill="#141642" d="M 417.5,153.5 C 410.243,159.284 402.576,163.284 394.5,165.5C 386.5,165.5 378.5,165.5 370.5,165.5C 369.833,164.167 369.167,164.167 368.5,165.5C 368.167,165.5 367.833,165.5 367.5,165.5C 363.638,162.739 359.305,160.739 354.5,159.5C 348.667,155.164 343.333,150.331 338.5,145C 338.833,144.667 339.167,144.333 339.5,144C 338.272,141.86 336.605,140.193 334.5,139C 334.833,138.667 335.167,138.333 335.5,138C 333.589,134.42 331.922,130.754 330.5,127C 328.282,111.821 332.449,97.3209 343,83.5C 365.716,63.0603 389.883,61.227 415.5,78C 435.43,97.1252 438.93,118.959 426,143.5C 423.331,147 420.498,150.333 417.5,153.5 Z M 415.5,110.5 C 415.062,110.435 414.728,110.601 414.5,111C 415.066,111.995 415.733,112.828 416.5,113.5C 416.526,131.682 407.526,143.182 389.5,148C 371.369,150.519 358.203,143.686 350,127.5C 345.131,107.405 352.297,93.5714 371.5,86C 376.61,85.0966 381.443,84.5966 386,84.5C 401.983,87.0199 411.817,95.6865 415.5,110.5 Z"/></g>
<g><path style="opacity:0.908" fill="#141641" d="M 318.5,165.5 C 303.833,165.5 289.167,165.5 274.5,165.5C 253.943,162.831 238.943,151.998 229.5,133C 230.634,131.984 230.301,131.317 228.5,131C 229.013,128.282 229.013,125.449 228.5,122.5C 228.5,118.5 228.5,114.5 228.5,110.5C 230.09,93.2611 239.757,80.4278 257.5,72C 263.29,69.7191 269.29,68.3858 275.5,68C 290.901,67.0481 306.235,67.3815 321.5,69C 327.423,76.5838 325.923,82.4172 317,86.5C 303.752,85.5537 290.585,85.2204 277.5,85.5C 269.059,86.5942 261.726,89.4275 255.5,94C 242.617,108.391 242.284,123.058 254.5,138C 260.926,143.144 268.259,146.144 276.5,147C 291.593,147.032 306.593,147.698 321.5,149C 327.25,155.818 326.25,161.318 318.5,165.5 Z"/></g>
<g><path style="opacity:0.919" fill="#141641" d="M 539.5,121.5 C 537.355,124.433 535.188,127.433 533,130.5C 532.667,130.167 532.333,129.833 532,129.5C 530.092,131.738 528.092,133.071 526,133.5C 524.082,134.542 522.249,135.708 520.5,137C 526.033,142.198 531.2,147.698 536,153.5C 537.255,158.262 536.088,162.262 532.5,165.5C 529.167,165.5 525.833,165.5 522.5,165.5C 513.481,155.981 504.314,146.648 495,137.5C 485,138.833 475,138.833 465,137.5C 464.667,145.167 464.333,152.833 464,160.5C 462.906,162.078 462.072,163.745 461.5,165.5C 461.167,165.5 460.833,165.5 460.5,165.5C 460.167,164.167 459.833,164.167 459.5,165.5C 456.833,165.5 454.167,165.5 451.5,165.5C 451.5,164.833 451.167,164.5 450.5,164.5C 449.833,163.167 448.833,162.167 447.5,161.5C 447.047,160.542 446.381,159.708 445.5,159C 446.329,130.239 446.829,101.405 447,72.5C 448.251,69.6193 450.417,67.786 453.5,67C 473.167,66.3333 492.833,66.3333 512.5,67C 535.542,71.7258 546.042,85.8924 544,109.5C 543.183,113.789 541.683,117.789 539.5,121.5 Z M 464.5,85.5 C 480.503,85.3334 496.503,85.5001 512.5,86C 519.833,88 524.5,92.6667 526.5,100C 526.688,109.188 522.354,115.521 513.5,119C 497.17,119.5 480.837,119.667 464.5,119.5C 464.5,108.167 464.5,96.8333 464.5,85.5 Z"/></g>
<g><path style="opacity:0.916" fill="#141641" d="M 638.5,84.5 C 616.993,84.1694 595.66,84.5027 574.5,85.5C 574.5,92.1667 574.5,98.8333 574.5,105.5C 591.17,105.333 607.837,105.5 624.5,106C 630.608,110.904 631.108,116.404 626,122.5C 624.927,121.72 623.76,121.887 622.5,123C 606.503,123.5 590.503,123.667 574.5,123.5C 574.5,131.5 574.5,139.5 574.5,147.5C 597.836,147.333 621.169,147.5 644.5,148C 646.323,148.997 647.99,150.164 649.5,151.5C 649.5,154.833 649.5,158.167 649.5,161.5C 647.728,163.29 645.728,164.623 643.5,165.5C 616.5,165.5 589.5,165.5 562.5,165.5C 558.605,163.257 556.272,159.757 555.5,155C 556.333,131.416 556.333,104.749 555.5,75C 556.574,71.8405 558.574,69.5072 561.5,68C 587.5,67.3333 613.5,67.3333 639.5,68C 647.23,73.4529 647.397,79.2863 640,85.5C 639.617,84.944 639.117,84.6107 638.5,84.5 Z"/></g>
<g><path style="opacity:0.012" fill="#2b2f89" d="M 78.5,69.5 C 80.674,69.7497 82.3406,70.7497 83.5,72.5C 81.326,72.2503 79.6594,71.2503 78.5,69.5 Z"/></g>
<g><path style="opacity:0.932" fill="#4f56f9" d="M 32.5,165.5 C 32.1667,165.5 31.8333,165.5 31.5,165.5C 26.3709,163.741 21.0375,162.241 15.5,161C 16.1513,159.692 15.4846,158.859 13.5,158.5C 10.5432,156.842 8.2099,154.509 6.5,151.5C 6.16667,150.5 5.5,149.833 4.5,149.5C 2.71515,146.099 1.04849,142.766 -0.5,139.5C -0.5,132.833 -0.5,126.167 -0.5,119.5C 0.971301,116.448 2.63797,113.448 4.5,110.5C 5.5,110.167 6.16667,109.5 6.5,108.5C 7.92744,105.236 10.2608,102.736 13.5,101C 30.7602,91.3986 47.7602,81.3986 64.5,71C 65.7932,70.51 67.1266,70.3433 68.5,70.5C 68.6666,91.5026 68.5,112.503 68,133.5C 63.8716,153.494 52.0383,164.161 32.5,165.5 Z M 47.5,138.5 C 46.1667,138.5 45.5,139.167 45.5,140.5C 38.2679,147.445 30.6013,147.945 22.5,142C 16.8736,135.459 16.0403,128.292 20,120.5C 21.8734,118.291 24.04,116.458 26.5,115C 32.482,111.788 37.982,108.622 43,105.5C 43.3333,105.833 43.6667,106.167 44,106.5C 44.7589,104.365 46.2589,103.032 48.5,102.5C 49.424,112.813 49.7573,122.979 49.5,133C 48.6805,134.8 48.0138,136.634 47.5,138.5 Z"/></g>
<g><path style="opacity:0.012" fill="#2c2f8b" d="M 90.5,76.5 C 91.4916,76.3284 92.1583,76.6618 92.5,77.5C 92.5654,77.9382 92.3988,78.2716 92,78.5C 91.2496,77.8742 90.4162,77.3742 89.5,77C 89.7284,76.6012 90.0618,76.4346 90.5,76.5 Z"/></g>
<g><path style="opacity:0.039" fill="#2a2e86" d="M 99.5,81.5 C 100.492,81.3284 101.158,81.6618 101.5,82.5C 100.673,83.4387 100.006,83.1054 99.5,81.5 Z"/></g>
<g><path style="opacity:0.039" fill="#292d84" d="M 574.5,85.5 C 595.66,84.5027 616.993,84.1694 638.5,84.5C 637.828,85.2674 636.995,85.9341 636,86.5C 615.551,85.9302 595.051,85.5969 574.5,85.5 Z"/></g>
<g><path style="opacity:0.012" fill="#2b2f89" d="M 107.5,85.5 C 108.5,85.8333 109.167,86.5 109.5,87.5C 107.007,87.8693 106.34,87.2027 107.5,85.5 Z"/></g>
<g><path style="opacity:0.012" fill="#2b2f89" d="M 116.5,91.5 C 118.153,91.6596 119.486,92.3263 120.5,93.5C 118.62,93.7709 117.287,93.1042 116.5,91.5 Z"/></g>
<g><path style="opacity:0.927" fill="#4f57fa" d="M 147.5,165.5 C 147.167,165.5 146.833,165.5 146.5,165.5C 146.167,164.167 145.833,164.167 145.5,165.5C 145.167,165.5 144.833,165.5 144.5,165.5C 141.437,164.799 138.27,164.132 135,163.5C 134.667,163.833 134.333,164.167 134,164.5C 132.921,162.606 131.587,162.273 130,163.5C 129.722,162.584 129.222,161.918 128.5,161.5C 127.71,160.599 126.71,159.932 125.5,159.5C 124.005,159.011 122.671,158.345 121.5,157.5C 120.486,156.326 119.153,155.66 117.5,155.5C 108.833,150.5 100.167,145.5 91.5,140.5C 86.6181,138.302 81.9514,135.635 77.5,132.5C 76.3995,131.395 75.7329,130.062 75.5,128.5C 94.0414,117.731 112.708,107.231 131.5,97C 154.081,91.7034 169.248,99.8701 177,121.5C 179.485,137.508 174.485,150.508 162,160.5C 161.667,160.167 161.333,159.833 161,159.5C 156.575,161.803 152.075,163.803 147.5,165.5 Z M 159.5,132.5 C 157.302,132.409 156.969,133.075 158.5,134.5C 152.715,146.377 143.715,148.877 131.5,142C 124.833,138 118.167,134 111.5,130C 121.642,123.273 131.975,117.773 142.5,113.5C 154.127,114.462 159.793,120.795 159.5,132.5 Z"/></g>
<g><path style="opacity:0.012" fill="#2b2f88" d="M 6.5,108.5 C 6.16667,109.5 5.5,110.167 4.5,110.5C 4.5,109.167 5.16667,108.5 6.5,108.5 Z"/></g>
<g><path style="opacity:0.039" fill="#292d83" d="M 228.5,110.5 C 228.5,114.5 228.5,118.5 228.5,122.5C 227.751,121.469 227.085,120.302 226.5,119C 227.128,116.061 227.795,113.228 228.5,110.5 Z"/></g>
<g><path style="opacity:0.012" fill="#2b2f88" d="M 415.5,110.5 C 416.404,111.209 416.737,112.209 416.5,113.5C 415.733,112.828 415.066,111.995 414.5,111C 414.728,110.601 415.062,110.435 415.5,110.5 Z"/></g>
<g><path style="opacity:0.012" fill="#2c2f8b" d="M 539.5,121.5 C 540.833,122.167 540.833,122.167 539.5,121.5 Z"/></g>
<g><path style="opacity:0.039" fill="#2a2e86" d="M 75.5,128.5 C 75.7329,130.062 76.3995,131.395 77.5,132.5C 74.6909,132.042 74.0242,130.709 75.5,128.5 Z"/></g>
<g><path style="opacity:0.012" fill="#2b2f88" d="M 159.5,132.5 C 159.672,133.492 159.338,134.158 158.5,134.5C 156.969,133.075 157.302,132.409 159.5,132.5 Z"/></g>
<g><path style="opacity:0.012" fill="#2c2f8b" d="M 47.5,138.5 C 47.1667,139.5 46.5,140.167 45.5,140.5C 45.5,139.167 46.1667,138.5 47.5,138.5 Z"/></g>
<g><path style="opacity:0.012" fill="#2c2f8b" d="M 91.5,140.5 C 90.8333,141.167 90.8333,141.167 91.5,140.5 Z"/></g>
<g><path style="opacity:0.012" fill="#2c2f8b" d="M 4.5,149.5 C 5.5,149.833 6.16667,150.5 6.5,151.5C 5.16667,151.5 4.5,150.833 4.5,149.5 Z"/></g>
<g><path style="opacity:0.012" fill="#2c2f8b" d="M 417.5,153.5 C 418.833,154.167 418.833,154.167 417.5,153.5 Z"/></g>
<g><path style="opacity:0.012" fill="#2b2f89" d="M 117.5,155.5 C 119.153,155.66 120.486,156.326 121.5,157.5C 119.62,157.771 118.287,157.104 117.5,155.5 Z"/></g>
<g><path style="opacity:0.012" fill="#2c2f8b" d="M 13.5,158.5 C 12.8333,159.167 12.8333,159.167 13.5,158.5 Z"/></g>
<g><path style="opacity:0.012" fill="#2b2f89" d="M 125.5,159.5 C 126.71,159.932 127.71,160.599 128.5,161.5C 126.821,161.715 125.821,161.048 125.5,159.5 Z"/></g>
<g><path style="opacity:0.012" fill="#2a2e87" d="M 447.5,161.5 C 448.833,162.167 449.833,163.167 450.5,164.5C 448.5,164.5 447.5,163.5 447.5,161.5 Z"/></g>
</svg>
