<?xml version="1.0" encoding="UTF-8"?>
<!DOCTYPE svg PUBLIC "-//W3C//DTD SVG 1.1//EN" "http://www.w3.org/Graphics/SVG/1.1/DTD/svg11.dtd">
<svg xmlns="http://www.w3.org/2000/svg" version="1.1" width="642px" height="186px" style="shape-rendering:geometricPrecision; text-rendering:geometricPrecision; image-rendering:optimizeQuality; fill-rule:evenodd; clip-rule:evenodd" xmlns:xlink="http://www.w3.org/1999/xlink">
<g><path style="opacity:0.998" fill="#fdfdfe" d="M -0.5,-0.5 C 213.5,-0.5 427.5,-0.5 641.5,-0.5C 641.5,61.5 641.5,123.5 641.5,185.5C 427.5,185.5 213.5,185.5 -0.5,185.5C -0.5,123.5 -0.5,61.5 -0.5,-0.5 Z"/></g>
<g><path style="opacity:1" fill="#080f40" d="M 88.5,25.5 C 124.233,23.4348 149.067,38.7682 163,71.5C 164.288,76.7726 165.122,82.106 165.5,87.5C 158.5,87.5 151.5,87.5 144.5,87.5C 139.109,61.9541 123.276,48.2875 97,46.5C 72.3872,49.6147 57.5539,63.2814 52.5,87.5C 45.5,87.5 38.5,87.5 31.5,87.5C 34.0427,64.1157 45.376,46.2824 65.5,34C 72.9166,30.1044 80.5833,27.271 88.5,25.5 Z"/></g>
<g><path style="opacity:1" fill="#0e1344" d="M 495.5,49.5 C 502.304,48.2214 506.304,50.8881 507.5,57.5C 506.011,64.586 501.677,67.086 494.5,65C 488.873,59.2742 489.206,54.1075 495.5,49.5 Z"/></g>
<g><path style="opacity:1" fill="#091041" d="M 534.5,50.5 C 537.833,50.5 541.167,50.5 544.5,50.5C 544.5,54.1667 544.5,57.8333 544.5,61.5C 536.789,61.2161 533.789,64.8828 535.5,72.5C 538.5,72.5 541.5,72.5 544.5,72.5C 544.5,76.1667 544.5,79.8333 544.5,83.5C 541.5,83.5 538.5,83.5 535.5,83.5C 535.5,98.1667 535.5,112.833 535.5,127.5C 530.833,127.5 526.167,127.5 521.5,127.5C 521.5,112.833 521.5,98.1667 521.5,83.5C 519.167,83.5 516.833,83.5 514.5,83.5C 514.5,79.8333 514.5,76.1667 514.5,72.5C 516.833,72.5 519.167,72.5 521.5,72.5C 519.759,61.2835 524.093,53.9502 534.5,50.5 Z"/></g>
<g><path style="opacity:1" fill="#0a1041" d="M 362.5,127.5 C 358.167,127.5 353.833,127.5 349.5,127.5C 350.811,119.201 349.144,118.034 344.5,124C 328.595,132.255 316.428,128.421 308,112.5C 301.972,95.5804 306.472,82.4137 321.5,73C 331.39,69.6985 340.057,71.5319 347.5,78.5C 347.56,79.0431 347.893,79.3764 348.5,79.5C 349.498,71.1932 349.831,62.8599 349.5,54.5C 353.833,54.5 358.167,54.5 362.5,54.5C 362.5,78.8333 362.5,103.167 362.5,127.5 Z"/></g>
<g><path style="opacity:1" fill="#656a89" d="M 362.5,127.5 C 362.5,103.167 362.5,78.8333 362.5,54.5C 358.167,54.5 353.833,54.5 349.5,54.5C 349.831,62.8599 349.498,71.1932 348.5,79.5C 347.893,79.3764 347.56,79.0431 347.5,78.5C 348.493,70.3501 348.826,62.0168 348.5,53.5C 353.5,53.5 358.5,53.5 363.5,53.5C 363.831,78.339 363.498,103.006 362.5,127.5 Z"/></g>
<g><path style="opacity:1" fill="#2e325d" d="M 229.5,58.5 C 225.167,58.5 220.833,58.5 216.5,58.5C 216.5,81.1667 216.5,103.833 216.5,126.5C 220.833,126.5 225.167,126.5 229.5,126.5C 225.03,127.486 220.363,127.819 215.5,127.5C 215.5,104.167 215.5,80.8333 215.5,57.5C 220.363,57.1805 225.03,57.5139 229.5,58.5 Z"/></g>
<g><path style="opacity:1" fill="#060c3f" d="M 229.5,58.5 C 229.5,81.1667 229.5,103.833 229.5,126.5C 225.167,126.5 220.833,126.5 216.5,126.5C 216.5,103.833 216.5,81.1667 216.5,58.5C 220.833,58.5 225.167,58.5 229.5,58.5 Z"/></g>
<g><path style="opacity:1" fill="#070f40" d="M 257.5,96.5 C 256.506,106.319 256.173,116.319 256.5,126.5C 252.167,126.5 247.833,126.5 243.5,126.5C 243.5,108.5 243.5,90.5 243.5,72.5C 248.167,72.5 252.833,72.5 257.5,72.5C 257.338,74.5273 257.505,76.5273 258,78.5C 268.297,69.516 278.963,69.1827 290,77.5C 291.92,80.3388 293.587,83.3388 295,86.5C 295.5,100.163 295.667,113.829 295.5,127.5C 291.167,127.5 286.833,127.5 282.5,127.5C 282.667,116.162 282.5,104.828 282,93.5C 279.298,84.73 273.464,81.5633 264.5,84C 259.679,86.8123 257.345,90.9789 257.5,96.5 Z"/></g>
<g><path style="opacity:1" fill="#0a1041" d="M 393.5,71.5 C 416.895,69.565 428.228,80.2317 427.5,103.5C 414.167,103.5 400.833,103.5 387.5,103.5C 388.737,113.56 394.404,117.727 404.5,116C 407.368,115.139 409.702,113.472 411.5,111C 416.5,110.333 421.5,110.333 426.5,111C 418.326,127.079 405.659,132.079 388.5,126C 380.388,121.946 375.555,115.446 374,106.5C 370.686,89.1096 377.186,77.443 393.5,71.5 Z"/></g>
<g><path style="opacity:1" fill="#0a1041" d="M 432.5,73.5 C 437.68,72.1853 443.014,72.1853 448.5,73.5C 451.805,78.6383 455.305,83.6383 459,88.5C 462.666,83.838 465.833,78.838 468.5,73.5C 473.467,72.3377 478.467,72.1711 483.5,73C 477.327,81.6792 471.66,90.6792 466.5,100C 472.036,108.902 477.702,117.735 483.5,126.5C 478.533,127.662 473.533,127.829 468.5,127C 465.036,121.238 461.203,115.738 457,110.5C 454.085,115.998 450.919,121.332 447.5,126.5C 442.533,127.662 437.533,127.829 432.5,127C 438.624,117.919 444.624,108.752 450.5,99.5C 444.832,90.5167 438.832,81.85 432.5,73.5 Z"/></g>
<g><path style="opacity:1" fill="#060d3f" d="M 492.5,72.5 C 496.833,72.5 501.167,72.5 505.5,72.5C 505.5,90.8333 505.5,109.167 505.5,127.5C 501.167,127.5 496.833,127.5 492.5,127.5C 492.5,109.167 492.5,90.8333 492.5,72.5 Z"/></g>
<g><path style="opacity:1" fill="#0a1041" d="M 548.5,72.5 C 553.762,72.1953 558.928,72.5286 564,73.5C 567.964,85.4185 572.464,97.0852 577.5,108.5C 582.425,96.9761 587.092,85.3094 591.5,73.5C 596.5,72.1667 601.5,72.1667 606.5,73.5C 595.316,99.8636 584.149,126.197 573,152.5C 568.263,153.469 563.43,153.803 558.5,153.5C 562.15,144.193 565.817,134.86 569.5,125.5C 562.207,107.919 555.207,90.2521 548.5,72.5 Z"/></g>
<g><path style="opacity:1" fill="#f7f7f9" d="M 396.5,82.5 C 405.986,81.3886 411.652,85.3886 413.5,94.5C 404.833,94.5 396.167,94.5 387.5,94.5C 388.256,88.7525 391.256,84.7525 396.5,82.5 Z"/></g>
<g><path style="opacity:1" fill="#fafafb" d="M 330.5,83.5 C 347.97,85.0858 353.137,94.0858 346,110.5C 341.158,115.299 335.325,116.799 328.5,115C 321.222,110.097 318.389,103.264 320,94.5C 322.046,89.29 325.546,85.6233 330.5,83.5 Z"/></g>
<g><path style="opacity:1" fill="#0a1041" d="M 88.5,95.5 C 99.7595,94.1489 110.426,95.9823 120.5,101C 135.474,113.804 150.307,113.637 165,100.5C 164.795,108.961 162.628,116.961 158.5,124.5C 149.532,128.689 140.198,129.523 130.5,127C 122.379,123.44 114.712,119.107 107.5,114C 102.238,112.561 96.9042,112.228 91.5,113C 83.4022,118.1 75.0689,122.767 66.5,127C 56.7851,129.58 47.4518,128.746 38.5,124.5C 34.7537,116.842 32.587,108.842 32,100.5C 36.563,104.06 41.3963,107.227 46.5,110C 51.5,110.667 56.5,110.667 61.5,110C 70.2751,104.615 79.2751,99.7812 88.5,95.5 Z"/></g>
<g><path style="opacity:1" fill="#3d4369" d="M 257.5,96.5 C 257.5,106.833 257.5,117.167 257.5,127.5C 252.637,127.819 247.97,127.486 243.5,126.5C 247.833,126.5 252.167,126.5 256.5,126.5C 256.173,116.319 256.506,106.319 257.5,96.5 Z"/></g>
<g><path style="opacity:1" fill="#0a1141" d="M 91.5,129.5 C 105.943,128.44 118.609,132.607 129.5,142C 132.866,144.184 136.533,145.517 140.5,146C 135.063,151.053 128.73,154.553 121.5,156.5C 117.204,154.016 112.871,151.516 108.5,149C 102.585,147.473 96.5851,147.139 90.5,148C 85.9022,150.27 81.5689,152.937 77.5,156C 69.4753,155.013 62.4753,151.68 56.5,146C 60.0094,145.578 63.3428,144.578 66.5,143C 74.0861,136.867 82.4194,132.367 91.5,129.5 Z"/></g>
</svg>
