<?xml version="1.0" encoding="UTF-8"?>
<!DOCTYPE svg PUBLIC "-//W3C//DTD SVG 1.1//EN" "http://www.w3.org/Graphics/SVG/1.1/DTD/svg11.dtd">
<svg xmlns="http://www.w3.org/2000/svg" version="1.1" width="3000px" height="860px" style="shape-rendering:geometricPrecision; text-rendering:geometricPrecision; image-rendering:optimizeQuality; fill-rule:evenodd; clip-rule:evenodd" xmlns:xlink="http://www.w3.org/1999/xlink">
<g><path style="opacity:0.455" fill="#d2d2d2" d="M 1899.5,141.5 C 1917.16,140.833 1935,140.5 1953,140.5C 1971.18,140.5 1989.01,141.167 2006.5,142.5C 1970.91,141.507 1935.24,141.174 1899.5,141.5 Z"/></g>
<g><path style="opacity:0.998" fill="#464646" d="M 1010.5,141.5 C 1036.17,141.5 1061.83,141.5 1087.5,141.5C 1087.17,312.334 1087.5,483.001 1088.5,653.5C 1185,654.499 1281.67,654.833 1378.5,654.5C 1378.5,677.5 1378.5,700.5 1378.5,723.5C 1255.5,723.5 1132.5,723.5 1009.5,723.5C 1009.17,529.333 1009.5,335.333 1010.5,141.5 Z"/></g>
<g><path style="opacity:0.998" fill="#464646" d="M 1454.5,141.5 C 1480.17,141.5 1505.83,141.5 1531.5,141.5C 1531.17,312.334 1531.5,483.001 1532.5,653.5C 1629,654.499 1725.67,654.833 1822.5,654.5C 1822.5,677.5 1822.5,700.5 1822.5,723.5C 1699.5,723.5 1576.5,723.5 1453.5,723.5C 1453.17,529.333 1453.5,335.333 1454.5,141.5 Z"/></g>
<g><path style="opacity:1" fill="#464646" d="M 1899.5,141.5 C 1935.24,141.174 1970.91,141.507 2006.5,142.5C 2008.01,144.181 2009.01,146.181 2009.5,148.5C 2009.16,150.483 2009.82,151.817 2011.5,152.5C 2018.88,166.99 2025.88,181.656 2032.5,196.5C 2032.16,198.483 2032.82,199.817 2034.5,200.5C 2037.77,206.708 2040.77,213.041 2043.5,219.5C 2043.16,221.483 2043.82,222.817 2045.5,223.5C 2048.77,229.708 2051.77,236.041 2054.5,242.5C 2054.16,244.483 2054.82,245.817 2056.5,246.5C 2059.77,252.708 2062.77,259.041 2065.5,265.5C 2065.16,267.483 2065.82,268.817 2067.5,269.5C 2074.88,283.99 2081.88,298.656 2088.5,313.5C 2088.16,315.483 2088.82,316.817 2090.5,317.5C 2093.77,323.708 2096.77,330.041 2099.5,336.5C 2099.16,338.483 2099.82,339.817 2101.5,340.5C 2104.77,346.708 2107.77,353.041 2110.5,359.5C 2110.16,361.483 2110.82,362.817 2112.5,363.5C 2119.88,377.99 2126.88,392.656 2133.5,407.5C 2133.16,409.483 2133.82,410.817 2135.5,411.5C 2138.77,417.708 2141.77,424.041 2144.5,430.5C 2144.16,432.483 2144.82,433.817 2146.5,434.5C 2151.38,443.589 2155.71,452.922 2159.5,462.5C 2159.37,463.239 2159.54,463.906 2160,464.5C 2161.19,463.437 2161.69,462.103 2161.5,460.5C 2161.99,458.181 2162.99,456.181 2164.5,454.5C 2166.21,453.365 2166.88,451.698 2166.5,449.5C 2169.78,441.326 2173.45,433.326 2177.5,425.5C 2179.18,424.817 2179.84,423.483 2179.5,421.5C 2209.66,355.191 2240.32,289.191 2271.5,223.5C 2273.21,222.365 2273.88,220.698 2273.5,218.5C 2280.6,201.833 2288.27,185.499 2296.5,169.5C 2298.21,168.365 2298.88,166.698 2298.5,164.5C 2301.6,156.497 2305.27,148.83 2309.5,141.5C 2345.5,141.5 2381.5,141.5 2417.5,141.5C 2417.5,335.5 2417.5,529.5 2417.5,723.5C 2391.83,723.5 2366.17,723.5 2340.5,723.5C 2340.83,557.165 2340.5,390.832 2339.5,224.5C 2338.7,224.957 2338.37,225.624 2338.5,226.5C 2337.89,227.391 2337.56,228.391 2337.5,229.5C 2331.01,244.479 2324.01,259.146 2316.5,273.5C 2315.07,274.78 2314.4,276.447 2314.5,278.5C 2297.4,315.836 2279.73,352.836 2261.5,389.5C 2260.07,390.78 2259.4,392.447 2259.5,394.5C 2242.4,431.836 2224.73,468.836 2206.5,505.5C 2205.07,506.78 2204.4,508.447 2204.5,510.5C 2199.92,521.924 2194.59,532.924 2188.5,543.5C 2187.07,544.78 2186.4,546.447 2186.5,548.5C 2184.58,553.51 2182.25,558.343 2179.5,563C 2163.84,563.5 2148.17,563.667 2132.5,563.5C 2132.07,562.29 2131.4,561.29 2130.5,560.5C 2128.33,557.485 2126.66,554.151 2125.5,550.5C 2125.29,547.759 2124.29,545.426 2122.5,543.5C 2119.99,539.818 2117.99,535.818 2116.5,531.5C 2116.6,529.447 2115.93,527.78 2114.5,526.5C 2111.99,522.818 2109.99,518.818 2108.5,514.5C 2108.6,512.447 2107.93,510.78 2106.5,509.5C 2103.99,505.818 2101.99,501.818 2100.5,497.5C 2100.6,495.447 2099.93,493.78 2098.5,492.5C 2095.99,488.818 2093.99,484.818 2092.5,480.5C 2092.6,478.447 2091.93,476.78 2090.5,475.5C 2087.99,471.818 2085.99,467.818 2084.5,463.5C 2084.6,461.447 2083.93,459.78 2082.5,458.5C 2079.99,454.818 2077.99,450.818 2076.5,446.5C 2076.6,444.447 2075.93,442.78 2074.5,441.5C 2071.99,437.818 2069.99,433.818 2068.5,429.5C 2068.6,427.447 2067.93,425.78 2066.5,424.5C 2064.33,421.485 2062.66,418.151 2061.5,414.5C 2061.29,411.759 2060.29,409.426 2058.5,407.5C 2055.99,403.818 2053.99,399.818 2052.5,395.5C 2052.6,393.447 2051.93,391.78 2050.5,390.5C 2047.99,386.818 2045.99,382.818 2044.5,378.5C 2044.6,376.447 2043.93,374.78 2042.5,373.5C 2039.99,369.818 2037.99,365.818 2036.5,361.5C 2036.6,359.447 2035.93,357.78 2034.5,356.5C 2031.99,352.818 2029.99,348.818 2028.5,344.5C 2028.6,342.447 2027.93,340.78 2026.5,339.5C 2023.99,335.818 2021.99,331.818 2020.5,327.5C 2020.6,325.447 2019.93,323.78 2018.5,322.5C 2015.99,318.818 2013.99,314.818 2012.5,310.5C 2012.6,308.447 2011.93,306.78 2010.5,305.5C 2007.99,301.818 2005.99,297.818 2004.5,293.5C 2004.6,291.447 2003.93,289.78 2002.5,288.5C 1999.99,284.818 1997.99,280.818 1996.5,276.5C 1996.6,274.447 1995.93,272.78 1994.5,271.5C 1991.99,267.818 1989.99,263.818 1988.5,259.5C 1988.6,257.447 1987.93,255.78 1986.5,254.5C 1983.99,250.818 1981.99,246.818 1980.5,242.5C 1980.6,240.447 1979.93,238.78 1978.5,237.5C 1976.66,235.151 1975.33,232.485 1974.5,229.5C 1974.17,228.167 1973.83,226.833 1973.5,225.5C 1973.22,224.711 1972.72,224.044 1972,223.5C 1971.5,390.166 1971.33,556.833 1971.5,723.5C 1947.17,723.5 1922.83,723.5 1898.5,723.5C 1898.17,529.333 1898.5,335.333 1899.5,141.5 Z"/></g>
<g><path style="opacity:1" fill="#a8a8a8" d="M 2009.5,148.5 C 2010.67,149.514 2011.34,150.847 2011.5,152.5C 2009.82,151.817 2009.16,150.483 2009.5,148.5 Z"/></g>
<g><path style="opacity:1" fill="#a7a7a7" d="M 2298.5,164.5 C 2298.88,166.698 2298.21,168.365 2296.5,169.5C 2296.4,167.447 2297.07,165.78 2298.5,164.5 Z"/></g>
<g><path style="opacity:1" fill="#aaaaaa" d="M 2032.5,196.5 C 2033.67,197.514 2034.34,198.847 2034.5,200.5C 2032.82,199.817 2032.16,198.483 2032.5,196.5 Z"/></g>
<g><path style="opacity:1" fill="#a5a5a5" d="M 2273.5,218.5 C 2273.88,220.698 2273.21,222.365 2271.5,223.5C 2271.4,221.447 2272.07,219.78 2273.5,218.5 Z"/></g>
<g><path style="opacity:1" fill="#a8a8a8" d="M 2043.5,219.5 C 2044.67,220.514 2045.34,221.847 2045.5,223.5C 2043.82,222.817 2043.16,221.483 2043.5,219.5 Z"/></g>
<g><path style="opacity:1" fill="#7d7d7d" d="M 1973.5,225.5 C 1972.5,380.332 1972.17,535.332 1972.5,690.5C 1972.83,701.679 1972.49,712.679 1971.5,723.5C 1971.33,556.833 1971.5,390.166 1972,223.5C 1972.72,224.044 1973.22,224.711 1973.5,225.5 Z"/></g>
<g><path style="opacity:1" fill="#989898" d="M 2340.5,723.5 C 2339.51,713.013 2339.17,702.346 2339.5,691.5C 2339.83,536.332 2339.5,381.332 2338.5,226.5C 2338.37,225.624 2338.7,224.957 2339.5,224.5C 2340.5,390.832 2340.83,557.165 2340.5,723.5 Z"/></g>
<g><path style="opacity:0.071" fill="#fefefe" d="M 1973.5,225.5 C 1973.83,226.833 1974.17,228.167 1974.5,229.5C 1973.83,383.167 1973.17,536.833 1972.5,690.5C 1972.17,535.332 1972.5,380.332 1973.5,225.5 Z"/></g>
<g><path style="opacity:0.071" fill="#fefefe" d="M 2338.5,226.5 C 2339.5,381.332 2339.83,536.332 2339.5,691.5C 2338.83,537.5 2338.17,383.5 2337.5,229.5C 2337.56,228.391 2337.89,227.391 2338.5,226.5 Z"/></g>
<g><path style="opacity:0.125" fill="#d8d8d8" d="M 1978.5,237.5 C 1979.93,238.78 1980.6,240.447 1980.5,242.5C 1979.07,241.22 1978.4,239.553 1978.5,237.5 Z"/></g>
<g><path style="opacity:1" fill="#a6a6a6" d="M 2054.5,242.5 C 2055.67,243.514 2056.34,244.847 2056.5,246.5C 2054.82,245.817 2054.16,244.483 2054.5,242.5 Z"/></g>
<g><path style="opacity:0.125" fill="#d8d8d8" d="M 1986.5,254.5 C 1987.93,255.78 1988.6,257.447 1988.5,259.5C 1987.07,258.22 1986.4,256.553 1986.5,254.5 Z"/></g>
<g><path style="opacity:0.359" fill="#7a7a7a" d="M 1010.5,141.5 C 1036.33,140.502 1062.33,140.169 1088.5,140.5C 1088.5,311.5 1088.5,482.5 1088.5,653.5C 1087.5,483.001 1087.17,312.334 1087.5,141.5C 1061.83,141.5 1036.17,141.5 1010.5,141.5 Z"/></g>
<g><path style="opacity:0.359" fill="#7a7a7a" d="M 1454.5,141.5 C 1480.33,140.502 1506.33,140.169 1532.5,140.5C 1532.5,311.5 1532.5,482.5 1532.5,653.5C 1531.5,483.001 1531.17,312.334 1531.5,141.5C 1505.83,141.5 1480.17,141.5 1454.5,141.5 Z"/></g>
<g><path style="opacity:1" fill="#a5a5a5" d="M 2065.5,265.5 C 2066.67,266.514 2067.34,267.847 2067.5,269.5C 2065.82,268.817 2065.16,267.483 2065.5,265.5 Z"/></g>
<g><path style="opacity:0.129" fill="#d8d8d8" d="M 1994.5,271.5 C 1995.93,272.78 1996.6,274.447 1996.5,276.5C 1995.07,275.22 1994.4,273.553 1994.5,271.5 Z"/></g>
<g><path style="opacity:0.165" fill="#d9d9d9" d="M 2316.5,273.5 C 2316.6,275.553 2315.93,277.22 2314.5,278.5C 2314.4,276.447 2315.07,274.78 2316.5,273.5 Z"/></g>
<g><path style="opacity:0.125" fill="#d4e4fe" d="M 914.5,288.5 C 915.209,287.596 916.209,287.263 917.5,287.5C 917.768,289.099 917.434,290.432 916.5,291.5C 916.715,289.821 916.048,288.821 914.5,288.5 Z"/></g>
<g><path style="opacity:1" fill="#63a1fb" d="M 914.5,288.5 C 916.048,288.821 916.715,289.821 916.5,291.5C 877.696,436.378 839.029,581.378 800.5,726.5C 756.172,727.5 711.838,727.833 667.5,727.5C 666.167,727.5 665.5,726.833 665.5,725.5C 667.706,715.007 670.373,704.673 673.5,694.5C 674.461,691.574 675.127,688.574 675.5,685.5C 675.366,683.708 675.699,682.042 676.5,680.5C 678.163,678.562 678.829,676.228 678.5,673.5C 678.5,673.167 678.5,672.833 678.5,672.5C 680.41,669.548 681.41,666.214 681.5,662.5C 682.033,658.035 683.033,653.702 684.5,649.5C 686.744,645.207 688.077,640.54 688.5,635.5C 688.232,633.901 688.566,632.568 689.5,631.5C 692.258,624.14 694.258,616.473 695.5,608.5C 695.7,605.37 696.366,602.37 697.5,599.5C 699.744,595.207 701.077,590.54 701.5,585.5C 701.565,582.572 702.232,579.905 703.5,577.5C 705.924,571.474 707.591,565.141 708.5,558.5C 708.232,556.901 708.566,555.568 709.5,554.5C 711.924,548.474 713.591,542.141 714.5,535.5C 716.04,533.162 716.706,530.495 716.5,527.5C 716.5,527.167 716.5,526.833 716.5,526.5C 719.077,520.869 720.744,514.869 721.5,508.5C 721.7,505.37 722.366,502.37 723.5,499.5C 725.744,495.207 727.077,490.54 727.5,485.5C 727.232,483.901 727.566,482.568 728.5,481.5C 731.258,474.14 733.258,466.473 734.5,458.5C 734.7,455.37 735.366,452.37 736.5,449.5C 738.744,445.207 740.077,440.54 740.5,435.5C 740.565,432.572 741.232,429.905 742.5,427.5C 744.924,421.474 746.591,415.141 747.5,408.5C 747.232,406.901 747.566,405.568 748.5,404.5C 750.924,398.474 752.591,392.141 753.5,385.5C 753.565,382.572 754.232,379.905 755.5,377.5C 756.677,375.321 757.677,372.987 758.5,370.5C 760.849,368.659 763.515,367.326 766.5,366.5C 768.848,366.408 770.514,365.408 771.5,363.5C 775.849,360.659 780.516,358.326 785.5,356.5C 787.848,356.408 789.514,355.408 790.5,353.5C 794.182,350.992 798.182,348.992 802.5,347.5C 804.027,347.573 805.027,346.906 805.5,345.5C 810.516,342.326 815.849,339.659 821.5,337.5C 823.027,337.573 824.027,336.906 824.5,335.5C 829.516,332.326 834.849,329.659 840.5,327.5C 842.027,327.573 843.027,326.906 843.5,325.5C 848.516,322.326 853.849,319.659 859.5,317.5C 861.027,317.573 862.027,316.906 862.5,315.5C 867.516,312.326 872.849,309.659 878.5,307.5C 880.027,307.573 881.027,306.906 881.5,305.5C 887.849,301.659 894.516,298.325 901.5,295.5C 903.027,295.573 904.027,294.906 904.5,293.5C 907.515,291.326 910.849,289.659 914.5,288.5 Z"/></g>
<g><path style="opacity:0.129" fill="#d9d9d9" d="M 2002.5,288.5 C 2003.93,289.78 2004.6,291.447 2004.5,293.5C 2003.07,292.22 2002.4,290.553 2002.5,288.5 Z"/></g>
<g><path style="opacity:0.784" fill="#c8dcfd" d="M 904.5,293.5 C 904.027,294.906 903.027,295.573 901.5,295.5C 901.973,294.094 902.973,293.427 904.5,293.5 Z"/></g>
<g><path style="opacity:0.993" fill="#d7d8d9" d="M 916.5,291.5 C 915.943,293.949 915.943,296.282 916.5,298.5C 919.027,296.529 921.693,295.863 924.5,296.5C 885.989,442.21 847.323,587.877 808.5,733.5C 762.833,734.833 717.167,734.833 671.5,733.5C 670.533,731.21 669.2,729.21 667.5,727.5C 711.838,727.833 756.172,727.5 800.5,726.5C 839.029,581.378 877.696,436.378 916.5,291.5 Z"/></g>
<g><path style="opacity:0.784" fill="#d6e4fc" d="M 881.5,305.5 C 881.027,306.906 880.027,307.573 878.5,307.5C 878.973,306.094 879.973,305.427 881.5,305.5 Z"/></g>
<g><path style="opacity:0.133" fill="#d9d9d9" d="M 2010.5,305.5 C 2011.93,306.78 2012.6,308.447 2012.5,310.5C 2011.07,309.22 2010.4,307.553 2010.5,305.5 Z"/></g>
<g><path style="opacity:0.8" fill="#d6e4fe" d="M 862.5,315.5 C 862.027,316.906 861.027,317.573 859.5,317.5C 859.973,316.094 860.973,315.427 862.5,315.5 Z"/></g>
<g><path style="opacity:1" fill="#a7a7a7" d="M 2088.5,313.5 C 2089.67,314.514 2090.34,315.847 2090.5,317.5C 2088.82,316.817 2088.16,315.483 2088.5,313.5 Z"/></g>
<g><path style="opacity:0.137" fill="#d7d7d7" d="M 2018.5,322.5 C 2019.93,323.78 2020.6,325.447 2020.5,327.5C 2019.07,326.22 2018.4,324.553 2018.5,322.5 Z"/></g>
<g><path style="opacity:0.792" fill="#d4e4fd" d="M 843.5,325.5 C 843.027,326.906 842.027,327.573 840.5,327.5C 840.973,326.094 841.973,325.427 843.5,325.5 Z"/></g>
<g><path style="opacity:0.776" fill="#d6e5fd" d="M 824.5,335.5 C 824.027,336.906 823.027,337.573 821.5,337.5C 821.973,336.094 822.973,335.427 824.5,335.5 Z"/></g>
<g><path style="opacity:1" fill="#a6a6a6" d="M 2099.5,336.5 C 2100.67,337.514 2101.34,338.847 2101.5,340.5C 2099.82,339.817 2099.16,338.483 2099.5,336.5 Z"/></g>
<g><path style="opacity:0.137" fill="#d7d7d7" d="M 2026.5,339.5 C 2027.93,340.78 2028.6,342.447 2028.5,344.5C 2027.07,343.22 2026.4,341.553 2026.5,339.5 Z"/></g>
<g><path style="opacity:0.761" fill="#d7e5fd" d="M 805.5,345.5 C 805.027,346.906 804.027,347.573 802.5,347.5C 802.973,346.094 803.973,345.427 805.5,345.5 Z"/></g>
<g><path style="opacity:0.808" fill="#c2d7fd" d="M 790.5,353.5 C 789.514,355.408 787.848,356.408 785.5,356.5C 786.659,354.75 788.326,353.75 790.5,353.5 Z"/></g>
<g><path style="opacity:0.137" fill="#d9d9d9" d="M 2034.5,356.5 C 2035.93,357.78 2036.6,359.447 2036.5,361.5C 2035.07,360.22 2034.4,358.553 2034.5,356.5 Z"/></g>
<g><path style="opacity:1" fill="#a5a5a5" d="M 2110.5,359.5 C 2111.67,360.514 2112.34,361.847 2112.5,363.5C 2110.82,362.817 2110.16,361.483 2110.5,359.5 Z"/></g>
<g><path style="opacity:0.8" fill="#c2d6fe" d="M 771.5,363.5 C 770.514,365.408 768.848,366.408 766.5,366.5C 767.659,364.75 769.326,363.75 771.5,363.5 Z"/></g>
<g><path style="opacity:0.137" fill="#d9d9d9" d="M 2042.5,373.5 C 2043.93,374.78 2044.6,376.447 2044.5,378.5C 2043.07,377.22 2042.4,375.553 2042.5,373.5 Z"/></g>
<g><path style="opacity:0.8" fill="#c5dafc" d="M 758.5,370.5 C 757.677,372.987 756.677,375.321 755.5,377.5C 755.179,374.423 756.179,372.09 758.5,370.5 Z"/></g>
<g><path style="opacity:1" fill="#ebb432" d="M 664.5,381.5 C 664.5,495.833 664.5,610.167 664.5,724.5C 658.441,714.056 652.608,703.389 647,692.5C 594.94,589.047 543.44,485.381 492.5,381.5C 549.833,381.5 607.167,381.5 664.5,381.5 Z"/></g>
<g><path style="opacity:1" fill="#dad7d1" d="M 664.5,381.5 C 664.132,387.132 666.798,389.799 672.5,389.5C 672.5,390.5 672.5,391.5 672.5,392.5C 672.167,493.335 672.501,594.001 673.5,694.5C 670.373,704.673 667.706,715.007 665.5,725.5C 664.833,725.5 664.5,725.167 664.5,724.5C 664.5,610.167 664.5,495.833 664.5,381.5 Z"/></g>
<g><path style="opacity:0.141" fill="#dadada" d="M 2050.5,390.5 C 2051.93,391.78 2052.6,393.447 2052.5,395.5C 2051.07,394.22 2050.4,392.553 2050.5,390.5 Z"/></g>
<g><path style="opacity:0.076" fill="#fefefe" d="M 672.5,392.5 C 673.333,490.999 673.833,589.666 674,688.5C 674.232,687.263 674.732,686.263 675.5,685.5C 675.127,688.574 674.461,691.574 673.5,694.5C 672.501,594.001 672.167,493.335 672.5,392.5 Z"/></g>
<g><path style="opacity:0.992" fill="#c5dafd" d="M 753.5,385.5 C 752.591,392.141 750.924,398.474 748.5,404.5C 749.409,397.859 751.076,391.526 753.5,385.5 Z"/></g>
<g><path style="opacity:0.188" fill="#d8d8d8" d="M 2261.5,389.5 C 2261.6,391.553 2260.93,393.22 2259.5,394.5C 2259.4,392.447 2260.07,390.78 2261.5,389.5 Z"/></g>
<g><path style="opacity:0.125" fill="#d6d6d6" d="M 2058.5,407.5 C 2060.29,409.426 2061.29,411.759 2061.5,414.5C 2059.71,412.574 2058.71,410.241 2058.5,407.5 Z"/></g>
<g><path style="opacity:1" fill="#a8a8a8" d="M 2133.5,407.5 C 2134.67,408.514 2135.34,409.847 2135.5,411.5C 2133.82,410.817 2133.16,409.483 2133.5,407.5 Z"/></g>
<g><path style="opacity:0.973" fill="#c7dbfd" d="M 747.5,408.5 C 746.591,415.141 744.924,421.474 742.5,427.5C 743.409,420.859 745.076,414.526 747.5,408.5 Z"/></g>
<g><path style="opacity:1" fill="#a6a6a6" d="M 2179.5,421.5 C 2179.84,423.483 2179.18,424.817 2177.5,425.5C 2177.66,423.847 2178.33,422.514 2179.5,421.5 Z"/></g>
<g><path style="opacity:0.125" fill="#dcdcdc" d="M 2066.5,424.5 C 2067.93,425.78 2068.6,427.447 2068.5,429.5C 2067.07,428.22 2066.4,426.553 2066.5,424.5 Z"/></g>
<g><path style="opacity:1" fill="#a7a7a7" d="M 2144.5,430.5 C 2145.67,431.514 2146.34,432.847 2146.5,434.5C 2144.82,433.817 2144.16,432.483 2144.5,430.5 Z"/></g>
<g><path style="opacity:0.98" fill="#caddfd" d="M 740.5,435.5 C 740.077,440.54 738.744,445.207 736.5,449.5C 737.233,444.555 738.566,439.888 740.5,435.5 Z"/></g>
<g><path style="opacity:0.125" fill="#dcdcdc" d="M 2074.5,441.5 C 2075.93,442.78 2076.6,444.447 2076.5,446.5C 2075.07,445.22 2074.4,443.553 2074.5,441.5 Z"/></g>
<g><path style="opacity:1" fill="#a8a8a8" d="M 2166.5,449.5 C 2166.88,451.698 2166.21,453.365 2164.5,454.5C 2164.4,452.447 2165.07,450.78 2166.5,449.5 Z"/></g>
<g><path style="opacity:0.129" fill="#dadada" d="M 2082.5,458.5 C 2083.93,459.78 2084.6,461.447 2084.5,463.5C 2083.07,462.22 2082.4,460.553 2082.5,458.5 Z"/></g>
<g><path style="opacity:1" fill="#b9b9b9" d="M 2161.5,460.5 C 2161.69,462.103 2161.19,463.437 2160,464.5C 2159.54,463.906 2159.37,463.239 2159.5,462.5C 2160.17,461.833 2160.83,461.167 2161.5,460.5 Z"/></g>
<g><path style="opacity:0.965" fill="#c4dafd" d="M 734.5,458.5 C 733.258,466.473 731.258,474.14 728.5,481.5C 729.742,473.527 731.742,465.86 734.5,458.5 Z"/></g>
<g><path style="opacity:0.133" fill="#dadada" d="M 2090.5,475.5 C 2091.93,476.78 2092.6,478.447 2092.5,480.5C 2091.07,479.22 2090.4,477.553 2090.5,475.5 Z"/></g>
<g><path style="opacity:0.98" fill="#caddfe" d="M 727.5,485.5 C 727.077,490.54 725.744,495.207 723.5,499.5C 724.233,494.555 725.566,489.888 727.5,485.5 Z"/></g>
<g><path style="opacity:0.133" fill="#dadada" d="M 2098.5,492.5 C 2099.93,493.78 2100.6,495.447 2100.5,497.5C 2099.07,496.22 2098.4,494.553 2098.5,492.5 Z"/></g>
<g><path style="opacity:0.192" fill="#d8d8d8" d="M 2206.5,505.5 C 2206.6,507.553 2205.93,509.22 2204.5,510.5C 2204.4,508.447 2205.07,506.78 2206.5,505.5 Z"/></g>
<g><path style="opacity:0.137" fill="#dbdbdb" d="M 2106.5,509.5 C 2107.93,510.78 2108.6,512.447 2108.5,514.5C 2107.07,513.22 2106.4,511.553 2106.5,509.5 Z"/></g>
<g><path style="opacity:0.965" fill="#ccdefd" d="M 721.5,508.5 C 720.744,514.869 719.077,520.869 716.5,526.5C 717.566,520.224 719.233,514.224 721.5,508.5 Z"/></g>
<g><path style="opacity:0.137" fill="#dbdbdb" d="M 2114.5,526.5 C 2115.93,527.78 2116.6,529.447 2116.5,531.5C 2115.07,530.22 2114.4,528.553 2114.5,526.5 Z"/></g>
<g><path style="opacity:1" fill="#bfd5fd" d="M 716.5,527.5 C 716.706,530.495 716.04,533.162 714.5,535.5C 714.565,532.572 715.232,529.905 716.5,527.5 Z"/></g>
<g><path style="opacity:0.98" fill="#c4dafd" d="M 714.5,535.5 C 713.591,542.141 711.924,548.474 709.5,554.5C 710.409,547.859 712.076,541.526 714.5,535.5 Z"/></g>
<g><path style="opacity:0.184" fill="#d9d9d9" d="M 2188.5,543.5 C 2188.6,545.553 2187.93,547.22 2186.5,548.5C 2186.4,546.447 2187.07,544.78 2188.5,543.5 Z"/></g>
<g><path style="opacity:0.239" fill="#dadada" d="M 2122.5,543.5 C 2124.29,545.426 2125.29,547.759 2125.5,550.5C 2123.71,548.574 2122.71,546.241 2122.5,543.5 Z"/></g>
<g><path style="opacity:0.137" fill="#d3d3d3" d="M 2130.5,560.5 C 2131.4,561.29 2132.07,562.29 2132.5,563.5C 2130.95,563.179 2130.29,562.179 2130.5,560.5 Z"/></g>
<g><path style="opacity:0.973" fill="#c7dbfd" d="M 708.5,558.5 C 707.591,565.141 705.924,571.474 703.5,577.5C 704.409,570.859 706.076,564.526 708.5,558.5 Z"/></g>
<g><path style="opacity:0.949" fill="#d0e1fd" d="M 701.5,585.5 C 701.077,590.54 699.744,595.207 697.5,599.5C 698.233,594.555 699.566,589.888 701.5,585.5 Z"/></g>
<g><path style="opacity:0.88" fill="#b9b9b9" d="M 2309.5,141.5 C 2345.66,140.502 2382,140.168 2418.5,140.5C 2418.83,335.001 2418.5,529.334 2417.5,723.5C 2417.5,529.5 2417.5,335.5 2417.5,141.5C 2381.5,141.5 2345.5,141.5 2309.5,141.5 Z"/></g>
<g><path style="opacity:0.965" fill="#c4d9fd" d="M 695.5,608.5 C 694.258,616.473 692.258,624.14 689.5,631.5C 690.742,623.527 692.742,615.86 695.5,608.5 Z"/></g>
<g><path style="opacity:0.973" fill="#caddfd" d="M 688.5,635.5 C 688.077,640.54 686.744,645.207 684.5,649.5C 685.233,644.555 686.566,639.888 688.5,635.5 Z"/></g>
<g><path style="opacity:0.555" fill="#bcbcbc" d="M 1088.5,653.5 C 1185.5,653.5 1282.5,653.5 1379.5,653.5C 1379.83,677.006 1379.5,700.339 1378.5,723.5C 1378.5,700.5 1378.5,677.5 1378.5,654.5C 1281.67,654.833 1185,654.499 1088.5,653.5 Z"/></g>
<g><path style="opacity:0.555" fill="#bcbcbc" d="M 1532.5,653.5 C 1629.5,653.5 1726.5,653.5 1823.5,653.5C 1823.83,677.006 1823.5,700.339 1822.5,723.5C 1822.5,700.5 1822.5,677.5 1822.5,654.5C 1725.67,654.833 1629,654.499 1532.5,653.5 Z"/></g>
<g><path style="opacity:0.957" fill="#cfdffe" d="M 681.5,662.5 C 681.41,666.214 680.41,669.548 678.5,672.5C 678.899,668.884 679.899,665.55 681.5,662.5 Z"/></g>
<g><path style="opacity:1" fill="#c7dafc" d="M 678.5,673.5 C 678.829,676.228 678.163,678.562 676.5,680.5C 676.721,677.933 677.388,675.599 678.5,673.5 Z"/></g>
</svg>
