<?xml version="1.0" encoding="UTF-8"?>
<!DOCTYPE svg PUBLIC "-//W3C//DTD SVG 1.1//EN" "http://www.w3.org/Graphics/SVG/1.1/DTD/svg11.dtd">
<svg xmlns="http://www.w3.org/2000/svg" version="1.1" width="1616px" height="280px" style="shape-rendering:geometricPrecision; text-rendering:geometricPrecision; image-rendering:optimizeQuality; fill-rule:evenodd; clip-rule:evenodd" xmlns:xlink="http://www.w3.org/1999/xlink">
<g><path style="opacity:1" fill="#fefefe" d="M -0.5,-0.5 C 538.167,-0.5 1076.83,-0.5 1615.5,-0.5C 1615.5,92.8333 1615.5,186.167 1615.5,279.5C 1076.83,279.5 538.167,279.5 -0.5,279.5C -0.5,186.167 -0.5,92.8333 -0.5,-0.5 Z"/></g>
<g><path style="opacity:1" fill="#357efe" d="M 637.5,149.5 C 626.055,156.458 618.555,166.458 615,179.5C 613.605,199.133 613.105,218.8 613.5,238.5C 588.729,236.904 573.062,224.071 566.5,200C 563.861,171.964 575.861,153.298 602.5,144C 609.5,143.333 616.5,143.333 623.5,144C 628.612,144.976 633.278,146.809 637.5,149.5 Z"/></g>
<g><path style="opacity:1" fill="#fe6447" d="M 661.5,143.5 C 661.667,162.17 661.5,180.836 661,199.5C 657.976,213.667 650.476,224.667 638.5,232.5C 630.661,236.558 622.327,238.558 613.5,238.5C 613.105,218.8 613.605,199.133 615,179.5C 618.555,166.458 626.055,156.458 637.5,149.5C 644.816,144.841 652.816,142.841 661.5,143.5 Z"/></g>
<g><path style="opacity:1" fill="#ffdd2e" d="M 661.5,143.5 C 686.203,144.363 702.036,156.696 709,180.5C 712.343,209.671 700.176,228.838 672.5,238C 665.167,238.667 657.833,238.667 650.5,238C 646.05,236.939 642.05,235.105 638.5,232.5C 650.476,224.667 657.976,213.667 661,199.5C 661.5,180.836 661.667,162.17 661.5,143.5 Z"/></g>
<g><path style="opacity:1" fill="#030303" d="M 813.5,194.5 C 812.507,202.984 812.174,211.651 812.5,220.5C 808.167,220.5 803.833,220.5 799.5,220.5C 799.5,201.167 799.5,181.833 799.5,162.5C 803.833,162.5 808.167,162.5 812.5,162.5C 812.334,170.174 812.5,177.841 813,185.5C 820.726,174.306 829.392,173.639 839,183.5C 839.667,184.833 840.333,186.167 841,187.5C 841.5,198.495 841.667,209.495 841.5,220.5C 836.833,220.5 832.167,220.5 827.5,220.5C 827.666,210.828 827.5,201.161 827,191.5C 824.091,188.606 820.591,187.773 816.5,189C 814.84,190.488 813.84,192.321 813.5,194.5 Z"/></g>
<g><path style="opacity:1" fill="#090909" d="M 779.5,204.5 C 783.971,203.911 787.971,204.577 791.5,206.5C 790.438,214.73 785.771,219.563 777.5,221C 760.097,223.27 750.763,215.603 749.5,198C 750.736,184.598 758.069,177.431 771.5,176.5C 783.495,176.836 790.495,182.836 792.5,194.5C 788.116,194.826 783.783,194.492 779.5,193.5C 777.701,187.977 774.035,186.143 768.5,188C 766.951,189.214 765.785,190.714 765,192.5C 764.001,198.019 764.501,203.353 766.5,208.5C 769.208,210.436 772.208,210.936 775.5,210C 777.465,208.544 778.799,206.71 779.5,204.5 Z"/></g>
<g><path style="opacity:1" fill="#010101" d="M 877.5,177.5 C 877.5,181.167 877.5,184.833 877.5,188.5C 874.287,188.19 871.287,188.523 868.5,189.5C 866.496,190.673 864.996,192.34 864,194.5C 863.5,203.16 863.334,211.827 863.5,220.5C 859.167,220.5 854.833,220.5 850.5,220.5C 850.5,206.167 850.5,191.833 850.5,177.5C 854.833,177.5 859.167,177.5 863.5,177.5C 863.336,180.187 863.503,182.854 864,185.5C 866.161,178.513 870.661,175.846 877.5,177.5 Z"/></g>
<g><path style="opacity:1" fill="#080808" d="M 896.5,176.5 C 918.67,176.844 927.17,187.844 922,209.5C 919.833,214.333 916.333,217.833 911.5,220C 892.255,225.049 881.588,217.716 879.5,198C 880.543,187.04 886.21,179.873 896.5,176.5 Z"/></g>
<g><path style="opacity:1" fill="#030303" d="M 953.5,176.5 C 960.455,175.978 965.788,178.644 969.5,184.5C 976.931,174.652 985.098,173.985 994,182.5C 994.667,183.833 995.333,185.167 996,186.5C 996.5,197.828 996.667,209.162 996.5,220.5C 991.833,220.5 987.167,220.5 982.5,220.5C 982.666,210.494 982.5,200.494 982,190.5C 979.503,188.522 976.669,188.022 973.5,189C 972.333,189.5 971.5,190.333 971,191.5C 970.5,201.161 970.334,210.828 970.5,220.5C 966.167,220.5 961.833,220.5 957.5,220.5C 957.666,211.161 957.5,201.827 957,192.5C 954.947,188.708 951.781,187.542 947.5,189C 946.299,189.903 945.465,191.069 945,192.5C 944.5,201.827 944.334,211.161 944.5,220.5C 940.167,220.5 935.833,220.5 931.5,220.5C 931.5,206.167 931.5,191.833 931.5,177.5C 935.833,177.5 940.167,177.5 944.5,177.5C 944.337,179.857 944.503,182.19 945,184.5C 947.074,180.923 949.907,178.256 953.5,176.5 Z"/></g>
<g><path style="opacity:1" fill="#060606" d="M 1018.5,176.5 C 1024.37,176.048 1030.04,176.881 1035.5,179C 1038.67,180.833 1041.17,183.333 1043,186.5C 1043.5,197.828 1043.67,209.162 1043.5,220.5C 1039.17,220.5 1034.83,220.5 1030.5,220.5C 1030.66,218.801 1030.49,217.134 1030,215.5C 1023.44,222.041 1015.94,223.208 1007.5,219C 1003.76,214.521 1002.59,209.354 1004,203.5C 1006.12,199.687 1009.29,197.187 1013.5,196C 1018.23,195.727 1022.9,195.061 1027.5,194C 1030.84,189.32 1029.5,186.82 1023.5,186.5C 1020.91,186.582 1018.91,187.748 1017.5,190C 1002.99,192.909 1000.99,189.576 1011.5,180C 1013.93,178.787 1016.26,177.621 1018.5,176.5 Z"/></g>
<g><path style="opacity:1" fill="#f8f8f8" d="M 898.5,187.5 C 903.439,186.352 906.939,188.019 909,192.5C 909.667,196.833 909.667,201.167 909,205.5C 906.872,211.313 903.039,212.813 897.5,210C 894.588,204.539 893.755,198.706 895,192.5C 895.997,190.677 897.164,189.01 898.5,187.5 Z"/></g>
<g><path style="opacity:1" fill="#989898" d="M 877.5,177.5 C 878.483,181.298 878.817,185.298 878.5,189.5C 875.167,189.5 871.833,189.5 868.5,189.5C 871.287,188.523 874.287,188.19 877.5,188.5C 877.5,184.833 877.5,181.167 877.5,177.5 Z"/></g>
<g><path style="opacity:1" fill="#505050" d="M 813.5,194.5 C 813.5,203.5 813.5,212.5 813.5,221.5C 808.637,221.819 803.97,221.486 799.5,220.5C 803.833,220.5 808.167,220.5 812.5,220.5C 812.174,211.651 812.507,202.984 813.5,194.5 Z"/></g>
<g><path style="opacity:1" fill="#f3f3f3" d="M 1028.5,201.5 C 1031,207.823 1028.84,211.489 1022,212.5C 1016.28,211.616 1015.12,208.783 1018.5,204C 1021.95,203.115 1025.29,202.282 1028.5,201.5 Z"/></g>
<g><path style="opacity:1" fill="#646464" d="M 779.5,204.5 C 783.634,203.515 787.968,203.182 792.5,203.5C 792.737,204.791 792.404,205.791 791.5,206.5C 787.971,204.577 783.971,203.911 779.5,204.5 Z"/></g>
</svg>
