<?xml version="1.0" encoding="UTF-8"?>
<!DOCTYPE svg PUBLIC "-//W3C//DTD SVG 1.1//EN" "http://www.w3.org/Graphics/SVG/1.1/DTD/svg11.dtd">
<svg xmlns="http://www.w3.org/2000/svg" version="1.1" width="980px" height="281px" style="shape-rendering:geometricPrecision; text-rendering:geometricPrecision; image-rendering:optimizeQuality; fill-rule:evenodd; clip-rule:evenodd" xmlns:xlink="http://www.w3.org/1999/xlink">
<g><path style="opacity:0.924" fill="#0f0e10" d="M 470.5,66.5 C 475.5,66.5 480.5,66.5 485.5,66.5C 485.333,83.8365 485.5,101.17 486,118.5C 495.087,107.687 506.753,102.687 521,103.5C 555.044,105.887 571.044,124.22 569,158.5C 562.927,184.893 546.26,198.56 519,199.5C 493.955,198.778 477.955,186.445 471,162.5C 470.5,130.502 470.333,98.5017 470.5,66.5 Z M 512.5,116.5 C 532.986,114.514 546.486,123.181 553,142.5C 555.989,168.005 544.823,182.671 519.5,186.5C 495.181,183.012 484.014,169.012 486,144.5C 489.191,129.755 498.025,120.422 512.5,116.5 Z"/></g>
<g><path style="opacity:0.912" fill="#0f0d10" d="M 691.5,70.5 C 695.514,70.3345 699.514,70.5012 703.5,71C 709.759,76.2473 710.092,81.914 704.5,88C 698.325,91.7766 692.825,90.9433 688,85.5C 685.204,79.4516 686.371,74.4516 691.5,70.5 Z"/></g>
<g><path style="opacity:0.916" fill="#aa58f0" d="M 136.5,60.5 C 145.869,65.8486 155.202,71.1819 164.5,76.5C 163.811,77.7736 162.977,77.7736 162,76.5C 159.945,79.5378 157.945,82.5378 156,85.5C 155.23,84.4019 154.397,84.4019 153.5,85.5C 146.032,81.5983 138.698,77.4316 131.5,73C 129.091,71.2932 126.425,70.4598 123.5,70.5C 122.537,69.6365 122.537,68.9698 123.5,68.5C 129.689,70.1003 133.522,68.1003 135,62.5C 135.718,63.4506 136.551,63.6172 137.5,63C 136.748,62.3292 136.414,61.4959 136.5,60.5 Z"/></g>
<g><path style="opacity:0.921" fill="#0f0d10" d="M 274.5,74.5 C 279.5,74.5 284.5,74.5 289.5,74.5C 289.5,84.8333 289.5,95.1667 289.5,105.5C 307.167,105.5 324.833,105.5 342.5,105.5C 342.797,109.767 342.464,113.934 341.5,118C 324.17,118.5 306.837,118.667 289.5,118.5C 289.333,134.17 289.5,149.837 290,165.5C 293.482,183.278 303.982,189.444 321.5,184C 329.674,178.177 333.674,170.177 333.5,160C 338.155,159.501 342.821,159.334 347.5,159.5C 348.447,184.551 336.447,197.884 311.5,199.5C 290.776,199.741 278.61,189.741 275,169.5C 274.5,137.835 274.333,106.168 274.5,74.5 Z"/></g>
<g><path style="opacity:0.987" fill="#9a63f2" d="M 164.5,76.5 C 173.497,80.9961 182.163,85.9961 190.5,91.5C 187.72,91.1931 185.22,90.1931 183,88.5C 180.843,91.6647 178.343,94.498 175.5,97C 176.5,97.3333 177.5,97.6667 178.5,98C 177.906,98.4643 177.239,98.631 176.5,98.5C 168.663,94.4164 160.997,90.0831 153.5,85.5C 154.397,84.4019 155.23,84.4019 156,85.5C 157.945,82.5378 159.945,79.5378 162,76.5C 162.977,77.7736 163.811,77.7736 164.5,76.5 Z"/></g>
<g><path style="opacity:0.996" fill="#bd4bf0" d="M 106.5,80.5 C 106.389,81.1174 106.056,81.6174 105.5,82C 109.861,84.5117 114.194,87.0117 118.5,89.5C 118.539,90.5832 118.873,91.5832 119.5,92.5C 117.22,96.4632 113.886,98.7965 109.5,99.5C 105.7,97.7664 102.034,95.7664 98.5,93.5C 97.501,103.751 97.1677,114.751 97.5,126.5C 96.6829,124.031 96.1829,121.365 96,118.5C 94.5,120.167 93,121.833 91.5,123.5C 92.0253,124.192 92.6919,124.692 93.5,125C 91.4299,125.948 89.9299,127.448 89,129.5C 87.871,127.859 86.371,126.859 84.5,126.5C 84.1583,115.628 83.1583,104.961 81.5,94.5C 83.2501,93.5268 84.7501,92.1935 86,90.5C 86.6667,91.1667 87.3333,91.8333 88,92.5C 89.6743,91.3235 91.1743,89.9902 92.5,88.5C 93.1924,89.0253 93.6924,89.6919 94,90.5C 95.0086,88.9751 95.5086,87.3084 95.5,85.5C 98.2723,85.4048 100.272,84.0715 101.5,81.5C 102.086,81.7093 102.586,82.0426 103,82.5C 103.71,81.0267 104.876,80.3601 106.5,80.5 Z"/></g>
<g><path style="opacity:0.916" fill="#8375f4" d="M 190.5,91.5 C 193.606,92.7074 196.606,94.2074 199.5,96C 201.037,97.1096 201.703,98.6096 201.5,100.5C 200.672,106.319 200.172,112.319 200,118.5C 199.667,113.5 199.333,108.5 199,103.5C 198.667,106.833 198.333,110.167 198,113.5C 196.829,114.893 195.329,115.727 193.5,116C 193.867,117.757 193.034,119.257 191,120.5C 189.283,115.159 188.116,109.826 187.5,104.5C 183.665,102.75 179.999,100.75 176.5,98.5C 177.239,98.631 177.906,98.4643 178.5,98C 177.5,97.6667 176.5,97.3333 175.5,97C 178.343,94.498 180.843,91.6647 183,88.5C 185.22,90.1931 187.72,91.1931 190.5,91.5 Z"/></g>
<g><path style="opacity:0.961" fill="#a859f1" d="M 118.5,89.5 C 125.167,93.1667 131.833,96.8333 138.5,100.5C 139.546,102.785 139.546,105.118 138.5,107.5C 134.551,107.693 134.551,108.193 138.5,109C 136.368,109.918 135.701,111.251 136.5,113C 135.906,113.464 135.239,113.631 134.5,113.5C 125.674,109.59 117.341,104.923 109.5,99.5C 113.886,98.7965 117.22,96.4632 119.5,92.5C 118.873,91.5832 118.539,90.5832 118.5,89.5 Z"/></g>
<g><path style="opacity:0.834" fill="#c942ed" d="M 136.5,60.5 C 136.414,61.4959 136.748,62.3292 137.5,63C 136.551,63.6172 135.718,63.4506 135,62.5C 133.522,68.1003 129.689,70.1003 123.5,68.5C 122.537,68.9698 122.537,69.6365 123.5,70.5C 118.335,74.5863 112.668,77.9196 106.5,80.5C 104.876,80.3601 103.71,81.0267 103,82.5C 102.586,82.0426 102.086,81.7093 101.5,81.5C 100.272,84.0715 98.2723,85.4048 95.5,85.5C 95.5086,87.3084 95.0086,88.9751 94,90.5C 93.6924,89.6919 93.1924,89.0253 92.5,88.5C 91.1743,89.9902 89.6743,91.3235 88,92.5C 87.3333,91.8333 86.6667,91.1667 86,90.5C 84.7501,92.1935 83.2501,93.5268 81.5,94.5C 76.3351,98.5863 70.6685,101.92 64.5,104.5C 63.6693,116.326 63.1693,128.326 63,140.5C 62.7105,138.048 62.0438,135.715 61,133.5C 58.0494,136.572 55.2161,139.739 52.5,143C 54.9316,144.087 54.5983,144.587 51.5,144.5C 51.5,156.5 51.5,168.5 51.5,180.5C 51.1667,180.5 50.8333,180.5 50.5,180.5C 50.0169,152.412 50.5169,124.412 52,96.5C 75.0736,83.7027 97.9069,70.536 120.5,57C 126.47,55.6221 131.804,56.7888 136.5,60.5 Z"/></g>
<g><path style="opacity:0.913" fill="#0f0e10" d="M 396.5,103.5 C 418.719,100.277 436.219,107.61 449,125.5C 452.618,131.686 454.618,138.352 455,145.5C 455.5,162.497 455.667,179.497 455.5,196.5C 450.833,196.5 446.167,196.5 441.5,196.5C 441.666,191.156 441.499,185.823 441,180.5C 428.362,196.826 411.862,202.66 391.5,198C 372.889,193.056 361.389,181.223 357,162.5C 352.802,130.833 365.968,111.166 396.5,103.5 Z M 399.5,116.5 C 423.939,115.366 437.606,126.866 440.5,151C 436.382,178.552 420.716,189.552 393.5,184C 376.776,175.724 369.609,162.224 372,143.5C 375.8,128.865 384.967,119.865 399.5,116.5 Z"/></g>
<g><path style="opacity:0.918" fill="#0f0d10" d="M 616.5,103.5 C 627.411,102.8 638.078,103.967 648.5,107C 663.464,114.395 671.297,126.562 672,143.5C 672.667,160.833 672.667,178.167 672,195.5C 666.928,196.471 661.762,196.805 656.5,196.5C 656.667,177.83 656.5,159.164 656,140.5C 652.356,124.666 642.356,116.666 626,116.5C 607.603,116.899 597.603,126.232 596,144.5C 595.5,161.83 595.333,179.163 595.5,196.5C 590.5,196.5 585.5,196.5 580.5,196.5C 580.333,176.831 580.5,157.164 581,137.5C 584.914,117.75 596.747,106.417 616.5,103.5 Z"/></g>
<g><path style="opacity:0.929" fill="#0f0e11" d="M 759.5,103.5 C 773.926,101.673 787.259,104.507 799.5,112C 807.589,119.009 812.423,127.842 814,138.5C 814.5,157.83 814.667,177.164 814.5,196.5C 809.238,196.805 804.072,196.471 799,195.5C 798.667,176.5 798.333,157.5 798,138.5C 793.785,123.8 783.951,116.467 768.5,116.5C 752.694,116.47 742.86,124.137 739,139.5C 738.667,158.167 738.333,176.833 738,195.5C 733.263,196.469 728.43,196.803 723.5,196.5C 723.333,176.497 723.5,156.497 724,136.5C 728.242,117.159 740.075,106.159 759.5,103.5 Z"/></g>
<g><path style="opacity:0.939" fill="#0f0d10" d="M 865.5,103.5 C 885.075,100.552 901.575,106.218 915,120.5C 922.553,131.278 925.386,143.111 923.5,156C 896.161,156.167 868.827,156.667 841.5,157.5C 844.826,173.992 854.826,183.492 871.5,186C 884.791,186.858 895.457,182.025 903.5,171.5C 909.167,170.167 914.833,170.167 920.5,171.5C 913.993,185.266 903.327,194.1 888.5,198C 864.807,202.999 845.973,195.833 832,176.5C 822.346,156.682 823.68,137.682 836,119.5C 844.134,110.853 853.967,105.519 865.5,103.5 Z M 868.5,116.5 C 885.055,114.363 897.555,120.363 906,134.5C 907.145,137.432 907.978,140.432 908.5,143.5C 886.164,143.667 863.831,143.5 841.5,143C 845.117,128.549 854.117,119.716 868.5,116.5 Z"/></g>
<g><path style="opacity:0.912" fill="#0e0d0f" d="M 689.5,105.5 C 694.833,105.5 700.167,105.5 705.5,105.5C 705.667,135.502 705.5,165.502 705,195.5C 700,196.833 695,196.833 690,195.5C 689.5,165.502 689.333,135.502 689.5,105.5 Z"/></g>
<g><path style="opacity:0.996" fill="#9665f2" d="M 138.5,100.5 C 148.367,105.929 158.033,111.596 167.5,117.5C 164.735,117.202 162.235,116.202 160,114.5C 159.342,116.108 159.842,117.275 161.5,118C 160.333,118.5 159.5,119.333 159,120.5C 156.592,118.376 154.092,118.543 151.5,121C 154.362,123.168 157.029,125.335 159.5,127.5C 150.717,123.609 142.384,118.943 134.5,113.5C 135.239,113.631 135.906,113.464 136.5,113C 135.701,111.251 136.368,109.918 138.5,109C 134.551,108.193 134.551,107.693 138.5,107.5C 139.546,105.118 139.546,102.785 138.5,100.5 Z"/></g>
<g><path style="opacity:0.975" fill="#747ff5" d="M 201.5,100.5 C 201.831,127.672 201.498,154.672 200.5,181.5C 200.586,170.612 200.419,159.946 200,149.5C 198.601,149.501 197.101,149.835 195.5,150.5C 194.135,153.773 192.302,156.773 190,159.5C 189.824,156.118 189.324,152.785 188.5,149.5C 188.167,149.667 187.833,149.833 187.5,150C 188.483,158.415 188.817,166.915 188.5,175.5C 188.167,175.5 187.833,175.5 187.5,175.5C 187.831,167.804 187.497,160.138 186.5,152.5C 173.324,159.722 160.324,167.222 147.5,175C 146.552,175.483 145.552,175.649 144.5,175.5C 144.631,174.761 144.464,174.094 144,173.5C 143.282,174.451 142.449,174.617 141.5,174C 144.527,169.639 148.194,165.973 152.5,163C 152.167,162.667 151.833,162.333 151.5,162C 153.641,160.692 155.641,159.192 157.5,157.5C 157.291,156.914 156.957,156.414 156.5,156C 157.823,155.184 158.489,154.017 158.5,152.5C 165.968,148.598 173.302,144.432 180.5,140C 179.016,139.338 177.683,138.504 176.5,137.5C 176.351,136.448 176.517,135.448 177,134.5C 179.719,132.781 181.719,130.447 183,127.5C 184.848,129.688 186.348,129.688 187.5,127.5C 187.5,119.833 187.5,112.167 187.5,104.5C 188.116,109.826 189.283,115.159 191,120.5C 193.034,119.257 193.867,117.757 193.5,116C 195.329,115.727 196.829,114.893 198,113.5C 198.333,110.167 198.667,106.833 199,103.5C 199.333,108.5 199.667,113.5 200,118.5C 200.172,112.319 200.672,106.319 201.5,100.5 Z"/></g>
<g><path style="opacity:0.948" fill="#8374f4" d="M 167.5,117.5 C 174.167,120.833 180.833,124.167 187.5,127.5C 186.348,129.688 184.848,129.688 183,127.5C 181.719,130.447 179.719,132.781 177,134.5C 176.517,135.448 176.351,136.448 176.5,137.5C 170.309,134.898 164.642,131.565 159.5,127.5C 157.029,125.335 154.362,123.168 151.5,121C 154.092,118.543 156.592,118.376 159,120.5C 159.5,119.333 160.333,118.5 161.5,118C 159.842,117.275 159.342,116.108 160,114.5C 162.235,116.202 164.735,117.202 167.5,117.5 Z"/></g>
<g><path style="opacity:0.607" fill="#a859f1" d="M 97.5,126.5 C 97.8501,137.549 97.3501,148.549 96,159.5C 95.4304,156.156 94.2638,155.823 92.5,158.5C 92.1667,158 91.8333,157.5 91.5,157C 92.6133,155.606 93.9466,154.439 95.5,153.5C 95.1924,152.692 94.6924,152.025 94,151.5C 91.7733,153.607 89.7733,155.94 88,158.5C 87.1376,156.913 86.4709,155.246 86,153.5C 85.1954,162.911 85.362,172.244 86.5,181.5C 85.8333,181.833 85.1667,182.167 84.5,182.5C 84.5,163.833 84.5,145.167 84.5,126.5C 86.371,126.859 87.871,127.859 89,129.5C 89.9299,127.448 91.4299,125.948 93.5,125C 92.6919,124.692 92.0253,124.192 91.5,123.5C 93,121.833 94.5,120.167 96,118.5C 96.1829,121.365 96.6829,124.031 97.5,126.5 Z"/></g>
<g><path style="opacity:0.988" fill="#b750f1" d="M 64.5,104.5 C 64.5,128.167 64.5,151.833 64.5,175.5C 62.7629,172.992 61.9296,169.992 62,166.5C 58.6093,168.389 56.1093,171.055 54.5,174.5C 54.8178,175.647 55.4844,176.481 56.5,177C 54.6769,177.997 53.0103,179.164 51.5,180.5C 51.5,168.5 51.5,156.5 51.5,144.5C 54.5983,144.587 54.9316,144.087 52.5,143C 55.2161,139.739 58.0494,136.572 61,133.5C 62.0438,135.715 62.7105,138.048 63,140.5C 63.1693,128.326 63.6693,116.326 64.5,104.5 Z"/></g>
<g><path style="opacity:0.873" fill="#9b62f3" d="M 98.5,93.5 C 98.5,123.167 98.5,152.833 98.5,182.5C 97.8826,182.389 97.3826,182.056 97,181.5C 96.8184,178.774 96.3184,176.107 95.5,173.5C 92.3557,176.07 89.3557,178.736 86.5,181.5C 85.362,172.244 85.1954,162.911 86,153.5C 86.4709,155.246 87.1376,156.913 88,158.5C 89.7733,155.94 91.7733,153.607 94,151.5C 94.6924,152.025 95.1924,152.692 95.5,153.5C 93.9466,154.439 92.6133,155.606 91.5,157C 91.8333,157.5 92.1667,158 92.5,158.5C 94.2638,155.823 95.4304,156.156 96,159.5C 97.3501,148.549 97.8501,137.549 97.5,126.5C 97.1677,114.751 97.501,103.751 98.5,93.5 Z"/></g>
<g><path style="opacity:0.983" fill="#5f8ef7" d="M 200.5,181.5 C 197.94,184.458 194.94,186.958 191.5,189C 187.697,190.655 184.03,192.489 180.5,194.5C 178.095,194.866 175.762,195.533 173.5,196.5C 172.558,196.392 171.725,196.059 171,195.5C 170.544,196.744 171.044,197.577 172.5,198C 171.552,198.483 170.552,198.649 169.5,198.5C 169.293,195.255 170.793,193.255 174,192.5C 174.065,190.117 174.898,189.45 176.5,190.5C 177.727,187.105 180.06,184.939 183.5,184C 182.833,183.333 182.167,182.667 181.5,182C 185.121,181.822 187.788,180.155 189.5,177C 188.944,176.617 188.611,176.117 188.5,175.5C 188.817,166.915 188.483,158.415 187.5,150C 187.833,149.833 188.167,149.667 188.5,149.5C 189.324,152.785 189.824,156.118 190,159.5C 192.302,156.773 194.135,153.773 195.5,150.5C 197.101,149.835 198.601,149.501 200,149.5C 200.419,159.946 200.586,170.612 200.5,181.5 Z"/></g>
<g><path style="opacity:0.992" fill="#8373f3" d="M 158.5,152.5 C 158.489,154.017 157.823,155.184 156.5,156C 156.957,156.414 157.291,156.914 157.5,157.5C 155.641,159.192 153.641,160.692 151.5,162C 151.833,162.333 152.167,162.667 152.5,163C 148.194,165.973 144.527,169.639 141.5,174C 142.449,174.617 143.282,174.451 144,173.5C 144.464,174.094 144.631,174.761 144.5,175.5C 131.89,183.478 118.89,190.978 105.5,198C 108.059,200.103 110.726,201.936 113.5,203.5C 113.649,204.552 113.483,205.552 113,206.5C 112.667,206.167 112.333,205.833 112,205.5C 110.905,207.932 109.405,210.098 107.5,212C 109.098,213.726 108.765,214.559 106.5,214.5C 100.87,212.019 95.5368,209.019 90.5,205.5C 90.4469,204.18 90.4469,202.847 90.5,201.5C 91.325,200.614 92.325,200.281 93.5,200.5C 93.5,199.5 93.5,198.5 93.5,197.5C 97.7763,195.329 100.943,191.996 103,187.5C 103.333,187.833 103.667,188.167 104,188.5C 107.193,186.155 109.36,183.155 110.5,179.5C 126.468,170.514 142.468,161.514 158.5,152.5 Z"/></g>
<g><path style="opacity:0.972" fill="#9f5ff0" d="M 64.5,175.5 C 70.6545,178.097 76.3212,181.43 81.5,185.5C 81.4142,186.496 81.7476,187.329 82.5,188C 81.1667,188.333 79.8333,188.667 78.5,189C 78.8333,189.333 79.1667,189.667 79.5,190C 78.1279,191.242 77.1279,192.742 76.5,194.5C 78.5522,195.611 79.8855,197.277 80.5,199.5C 71.9334,195.548 63.6001,191.048 55.5,186C 52.9441,184.945 51.2775,183.112 50.5,180.5C 50.8333,180.5 51.1667,180.5 51.5,180.5C 53.0103,179.164 54.6769,177.997 56.5,177C 55.4844,176.481 54.8178,175.647 54.5,174.5C 56.1093,171.055 58.6093,168.389 62,166.5C 61.9296,169.992 62.7629,172.992 64.5,175.5 Z"/></g>
<g><path style="opacity:0.992" fill="#8e6cf3" d="M 98.5,182.5 C 98.3433,183.873 98.51,185.207 99,186.5C 102.778,184.03 106.611,181.697 110.5,179.5C 109.36,183.155 107.193,186.155 104,188.5C 103.667,188.167 103.333,187.833 103,187.5C 100.943,191.996 97.7763,195.329 93.5,197.5C 93.5,198.5 93.5,199.5 93.5,200.5C 92.325,200.281 91.325,200.614 90.5,201.5C 90.4469,202.847 90.4469,204.18 90.5,205.5C 87.0265,203.682 83.6931,201.682 80.5,199.5C 79.8855,197.277 78.5522,195.611 76.5,194.5C 77.1279,192.742 78.1279,191.242 79.5,190C 79.1667,189.667 78.8333,189.333 78.5,189C 79.8333,188.667 81.1667,188.333 82.5,188C 81.7476,187.329 81.4142,186.496 81.5,185.5C 83.8795,186.567 84.8795,185.567 84.5,182.5C 85.1667,182.167 85.8333,181.833 86.5,181.5C 89.3557,178.736 92.3557,176.07 95.5,173.5C 96.3184,176.107 96.8184,178.774 97,181.5C 97.3826,182.056 97.8826,182.389 98.5,182.5 Z"/></g>
<g><path style="opacity:0.994" fill="#6a86f6" d="M 187.5,175.5 C 187.833,175.5 188.167,175.5 188.5,175.5C 188.611,176.117 188.944,176.617 189.5,177C 187.788,180.155 185.121,181.822 181.5,182C 182.167,182.667 182.833,183.333 183.5,184C 180.06,184.939 177.727,187.105 176.5,190.5C 174.898,189.45 174.065,190.117 174,192.5C 170.793,193.255 169.293,195.255 169.5,198.5C 170.552,198.649 171.552,198.483 172.5,198C 171.044,197.577 170.544,196.744 171,195.5C 171.725,196.059 172.558,196.392 173.5,196.5C 175.762,195.533 178.095,194.866 180.5,194.5C 164.056,203.77 147.723,213.27 131.5,223C 126.695,225.305 122.362,224.805 118.5,221.5C 119.706,220.12 119.373,218.953 117.5,218C 118.833,216.667 120.167,215.333 121.5,214C 120.66,212.334 121.16,212.167 123,213.5C 123.69,211.65 124.856,210.316 126.5,209.5C 146.853,198.134 167.187,186.8 187.5,175.5 Z"/></g>
<g><path style="opacity:0.975" fill="#787cf5" d="M 113.5,203.5 C 117.72,205.777 122.053,207.777 126.5,209.5C 124.856,210.316 123.69,211.65 123,213.5C 121.16,212.167 120.66,212.334 121.5,214C 120.167,215.333 118.833,216.667 117.5,218C 119.373,218.953 119.706,220.12 118.5,221.5C 114.237,219.533 110.237,217.199 106.5,214.5C 108.765,214.559 109.098,213.726 107.5,212C 109.405,210.098 110.905,207.932 112,205.5C 112.333,205.833 112.667,206.167 113,206.5C 113.483,205.552 113.649,204.552 113.5,203.5 Z"/></g>
</svg>
