<svg width="86" height="54" viewBox="0.715 0.98 82.903 51.72" fill="none" xmlns="http://www.w3.org/2000/svg">
<path d="M9.984 29.012C8.46933 29.012 7.09333 28.6387 5.856 27.892C4.62933 27.1347 3.65333 26.1 2.928 24.788C2.21333 23.476 1.856 21.9773 1.856 20.292C1.856 18.628 2.20267 17.1453 2.896 15.844C3.6 14.532 4.56533 13.4973 5.792 12.74C7.01867 11.9827 8.416 11.604 9.984 11.604C11.264 11.604 12.4427 11.8707 13.52 12.404C14.5973 12.9373 15.4507 13.6787 16.08 14.628V12.116H20.064V28.5H16.08V25.876C15.3547 26.868 14.464 27.6413 13.408 28.196C12.3627 28.74 11.2213 29.012 9.984 29.012ZM11.12 25.604C12.112 25.604 12.9867 25.38 13.744 24.932C14.5013 24.4733 15.0987 23.844 15.536 23.044C15.9733 22.244 16.192 21.332 16.192 20.308C16.192 19.2733 15.9733 18.3613 15.536 17.572C15.0987 16.772 14.5013 16.148 13.744 15.7C12.9867 15.2413 12.112 15.012 11.12 15.012C10.1387 15.012 9.264 15.2413 8.496 15.7C7.728 16.148 7.12533 16.772 6.688 17.572C6.25067 18.372 6.032 19.284 6.032 20.308C6.032 21.332 6.25067 22.244 6.688 23.044C7.12533 23.844 7.728 24.4733 8.496 24.932C9.264 25.38 10.1387 25.604 11.12 25.604ZM31.1135 29.012C29.6308 29.012 28.4735 28.532 27.6415 27.572C26.8202 26.612 26.4095 25.2627 26.4095 23.524V15.14H24.4095V12.116H26.4095V5.988H30.3935V12.116H34.1695V15.14H30.3935V23.252C30.3935 23.9667 30.5375 24.516 30.8255 24.9C31.1135 25.2733 31.5242 25.46 32.0575 25.46C32.6122 25.46 33.1188 25.2893 33.5775 24.948L34.5855 28.132C34.1055 28.4093 33.5562 28.6227 32.9375 28.772C32.3188 28.932 31.7108 29.012 31.1135 29.012ZM39.1505 28.5V0.98H43.1345V28.5H39.1505ZM56.2028 29.012C54.6881 29.012 53.3121 28.6387 52.0748 27.892C50.8481 27.1347 49.8721 26.1 49.1468 24.788C48.4321 23.476 48.0748 21.9773 48.0748 20.292C48.0748 18.628 48.4214 17.1453 49.1148 15.844C49.8188 14.532 50.7841 13.4973 52.0108 12.74C53.2374 11.9827 54.6348 11.604 56.2028 11.604C57.4828 11.604 58.6614 11.8707 59.7388 12.404C60.8161 12.9373 61.6694 13.6787 62.2987 14.628V12.116H66.2828V28.5H62.2987V25.876C61.5734 26.868 60.6828 27.6413 59.6268 28.196C58.5814 28.74 57.4401 29.012 56.2028 29.012ZM57.3388 25.604C58.3308 25.604 59.2054 25.38 59.9628 24.932C60.7201 24.4733 61.3174 23.844 61.7548 23.044C62.1921 22.244 62.4108 21.332 62.4108 20.308C62.4108 19.2733 62.1921 18.3613 61.7548 17.572C61.3174 16.772 60.7201 16.148 59.9628 15.7C59.2054 15.2413 58.3308 15.012 57.3388 15.012C56.3574 15.012 55.4828 15.2413 54.7148 15.7C53.9468 16.148 53.3441 16.772 52.9068 17.572C52.4694 18.372 52.2508 19.284 52.2508 20.308C52.2508 21.332 52.4694 22.244 52.9068 23.044C53.3441 23.844 53.9468 24.4733 54.7148 24.932C55.4828 25.38 56.3574 25.604 57.3388 25.604ZM76.85 29.012C75.474 29.012 74.2473 28.756 73.17 28.244C72.1033 27.7213 71.234 26.9747 70.562 26.004L72.322 23.412C72.9513 24.244 73.65 24.8893 74.418 25.348C75.1967 25.8067 76.002 26.036 76.834 26.036C77.346 26.036 77.7993 25.9453 78.194 25.764C78.5887 25.572 78.9033 25.3 79.138 24.948C79.3727 24.5853 79.49 24.1587 79.49 23.668C79.49 23.156 79.3567 22.756 79.09 22.468C78.8233 22.18 78.4233 21.9187 77.89 21.684C77.3567 21.4493 76.6847 21.172 75.874 20.852C75.1913 20.564 74.5407 20.244 73.922 19.892C73.3033 19.54 72.7913 19.0973 72.386 18.564C71.9913 18.02 71.794 17.332 71.794 16.5C71.794 15.5507 72.0553 14.708 72.578 13.972C73.1113 13.236 73.8367 12.66 74.754 12.244C75.682 11.828 76.738 11.62 77.922 11.62C78.7753 11.62 79.634 11.7747 80.498 12.084C81.362 12.3827 82.226 12.82 83.09 13.396L81.65 15.908C80.402 14.8733 79.17 14.356 77.954 14.356C77.2393 14.356 76.6633 14.5267 76.226 14.868C75.7993 15.2093 75.586 15.6467 75.586 16.18C75.586 16.6173 75.7727 16.9907 76.146 17.3C76.5193 17.6093 76.9833 17.8813 77.538 18.116C78.0927 18.3507 78.6473 18.5747 79.202 18.788C80.0767 19.108 80.8447 19.4493 81.506 19.812C82.1673 20.1747 82.6847 20.644 83.058 21.22C83.4313 21.796 83.618 22.564 83.618 23.524C83.618 24.676 83.3407 25.6627 82.786 26.484C82.242 27.3053 81.4633 27.9347 80.45 28.372C79.4367 28.7987 78.2367 29.012 76.85 29.012Z" fill="#292B37"/>
<path d="M3.762 44.505C4.27533 44.505 4.73367 44.637 5.137 44.901C5.54767 45.1577 5.87033 45.5133 6.105 45.968C6.347 46.4227 6.468 46.9507 6.468 47.552C6.468 48.1533 6.347 48.685 6.105 49.147C5.87033 49.6017 5.55133 49.961 5.148 50.225C4.752 50.4817 4.30467 50.61 3.806 50.61C3.51267 50.61 3.23767 50.5623 2.981 50.467C2.72433 50.3717 2.497 50.2507 2.299 50.104C2.10833 49.9573 1.958 49.8107 1.848 49.664C1.74533 49.51 1.694 49.3817 1.694 49.279L2.035 49.136V49.939C2.035 50.1297 1.97267 50.291 1.848 50.423C1.72333 50.5477 1.56567 50.61 1.375 50.61C1.18433 50.61 1.02667 50.5477 0.902 50.423C0.777333 50.2983 0.715 50.137 0.715 49.939V43.031C0.715 42.8403 0.777333 42.6827 0.902 42.558C1.02667 42.426 1.18433 42.36 1.375 42.36C1.56567 42.36 1.72333 42.426 1.848 42.558C1.97267 42.6827 2.035 42.8403 2.035 43.031V45.825L1.848 45.726C1.848 45.6307 1.89933 45.517 2.002 45.385C2.10467 45.2457 2.244 45.11 2.42 44.978C2.596 44.8387 2.79767 44.725 3.025 44.637C3.25967 44.549 3.50533 44.505 3.762 44.505ZM3.597 45.715C3.27433 45.715 2.992 45.7957 2.75 45.957C2.508 46.1183 2.31733 46.3383 2.178 46.617C2.046 46.8883 1.98 47.2 1.98 47.552C1.98 47.8967 2.046 48.212 2.178 48.498C2.31733 48.7767 2.508 48.9967 2.75 49.158C2.992 49.3193 3.27433 49.4 3.597 49.4C3.91967 49.4 4.19833 49.3193 4.433 49.158C4.675 48.9967 4.862 48.7767 4.994 48.498C5.13333 48.212 5.203 47.8967 5.203 47.552C5.203 47.2 5.13333 46.8883 4.994 46.617C4.862 46.3383 4.675 46.1183 4.433 45.957C4.19833 45.7957 3.91967 45.715 3.597 45.715ZM11.9892 44.615C12.1799 44.615 12.3376 44.681 12.4622 44.813C12.5869 44.9377 12.6492 45.0953 12.6492 45.286V49.961C12.6492 50.6357 12.5209 51.171 12.2642 51.567C12.0149 51.9703 11.6776 52.26 11.2522 52.436C10.8269 52.612 10.3502 52.7 9.82223 52.7C9.58756 52.7 9.33823 52.6817 9.07423 52.645C8.81023 52.6083 8.59389 52.5533 8.42523 52.48C8.20523 52.3847 8.05123 52.2637 7.96323 52.117C7.88256 51.9777 7.86789 51.8273 7.91923 51.666C7.98523 51.4533 8.09156 51.3067 8.23823 51.226C8.38489 51.1527 8.53889 51.1453 8.70023 51.204C8.81756 51.2407 8.97156 51.2957 9.16223 51.369C9.35289 51.4497 9.57289 51.49 9.82223 51.49C10.1596 51.49 10.4382 51.4423 10.6582 51.347C10.8856 51.259 11.0542 51.105 11.1642 50.885C11.2816 50.6723 11.3402 50.379 11.3402 50.005V49.268L11.5712 49.532C11.4466 49.774 11.2889 49.9757 11.0982 50.137C10.9149 50.291 10.6949 50.4083 10.4382 50.489C10.1816 50.5697 9.88823 50.61 9.55823 50.61C9.16956 50.61 8.82856 50.522 8.53523 50.346C8.24923 50.1627 8.02556 49.9133 7.86423 49.598C7.70289 49.2753 7.62223 48.9087 7.62223 48.498V45.286C7.62223 45.0953 7.68456 44.9377 7.80923 44.813C7.93389 44.681 8.09156 44.615 8.28223 44.615C8.47289 44.615 8.63056 44.681 8.75523 44.813C8.87989 44.9377 8.94223 45.0953 8.94223 45.286V48.102C8.94223 48.5787 9.04489 48.916 9.25023 49.114C9.46289 49.3047 9.75623 49.4 10.1302 49.4C10.3869 49.4 10.6032 49.3523 10.7792 49.257C10.9552 49.1543 11.0909 49.0077 11.1862 48.817C11.2816 48.619 11.3292 48.3807 11.3292 48.102V45.286C11.3292 45.0953 11.3916 44.9377 11.5162 44.813C11.6409 44.681 11.7986 44.615 11.9892 44.615ZM23.1123 42.8C23.2883 42.8 23.4313 42.8587 23.5413 42.976C23.6513 43.0933 23.7063 43.24 23.7063 43.416V49.829C23.7063 50.0197 23.6403 50.181 23.5083 50.313C23.3836 50.4377 23.226 50.5 23.0353 50.5C22.94 50.5 22.841 50.4853 22.7383 50.456C22.643 50.4193 22.5696 50.3717 22.5183 50.313L18.1953 44.824L18.4813 44.648V49.884C18.4813 50.06 18.4226 50.2067 18.3053 50.324C18.1953 50.4413 18.0486 50.5 17.8653 50.5C17.6893 50.5 17.5463 50.4413 17.4363 50.324C17.3263 50.2067 17.2713 50.06 17.2713 49.884V43.471C17.2713 43.2803 17.3336 43.1227 17.4583 42.998C17.5903 42.866 17.7516 42.8 17.9423 42.8C18.045 42.8 18.1513 42.822 18.2613 42.866C18.3713 42.9027 18.452 42.9613 18.5033 43.042L22.6943 48.388L22.5073 48.52V43.416C22.5073 43.24 22.5623 43.0933 22.6723 42.976C22.7823 42.8587 22.929 42.8 23.1123 42.8ZM32.4442 46.65C32.4442 47.2 32.3525 47.7133 32.1692 48.19C31.9858 48.6667 31.7255 49.0883 31.3882 49.455C31.0582 49.8143 30.6622 50.0967 30.2002 50.302C29.7455 50.5073 29.2468 50.61 28.7042 50.61C28.1615 50.61 27.6628 50.5073 27.2082 50.302C26.7535 50.0967 26.3575 49.8143 26.0202 49.455C25.6902 49.0883 25.4335 48.6667 25.2502 48.19C25.0668 47.7133 24.9752 47.2 24.9752 46.65C24.9752 46.1 25.0668 45.5867 25.2502 45.11C25.4335 44.6333 25.6902 44.2153 26.0202 43.856C26.3575 43.4893 26.7535 43.2033 27.2082 42.998C27.6628 42.7927 28.1615 42.69 28.7042 42.69C29.2468 42.69 29.7455 42.7927 30.2002 42.998C30.6622 43.2033 31.0582 43.4893 31.3882 43.856C31.7255 44.2153 31.9858 44.6333 32.1692 45.11C32.3525 45.5867 32.4442 46.1 32.4442 46.65ZM31.0142 46.65C31.0142 46.1587 30.9152 45.715 30.7172 45.319C30.5192 44.9157 30.2478 44.5967 29.9032 44.362C29.5585 44.1273 29.1588 44.01 28.7042 44.01C28.2495 44.01 27.8498 44.1273 27.5052 44.362C27.1605 44.5967 26.8892 44.912 26.6912 45.308C26.5005 45.704 26.4052 46.1513 26.4052 46.65C26.4052 47.1413 26.5005 47.5887 26.6912 47.992C26.8892 48.388 27.1605 48.7033 27.5052 48.938C27.8498 49.1727 28.2495 49.29 28.7042 49.29C29.1588 49.29 29.5585 49.1727 29.9032 48.938C30.2478 48.7033 30.5192 48.388 30.7172 47.992C30.9152 47.5887 31.0142 47.1413 31.0142 46.65ZM34.3998 42.789C34.5025 42.789 34.6088 42.8183 34.7188 42.877C34.8362 42.9283 34.9242 42.998 34.9828 43.086L37.6558 47.2L37.1058 47.178L39.8448 43.086C39.9842 42.888 40.1638 42.789 40.3838 42.789C40.5598 42.789 40.7175 42.8513 40.8568 42.976C40.9962 43.1007 41.0658 43.262 41.0658 43.46V49.829C41.0658 50.0197 41.0035 50.181 40.8788 50.313C40.7542 50.4377 40.5892 50.5 40.3838 50.5C40.1785 50.5 40.0098 50.4377 39.8778 50.313C39.7532 50.181 39.6908 50.0197 39.6908 49.829V44.648L40.1198 44.747L37.8758 48.168C37.8098 48.2487 37.7255 48.3183 37.6228 48.377C37.5275 48.4357 37.4285 48.4613 37.3258 48.454C37.2305 48.4613 37.1315 48.4357 37.0288 48.377C36.9335 48.3183 36.8528 48.2487 36.7868 48.168L34.6858 44.846L34.9718 44.263V49.829C34.9718 50.0197 34.9132 50.181 34.7958 50.313C34.6785 50.4377 34.5245 50.5 34.3338 50.5C34.1505 50.5 34.0002 50.4377 33.8828 50.313C33.7655 50.181 33.7068 50.0197 33.7068 49.829V43.46C33.7068 43.2767 33.7728 43.119 33.9048 42.987C34.0442 42.855 34.2092 42.789 34.3998 42.789ZM44.0945 49.829C44.0945 50.0197 44.0249 50.181 43.8855 50.313C43.7462 50.4377 43.5849 50.5 43.4015 50.5C43.1962 50.5 43.0312 50.4377 42.9065 50.313C42.7819 50.181 42.7195 50.0197 42.7195 49.829V43.471C42.7195 43.2803 42.7855 43.1227 42.9175 42.998C43.0495 42.866 43.2182 42.8 43.4235 42.8C43.5995 42.8 43.7535 42.866 43.8855 42.998C44.0249 43.1227 44.0945 43.2803 44.0945 43.471V49.829ZM51.1388 43.174C51.3295 43.2693 51.4395 43.4197 51.4688 43.625C51.5055 43.8303 51.4542 44.0173 51.3148 44.186C51.2195 44.318 51.0948 44.3913 50.9408 44.406C50.7942 44.4207 50.6438 44.3913 50.4898 44.318C50.3138 44.2373 50.1268 44.175 49.9288 44.131C49.7382 44.087 49.5365 44.065 49.3238 44.065C48.9278 44.065 48.5722 44.1273 48.2568 44.252C47.9488 44.3767 47.6848 44.5563 47.4648 44.791C47.2448 45.0183 47.0762 45.2897 46.9588 45.605C46.8488 45.9203 46.7938 46.2687 46.7938 46.65C46.7938 47.0973 46.8562 47.486 46.9808 47.816C47.1128 48.146 47.2925 48.421 47.5198 48.641C47.7472 48.861 48.0148 49.026 48.3228 49.136C48.6308 49.2387 48.9645 49.29 49.3238 49.29C49.5218 49.29 49.7198 49.2717 49.9178 49.235C50.1158 49.1983 50.3065 49.1323 50.4898 49.037C50.6438 48.9637 50.7942 48.938 50.9408 48.96C51.0948 48.982 51.2232 49.059 51.3258 49.191C51.4725 49.3743 51.5238 49.565 51.4798 49.763C51.4432 49.9537 51.3332 50.093 51.1498 50.181C50.9592 50.2763 50.7612 50.357 50.5558 50.423C50.3578 50.4817 50.1562 50.5257 49.9508 50.555C49.7455 50.5917 49.5365 50.61 49.3238 50.61C48.7958 50.61 48.2935 50.5257 47.8168 50.357C47.3475 50.1883 46.9258 49.939 46.5518 49.609C46.1852 49.279 45.8955 48.8683 45.6828 48.377C45.4702 47.8783 45.3638 47.3027 45.3638 46.65C45.3638 46.0853 45.4592 45.5647 45.6498 45.088C45.8478 44.6113 46.1228 44.2007 46.4748 43.856C46.8342 43.504 47.2558 43.2327 47.7398 43.042C48.2238 42.844 48.7518 42.745 49.3238 42.745C49.6465 42.745 49.9618 42.7817 50.2698 42.855C50.5778 42.9283 50.8675 43.0347 51.1388 43.174Z" fill="#292B37" fill-opacity="0.5"/>
</svg>
