<?xml version="1.0" encoding="UTF-8"?>
<!DOCTYPE svg PUBLIC "-//W3C//DTD SVG 1.1//EN" "http://www.w3.org/Graphics/SVG/1.1/DTD/svg11.dtd">
<svg xmlns="http://www.w3.org/2000/svg" version="1.1" width="565px" height="431px" style="shape-rendering:geometricPrecision; text-rendering:geometricPrecision; image-rendering:optimizeQuality; fill-rule:evenodd; clip-rule:evenodd" xmlns:xlink="http://www.w3.org/1999/xlink">
<g><path style="opacity:0.996" fill="#326ce5" d="M 276.5,-0.5 C 280.5,-0.5 284.5,-0.5 288.5,-0.5C 342.975,24.7345 397.308,50.5678 451.5,77C 456.876,80.5712 460.709,85.4046 463,91.5C 476.957,148.995 490.124,206.661 502.5,264.5C 502.43,271.876 500.263,278.543 496,284.5C 460.954,327.211 426.287,370.211 392,413.5C 386.312,420.927 378.812,425.094 369.5,426C 311.5,426.667 253.5,426.667 195.5,426C 189.695,425.177 184.361,423.177 179.5,420C 141.88,373.925 104.38,327.758 67,281.5C 64.2547,276.519 62.7547,271.186 62.5,265.5C 75.0533,206.62 88.5533,147.953 103,89.5C 105.748,84.748 109.248,80.5813 113.5,77C 167.682,50.5732 222.015,24.7398 276.5,-0.5 Z"/></g>
<g><path style="opacity:1" fill="#fbfcfe" d="M 302.5,77.5 C 339.388,75.1921 367.222,89.8588 386,121.5C 397.291,141 403.125,162 403.5,184.5C 416.72,185.277 427.72,190.61 436.5,200.5C 450.001,216.445 456.334,234.945 455.5,256C 455.375,280.581 446.042,300.915 427.5,317C 421.925,320.455 415.925,322.788 409.5,324C 326.5,324.667 243.5,324.667 160.5,324C 144.659,321.655 132.159,313.822 123,300.5C 108.109,275.84 104.442,249.507 112,221.5C 118.027,202.151 129.86,187.651 147.5,178C 151.703,176.431 156.036,175.598 160.5,175.5C 162.277,156.779 170.277,141.279 184.5,129C 204.154,116.764 222.988,117.931 241,132.5C 253.276,104.711 273.776,86.3781 302.5,77.5 Z"/></g>
<g><path style="opacity:1" fill="#336ce5" d="M 309.5,93.5 C 332.53,93.2651 351.03,102.265 365,120.5C 381.838,145.176 389.338,172.509 387.5,202.5C 405.961,197.824 420.128,203.491 430,219.5C 438.997,237.327 440.997,255.994 436,275.5C 432.938,285.886 427.438,294.72 419.5,302C 416.833,303.333 414.167,304.667 411.5,306C 328.557,307.658 245.557,307.992 162.5,307C 182.167,287.333 201.833,267.667 221.5,248C 222.5,247.333 223.5,247.333 224.5,248C 235.318,259.985 246.651,271.485 258.5,282.5C 288.653,252.847 318.653,223.014 348.5,193C 349.167,192.333 349.833,192.333 350.5,193C 356.015,198.682 361.681,204.182 367.5,209.5C 367.833,207.333 368.167,205.167 368.5,203C 367.597,188.155 366.597,173.322 365.5,158.5C 348.517,156.792 331.517,156.125 314.5,156.5C 319.818,162.319 325.318,167.985 331,173.5C 331.667,174.167 331.667,174.833 331,175.5C 307.333,199.167 283.667,222.833 260,246.5C 249.167,235.667 238.333,224.833 227.5,214C 226.5,213.333 225.5,213.333 224.5,214C 197,241.5 169.5,269 142,296.5C 133.212,287.256 127.879,276.256 126,263.5C 122.298,242.294 126.631,222.96 139,205.5C 148.384,193.73 160.551,189.063 175.5,191.5C 174.679,173.253 180.345,157.42 192.5,144C 203.326,136.091 214.659,135.425 226.5,142C 233.849,149.87 240.349,158.37 246,167.5C 250.224,149.469 257.89,133.135 269,118.5C 279.855,105.667 293.355,97.3333 309.5,93.5 Z"/></g>
<g><path style="opacity:1" fill="#f6f8fd" d="M 231.5,347.5 C 238.549,346.718 245.216,347.885 251.5,351C 254.949,354.065 256.616,357.898 256.5,362.5C 254.167,362.5 251.833,362.5 249.5,362.5C 249.323,358.474 247.323,355.641 243.5,354C 239.833,353.333 236.167,353.333 232.5,354C 226.799,356.832 226.133,360.498 230.5,365C 237.155,366.998 243.822,368.998 250.5,371C 257.123,374.193 259.29,379.36 257,386.5C 253.457,393.929 247.457,397.262 239,396.5C 226.962,396.952 220.462,391.285 219.5,379.5C 221.833,379.5 224.167,379.5 226.5,379.5C 226.602,384.444 228.935,387.944 233.5,390C 238.257,390.81 242.924,390.476 247.5,389C 252.833,385 252.833,381 247.5,377C 241.5,375.333 235.5,373.667 229.5,372C 222.403,368.744 219.903,363.244 222,355.5C 224.362,351.755 227.528,349.089 231.5,347.5 Z"/></g>
<g><path style="opacity:1" fill="#f4f7fd" d="M 176.5,348.5 C 178.833,348.5 181.167,348.5 183.5,348.5C 183.334,355.841 183.5,363.174 184,370.5C 191.167,363.333 198.333,356.167 205.5,349C 208.833,348.333 212.167,348.333 215.5,349C 208.488,354.679 202.154,361.012 196.5,368C 203.152,377.323 209.819,386.656 216.5,396C 213.5,396.667 210.5,396.667 207.5,396C 201.631,388.429 196.131,380.596 191,372.5C 188.667,374.833 186.333,377.167 184,379.5C 183.501,385.157 183.334,390.824 183.5,396.5C 181.167,396.5 178.833,396.5 176.5,396.5C 176.5,380.5 176.5,364.5 176.5,348.5 Z"/></g>
<g><path style="opacity:1" fill="#f5f7fd" d="M 273.5,361.5 C 288.374,359.384 295.707,365.718 295.5,380.5C 287.167,380.5 278.833,380.5 270.5,380.5C 271.022,389.862 275.688,393.029 284.5,390C 286.213,388.622 287.547,386.955 288.5,385C 290.81,384.503 293.143,384.337 295.5,384.5C 294.603,390.464 291.27,394.298 285.5,396C 267.505,397.66 260.338,389.494 264,371.5C 266.022,366.98 269.189,363.647 273.5,361.5 Z"/></g>
<g><path style="opacity:1" fill="#f2f5fd" d="M 302.5,361.5 C 304.5,361.5 306.5,361.5 308.5,361.5C 308.351,362.552 308.517,363.552 309,364.5C 310.853,362.408 313.186,361.408 316,361.5C 320.07,361.578 324.236,361.911 328.5,362.5C 331.612,370.393 334.445,378.393 337,386.5C 340.187,378.611 343.187,370.611 346,362.5C 348.401,361.398 350.901,361.231 353.5,362C 349.093,373.117 344.76,384.284 340.5,395.5C 338.257,396.474 335.924,396.808 333.5,396.5C 330.297,385.741 326.464,375.075 322,364.5C 320.812,365.563 320.312,366.897 320.5,368.5C 316.49,366.56 312.99,367.227 310,370.5C 308.624,379.098 308.124,387.765 308.5,396.5C 306.5,396.5 304.5,396.5 302.5,396.5C 302.5,384.833 302.5,373.167 302.5,361.5 Z"/></g>
<g><path style="opacity:1" fill="#f5f7fd" d="M 366.5,361.5 C 381.374,359.384 388.707,365.718 388.5,380.5C 380.167,380.5 371.833,380.5 363.5,380.5C 364.022,389.862 368.688,393.029 377.5,390C 379.213,388.622 380.547,386.955 381.5,385C 383.81,384.503 386.143,384.337 388.5,384.5C 387.603,390.464 384.27,394.298 378.5,396C 360.505,397.66 353.338,389.494 357,371.5C 359.022,366.98 362.189,363.647 366.5,361.5 Z"/></g>
<g><path style="opacity:1" fill="#386ee5" d="M 276.5,366.5 C 283.459,365.812 287.459,368.812 288.5,375.5C 282.5,375.5 276.5,375.5 270.5,375.5C 270.884,371.445 272.884,368.445 276.5,366.5 Z"/></g>
<g><path style="opacity:1" fill="#386ee5" d="M 369.5,366.5 C 376.459,365.812 380.459,368.812 381.5,375.5C 375.5,375.5 369.5,375.5 363.5,375.5C 363.884,371.445 365.884,368.445 369.5,366.5 Z"/></g>
</svg>
