<svg width="500" height="500" viewBox="0 0 500 500" fill="none" xmlns="http://www.w3.org/2000/svg">
<rect width="500" height="500" fill="#1A194D"/>
<path fill-rule="evenodd" clip-rule="evenodd" d="M224.534 121.898C241.899 102.186 270.659 96.4037 294.302 107.782C325.713 122.9 337.174 161.413 320.072 191.121L281.597 257.879C279.447 261.608 275.91 264.331 271.761 265.446C267.612 266.561 263.192 265.979 259.469 263.829L306.049 182.991C318.456 161.43 310.157 133.482 287.384 122.478C270.294 114.222 249.406 118.346 236.783 132.545C229.819 140.339 225.91 150.403 225.779 160.869C225.649 171.335 229.305 181.494 236.073 189.461C237.289 190.89 238.597 192.238 239.99 193.496L212.798 240.772C211.735 242.62 210.319 244.239 208.631 245.539C206.944 246.838 205.018 247.791 202.963 248.344C200.909 248.897 198.766 249.038 196.657 248.759C194.548 248.48 192.515 247.788 190.672 246.722L220.193 195.396C215.952 189.263 212.907 182.38 211.218 175.111L193.128 206.626C190.978 210.357 187.44 213.077 183.291 214.192C179.142 215.309 174.722 214.727 171 212.575L217.78 131.285C219.727 127.947 221.989 124.803 224.534 121.898ZM278.527 147.773C289.793 154.3 293.684 168.817 287.165 180.115L242.306 257.869C240.157 261.598 236.618 264.321 232.469 265.436C228.32 266.551 223.9 265.969 220.178 263.819L261.831 191.429C258.488 190.724 255.34 189.299 252.6 187.252C249.86 185.207 247.596 182.589 245.963 179.579C244.33 176.57 243.367 173.241 243.142 169.822C242.916 166.403 243.433 162.976 244.657 159.777C245.88 156.578 247.781 153.684 250.228 151.294C252.675 148.903 255.61 147.074 258.83 145.933C262.051 144.792 265.48 144.365 268.88 144.683C272.281 145 275.573 146.055 278.527 147.773ZM262.211 162.385C261.439 162.979 260.792 163.719 260.306 164.564C259.574 165.836 259.232 167.297 259.329 168.762C259.425 170.228 259.952 171.632 260.842 172.797C261.735 173.962 262.95 174.836 264.336 175.308C265.722 175.78 267.218 175.829 268.632 175.448C270.046 175.068 271.314 174.276 272.281 173.172C273.245 172.068 273.863 170.701 274.054 169.245C274.244 167.789 274 166.309 273.353 164.992C272.706 163.674 271.684 162.579 270.415 161.845C269.575 161.357 268.645 161.041 267.682 160.914C266.718 160.786 265.738 160.851 264.8 161.103C263.862 161.356 262.981 161.791 262.211 162.385Z" fill="#615EFF"/>
<path fill-rule="evenodd" clip-rule="evenodd" d="M81 373.875L108.733 302.764H124.994L152.726 373.875H137.224L131.252 357.947H102.476L96.502 373.875H81ZM126.511 345.146C124.615 339.583 122.924 334.606 121.438 330.213C119.953 325.82 118.436 321.285 116.887 316.607C115.339 321.285 113.805 325.82 112.288 330.213C110.804 334.606 109.113 339.583 107.216 345.146H126.511ZM157.42 310.349C157.42 308.074 158.116 306.241 159.506 304.85C160.897 303.459 162.729 302.764 165.005 302.764C167.28 302.764 169.114 303.459 170.504 304.85C171.895 306.241 172.59 308.074 172.59 310.349C172.59 312.625 171.895 314.458 170.504 315.849C169.114 317.239 167.28 317.934 165.005 317.934C162.729 317.934 160.897 317.239 159.506 315.849C158.116 314.458 157.42 312.625 157.42 310.349ZM158.178 373.875V326.468H171.831V373.875H158.178ZM183.4 326.468V373.875H197.052V352.968C197.052 347.975 198.175 344.134 200.419 341.448C202.663 338.73 205.617 337.371 209.284 337.371C211.053 337.371 212.854 337.671 214.688 338.272L216.584 326.468C214.404 325.836 212.285 325.52 210.232 325.52C204.194 325.52 199.455 328.095 196.009 333.247V326.468H183.4ZM221.799 373.875V302.764H235.452V331.161C237.444 329.391 239.718 328.016 242.279 327.037C244.839 326.025 247.604 325.52 250.575 325.52C255.032 325.52 258.997 326.594 262.474 328.743C265.95 330.861 268.685 333.784 270.675 337.514C272.667 341.211 273.662 345.43 273.662 350.171C273.662 354.913 272.667 359.147 270.675 362.877C268.685 366.574 265.95 369.498 262.474 371.647C258.997 373.764 255.032 374.823 250.575 374.823C247.508 374.823 244.648 374.301 241.995 373.258C239.339 372.184 237.016 370.683 235.026 368.755L234.694 373.875H221.799ZM248.842 362.971C252.318 362.971 255.195 361.755 257.47 359.321C259.746 356.887 260.883 353.838 260.883 350.171C260.883 346.505 259.746 343.455 257.47 341.022C255.195 338.588 252.318 337.371 248.842 337.371C245.366 337.371 242.49 338.588 240.213 341.022C237.938 343.455 236.8 346.505 236.8 350.171C236.8 353.838 237.938 356.887 240.213 359.321C242.49 361.755 245.366 362.971 248.842 362.971ZM296.475 349.649L285.382 326.468H271.112L293.204 371.504L282.396 397.578H296.76L326.247 326.468H311.836L299.035 357.378C298.719 355.828 298.34 354.406 297.898 353.111C297.456 351.815 296.981 350.661 296.475 349.649ZM328.095 326.468H335.918V314.616H349.571V326.468H361.091V338.319H349.571V355.765C349.571 358.009 350.282 359.779 351.704 361.075C353.158 362.339 354.992 362.971 357.203 362.971C358.847 362.971 360.538 362.608 362.276 361.88V373.068C359.273 374.239 356.319 374.823 353.412 374.823C347.786 374.823 343.456 373.322 340.422 370.319C337.419 367.285 335.918 362.955 335.918 357.329V338.319H328.095V326.468ZM386.975 360.648C384.7 359.005 383.136 356.872 382.282 354.248H419.26V350.124C419.26 345.352 418.185 341.116 416.036 337.419C413.886 333.721 410.948 330.813 407.218 328.696C403.521 326.578 399.285 325.52 394.513 325.52C389.71 325.52 385.411 326.594 381.619 328.743C377.858 330.861 374.886 333.768 372.705 337.466C370.525 341.133 369.434 345.32 369.434 350.028C369.434 354.801 370.572 359.069 372.848 362.829C375.123 366.558 378.268 369.498 382.282 371.647C386.295 373.764 390.926 374.823 396.173 374.823C399.459 374.823 402.888 374.286 406.459 373.211C410.062 372.137 413.697 370.161 417.363 367.285L409.114 357.425C407.345 359.1 405.369 360.474 403.189 361.548C401.039 362.592 398.321 363.114 395.035 363.114C391.968 363.114 389.282 362.291 386.975 360.648ZM404.398 344.208C403.643 342.53 402.56 341.103 401.15 339.931C399.096 338.225 396.63 337.371 393.755 337.371C390.846 337.371 388.318 338.24 386.17 339.978C384.728 341.162 383.624 342.571 382.857 344.208H404.398Z" fill="white"/>
</svg>
