<?xml version="1.0" standalone="no"?>
<!DOCTYPE svg PUBLIC "-//W3C//DTD SVG 20010904//EN"
 "http://www.w3.org/TR/2001/REC-SVG-20010904/DTD/svg10.dtd">
<svg version="1.0" xmlns="http://www.w3.org/2000/svg"
 width="590.000000pt" height="232.000000pt" viewBox="15.078963 20.300003 557.921 191"
 preserveAspectRatio="xMidYMid meet">

<g transform="translate(0.000000,232.000000) scale(0.100000,-0.100000)"
fill="#000000" stroke="none">
<path d="M1073 2113 c15 -2 39 -2 55 0 15 2 2 4 -28 4 -30 0 -43 -2 -27 -4z"/>
<path d="M869 2023 l-24 -28 28 24 c25 23 32 31 24 31 -2 0 -14 -12 -28 -27z"/>
<path d="M1310 2036 c0 -2 8 -10 18 -17 15 -13 16 -12 3 4 -13 16 -21 21 -21
13z"/>
<path d="M1088 1913 c6 -2 18 -2 25 0 6 3 1 5 -13 5 -14 0 -19 -2 -12 -5z"/>
<path d="M1014 1878 l-19 -23 23 19 c12 11 22 21 22 23 0 8 -8 2 -26 -19z"/>
<path d="M1160 1896 c0 -2 8 -10 18 -17 15 -13 16 -12 3 4 -13 16 -21 21 -21
13z"/>
<path d="M1413 1805 c0 -27 2 -38 4 -22 2 15 2 37 0 50 -2 12 -4 0 -4 -28z"/>
<path d="M783 1770 c0 -41 2 -58 4 -37 2 20 2 54 0 75 -2 20 -4 3 -4 -38z"/>
<path d="M984 1756 c1 -44 5 -60 16 -63 10 -3 11 -2 3 4 -6 5 -14 33 -16 63
l-4 55 1 -59z"/>
<path d="M1169 1723 l-24 -28 28 24 c25 23 32 31 24 31 -2 0 -14 -12 -28 -27z"/>
<path d="M488 1683 c7 -3 16 -2 19 1 4 3 -2 6 -13 5 -11 0 -14 -3 -6 -6z"/>
<path d="M1314 1578 l-29 -33 33 29 c17 17 32 31 32 33 0 8 -8 1 -36 -29z"/>
<path d="M264 1568 l-29 -33 33 29 c17 17 32 31 32 33 0 8 -8 1 -36 -29z"/>
<path d="M1138 1493 c6 -2 18 -2 25 0 6 3 1 5 -13 5 -14 0 -19 -2 -12 -5z"/>
<path d="M2950 1483 c0 -5 0 -233 -1 -508 l-2 -500 102 -3 101 -3 0 511 0 510
-100 0 c-55 0 -100 -3 -100 -7z"/>
<path d="M784 1360 c0 -69 1 -97 3 -62 2 34 2 90 0 125 -2 34 -3 6 -3 -63z"/>
<path d="M980 1011 l0 -470 -22 -4 c-20 -4 -19 -4 5 -6 l27 -1 0 475 c0 261
-2 475 -5 475 -3 0 -5 -211 -5 -469z"/>
<path d="M409 1423 l-24 -28 28 24 c25 23 32 31 24 31 -2 0 -14 -12 -28 -27z"/>
<path d="M151 1354 c0 -11 3 -14 6 -6 3 7 2 16 -1 19 -3 4 -6 -2 -5 -13z"/>
<path d="M1605 1203 c-28 -10 -65 -28 -82 -41 -17 -12 -34 -22 -37 -22 -3 0
-6 16 -6 35 l0 35 -100 0 -100 0 0 -501 0 -502 41 6 c43 6 97 42 133 91 18 23
22 45 24 137 2 60 6 109 8 109 2 0 24 -16 49 -35 149 -114 360 -47 462 147 26
50 28 60 28 178 0 116 -2 129 -28 181 -31 64 -103 136 -168 170 -60 30 -158
35 -224 12z m133 -185 c112 -68 118 -268 9 -349 -37 -27 -115 -37 -157 -19
-116 48 -147 232 -56 336 55 62 133 74 204 32z"/>
<path d="M2352 1205 c-63 -14 -151 -50 -186 -77 -18 -14 -17 -17 25 -80 l43
-65 66 31 c81 38 185 48 226 21 23 -15 54 -69 54 -95 0 -6 -45 -10 -123 -10
-185 0 -270 -32 -314 -120 -29 -56 -31 -147 -4 -206 24 -53 93 -111 155 -129
100 -30 189 -13 264 49 l32 28 0 -41 0 -41 95 0 95 0 0 268 c0 147 -5 283 -10
302 -39 141 -213 209 -418 165z m202 -421 c30 -11 20 -72 -17 -109 -74 -74
-210 -51 -210 35 0 37 17 58 57 69 36 11 147 14 170 5z"/>
<path d="M3545 1211 c-83 -22 -180 -103 -223 -187 -49 -98 -53 -252 -7 -351
32 -71 105 -147 174 -180 49 -24 68 -28 146 -28 79 0 97 4 143 28 l52 27 0
-155 0 -155 105 0 105 0 0 500 0 500 -105 0 -105 0 0 -35 c0 -34 -12 -46 -25
-25 -4 6 -29 22 -56 36 -54 27 -152 39 -204 25z m206 -196 c78 -50 106 -183
60 -279 -64 -132 -234 -128 -300 6 -53 110 -1 256 104 293 48 17 87 11 136
-20z"/>
<path d="M4453 1210 c-99 -21 -204 -104 -250 -199 -26 -51 -28 -66 -28 -171 0
-103 3 -121 26 -171 76 -161 270 -243 459 -195 61 15 169 77 177 101 2 6 -21
36 -50 69 l-52 59 -39 -27 c-77 -52 -156 -59 -232 -21 -35 17 -57 37 -72 64
l-22 38 47 7 c25 3 147 6 271 6 l225 0 -6 94 c-8 126 -34 191 -98 251 -70 65
-139 94 -235 100 -44 2 -98 0 -121 -5z m163 -181 c30 -14 48 -32 63 -61 11
-23 18 -45 15 -50 -3 -4 -75 -8 -160 -8 -148 0 -154 1 -154 20 0 30 59 89 105
105 55 19 82 18 131 -6z"/>
<path d="M5262 1204 c-69 -18 -98 -34 -154 -84 -30 -26 -59 -66 -80 -108 -31
-63 -33 -73 -33 -172 0 -94 3 -111 29 -167 97 -211 380 -279 587 -141 l59 40
-19 26 c-11 15 -37 44 -58 64 l-39 38 -35 -24 c-94 -64 -209 -59 -281 14 -21
21 -38 47 -38 59 0 21 2 21 265 21 l265 0 0 78 c-1 103 -14 157 -56 219 -80
123 -253 180 -412 137z m175 -173 c44 -20 67 -48 78 -93 l7 -28 -161 0 c-106
0 -161 4 -161 10 0 18 27 64 48 83 25 22 87 46 122 46 14 0 44 -8 67 -18z"/>
<path d="M714 1118 l-29 -33 33 29 c30 28 37 36 29 36 -2 0 -16 -15 -33 -32z"/>
<path d="M400 1126 c0 -2 8 -10 18 -17 15 -13 16 -12 3 4 -13 16 -21 21 -21
13z"/>
<path d="M548 1053 c12 -2 32 -2 45 0 12 2 2 4 -23 4 -25 0 -35 -2 -22 -4z"/>
<path d="M260 975 c13 -14 26 -25 28 -25 3 0 -5 11 -18 25 -13 14 -26 25 -28
25 -3 0 5 -11 18 -25z"/>
<path d="M784 800 c0 -52 1 -74 3 -47 2 26 2 68 0 95 -2 26 -3 4 -3 -48z"/>
<path d="M498 853 c6 -2 18 -2 25 0 6 3 1 5 -13 5 -14 0 -19 -2 -12 -5z"/>
<path d="M618 853 c7 -3 16 -2 19 1 4 3 -2 6 -13 5 -11 0 -14 -3 -6 -6z"/>
<path d="M820 617 c0 -2 15 -16 33 -33 l32 -29 -29 33 c-28 30 -36 37 -36 29z"/>
</g>
</svg>
