<?xml version="1.0" encoding="UTF-8"?>
<!DOCTYPE svg PUBLIC "-//W3C//DTD SVG 1.1//EN" "http://www.w3.org/Graphics/SVG/1.1/DTD/svg11.dtd">
<svg xmlns="http://www.w3.org/2000/svg" version="1.1" width="165px" height="39px" style="shape-rendering:geometricPrecision; text-rendering:geometricPrecision; image-rendering:optimizeQuality; fill-rule:evenodd; clip-rule:evenodd" xmlns:xlink="http://www.w3.org/1999/xlink">
<g><path style="opacity:0.903" fill="#000000" d="M 19.5,-0.5 C 31.1667,-0.5 42.8333,-0.5 54.5,-0.5C 54.666,4.84372 54.4994,10.1771 54,15.5C 47.1667,22.3333 40.3333,29.1667 33.5,36C 22.1716,36.4999 10.8382,36.6665 -0.5,36.5C -0.5,30.8333 -0.5,25.1667 -0.5,19.5C 6.5,13.1667 13.1667,6.5 19.5,-0.5 Z M 10.5,10.5 C 21.5,10.5 32.5,10.5 43.5,10.5C 43.5,15.1667 43.5,19.8333 43.5,24.5C 32.5,24.5 21.5,24.5 10.5,24.5C 10.5,19.8333 10.5,15.1667 10.5,10.5 Z"/></g>
<g><path style="opacity:0.779" fill="#000000" d="M 64.5,4.5 C 66.288,4.21478 67.9547,4.54811 69.5,5.5C 71.9113,11.9066 74.4113,18.24 77,24.5C 79.6732,17.9809 81.8398,11.3142 83.5,4.5C 85.1667,4.5 86.8333,4.5 88.5,4.5C 86.1017,13.0266 83.1017,21.3599 79.5,29.5C 77.0023,30.9377 74.8356,30.6044 73,28.5C 70.0608,20.5143 67.2274,12.5143 64.5,4.5 Z"/></g>
<g><path style="opacity:0.759" fill="#000000" d="M 91.5,11.5 C 100.89,9.50047 105.557,13.1671 105.5,22.5C 100.786,22.1734 96.1196,22.5067 91.5,23.5C 92.2779,25.9446 93.9446,27.278 96.5,27.5C 98.7918,25.5513 101.459,24.5513 104.5,24.5C 103.079,30.2178 99.412,32.3845 93.5,31C 86.947,28.2701 84.7804,23.4368 87,16.5C 88.7073,14.9625 90.2073,13.2959 91.5,11.5 Z M 93.5,15.5 C 96.6041,14.9711 98.9375,15.9711 100.5,18.5C 97.5,19.8333 94.5,19.8333 91.5,18.5C 92.1925,17.4822 92.8592,16.4822 93.5,15.5 Z"/></g>
<g><path style="opacity:0.745" fill="#000000" d="M 110.5,11.5 C 113.518,11.3354 116.518,11.502 119.5,12C 121.607,13.2635 122.607,15.0968 122.5,17.5C 119.541,17.6499 117.041,16.6499 115,14.5C 113.294,15.3079 112.461,16.6412 112.5,18.5C 116.465,18.6962 119.965,20.0295 123,22.5C 123.223,29.5937 119.723,32.427 112.5,31C 109.427,30.3028 107.427,28.4695 106.5,25.5C 108.074,24.3691 109.741,24.2025 111.5,25C 113.92,28.1996 116.253,28.1996 118.5,25C 114.88,23.3876 111.38,21.5542 108,19.5C 107.018,16.2253 107.851,13.5586 110.5,11.5 Z"/></g>
<g><path style="opacity:0.75" fill="#000000" d="M 130.5,38.5 C 128.833,38.5 127.167,38.5 125.5,38.5C 125.5,29.5 125.5,20.5 125.5,11.5C 130.439,11.9324 135.439,12.0991 140.5,12C 142.667,12.8333 144.167,14.3333 145,16.5C 147.292,24.5954 144.459,29.5954 136.5,31.5C 134.407,31.5142 132.574,30.8476 131,29.5C 130.502,32.4816 130.335,35.4816 130.5,38.5 Z M 133.5,15.5 C 139.501,15.4565 141.668,18.4565 140,24.5C 137.095,28.327 134.095,28.327 131,24.5C 129.93,20.8579 130.764,17.8579 133.5,15.5 Z"/></g>
<g><path style="opacity:0.765" fill="#000000" d="M 164.5,14.5 C 164.5,19.8333 164.5,25.1667 164.5,30.5C 162.856,30.7135 161.356,30.3802 160,29.5C 155.779,32.192 151.779,31.8587 148,28.5C 146.877,25.0437 147.71,22.2103 150.5,20C 153.559,19.3554 156.559,18.522 159.5,17.5C 158.829,16.0542 157.662,15.3875 156,15.5C 153.816,15.8852 151.982,16.8852 150.5,18.5C 146.724,17.0786 146.724,15.2453 150.5,13C 155.594,10.6216 160.261,11.1216 164.5,14.5 Z M 153.5,22.5 C 155.5,22.5 157.5,22.5 159.5,22.5C 159.2,26.9764 157.033,28.3097 153,26.5C 152.421,25.0715 152.588,23.7382 153.5,22.5 Z"/></g>
</svg>
