<?xml version="1.0" standalone="no"?>
<!DOCTYPE svg PUBLIC "-//W3C//DTD SVG 20010904//EN"
 "http://www.w3.org/TR/2001/REC-SVG-20010904/DTD/svg10.dtd">
<svg version="1.0" xmlns="http://www.w3.org/2000/svg"
 width="256.000000pt" height="256.000000pt" viewBox="0 48.098434 256 160.30156"
 preserveAspectRatio="xMidYMid meet">

<g transform="translate(0.000000,256.000000) scale(0.100000,-0.100000)"
fill="#000000" stroke="none">
<path d="M855 2070 c-11 -5 -54 -9 -95 -9 -89 -1 -120 -17 -120 -62 0 -18 -5
-29 -14 -29 -11 0 -13 7 -6 30 9 33 -2 40 -29 17 -9 -7 -36 -22 -61 -32 -25
-11 -56 -32 -70 -49 -14 -16 -40 -44 -59 -60 -19 -17 -49 -46 -66 -63 -18 -18
-39 -33 -46 -33 -8 0 -31 16 -52 35 -21 19 -54 40 -73 47 -19 6 -34 15 -34 18
0 4 -22 30 -49 58 -28 29 -57 62 -65 74 -15 21 -16 20 -16 -38 0 -33 5 -65 12
-72 9 -9 9 -12 0 -12 -9 0 -12 -44 -12 -170 l0 -169 38 -11 c20 -5 51 -19 67
-30 17 -11 42 -20 56 -20 40 0 53 -22 44 -78 -5 -26 -9 -104 -9 -175 l-1 -127
-35 -31 c-19 -16 -47 -32 -61 -35 -14 -3 -42 -21 -62 -39 l-37 -34 0 -195 c0
-168 2 -196 15 -196 8 0 15 3 15 8 0 14 55 69 75 76 11 3 36 19 55 36 19 17
44 33 55 36 11 4 32 16 47 27 41 30 74 17 89 -35 12 -47 59 -98 118 -128 21
-10 44 -26 51 -35 18 -22 85 -53 140 -64 25 -5 65 -15 90 -21 50 -13 114 -7
175 15 22 8 61 14 87 15 26 0 50 5 53 10 3 5 14 10 22 10 9 0 38 18 64 40 26
22 54 40 62 40 8 0 40 -17 73 -38 75 -47 108 -62 142 -62 15 0 41 -8 57 -17
43 -23 291 -23 360 1 22 8 65 21 95 30 30 9 71 30 90 46 19 17 46 33 60 37 35
8 94 52 117 85 22 34 23 34 57 5 14 -13 51 -31 81 -42 30 -10 55 -21 55 -24 0
-6 29 -22 112 -62 46 -23 48 -17 48 132 0 121 -2 140 -15 135 -8 -3 -15 -2
-15 3 0 5 7 14 15 21 8 7 15 26 15 43 0 34 -33 69 -95 98 -22 10 -48 25 -58
33 -25 19 -30 74 -12 113 23 48 36 177 29 281 -6 76 -4 92 7 92 8 0 40 24 72
53 l57 54 0 181 c0 100 -3 182 -7 182 -5 0 -26 -11 -48 -25 -22 -14 -54 -31
-71 -39 -18 -9 -55 -38 -83 -67 -57 -58 -80 -60 -122 -13 -48 53 -69 71 -106
90 -20 10 -46 27 -57 36 -10 10 -49 27 -85 38 -36 11 -82 26 -101 33 -23 8
-86 11 -184 9 -159 -3 -151 -1 -283 -71 -75 -40 -95 -44 -130 -27 -18 9 -44
16 -57 16 -12 0 -38 14 -56 30 -18 17 -42 30 -51 30 -10 0 -21 5 -24 10 -3 6
-25 10 -48 10 -23 0 -60 7 -82 15 -45 16 -81 18 -110 5z m665 -85 c0 -8 -4
-15 -9 -15 -5 0 -16 -3 -25 -6 -12 -4 -16 0 -16 15 0 16 6 21 25 21 16 0 25
-6 25 -15z m-455 -60 c-40 -38 -45 -41 -45 -24 0 18 74 83 78 70 2 -7 -13 -27
-33 -46z m968 31 c9 -22 -19 -42 -37 -26 -19 15 -10 40 14 40 10 0 20 -6 23
-14z m-1868 -160 c12 -12 12 -16 -1 -27 -19 -15 -37 1 -28 24 8 21 11 21 29 3z
m955 -1 c0 -8 -4 -15 -9 -15 -13 0 -22 16 -14 24 11 11 23 6 23 -9z m-640 -82
c4 -18 4 -33 0 -33 -11 0 -30 58 -29 89 l0 26 11 -25 c6 -14 14 -40 18 -57z
m360 32 c0 -8 -6 -15 -13 -15 -8 0 -27 -7 -44 -15 -16 -8 -44 -18 -62 -21 -29
-6 -33 -4 -29 12 2 13 15 21 38 24 19 4 44 11 55 18 28 16 55 15 55 -3z m1392
-18 c-5 -7 -12 -25 -16 -40 -4 -15 -11 -25 -16 -22 -5 3 -4 19 2 38 14 41 31
63 36 48 2 -7 0 -17 -6 -24z m-450 -15 c66 -7 88 -16 74 -29 -4 -4 -57 -7
-117 -6 -88 0 -114 4 -127 17 -15 15 -15 16 5 16 12 0 25 5 29 11 4 7 19 8 38
4 17 -3 61 -9 98 -13z m-1042 -76 c0 -20 -19 -31 -32 -18 -6 6 -7 15 -4 21 10
16 36 13 36 -3z m1104 -38 c-9 -29 -34 -55 -34 -36 0 14 27 58 36 58 3 0 2
-10 -2 -22z m-1565 -112 c1 -6 -8 0 -19 12 -11 12 -20 34 -19 49 0 27 1 26 19
-12 10 -22 19 -44 19 -49z m946 14 c3 -5 13 -10 22 -10 8 0 25 -10 37 -21 24
-23 109 -59 139 -59 9 0 17 -4 17 -8 0 -21 209 -67 295 -66 109 3 239 11 275
18 l36 7 1 -79 c2 -99 -7 -116 -57 -102 -19 6 -62 10 -95 10 -33 -1 -74 2 -90
5 -17 4 -58 0 -92 -9 -33 -9 -84 -16 -113 -16 -47 0 -56 -4 -87 -36 -19 -20
-37 -34 -40 -30 -4 3 -1 12 5 18 7 7 12 16 12 20 0 16 -26 8 -70 -22 -25 -16
-51 -30 -57 -30 -7 0 -35 -14 -63 -31 -51 -31 -78 -32 -108 -3 -7 8 -20 14
-28 14 -8 0 -14 4 -14 9 0 5 -12 12 -27 16 -15 3 -31 12 -36 18 -5 9 -10 7
-18 -5 -15 -27 -39 -22 -45 10 -4 21 -15 32 -37 40 -62 22 -242 52 -296 50
-31 -1 -83 -1 -117 0 -52 2 -62 5 -71 25 -5 12 -6 33 -2 47 4 14 7 39 8 56 l1
31 68 0 c37 1 105 6 152 13 47 6 101 13 120 14 43 4 98 18 172 45 32 12 66 21
76 21 9 0 33 11 52 25 37 26 65 31 75 15z m-421 -393 c-8 -21 -23 -22 -31 -1
-7 18 17 38 30 25 4 -4 5 -15 1 -24z m1296 13 c-24 -15 -37 -11 -16 5 11 8 22
12 25 9 3 -3 -1 -9 -9 -14z m-1687 -27 c-7 -2 -21 -2 -30 0 -10 3 -4 5 12 5
17 0 24 -2 18 -5z m1376 -55 c-13 -17 -24 -27 -26 -21 -5 13 27 53 40 53 5 0
-2 -14 -14 -32z m-1709 -92 c0 -15 -24 -28 -34 -19 -13 14 -5 33 14 33 11 0
20 -6 20 -14z m2319 -39 c-2 -1 -12 -9 -22 -16 -15 -12 -17 -12 -11 3 3 9 13
16 22 16 8 0 13 -1 11 -3z m-1650 -27 c27 0 56 -6 63 -12 22 -21 56 -38 74
-38 13 0 14 -3 4 -15 -14 -17 -125 -21 -135 -5 -13 21 -67 42 -78 31 -14 -14
-37 -14 -37 -1 0 6 10 10 22 10 17 0 19 3 10 12 -20 20 -15 40 7 28 11 -5 42
-10 70 -10z m991 -39 c0 -17 -23 -25 -64 -22 -45 2 -59 8 -51 22 8 12 115 12
115 0z m114 -56 c4 -10 -1 -15 -14 -15 -11 0 -20 7 -20 15 0 8 6 15 14 15 8 0
16 -7 20 -15z m-284 -45 c0 -12 -26 -19 -40 -10 -10 6 -10 11 1 23 14 15 39 6
39 -13z"/>
</g>
</svg>
