<svg width="100%" height="100%" viewBox="0 0 104 30" fill="none" xmlns="http://www.w3.org/2000/svg">
<path fill="#7652A2" d="M6,0.2C4,0.2,1,0.9,0,1.6c0.1,5.7,4.4,11.2,8.1,14.2C6.7,10.9,5.9,7,6,0.2z M10.3,0.2c1.9,0,4.9,0.7,6,1.5
	c-0.1,5.7-4.4,11.2-8.1,14.2C9.6,10.9,10.4,7,10.3,0.2L10.3,0.2z M30.8,7.7c1-1.7,1.9-4.6,1.8-5.9c-5-2.9-11.8-1.9-16.4-0.2
	C21.2,2.9,24.9,4.2,30.8,7.7L30.8,7.7z M28.6,11.5c-1,1.7-3.1,3.9-4.3,4.4c-4.9-3-7.4-9.5-8.1-14.2C19.7,5.4,22.7,8,28.6,11.5
	L28.6,11.5z M11.9,25.5c1,1.7,3,3.9,4.2,4.5c4.9-2.9,7.6-9.3,8.3-14.1C20.8,19.6,17.8,22.2,11.9,25.5z M9.7,21.7
	c-1-1.7-1.8-4.6-1.7-5.9c5-2.8,11.9-1.7,16.4,0.1C19.4,17.1,15.6,18.3,9.7,21.7z"></path>
<path fill="currentColor" d="M92.8,19c0.1,2,2.3,3.3,4.5,3.3c1.6,0,3.5-0.8,5.3-1.9l0,3.3c-1.6,1.1-3.9,1.8-6,1.8c-5.1,0-7.6-3.7-7.6-7.6
	c-0.1-4,2.1-8.1,7.2-8.1c5.1,0,6.9,3.6,6.9,7.4c0,0.8-0.1,1.6-0.2,1.9H92.8L92.8,19z M99.4,16.1c0-1.2-0.6-3.1-3.1-3.1
	c-2.4,0-3.3,1.9-3.5,3.1H99.4z M77.9,11.8V5.4h3.7V10h5.7v3.4h-5.7v5.6c0,2.4,1.6,3.1,3,3.1c0.6,0,2.1-0.3,3-0.8l0,3.1
	c-1.1,0.5-3.2,0.9-4.5,0.9c-1.7-0.1-3-1-3.8-1.8c-0.8-0.9-1.4-2.2-1.4-4.4V11.8L77.9,11.8z M64.4,9.2l3.8,10l0.1,0l3.8-10h4.1
	L69.8,25c-0.4,0.9-1.3,2.9-2.8,3.9c-2.2,1.5-5.8,0.9-6.6,0.4v-3.2c0.7,0.4,2.7,0.7,3.5,0.5c0.9-0.3,1.7-1,2-1.8
	c0.2-0.4,0.2-0.6,0.2-0.7c0-0.2,0-0.4-0.2-0.8L60.3,9.2H64.4L64.4,9.2z M58.6,3.3h-3.8v21h3.8V3.3z M38.4,3.3H52v3.7h-9.8v5.6H50
	v3.7h-7.7v8h-3.8V3.3z"></path>
</svg>
