<svg width="1465" height="1348" viewBox="0.750244 0.362654 1464.0598 1347.2573" fill="none" xmlns="http://www.w3.org/2000/svg">
<path d="M234.453 121.547C252.361 119.174 270.429 118.194 288.492 118.615C335.638 117.417 382.557 125.466 426.525 142.295C459.665 154.229 490.191 172.295 516.463 195.52C563.528 239.642 604.851 289.364 639.48 343.542C696.492 432.326 747.558 532.987 828.579 618.839C870.431 663.141 920.326 699.323 975.681 725.513C1040.93 753.715 1111.54 767.838 1182.77 766.935C1202.83 767.366 1222.9 766.385 1242.83 764.003L1233.83 645.601C1216.96 648.049 1199.9 649.031 1182.84 648.533C1134.73 649.428 1086.87 641.396 1041.76 624.853C975.622 597.243 918.493 552.16 876.673 494.571C840.926 446.041 807.85 395.65 777.589 343.618C731.395 256.886 671.558 177.924 600.304 109.669C559.913 75.3494 514.346 47.4499 465.243 26.975C407.928 9.32743 348.231 0.354623 288.187 0.362654C266.144 -0.137185 244.09 0.84237 222.182 3.29452L234.453 121.547Z" fill="#6C788C"/>
<path d="M1464.16 218.824V472.469H1337.03V227.544C1337.13 212.644 1331.89 198.187 1322.24 186.723C1311.05 173.114 1296.9 162.145 1280.86 154.623C1267.39 148.211 1253.36 143.027 1238.93 139.137L1231.85 137.408C1224.66 135.408 1217.35 133.852 1209.97 132.747C1205.31 131.564 1200.57 130.685 1195.8 130.116C1176.05 127.095 1156.1 125.537 1136.12 125.455C1111.37 125.84 1086.67 127.798 1062.18 131.319C1019.65 135.771 978.97 150.828 943.967 175.071C907.51 204.689 879.07 242.762 861.194 285.881C852.351 271.297 802.048 192.587 787.261 169.283C788.396 166.386 789.879 163.634 791.683 161.089C822.025 112.269 865.509 72.7124 917.292 46.8205C956.887 29.13 998.611 16.4986 1041.45 9.23236C1073.64 3.4387 1106.29 0.520069 1139.01 0.511903C1191.91 0.296022 1244.6 7.14924 1295.64 20.8847C1347.73 36.2989 1393.36 67.9511 1425.67 111.096C1448 142.982 1461.29 180.173 1464.16 218.824Z" fill="#F2682A"/>
<path d="M677.891 597.714C647.887 650.401 602.608 693.044 547.863 720.177C508.264 737.862 466.54 750.493 423.702 757.764C391.513 763.557 358.861 766.476 326.142 766.484C273.238 766.7 220.549 759.847 169.512 746.112C117.42 730.697 71.7975 699.046 39.4825 655.9C35.0618 649.51 30.946 642.745 26.754 635.527C22.646 627.88 19.0066 619.999 15.8548 611.923C7.71685 591.497 2.73251 569.982 1.06836 548.097V294.603H128.201V539.527C128.099 554.428 133.336 568.885 142.988 580.347C154.183 593.958 168.324 604.927 184.375 612.448C229.997 632.211 279.365 642.154 329.191 641.617C353.937 641.231 378.631 639.272 403.122 635.753C430.495 632.17 457.241 624.91 482.619 614.178C482.619 614.178 482.619 614.178 483.229 614.178C487.86 612.279 492.389 610.147 496.796 607.787C505.376 603.268 513.581 598.089 521.339 592.301C557.796 562.683 586.235 524.61 604.112 481.491C612.877 495.775 663.104 574.483 677.891 597.714Z" fill="#F2622A"/>
<path d="M113.685 1270.28C78.0985 1270.28 50.306 1260.41 30.3073 1240.67C10.6026 1220.93 0.750244 1192.06 0.750244 1154.05V951.196H25.0135V1151.4C25.0135 1185.28 32.5131 1210.18 47.5121 1226.09C62.5111 1241.7 84.7157 1249.51 114.126 1249.51C144.418 1249.51 167.064 1241.55 182.063 1225.64C197.356 1209.73 205.002 1183.07 205.002 1145.65V951.196H229.706V1149.19C229.706 1186.9 220.149 1216.51 201.032 1238.02C182.209 1259.53 153.094 1270.28 113.685 1270.28Z" fill="#263548"/>
<path d="M417.037 1270.72C405.567 1270.72 395.126 1269.1 385.715 1265.86C376.303 1262.62 367.922 1258.5 360.569 1253.49C353.218 1248.18 346.895 1242.14 341.6 1235.37C336.6 1228.59 332.483 1221.67 329.249 1214.6V1267.19H305.867V925.564H329.249V1089.97C332.483 1082.31 336.894 1075.09 342.482 1068.31C348.364 1061.24 355.128 1055.05 362.775 1049.75C370.421 1044.45 378.804 1040.32 387.921 1037.38C397.332 1034.13 407.037 1032.52 417.037 1032.52C431.741 1032.52 445.271 1035.31 457.622 1040.91C470.268 1046.22 481.297 1053.87 490.708 1063.89C500.12 1073.91 507.473 1086.14 512.766 1100.58C518.06 1115.01 520.706 1131.22 520.706 1149.19V1152.72C520.706 1170.7 518.06 1187.05 512.766 1201.78C507.767 1216.22 500.561 1228.59 491.149 1238.9C482.032 1249.22 471.15 1257.17 458.504 1262.77C445.858 1268.07 432.036 1270.72 417.037 1270.72ZM415.271 1250.84C439.682 1250.84 459.24 1242.44 473.946 1225.65C488.944 1208.85 496.444 1184.84 496.444 1153.61V1150.07C496.444 1134.16 494.237 1120.17 489.826 1108.09C485.415 1095.71 479.533 1085.55 472.18 1077.59C464.827 1069.34 456.151 1063.16 446.153 1059.03C436.447 1054.61 426.007 1052.4 414.83 1052.4C403.655 1052.4 392.773 1054.61 382.185 1059.03C371.892 1063.16 362.775 1069.34 354.835 1077.59C346.895 1085.55 340.57 1095.71 335.864 1108.09C331.16 1120.17 328.808 1134.16 328.808 1150.07V1153.61C328.808 1169.52 331.012 1183.51 335.423 1195.59C340.129 1207.67 346.306 1217.84 353.952 1226.09C361.894 1234.04 371.01 1240.23 381.304 1244.65C391.891 1248.77 403.214 1250.84 415.271 1250.84Z" fill="#263548"/>
<path d="M581.278 1036.05H604.66V1267.19H581.278V1036.05ZM592.747 986.552C588.042 986.552 584.072 984.931 580.837 981.691C577.602 978.45 575.985 974.472 575.985 969.757C575.985 965.339 577.602 961.509 580.837 958.267C584.072 955.027 588.042 953.406 592.747 953.406C597.453 953.406 601.277 955.027 604.219 958.267C607.453 961.509 609.071 965.339 609.071 969.757C609.071 974.472 607.453 978.45 604.219 981.691C601.277 984.931 597.453 986.552 592.747 986.552Z" fill="#263548"/>
<path d="M823.779 1249.95C842.602 1249.95 859.807 1246.42 875.393 1239.35C890.981 1232.27 904.363 1222.55 915.538 1210.18C926.715 1197.8 935.391 1183.07 941.567 1165.98C947.742 1148.89 950.83 1130.18 950.83 1109.85V1106.32C950.83 1087.17 947.742 1069.19 941.567 1052.4C935.685 1035.61 927.156 1021.02 915.98 1008.65C904.804 995.979 891.276 986.109 875.393 979.038C859.807 971.672 842.307 967.988 822.898 967.988C803.488 967.988 785.841 971.525 769.959 978.595C754.373 985.667 740.991 995.39 729.814 1007.76C718.639 1020.14 709.964 1034.87 703.787 1051.96C697.61 1068.75 694.522 1087.17 694.522 1107.2V1110.74C694.522 1130.77 697.758 1149.33 704.228 1166.42C710.992 1183.51 720.11 1198.24 731.58 1210.62C743.344 1222.99 757.018 1232.71 772.606 1239.79C788.487 1246.56 805.546 1249.95 823.779 1249.95ZM823.779 1270.72C801.428 1270.72 780.695 1266.6 761.578 1258.35C742.755 1249.8 726.433 1238.46 712.609 1224.32C699.081 1209.88 688.494 1192.94 680.848 1173.49C673.2 1154.05 669.378 1133.28 669.378 1111.18V1107.64C669.378 1085.25 673.2 1064.33 680.848 1044.89C688.494 1025.44 699.081 1008.5 712.609 994.063C726.433 979.627 742.755 968.283 761.578 960.033C780.4 951.785 800.84 947.659 822.898 947.659C845.249 947.659 865.689 951.785 884.217 960.033C903.04 968.283 919.215 979.627 932.743 994.063C946.566 1008.21 957.301 1025 964.947 1044.45C972.595 1063.89 976.417 1084.66 976.417 1106.76V1110.3C976.417 1132.69 972.595 1153.61 964.947 1173.05C957.301 1192.5 946.714 1209.44 933.184 1223.88C919.656 1238.31 903.481 1249.8 884.658 1258.35C866.13 1266.6 845.837 1270.72 823.779 1270.72Z" fill="#263548"/>
<path d="M1039.85 1036.05H1063.23V1089.97C1066.46 1082.31 1070.88 1075.09 1076.46 1068.31C1082.35 1061.24 1089.11 1055.05 1096.76 1049.75C1104.4 1044.45 1112.79 1040.32 1121.9 1037.38C1131.31 1034.13 1141.02 1032.52 1151.02 1032.52C1165.72 1032.52 1179.25 1035.31 1191.6 1040.91C1204.25 1046.22 1215.28 1053.87 1224.69 1063.89C1234.1 1073.91 1241.45 1086.14 1246.75 1100.58C1252.04 1115.01 1254.69 1131.22 1254.69 1149.19V1152.72C1254.69 1170.7 1252.04 1187.05 1246.75 1201.78C1241.75 1216.22 1234.54 1228.59 1225.13 1238.9C1216.01 1249.22 1205.13 1257.17 1192.49 1262.77C1179.84 1268.07 1166.02 1270.72 1151.02 1270.72C1139.55 1270.72 1129.11 1269.1 1119.7 1265.86C1110.29 1262.62 1101.9 1258.5 1094.55 1253.49C1087.2 1248.18 1080.88 1242.14 1075.58 1235.37C1070.58 1228.59 1066.46 1221.67 1063.23 1214.6V1347.62H1039.85V1036.05ZM1149.25 1250.84C1173.66 1250.84 1193.22 1242.44 1207.93 1225.65C1222.93 1208.85 1230.42 1184.84 1230.42 1153.61V1150.07C1230.42 1134.16 1228.22 1120.17 1223.81 1108.09C1219.4 1095.71 1213.51 1085.55 1206.16 1077.59C1198.81 1069.34 1190.13 1063.16 1180.13 1059.03C1170.43 1054.61 1159.99 1052.4 1148.81 1052.4C1137.64 1052.4 1126.76 1054.61 1116.17 1059.03C1105.87 1063.16 1096.76 1069.34 1088.82 1077.59C1080.88 1085.55 1074.55 1095.71 1069.85 1108.09C1065.14 1120.17 1062.79 1134.16 1062.79 1150.07V1153.61C1062.79 1169.52 1064.99 1183.51 1069.41 1195.59C1074.11 1207.67 1080.29 1217.84 1087.93 1226.09C1095.87 1234.04 1104.99 1240.23 1115.29 1244.65C1125.87 1248.77 1137.2 1250.84 1149.25 1250.84Z" fill="#263548"/>
<path d="M1383.64 1271.17C1356.28 1271.17 1334.96 1264.54 1319.67 1251.28C1304.67 1238.02 1296.44 1220.34 1294.96 1198.24H1317.46C1319.52 1214.16 1325.7 1226.97 1335.99 1236.69C1346.29 1246.42 1362.17 1251.28 1383.64 1251.28C1403.05 1251.28 1417.6 1247.3 1427.31 1239.35C1437.31 1231.1 1442.31 1219.9 1442.31 1205.76C1442.31 1198.39 1441.13 1192.21 1438.78 1187.2C1436.72 1182.19 1433.19 1177.92 1428.19 1174.38C1423.49 1170.84 1417.31 1167.9 1409.66 1165.54C1402.02 1163.18 1392.75 1160.97 1381.87 1158.91C1367.75 1156.26 1355.7 1153.31 1345.7 1150.07C1335.7 1146.83 1327.46 1142.71 1320.99 1137.7C1314.52 1132.69 1309.82 1126.8 1306.87 1120.02C1303.93 1112.95 1302.46 1104.4 1302.46 1094.39C1302.46 1084.66 1304.52 1075.97 1308.64 1068.31C1313.05 1060.65 1318.79 1054.17 1325.85 1048.87C1332.9 1043.56 1340.99 1039.58 1350.11 1036.93C1359.23 1033.99 1368.64 1032.52 1378.34 1032.52C1388.63 1032.52 1398.34 1033.69 1407.46 1036.05C1416.57 1038.11 1424.66 1041.65 1431.72 1046.66C1438.78 1051.67 1444.66 1058.15 1449.37 1066.1C1454.07 1074.06 1457.16 1083.78 1458.63 1095.27H1436.13C1433.19 1080.25 1426.87 1069.34 1417.16 1062.57C1407.75 1055.79 1394.66 1052.4 1377.9 1052.4C1361.73 1052.4 1348.64 1056.23 1338.64 1063.89C1328.93 1071.26 1324.08 1081.13 1324.08 1093.5C1324.08 1099.99 1325.11 1105.58 1327.17 1110.3C1329.52 1115.01 1333.05 1119.14 1337.76 1122.67C1342.76 1125.91 1349.23 1128.86 1357.17 1131.51C1365.4 1133.87 1375.4 1136.08 1387.17 1138.14C1399.52 1140.2 1410.55 1142.71 1420.25 1145.65C1429.96 1148.6 1438.04 1152.58 1444.51 1157.59C1451.28 1162.3 1456.28 1168.49 1459.51 1176.15C1463.04 1183.51 1464.81 1192.79 1464.81 1203.99C1464.81 1223.44 1457.89 1239.49 1444.07 1252.16C1430.25 1264.83 1410.1 1271.17 1383.64 1271.17Z" fill="#263548"/>
</svg>
