<svg width="201" height="49" fill="none" xmlns="http://www.w3.org/2000/svg"><path d="M55.212 14.593c1.502.596 2.558 1.435 3.157 2.516.6 1.081.903 2.433.903 4.036 0 1.603-.304 2.954-.903 4.035-.6 1.082-1.655 1.93-3.157 2.536-1.503.605-3.585.904-6.248.904h-4.973v6.347h-4.136V13.698h9.119c2.653 0 4.726.298 6.238.895zm-2.32 10.522c.855-.289 1.445-.745 1.759-1.36.314-.616.475-1.482.475-2.61 0-1.146-.161-2.032-.475-2.656-.323-.625-.904-1.072-1.76-1.342-.855-.27-2.1-.41-3.736-.41H43.99v8.816h5.173c1.626 0 2.872-.14 3.728-.438zm20.511-2.843h-7.35v12.703h-4.137V19.206h11.487v3.066zM91.1 28.526H78.614c.153 1.193.637 2.097 1.455 2.74.818.634 2.225.95 4.213.95.998 0 1.883-.027 2.663-.092a24.18 24.18 0 002.852-.438v3c-1.35.27-2.396.439-3.119.504-.732.065-1.55.093-2.472.093-3.851 0-6.457-.82-7.817-2.451-1.35-1.64-2.025-3.551-2.025-5.741 0-2.563.675-4.576 2.025-6.021 1.35-1.454 3.471-2.18 6.362-2.18 5.563 0 8.35 2.627 8.35 7.884v1.752zM79.641 22.87c-.665.606-1.036 1.528-1.112 2.787h8.463c-.029-1.296-.38-2.228-1.056-2.815-.675-.587-1.74-.876-3.195-.876-1.397-.01-2.434.298-3.1.904zm31.562-9.796v21.902h-4.099v-1.91c-1.255 1.481-3.157 2.217-5.705 2.217-2.91 0-5.04-.745-6.381-2.236-1.34-1.492-2.016-3.477-2.016-5.956 0-2.48.675-4.464 2.016-5.955 1.34-1.492 3.461-2.237 6.381-2.237 2.548 0 4.45.736 5.705 2.218v-1.258h-.038v-6.785h4.137zm-5.249 17.96c.77-.793 1.15-2.107 1.15-3.943 0-1.836-.38-3.15-1.15-3.942-.771-.793-2.045-1.193-3.833-1.193-1.816 0-3.1.4-3.87 1.193-.77.792-1.15 2.106-1.15 3.942 0 1.836.38 3.15 1.15 3.942.77.793 2.054 1.193 3.87 1.193 1.798-.009 3.072-.4 3.833-1.193zm13.103-17.96v3.131h-4.137v-3.131h4.137zm0 6.132v15.77h-4.137v-15.77h4.137zm19.589 1.92c1.341 1.491 2.016 3.477 2.016 5.956 0 2.479-.675 4.464-2.016 5.955-1.341 1.491-3.461 2.237-6.381 2.237-2.548 0-4.459-.736-5.705-2.218v1.91h-4.099V13.075h4.137v6.785h-.038v1.249c1.255-1.482 3.157-2.219 5.705-2.219 2.92 0 5.04.746 6.381 2.237zm-3.233 9.907c.77-.792 1.151-2.106 1.151-3.942 0-1.836-.381-3.15-1.151-3.942-.77-.793-2.054-1.193-3.87-1.193-1.788 0-3.062.4-3.832 1.193-.761.792-1.151 2.106-1.151 3.942 0 1.836.38 3.15 1.151 3.942.77.793 2.044 1.193 3.832 1.193 1.816-.009 3.1-.4 3.87-1.193zm25.732.625v3.317h-6.476V33.41a5.597 5.597 0 01-2.13 1.407c-.827.317-1.892.466-3.195.466-1.483 0-2.738-.26-3.775-.783-1.036-.522-1.807-1.211-2.32-2.06a5.307 5.307 0 01-.77-2.786c0-1.007.256-1.93.77-2.787.513-.857 1.284-1.547 2.32-2.06 1.037-.521 2.292-.782 3.775-.782 1.303 0 2.368.158 3.195.466a5.667 5.667 0 012.13 1.407v-3.69h-9.956v-3.002h14.093v12.452h2.339zm-7.484-.047c.676-.466 1.018-1.118 1.018-1.957 0-.83-.342-1.491-1.018-1.967-.675-.475-1.683-.717-3.005-.717-1.331 0-2.329.242-3.004.717-.676.476-1.018 1.137-1.018 1.967 0 .839.342 1.482 1.018 1.957.675.466 1.683.708 3.004.708 1.322-.009 2.33-.242 3.005-.708zm14.654-9.339v3.188h10.765v9.506h-15.624V31.9h11.487v-3.532h-10.764v-9.162h14.901v3.066h-10.765zm29.298 6.254h-12.485c.152 1.193.637 2.097 1.455 2.74.817.634 2.225.95 4.212.95.999 0 1.883-.027 2.663-.092.779-.066 1.73-.205 2.853-.438v3c-1.351.27-2.397.439-3.12.504-.732.065-1.55.093-2.472.093-3.851 0-6.457-.82-7.817-2.451-1.35-1.64-2.025-3.551-2.025-5.741 0-2.563.675-4.576 2.025-6.021 1.351-1.454 3.471-2.18 6.362-2.18 5.563 0 8.349 2.627 8.349 7.884v1.752zm-11.458-5.657c-.666.606-1.037 1.528-1.113 2.787h8.463c-.028-1.296-.38-2.228-1.055-2.815-.675-.587-1.74-.876-3.195-.876-1.398-.01-2.435.298-3.1.904z" fill="#0E0C0C"></path><path d="M20.817 11.431v17.357H3.46V20.1l8.678-8.669h8.679z" fill="#CECECE"></path><path d="M29.486 20.11v8.678l-8.67 8.669h-8.678V20.109h17.348z" fill="#E25636"></path><path d="M20.817 20.11h-8.679v8.678h8.679v-8.679z" fill="#E25636" style="mix-blend-mode:multiply"></path></svg>
