<svg width="651" height="93" viewBox="0 5 648.18 88" fill="none" xmlns="http://www.w3.org/2000/svg">
<path d="M88 49C88 30.2354 88 20.8531 83.0405 14.3897C81.7637 12.7258 80.2742 11.2363 78.6103 9.95952C72.1469 5 62.7646 5 44 5C44 29.3003 63.6995 49 88 49Z" fill="#2E9AFF" style="fill:#2E9AFF;fill:color(display-p3 0.1800 0.6037 1.0000);fill-opacity:1;"/>
<path d="M0 49C0 67.7646 0 77.1469 4.95952 83.6103C6.23633 85.2742 7.72575 86.7637 9.38972 88.0405C15.8531 93 25.2354 93 44 93C44 68.6997 24.3005 49 0 49Z" fill="#2957FF" style="fill:#2957FF;fill:color(display-p3 0.1600 0.3420 1.0000);fill-opacity:1;"/>
<path d="M4.95952 14.3897C0 20.8531 0 30.2354 0 49C24.3005 49 44 29.3003 44 5C25.2354 5 15.8531 5 9.38972 9.95952C7.72575 11.2363 6.23633 12.7258 4.95952 14.3897Z" fill="#57C1FF" style="fill:#57C1FF;fill:color(display-p3 0.3400 0.7580 1.0000);fill-opacity:1;"/>
<path d="M44 93C62.7646 93 72.1469 93 78.6103 88.0405C80.2742 86.7637 81.7637 85.2742 83.0405 83.6103C88 77.1469 88 67.7646 88 49C63.6995 49 44 68.6997 44 93Z" fill="#2B7BF3" style="fill:#2B7BF3;fill:color(display-p3 0.1684 0.4817 0.9516);fill-opacity:1;"/>
<path d="M136.416 77V31.34H120.382V23.5519H161.155V31.34H145.121V77H136.416ZM192.904 52.1848V58.9804H161.216C162.209 66.4631 166.79 70.968 173.051 70.968C177.938 70.968 181.909 68.2192 183.359 64.0961H192.522C190.766 72.266 183.207 78.2217 173.051 78.2217C160.682 78.2217 152.359 69.3646 152.359 56.0025C152.359 42.106 160.835 33.7834 173.051 33.7834C184.505 33.7834 192.904 41.6479 192.904 52.1848ZM173.051 41.0371C166.714 41.0371 162.362 45.542 161.293 51.4976H184.428C183.512 45.3129 179.236 41.0371 173.051 41.0371ZM197.551 77V15.9165H205.95V77H197.551ZM251.106 52.1848V58.9804H219.419C220.411 66.4631 224.993 70.968 231.254 70.968C236.14 70.968 240.111 68.2192 241.562 64.0961H250.724C248.968 72.266 241.409 78.2217 231.254 78.2217C218.884 78.2217 210.562 69.3646 210.562 56.0025C210.562 42.106 219.037 33.7834 231.254 33.7834C242.707 33.7834 251.106 41.6479 251.106 52.1848ZM231.254 41.0371C224.916 41.0371 220.564 45.542 219.495 51.4976H242.631C241.714 45.3129 237.438 41.0371 231.254 41.0371ZM270.872 78.2217C261.098 78.2217 253.921 71.8079 253.386 63.1035H262.167C262.625 67.6848 265.985 70.968 270.872 70.968C276.369 70.968 280.034 68.2192 280.034 64.6306C280.034 60.5838 277.82 58.904 270.566 58.904H268.276C260.411 58.904 254.15 54.5518 254.15 46.9927C254.15 40.5026 259.8 33.7834 271.177 33.7834C281.103 33.7834 287.364 40.1208 287.975 48.5962H279.194C278.812 43.7858 275.987 41.0371 271.177 41.0371C265.756 41.0371 262.854 43.5568 262.854 46.9927C262.854 50.2759 264.305 51.4976 271.559 51.574H273.162C282.63 51.574 288.739 56.8424 288.739 64.6306C288.739 71.4261 282.63 78.2217 270.872 78.2217ZM312.133 78.2217C299.534 78.2217 291.059 69.3646 291.059 55.9262C291.059 42.8696 298.923 33.7834 312.133 33.7834C324.197 33.7834 330.84 41.5715 331.756 51.0395H323.051C322.67 45.6947 318.852 41.0371 312.133 41.0371C304.497 41.0371 299.763 47.2218 299.763 55.9262C299.763 65.1651 305.185 70.968 312.133 70.968C318.776 70.968 322.441 65.9286 323.051 61.8055H331.756C330.611 70.4335 323.815 78.2217 312.133 78.2217ZM354.581 78.2217C342.823 78.2217 333.507 70.2045 333.507 56.0025C333.507 41.7243 342.823 33.7834 354.581 33.7834C366.34 33.7834 375.655 41.7243 375.655 56.0025C375.655 70.2045 366.34 78.2217 354.581 78.2217ZM354.581 70.968C361.453 70.8916 366.951 66.1577 366.951 56.0025C366.951 45.771 361.453 41.1134 354.581 41.0371C347.709 40.9607 342.212 45.771 342.212 56.0025C342.212 66.1577 347.709 71.0444 354.581 70.968ZM388.738 37.0666C388.738 38.5937 388.738 39.8154 388.586 41.4952H388.738C392.022 36.3794 397.214 33.7834 403.093 33.7834C413.401 33.7834 422.411 41.4952 422.411 55.7735C422.411 70.3572 413.401 78.2217 403.093 78.2217C396.985 78.2217 391.793 75.5493 388.738 70.5099H388.586C388.738 72.266 388.738 73.5641 388.738 75.1675V89.9803H380.339V35.0051H388.738V37.0666ZM400.955 70.968C408.591 71.0444 413.63 64.8596 413.63 55.7735C413.63 46.9164 408.591 40.9607 400.955 41.0371C393.167 41.1134 388.662 47.6035 388.662 55.6971C388.662 64.2488 393.167 70.8916 400.955 70.968ZM464.988 52.1848V58.9804H433.301C434.293 66.4631 438.875 70.968 445.136 70.968C450.022 70.968 453.993 68.2192 455.444 64.0961H464.606C462.85 72.266 455.291 78.2217 445.136 78.2217C432.766 78.2217 424.444 69.3646 424.444 56.0025C424.444 42.106 432.919 33.7834 445.136 33.7834C456.589 33.7834 464.988 41.6479 464.988 52.1848ZM445.136 41.0371C438.798 41.0371 434.446 45.542 433.377 51.4976H456.512C455.596 45.3129 451.32 41.0371 445.136 41.0371ZM495.29 69.2118H519.189V77H486.662V23.5519H495.29V69.2118ZM563.054 69.67H565.574V77H561.833C557.099 77 553.892 74.3276 552.747 70.0517H552.212C548.852 75.1675 543.66 78.2217 537.552 78.2217C527.168 78.2217 518.234 70.4335 518.234 56.0025C518.234 41.6479 527.168 33.7834 537.552 33.7834C543.279 33.7834 548.242 35.845 551.754 40.808H551.907V35.0051H560.306V67.0739C560.306 68.7537 561.298 69.67 563.054 69.67ZM539.69 70.968C547.325 70.8916 552.212 63.9434 552.212 56.0789C552.212 47.8326 547.554 41.1134 539.69 41.0371C532.054 40.9607 526.939 47.1454 526.939 56.0025C526.939 65.0887 532.054 71.0444 539.69 70.968ZM576.97 37.0666C576.97 38.5937 576.97 39.8154 576.817 41.4952H576.97C580.253 36.3794 585.445 33.7834 591.325 33.7834C601.632 33.7834 610.642 41.4952 610.642 55.7735C610.642 70.3572 601.632 78.2217 591.325 78.2217C585.216 78.2217 580.024 75.5493 576.97 70.5099H576.817C576.97 72.266 576.97 73.5641 576.97 75.1675V77H568.571V15.9165H576.97V37.0666ZM589.187 70.968C596.822 71.0444 601.861 64.8596 601.861 55.7735C601.861 46.9164 596.822 40.9607 589.187 41.0371C581.398 41.1134 576.894 47.6035 576.894 55.6971C576.894 64.2488 581.398 70.8916 589.187 70.968ZM630.313 78.2217C620.54 78.2217 613.362 71.8079 612.828 63.1035H621.609C622.067 67.6848 625.426 70.968 630.313 70.968C635.811 70.968 639.476 68.2192 639.476 64.6306C639.476 60.5838 637.261 58.904 630.008 58.904H627.717C619.853 58.904 613.591 54.5518 613.591 46.9927C613.591 40.5026 619.242 33.7834 630.618 33.7834C640.545 33.7834 646.806 40.1208 647.416 48.5962H638.636C638.254 43.7858 635.429 41.0371 630.618 41.0371C625.197 41.0371 622.296 43.5568 622.296 46.9927C622.296 50.2759 623.747 51.4976 631 51.574H632.604C642.072 51.574 648.18 56.8424 648.18 64.6306C648.18 71.4261 642.072 78.2217 630.313 78.2217Z" fill="black" style="fill:black;fill-opacity:1;"/>
</svg>
