<svg width="23" height="34" viewBox="0.0000917276 0.0291608 22.99981 33.97084" fill="none" xmlns="http://www.w3.org/2000/svg">
<g id="Foxie/Main">
<path id="Foxie" fill-rule="evenodd" clip-rule="evenodd" d="M12.5206 0.272105L10.8718 4.79798C10.8371 4.89315 10.8776 4.99891 10.9677 5.0484L18.8915 9.40177C18.9296 9.42271 18.9511 9.46409 18.9458 9.50655C18.8198 10.5179 17.8456 11.2224 16.8116 11.0991C14.1043 10.7761 9.10424 10.4536 5.82891 11.8882C5.12524 12.1965 4.38791 11.1629 4.00382 10.5042C3.81362 10.178 3.73088 9.80237 3.77939 9.42989C4.37065 4.88998 10.4694 1.05035 12.2316 0.0291608C12.3988 -0.067713 12.5858 0.0930801 12.5206 0.272105ZM14.0117 5.60783L12.0799 4.62395C12.0417 4.6045 12.0201 4.56369 12.0259 4.52197L12.0398 4.42262C12.1908 3.34232 12.7527 2.35743 13.6135 1.66454C13.6747 1.61522 13.7676 1.65484 13.7719 1.73234C13.7933 2.11879 13.8505 3.01988 13.9465 3.64359C14.0299 4.18555 14.2026 4.90754 14.3195 5.36946C14.3638 5.54446 14.1752 5.69109 14.0117 5.60783ZM9.79986 25.5799C5.18553 25.5799 5.15051 15.84 5.19136 13.8532C5.19584 13.6356 5.33307 13.4487 5.53869 13.3655C11.6636 10.8853 18.6246 14.2187 20.3784 20.4715L21.6729 25.087C21.7425 25.3351 21.5518 25.5799 21.2888 25.5799H9.79986ZM7.15734 26.996C6.21702 26.996 5.28592 27.1772 4.41718 27.5292C3.54844 27.8811 2.75908 28.397 2.09418 29.0474C1.42928 29.6977 0.901848 30.4698 0.542005 31.3195C0.209227 32.1053 0.0258019 32.9433 9.17276e-05 33.7923C-0.00337505 33.9068 0.0918789 33.9997 0.208976 33.9997H7.14345V34H15.8427C16.783 34 17.7141 33.8189 18.5828 33.4669C19.4516 33.115 20.2409 32.5991 20.9058 31.9487C21.5707 31.2984 22.0982 30.5263 22.458 29.6766C22.7908 28.8908 22.9742 28.0528 22.9999 27.2038C23.0034 27.0893 22.9081 26.9964 22.791 26.9964L7.15734 26.9964V26.996ZM1.50345 32.6583C1.94458 30.0438 4.25944 28.1058 6.99191 28.1058C7.0697 28.1058 7.11657 28.1901 7.0743 28.254L5.63986 30.4217C5.59388 30.4912 5.59455 30.5808 5.64157 30.6496L6.95194 32.5676C7.04609 32.7054 6.9451 32.8902 6.77565 32.8902H1.70887C1.58162 32.8902 1.48273 32.7811 1.50345 32.6583Z" fill="#1F1E1E"/>
</g>
</svg>
