<svg width="590" height="70" viewBox="1 1 587 68" fill="none" xmlns="http://www.w3.org/2000/svg">
<path fill-rule="evenodd" clip-rule="evenodd" d="M448.176 36.3259C441.593 31.05 435.95 30.4725 425.182 29.3707L424.201 29.2702C422.883 29.1636 404.323 27.6247 402.922 27.4944C390.228 26.3224 391.142 20.5808 391.142 20.5808C391.142 14.2354 403.967 13.7263 403.967 13.7263C414.606 12.6609 435.423 12.9687 436.729 22.3329H451.465C450.135 3.84123 427.17 1.17758 412.445 1C402.684 1.23677 392.033 1.82869 383.59 7.30989C374.126 13.5369 375.052 25.9436 380.989 31.5077C383.293 33.5202 386.808 36.2667 394.004 37.6045C397.317 38.2082 402.732 39.0132 410.165 39.546C410.165 39.546 422.04 40.2681 424.581 40.4694C424.699 40.4785 424.82 40.4878 424.947 40.4975L424.951 40.4979C428.92 40.8008 437.321 41.4424 438.023 47.7382C438.795 54.6755 426.813 56.688 414.511 56.688C409.12 56.6525 403.634 56.4513 397.958 54.8649C393.161 53.4916 390.406 50.6859 389.943 46.0098H389.836H375.372C375.349 65.9102 398.041 68.9882 413.882 68.9882C424.676 68.7277 436.372 67.9819 445.718 62.0035C456.025 55.2674 454.944 42.1978 448.164 36.3259H448.176ZM96.3654 1.98269H96.3535V68.0175H96.3654H165.132V55.528H109.831V41.1916H159.135V28.7021H109.831V14.4723H165.132V1.98269H109.831H96.3654ZM260.544 1.98269H274.022V68.0175H260.544V1.98269ZM574.522 1.98269H588V68.0175H574.522V1.98269ZM244.217 20.0008C244.217 26.7369 241.224 31.2947 237.614 33.6624C241.212 34.7397 248.361 39.7947 248.361 49.3365C248.361 60.4528 241.877 68.0412 221.999 68.0412V68.0175H178.906V1.98269H217.95V2.03004C229.457 2.10107 244.217 4.65817 244.217 20.0008ZM220.337 14.4604H192.384V28.9862H222.177C225.835 28.9507 231.273 27.7787 231.273 22.2028C231.273 16.6269 226.524 14.4604 220.337 14.4604ZM192.384 55.528H222.177C228.412 55.5161 234.42 54.5217 234.42 48.2237C234.42 41.9256 227.794 40.7299 221.987 40.7299V40.6944H192.384V55.528ZM289.067 1.98269H303.329V33.982C303.329 38.0401 303.649 45.8818 304.894 52.4024H304.896C304.896 52.4024 312.603 55.2081 326.793 55.2081C340.899 55.2081 348.657 52.4357 348.748 52.4029L348.749 52.4026C348.381 54.3202 347.942 56.1315 347.396 57.6823C344.997 64.525 338.656 68.8697 326.817 68.8697C314.978 68.8697 308.625 64.525 306.238 57.6823C305.693 56.1339 305.254 54.3258 304.886 52.4113C296.566 49.8297 289.067 44.9288 289.067 35.6276V1.98269ZM348.749 52.4026C349.996 45.8797 350.317 38.0308 350.317 33.9702V1.98269H364.578V35.6157C364.578 44.9326 357.074 49.8218 348.749 52.4026ZM67.9375 58.31C67.9375 58.31 81.3202 57.505 81.3202 42.1742V2.03009H67.9375V58.31ZM1 68.0172V27.873C1 12.5516 14.3664 11.7383 14.3827 11.7372C14.3829 6.20881 18.7409 1.0474 25.1293 1.0474C31.5179 1.0474 36.0184 4.57526 38.7733 10.8496L55.6234 49.6205C59.8864 59.4227 67.9375 58.31 67.9375 58.31C67.9375 63.8386 63.5795 69 57.1909 69C50.8023 69 46.3018 65.4722 43.5469 59.1978L26.6968 20.4269C22.437 10.6321 14.3949 11.7356 14.3827 11.7372V68.0172H1ZM483.325 68.0175L513.819 1.98269H533.21L563.716 68.0175H548.03L541.974 54.3323H505.067L499.011 68.0175H483.325ZM510.553 41.8427H536.476L536.238 41.31L524.471 14.4723H522.559L510.791 41.31L510.553 41.8427Z" fill="#052B42"/>
</svg>
