<?xml version="1.0" encoding="UTF-8"?>
<!DOCTYPE svg PUBLIC "-//W3C//DTD SVG 1.1//EN" "http://www.w3.org/Graphics/SVG/1.1/DTD/svg11.dtd">
<svg xmlns="http://www.w3.org/2000/svg" version="1.1" width="750px" height="275px" style="shape-rendering:geometricPrecision; text-rendering:geometricPrecision; image-rendering:optimizeQuality; fill-rule:evenodd; clip-rule:evenodd" xmlns:xlink="http://www.w3.org/1999/xlink">
<g><path style="opacity:0.966" fill="#0193e1" d="M 233.5,274.5 C 229.833,274.5 226.167,274.5 222.5,274.5C 217.564,273.827 212.564,272.827 207.5,271.5C 207.636,263.778 209.302,256.278 212.5,249C 233.463,251.693 246.63,242.86 252,222.5C 259.51,183.431 267.343,144.431 275.5,105.5C 275.43,104.228 275.097,103.062 274.5,102C 264.172,101.5 253.839,101.334 243.5,101.5C 243.665,94.1831 244.665,87.0164 246.5,80C 257.828,79.5001 269.162,79.3335 280.5,79.5C 283.558,64.8225 286.725,50.1558 290,35.5C 301.951,7.43536 323.118,-4.06464 353.5,1C 355.74,1.97696 358.073,2.47696 360.5,2.5C 359.034,10.2255 357.368,17.8922 355.5,25.5C 336.479,22.3164 323.645,29.6497 317,47.5C 314.416,58.0969 312.249,68.7636 310.5,79.5C 323.167,79.5 335.833,79.5 348.5,79.5C 348.14,87.0258 346.473,94.1925 343.5,101C 330.838,101.5 318.171,101.667 305.5,101.5C 296.452,148.675 286.619,195.675 276,242.5C 267.53,260.81 253.363,271.477 233.5,274.5 Z"/></g>
<g><path style="opacity:0.97" fill="#0193e1" d="M 375.5,51.5 C 384.167,51.5 392.833,51.5 401.5,51.5C 390.167,105.167 378.833,158.833 367.5,212.5C 358.5,212.5 349.5,212.5 340.5,212.5C 352.04,158.801 363.706,105.134 375.5,51.5 Z"/></g>
<g><path style="opacity:0.937" fill="#323232" d="M 190.5,53.5 C 199.5,53.5 208.5,53.5 217.5,53.5C 217.5,106.833 217.5,160.167 217.5,213.5C 208.5,213.5 199.5,213.5 190.5,213.5C 190.5,160.167 190.5,106.833 190.5,53.5 Z"/></g>
<g><path style="opacity:0.964" fill="#323232" d="M -0.5,213.5 C -0.5,177.5 -0.5,141.5 -0.5,105.5C 7.83333,105.5 16.1667,105.5 24.5,105.5C 24.3347,109.182 24.5014,112.848 25,116.5C 39.2109,102.059 55.7109,98.8918 74.5,107C 79.5978,110.352 83.9311,114.519 87.5,119.5C 99.4941,104.826 114.827,99.6592 133.5,104C 149.828,109.121 158.661,120.287 160,137.5C 160.5,162.831 160.667,188.164 160.5,213.5C 151.915,213.817 143.415,213.483 135,212.5C 134.667,188.5 134.333,164.5 134,140.5C 131.162,130.824 124.662,126.157 114.5,126.5C 104.066,127.089 97.2327,132.423 94,142.5C 93.6667,165.833 93.3333,189.167 93,212.5C 84.5851,213.483 76.0851,213.817 67.5,213.5C 67.9299,188.799 67.4299,164.133 66,139.5C 60.1907,127.108 50.6907,123.275 37.5,128C 31.6559,131.163 27.8226,135.996 26,142.5C 25.5,166.164 25.3334,189.831 25.5,213.5C 16.8333,213.5 8.16667,213.5 -0.5,213.5 Z"/></g>
<g><path style="opacity:0.968" fill="#43c9ed" d="M 455.5,102.5 C 469.387,101.471 482.054,104.804 493.5,112.5C 483.748,121.214 473.414,129.214 462.5,136.5C 461.508,132.217 461.174,127.884 461.5,123.5C 441.937,126.23 430.937,137.396 428.5,157C 428.804,165.249 431.471,172.583 436.5,179C 430.974,183.36 425.307,187.526 419.5,191.5C 414.222,186.621 410.722,180.621 409,173.5C 402.498,135.126 417.998,111.459 455.5,102.5 Z"/></g>
<g><path style="opacity:0.963" fill="#0193e2" d="M 538.5,104.5 C 547.54,104.252 556.54,104.585 565.5,105.5C 566.821,126.175 568.321,146.841 570,167.5C 570.14,170.043 570.806,172.377 572,174.5C 583.825,151.514 596.158,128.847 609,106.5C 613.586,105.847 618.253,105.513 623,105.5C 627.919,105.532 632.586,106.199 637,107.5C 640.453,129.841 643.953,152.174 647.5,174.5C 659.335,151.832 670.335,128.832 680.5,105.5C 689.5,105.5 698.5,105.5 707.5,105.5C 690.952,141.883 673.285,177.716 654.5,213C 645.588,213.816 636.755,213.65 628,212.5C 624.324,188.109 620.324,163.776 616,139.5C 602.833,164 589.667,188.5 576.5,213C 567.173,213.5 557.839,213.666 548.5,213.5C 544.83,178.636 540.83,143.803 536.5,109C 536.759,107.213 537.425,105.713 538.5,104.5 Z"/></g>
<g><path style="opacity:0.701" fill="#0093e2" d="M 716.5,105.5 C 721.167,105.5 725.833,105.5 730.5,105.5C 730.5,106.5 730.5,107.5 730.5,108.5C 728.833,108.5 727.167,108.5 725.5,108.5C 725.5,113.5 725.5,118.5 725.5,123.5C 724.5,123.5 723.5,123.5 722.5,123.5C 722.5,118.5 722.5,113.5 722.5,108.5C 720.5,108.5 718.5,108.5 716.5,108.5C 716.5,107.5 716.5,106.5 716.5,105.5 Z"/></g>
<g><path style="opacity:0.774" fill="#0093e1" d="M 732.5,105.5 C 733.833,105.5 735.167,105.5 736.5,105.5C 737.16,109.313 738.326,112.979 740,116.5C 741.589,113.243 743.089,109.91 744.5,106.5C 745.325,105.614 746.325,105.281 747.5,105.5C 747.829,111.537 747.496,117.537 746.5,123.5C 745.675,119.878 745.175,116.211 745,112.5C 743.803,115.089 742.803,117.756 742,120.5C 740.989,121.337 739.822,121.67 738.5,121.5C 738.174,118.689 737.341,116.022 736,113.5C 735.502,116.817 735.335,120.15 735.5,123.5C 734.5,123.5 733.5,123.5 732.5,123.5C 732.5,117.5 732.5,111.5 732.5,105.5 Z"/></g>
<g><path style="opacity:0.962" fill="#0194e2" d="M 503.5,123.5 C 505.592,123.561 507.092,124.561 508,126.5C 523.413,155.99 518.579,181.49 493.5,203C 472.883,215.448 452.216,215.615 431.5,203.5C 430.167,202.5 430.167,201.5 431.5,200.5C 441.219,192.78 451.219,185.447 461.5,178.5C 462.167,182.833 462.833,187.167 463.5,191.5C 488.592,185.914 498.426,170.581 493,145.5C 491.998,141.836 490.164,138.669 487.5,136C 493.02,131.97 498.353,127.803 503.5,123.5 Z"/></g>
</svg>
