<svg xmlns="http://www.w3.org/2000/svg" xmlns:xlink="http://www.w3.org/1999/xlink" fill="none" version="1.1" width="446" height="67" viewBox="0 0 446 67"><g><g><path d="M77.5886,0L77.5886,67L60.6803,67L60.6803,26.8063L45.5102,67L32.1732,67L16.9083,26.7112L16.9083,67L0,67L0,0L19.9107,0L38.9365,46.3797L57.7727,0L77.5886,0ZM147.719,0L124.11,44.857L124.11,67L107.202,67L107.202,44.857L83.625,0L102.43,0L115.798,28.0753L129.072,0L147.719,0ZM178.154,67Q170.632,67,164.69,64.5573Q158.78,62.1146,155.24,57.3243Q151.701,52.5341,151.701,45.777L168.514,45.777Q168.925,49.1397,171.327,50.9162Q173.729,52.661,177.553,52.661Q181.504,52.661,183.779,51.0748Q186.086,49.4886,186.086,46.697Q186.086,44.3177,184.348,42.795Q182.641,41.2722,180.113,40.2888Q177.616,39.2737,173.002,38.0047Q166.302,36.1013,162.067,34.1979Q157.832,32.2945,154.766,28.5829Q151.701,24.8712,151.701,18.9072Q151.701,10.0246,158.496,5.01231Q165.291,0,176.257,0Q187.382,0,194.177,5.45644Q200.972,10.8812,200.972,20.6203L184.064,20.6203Q184.064,17.7017,181.693,16.0204Q179.354,14.339,175.657,14.339Q172.496,14.339,170.537,15.83Q168.609,17.321,168.609,20.1127Q168.609,23.1899,171.769,24.9347Q174.961,26.6477,181.693,28.6463Q188.457,30.7083,192.66,32.6117Q196.863,34.5152,199.929,38.1633Q202.995,41.7798,202.995,47.4583Q202.995,52.883,200.024,57.3243Q197.084,61.7656,191.427,64.3987Q185.802,67,178.154,67ZM210.358,33.5317Q210.358,23.7926,214.72,16.1473Q219.113,8.50189,226.919,4.25094Q234.725,0,244.649,0Q256.785,0,265.413,6.15435Q274.073,12.277,276.98,22.9044L258.713,22.9044Q256.69,18.6851,252.929,16.5279Q249.2,14.339,244.459,14.339Q236.78,14.339,232.007,19.5734Q227.267,24.776,227.267,33.5Q227.267,42.224,232.007,47.4583Q236.78,52.661,244.459,52.661Q249.2,52.661,252.929,50.5038Q256.69,48.3149,258.713,44.1274L276.98,44.1274Q274.073,54.7547,265.413,60.8774Q256.785,67,244.649,67Q234.725,67,226.919,62.7491Q219.113,58.4664,214.72,50.8845Q210.358,43.3026,210.358,33.5317ZM329.601,54.8182L304.16,54.8182L300.083,67L282.701,67L307.352,0L326.599,0L351.25,67L333.678,67L329.601,54.8182ZM325.335,42.6364L316.865,18.0824L308.521,42.6364L325.335,42.6364ZM374.922,54.8182L396.444,54.8182L396.444,67L358.014,67L358.014,0L374.922,0L374.922,54.8182ZM421.444,14.339L421.444,26.3939L442.966,26.3939L442.966,38.5758L421.444,38.5758L421.444,52.661L446,52.661L446,67L404.535,67L404.535,0L446,0L446,14.339L421.444,14.339Z" fill="#000000" fill-opacity="1"/></g></g></svg>