<?xml version="1.0" encoding="utf-8"?>
<!-- Generator: Adobe Illustrator 26.0.3, SVG Export Plug-In . SVG Version: 6.00 Build 0)  -->
<svg version="1.0" id="katman_1" xmlns="http://www.w3.org/2000/svg" xmlns:xlink="http://www.w3.org/1999/xlink" x="0px" y="0px"
	 viewBox="86.1 259.625 627.7 79.975006" style="enable-background:new 0 0 800 600;" xml:space="preserve">
<path d="M706.7,305.7v-13.5c0-0.2-0.2-0.4-0.4-0.4h-27.6c-0.2,0-0.4-0.2-0.4-0.4l0,0v-16.9c0-0.2-0.2-0.4-0.4-0.4h-13.4
	c-0.2,0-0.4,0.2-0.4,0.4l0,0v48.9c0,0.2,0.2,0.4,0.4,0.4h13.4c0.2,0,0.4-0.2,0.4-0.4l0,0v-17.1c0-0.2,0.1-0.4,0.3-0.4c0,0,0,0,0,0
	h27.7C706.5,306,706.7,305.9,706.7,305.7z"/>
<path d="M678.7,261.1h34.7c0.2,0,0.4,0.2,0.4,0.4v12.2c0,0.2-0.2,0.4-0.4,0.4h-34.7c-0.2,0-0.4-0.2-0.4-0.4v-12.2
	C678.3,261.3,678.5,261.1,678.7,261.1z"/>
<path d="M678.7,323.8h34.7c0.2,0,0.4,0.2,0.4,0.4v13.4c0,0.2-0.2,0.4-0.4,0.4h-34.7c-0.2,0-0.4-0.2-0.4-0.4v-13.4
	C678.3,324,678.5,323.8,678.7,323.8z"/>
<path d="M657.1,338c0.2,0,0.4-0.2,0.4-0.4c0-0.1,0-0.1,0-0.2l-15.9-31.6c-0.1-0.2,0-0.4,0.2-0.5c0,0,0,0,0,0h0
	c7.5-3,11.8-11.4,11.8-19.9c0-20.5-15.7-24.3-22.1-24.3h-31.5c-0.2,0-0.4,0.2-0.4,0.4l0,0v76.1c0,0.2,0.2,0.4,0.4,0.4h13.2
	c0.2,0,0.4-0.2,0.4-0.4l0,0v-27.2c0-0.2,0.2-0.4,0.4-0.4h13.3c0.1,0,0.3,0.1,0.3,0.2l13.7,27.5c0.1,0.1,0.2,0.2,0.3,0.2H657.1z
	 M626.6,296.1h-12.7c-0.2,0-0.4-0.2-0.4-0.4l0,0v-20.2c0-0.2,0.2-0.4,0.4-0.4H629c8.1,0,10.4,6.3,10.4,10.7
	C639.4,292.8,634.4,296.1,626.6,296.1L626.6,296.1z"/>
<path d="M552.1,259.7l-23.2,7.6c-0.1,0-0.1,0.1-0.2,0.1l-14.4,19.8c0,0.1-0.1,0.1-0.1,0.2v24.4c0,0.1,0,0.2,0.1,0.2l14.4,19.8
	c0,0.1,0.1,0.1,0.2,0.1l23.2,7.6c0.1,0,0.2,0,0.2,0l23.2-7.6c0.1,0,0.1-0.1,0.2-0.1l14.4-19.8c0-0.1,0.1-0.1,0.1-0.2v-24.4
	c0-0.1,0-0.2-0.1-0.2l-14.4-19.8c0-0.1-0.1-0.1-0.2-0.1l-23.2-7.5C552.3,259.6,552.2,259.6,552.1,259.7z M576.7,307.7l-9.2,12.7
	c0,0.1-0.1,0.1-0.2,0.1l-14.9,4.8c-0.1,0-0.2,0-0.2,0l-14.9-4.8c-0.1,0-0.1-0.1-0.2-0.1l-9.2-12.7c0-0.1-0.1-0.1-0.1-0.2v-15.7
	c0-0.1,0-0.2,0.1-0.2l9.2-12.7c0-0.1,0.1-0.1,0.2-0.1l14.9-4.9c0.1,0,0.2,0,0.2,0l14.9,4.8c0.1,0,0.1,0.1,0.2,0.1l9.2,12.7
	c0,0.1,0.1,0.1,0.1,0.2v15.7C576.8,307.5,576.7,307.6,576.7,307.7L576.7,307.7z"/>
<path d="M501.8,315.5c-0.2-0.1-0.4-0.1-0.5,0c-3.6,3.5-8.5,9.7-18.4,9.7c-13.7,0-24.4-8.9-24.4-25.4c0-17.1,10.3-25.7,24.4-25.7
	c7,0.1,13.6,3.1,18.4,8.2c0.1,0.2,0.4,0.2,0.5,0l0,0l9-9.8c0.1-0.1,0.1-0.3,0-0.4c-7.5-7.8-17.9-12.3-28.7-12.4
	c-23,0-38.4,16.8-38.4,40.1c0,25.1,19.5,39.8,38.7,39.8c12.3,0,23.2-7.7,28.8-13.7c0.1-0.1,0.1-0.3,0-0.4L501.8,315.5z"/>
<path d="M419.6,291.9h-33.5c-0.2,0-0.4-0.2-0.4-0.4l0,0l0,0v-30c0-0.2-0.2-0.4-0.4-0.4l0,0h-13.4c-0.2,0-0.4,0.2-0.4,0.4
	c0,0,0,0,0,0l0,0v76.1c0,0.2,0.2,0.4,0.4,0.4l0,0h13.4c0.2,0,0.4-0.2,0.4-0.4c0,0,0,0,0,0l0,0v-31.1c0-0.2,0.2-0.4,0.4-0.4l0,0h33.5
	c0.2,0,0.4,0.2,0.4,0.4l0,0v31.2c0,0.2,0.2,0.4,0.4,0.4h13.4c0.2,0,0.4-0.2,0.4-0.4l0,0v-76.1c0-0.2-0.2-0.4-0.4-0.4h-13.4
	c-0.2,0-0.4,0.2-0.4,0.4l0,0v29.9C420,291.7,419.8,291.9,419.6,291.9C419.6,291.9,419.6,291.9,419.6,291.9L419.6,291.9L419.6,291.9z
	"/>
<path d="M320.4,275.5v20.2c0,0.2,0.2,0.4,0.4,0.4l0,0h27.2c0.2,0,0.4,0.2,0.4,0.4v0l0,0v13.2l0,0c0,0.2-0.2,0.4-0.4,0.4l0,0h-27.2
	c-0.2,0-0.4,0.2-0.4,0.4c0,0,0,0,0,0l0,0v27.2l0,0c0,0.2-0.2,0.4-0.4,0.4l0,0h-13.2c-0.2,0-0.4-0.2-0.4-0.4c0,0,0,0,0,0l0,0v-76.1
	c0-0.2,0.2-0.4,0.4-0.4l0,0h41.1c0.2,0,0.4,0.2,0.4,0.4c0,0,0,0,0,0l0,0v13.2c0,0.2-0.2,0.4-0.4,0.4l0,0h-27.2
	C320.6,275.1,320.4,275.3,320.4,275.5C320.4,275.5,320.4,275.5,320.4,275.5L320.4,275.5z M348.3,275.4v20.2c0,0.2,0.2,0.4,0.4,0.4
	l0,0h13.2c0.2,0,0.4-0.2,0.4-0.4v0v-20.2c0-0.2-0.2-0.4-0.4-0.4l0,0h-13.2C348.5,275,348.3,275.2,348.3,275.4L348.3,275.4z"/>
<path d="M254.3,261.4l-23.5,50.4c0,0,0,0.1,0,0.2v25.7c0,0.2,0.2,0.4,0.4,0.4l0,0h13.4c0.2,0,0.4-0.2,0.4-0.4c0,0,0,0,0,0l0,0v-20.5
	c0-0.2,0.2-0.4,0.4-0.4l0,0h34.7c0.2,0,0.4,0.2,0.4,0.4c0,0,0,0,0,0l0,0v20.5c0,0.2,0.2,0.4,0.4,0.4l0,0h13.4c0.2,0,0.4-0.2,0.4-0.4
	c0,0,0,0,0,0l0,0v-25.7c0-0.1,0-0.1,0-0.2l-24-50.4c-0.1-0.1-0.2-0.2-0.3-0.2h-15.5C254.5,261.1,254.4,261.2,254.3,261.4z
	 M250.7,302l11.4-24.7c0.1-0.2,0.3-0.3,0.5-0.2c0,0,0,0,0,0c0.1,0,0.1,0.1,0.2,0.2l11.4,24.7c0.1,0.2,0,0.4-0.2,0.5c0,0,0,0,0,0
	c-0.1,0-0.1,0-0.2,0h-22.8c-0.2,0-0.4-0.2-0.4-0.4c0,0,0,0,0,0C250.7,302.1,250.7,302,250.7,302L250.7,302z"/>
<path d="M217.3,300.6C217.3,300.6,217.4,300.6,217.3,300.6l4.9-14.9c0-0.1,0-0.2,0-0.2l-4.8-14.9c0-0.1-0.1-0.1-0.1-0.2l-12.9-9.1
	c-0.1,0-0.1-0.1-0.2-0.1h-37.7c-0.2,0-0.4,0.2-0.4,0.4l0,0v76.1c0,0.2,0.2,0.4,0.4,0.4h12.1c0.2,0,0.4-0.2,0.4-0.4c0,0,0,0,0,0l0,0
	v-27.2c0-0.2,0.2-0.4,0.4-0.4l14.5-0.1c0.1,0,0.3,0.1,0.3,0.2l13.7,27.7c0.1,0.1,0.2,0.2,0.3,0.2h13.9c0.2,0,0.4-0.2,0.4-0.4
	c0,0,0,0,0,0c0-0.1,0-0.1,0-0.2l-14.9-29.6c-0.1-0.2,0-0.4,0.1-0.5L217.3,300.6z M179,296.4v-22.3c0-0.2,0.2-0.4,0.4-0.4l0,0h20.7
	c0.1,0,0.2,0,0.2,0.1l5.8,4.2c0.1,0,0.1,0.1,0.1,0.2l2.2,6.8c0,0.1,0,0.2,0,0.2l-2.2,6.8c0,0.1-0.1,0.2-0.1,0.2l-6.3,4.4
	c-0.1,0-0.1,0.1-0.2,0.1h-20.2C179.2,296.8,179,296.6,179,296.4C179,296.4,179,296.4,179,296.4L179,296.4L179,296.4z"/>
<path d="M139.2,333.9v3.7c0,0.2,0.2,0.4,0.4,0.4H153c0.2,0,0.4-0.2,0.4-0.4l0,0v-41.8c0-0.2-0.2-0.4-0.4-0.4h-31.1
	c-0.2,0-0.4,0.2-0.4,0.4l0,0v13.5c0,0.2,0.2,0.4,0.4,0.4h17c0.2,0,0.4,0.2,0.4,0.4l0,0v7.6c0,0.1-0.1,0.3-0.2,0.3l-10.7,6.6
	c-0.1,0-0.1,0.1-0.2,0.1h-11.7c-0.1,0-0.1,0-0.2-0.1l-10.4-6.4c-0.1,0-0.1-0.1-0.1-0.1l-6.2-10.9c0-0.1-0.1-0.1-0.1-0.2v-14.8
	c0-0.1,0-0.1,0.1-0.2l6.3-10.9c0-0.1,0.1-0.1,0.1-0.1l10.4-6.4c0.1,0,0.1-0.1,0.2-0.1h12.3c0.1,0,0.1,0,0.2,0.1l9.5,6.2
	c0,0,0.1,0,0.1,0.1l4.2,5.1c0.1,0.2,0.4,0.2,0.5,0.1l10.2-8c0.2-0.1,0.2-0.4,0.1-0.5l-4.9-6.3c0,0-0.1-0.1-0.1-0.1l-15.8-10
	c-0.1,0-0.1-0.1-0.2-0.1h-19.9c-0.1,0-0.2,0-0.2,0.1l-16.7,10.2c-0.1,0-0.1,0.1-0.1,0.1l-9.6,17c0,0.1-0.1,0.1-0.1,0.2v21.6
	c0,0.1,0,0.1,0.1,0.2l9.6,17l0.1,0.1l16.8,10.3c0.1,0,0.1,0.1,0.2,0.1h19.3c0.1,0,0.1,0,0.2-0.1l6.9-4.2c0.1-0.1,0.2,0,0.3,0
	c0,0,0,0,0,0C139.2,333.9,139.2,333.9,139.2,333.9z"/>
</svg>
