<?xml version="1.0" encoding="UTF-8"?>
<!DOCTYPE svg PUBLIC "-//W3C//DTD SVG 1.1//EN" "http://www.w3.org/Graphics/SVG/1.1/DTD/svg11.dtd">
<svg xmlns="http://www.w3.org/2000/svg" version="1.1" width="275px" height="183px" style="shape-rendering:geometricPrecision; text-rendering:geometricPrecision; image-rendering:optimizeQuality; fill-rule:evenodd; clip-rule:evenodd" xmlns:xlink="http://www.w3.org/1999/xlink">
<g><path style="opacity:1" fill="#fdfefe" d="M -0.5,-0.5 C 53.5,-0.5 107.5,-0.5 161.5,-0.5C 159.306,1.22139 158.139,3.55472 158,6.5C 156.206,17.4425 154.872,28.4425 154,39.5C 153.507,43.9683 152.507,48.3017 151,52.5C 148.965,49.7552 147.299,46.7552 146,43.5C 138.977,36.4056 132.81,37.0723 127.5,45.5C 128,45.8333 128.5,46.1667 129,46.5C 137.268,38.8192 142.934,40.4859 146,51.5C 151.639,57.2871 154.973,55.9538 156,47.5C 157.411,33.0462 159.411,18.7129 162,4.5C 163.261,10.4203 164.261,16.4203 165,22.5C 166.422,41.8271 167.755,61.1604 169,80.5C 169.524,85.5943 170.524,90.5943 172,95.5C 173.333,96.8333 174.667,96.8333 176,95.5C 176.667,92.8333 177.333,90.1667 178,87.5C 180.003,63.1188 182.336,38.7855 185,14.5C 186.216,19.0391 187.216,23.7058 188,28.5C 188.75,45.6741 190.75,62.6741 194,79.5C 195.667,82.1667 197.333,82.1667 199,79.5C 199.333,78.1667 199.667,76.8333 200,75.5C 202.095,60.3975 204.595,45.3975 207.5,30.5C 208.934,32.2199 209.767,34.2199 210,36.5C 211.148,43.8687 212.481,51.2021 214,58.5C 214.832,63.1524 217.332,64.4857 221.5,62.5C 224.034,54.3486 226.867,46.3486 230,38.5C 232.246,42.2339 233.913,46.2339 235,50.5C 237.487,56.1256 240.82,56.7923 245,52.5C 247.212,47.3686 249.712,42.3686 252.5,37.5C 256.308,39.4745 259.308,42.3078 261.5,46C 262.635,46.7494 263.635,46.5827 264.5,45.5C 261.795,40.6273 257.961,36.9606 253,34.5C 251.527,34.9031 250.194,35.5697 249,36.5C 246.61,41.0025 244.61,45.6692 243,50.5C 242.311,51.3567 241.478,52.0233 240.5,52.5C 237.54,47.4876 235.04,42.1543 233,36.5C 231,33.8333 229,33.8333 227,36.5C 226.333,37.8333 225.667,39.1667 225,40.5C 223.305,47.2861 221.305,53.9527 219,60.5C 217.619,58.3651 216.619,56.0318 216,53.5C 214.936,44.5799 212.936,35.9133 210,27.5C 206.916,26.041 204.916,27.041 204,30.5C 201.739,45.6055 199.239,60.6055 196.5,75.5C 193.597,57.2756 191.43,38.9422 190,20.5C 189.956,15.8576 188.456,11.8576 185.5,8.5C 183.803,9.36359 182.637,10.6969 182,12.5C 181.24,16.819 180.573,21.1523 180,25.5C 178.495,47.2335 176.495,68.9001 174,90.5C 171.117,67.9269 169.117,45.2602 168,22.5C 167.554,14.5594 166.054,6.89274 163.5,-0.5C 200.5,-0.5 237.5,-0.5 274.5,-0.5C 274.5,35.8333 274.5,72.1667 274.5,108.5C 271.833,108.5 269.167,108.5 266.5,108.5C 266.5,118.833 266.5,129.167 266.5,139.5C 269.167,139.5 271.833,139.5 274.5,139.5C 274.5,153.833 274.5,168.167 274.5,182.5C 182.833,182.5 91.1667,182.5 -0.5,182.5C -0.5,168.167 -0.5,153.833 -0.5,139.5C 2.16667,139.5 4.83333,139.5 7.5,139.5C 7.3347,135.818 7.50137,132.152 8,128.5C 10.3773,132.088 12.8773,135.588 15.5,139C 18.8333,139.667 22.1667,139.667 25.5,139C 22.3092,135.31 19.3092,131.477 16.5,127.5C 23.5844,122.408 24.251,116.575 18.5,110C 12.2584,108.63 5.92507,108.13 -0.5,108.5C -0.5,72.1667 -0.5,35.8333 -0.5,-0.5 Z"/></g>
<g><path style="opacity:1" fill="#4ad1a7" d="M 113.5,4.5 C 117.319,6.11389 119.152,9.11389 119,13.5C 121.24,38.1454 123.24,62.8121 125,87.5C 125.206,90.6229 125.873,93.6229 127,96.5C 128.94,81.4959 130.94,66.4959 133,51.5C 133.238,47.0818 135.405,45.2485 139.5,46C 142.293,49.0808 144.46,52.5808 146,56.5C 148.003,58.9221 150.503,59.7554 153.5,59C 155.677,57.4851 157.844,55.9851 160,54.5C 160.5,54.8333 161,55.1667 161.5,55.5C 156.107,63.873 149.94,64.5397 143,57.5C 141.667,54.8333 140.333,52.1667 139,49.5C 138.333,48.1667 137.667,48.1667 137,49.5C 134.418,63.3973 132.418,77.3973 131,91.5C 130.81,95.0755 129.643,98.2422 127.5,101C 126.004,101.507 124.837,101.007 124,99.5C 120.828,73.5931 118.495,47.5931 117,21.5C 116.612,17.7808 115.945,14.1141 115,10.5C 112.008,33.7205 109.674,57.0539 108,80.5C 107.703,83.914 107.036,87.2473 106,90.5C 105.311,91.3567 104.478,92.0233 103.5,92.5C 101.3,90.7471 100.133,88.4138 100,85.5C 97.9999,67.4979 95.9999,49.4979 94,31.5C 93.8603,28.9568 93.1937,26.6234 92,24.5C 89.4603,38.073 87.4603,51.7397 86,65.5C 85.6042,68.6964 84.4375,71.5297 82.5,74C 80.1122,74.8651 78.6122,74.0317 78,71.5C 75.7883,60.9844 73.1216,50.6511 70,40.5C 67.0582,47.5874 64.7249,54.9208 63,62.5C 61.4922,66.674 59.1588,67.3407 56,64.5C 54.0877,58.7458 51.421,53.4124 48,48.5C 44.7204,52.6581 42.3871,57.3247 41,62.5C 38.9964,66.3919 36.163,67.2252 32.5,65C 28.7862,62.1424 26.1195,58.6424 24.5,54.5C 25.552,54.3505 26.552,54.5172 27.5,55C 29.5853,59.4612 32.9186,61.7945 37.5,62C 44.9995,39.8765 51.9995,40.0432 58.5,62.5C 59.086,62.2907 59.586,61.9574 60,61.5C 61.8445,54.4552 63.8445,47.4552 66,40.5C 67.5078,36.326 69.8412,35.6593 73,38.5C 73.8624,40.087 74.5291,41.7536 75,43.5C 76.6799,52.5831 78.6799,61.5831 81,70.5C 83.9449,57.6733 85.9449,44.6733 87,31.5C 87.8545,27.7203 89.0211,24.0536 90.5,20.5C 91.365,19.4173 92.365,19.2506 93.5,20C 95.7707,23.0746 96.9373,26.5746 97,30.5C 98.9467,49.194 101.113,67.8607 103.5,86.5C 106.06,64.2355 108.226,41.9022 110,19.5C 110.115,14.2063 111.282,9.20628 113.5,4.5 Z"/></g>
<g><path style="opacity:1" fill="#5d9f8a" d="M 161.5,-0.5 C 162.167,-0.5 162.833,-0.5 163.5,-0.5C 166.054,6.89274 167.554,14.5594 168,22.5C 169.117,45.2602 171.117,67.9269 174,90.5C 176.495,68.9001 178.495,47.2335 180,25.5C 180.573,21.1523 181.24,16.819 182,12.5C 182.637,10.6969 183.803,9.36359 185.5,8.5C 188.456,11.8576 189.956,15.8576 190,20.5C 191.43,38.9422 193.597,57.2756 196.5,75.5C 199.239,60.6055 201.739,45.6055 204,30.5C 204.916,27.041 206.916,26.041 210,27.5C 212.936,35.9133 214.936,44.5799 216,53.5C 216.619,56.0318 217.619,58.3651 219,60.5C 221.305,53.9527 223.305,47.2861 225,40.5C 225.667,39.1667 226.333,37.8333 227,36.5C 229,33.8333 231,33.8333 233,36.5C 235.04,42.1543 237.54,47.4876 240.5,52.5C 241.478,52.0233 242.311,51.3567 243,50.5C 244.61,45.6692 246.61,41.0025 249,36.5C 250.194,35.5697 251.527,34.9031 253,34.5C 257.961,36.9606 261.795,40.6273 264.5,45.5C 263.635,46.5827 262.635,46.7494 261.5,46C 259.308,42.3078 256.308,39.4745 252.5,37.5C 249.712,42.3686 247.212,47.3686 245,52.5C 240.82,56.7923 237.487,56.1256 235,50.5C 233.913,46.2339 232.246,42.2339 230,38.5C 226.867,46.3486 224.034,54.3486 221.5,62.5C 217.332,64.4857 214.832,63.1524 214,58.5C 212.481,51.2021 211.148,43.8687 210,36.5C 209.767,34.2199 208.934,32.2199 207.5,30.5C 204.595,45.3975 202.095,60.3975 200,75.5C 199.667,76.8333 199.333,78.1667 199,79.5C 197.333,82.1667 195.667,82.1667 194,79.5C 190.75,62.6741 188.75,45.6741 188,28.5C 187.216,23.7058 186.216,19.0391 185,14.5C 182.336,38.7855 180.003,63.1188 178,87.5C 177.333,90.1667 176.667,92.8333 176,95.5C 174.667,96.8333 173.333,96.8333 172,95.5C 170.524,90.5943 169.524,85.5943 169,80.5C 167.755,61.1604 166.422,41.8271 165,22.5C 164.261,16.4203 163.261,10.4203 162,4.5C 159.411,18.7129 157.411,33.0462 156,47.5C 154.973,55.9538 151.639,57.2871 146,51.5C 142.934,40.4859 137.268,38.8192 129,46.5C 128.5,46.1667 128,45.8333 127.5,45.5C 132.81,37.0723 138.977,36.4056 146,43.5C 147.299,46.7552 148.965,49.7552 151,52.5C 152.507,48.3017 153.507,43.9683 154,39.5C 154.872,28.4425 156.206,17.4425 158,6.5C 158.139,3.55472 159.306,1.22139 161.5,-0.5 Z"/></g>
<g><path style="opacity:1" fill="#39d1a3" d="M 59.5,107.5 C 64.2029,107.12 68.5363,108.12 72.5,110.5C 71.8153,112.547 70.6486,114.214 69,115.5C 66.5661,114.678 64.0661,114.344 61.5,114.5C 61.2865,116.144 61.6198,117.644 62.5,119C 66.3629,120.181 69.8629,122.014 73,124.5C 75.4019,136.767 70.2353,141.933 57.5,140C 55.3359,139.086 53.3359,137.919 51.5,136.5C 52.4143,134.336 53.581,132.336 55,130.5C 57.9693,133.227 61.3027,133.894 65,132.5C 65.6667,131.167 65.6667,129.833 65,128.5C 59.7874,127.566 55.7874,124.9 53,120.5C 51.881,114.469 54.0477,110.136 59.5,107.5 Z"/></g>
<g><path style="opacity:1" fill="#35d1a2" d="M -0.5,108.5 C 5.92507,108.13 12.2584,108.63 18.5,110C 24.251,116.575 23.5844,122.408 16.5,127.5C 19.3092,131.477 22.3092,135.31 25.5,139C 22.1667,139.667 18.8333,139.667 15.5,139C 12.8773,135.588 10.3773,132.088 8,128.5C 7.50137,132.152 7.3347,135.818 7.5,139.5C 4.83333,139.5 2.16667,139.5 -0.5,139.5C -0.5,129.167 -0.5,118.833 -0.5,108.5 Z"/></g>
<g><path style="opacity:1" fill="#3ed2a5" d="M 28.5,108.5 C 34.5,108.5 40.5,108.5 46.5,108.5C 46.5,110.833 46.5,113.167 46.5,115.5C 43.1667,115.5 39.8333,115.5 36.5,115.5C 36.5,117.167 36.5,118.833 36.5,120.5C 39.8333,120.5 43.1667,120.5 46.5,120.5C 46.5,122.833 46.5,125.167 46.5,127.5C 43.5,127.5 40.5,127.5 37.5,127.5C 37.5,129.167 37.5,130.833 37.5,132.5C 40.5,132.5 43.5,132.5 46.5,132.5C 46.5,134.833 46.5,137.167 46.5,139.5C 40.5,139.5 34.5,139.5 28.5,139.5C 28.5,129.167 28.5,118.833 28.5,108.5 Z"/></g>
<g><path style="opacity:1" fill="#36d1a2" d="M 79.5,108.5 C 85.1667,108.5 90.8333,108.5 96.5,108.5C 96.5,110.833 96.5,113.167 96.5,115.5C 93.5,115.5 90.5,115.5 87.5,115.5C 87.5,117.167 87.5,118.833 87.5,120.5C 90.5,120.5 93.5,120.5 96.5,120.5C 96.5,122.833 96.5,125.167 96.5,127.5C 93.5,127.5 90.5,127.5 87.5,127.5C 87.5,129.167 87.5,130.833 87.5,132.5C 90.5,132.5 93.5,132.5 96.5,132.5C 96.5,134.833 96.5,137.167 96.5,139.5C 90.8333,139.5 85.1667,139.5 79.5,139.5C 79.5,129.167 79.5,118.833 79.5,108.5 Z"/></g>
<g><path style="opacity:1" fill="#38d1a3" d="M 106.5,108.5 C 109.5,108.5 112.5,108.5 115.5,108.5C 117.026,113.91 118.859,119.244 121,124.5C 123.141,119.244 124.974,113.91 126.5,108.5C 129.5,108.5 132.5,108.5 135.5,108.5C 137.074,118.848 138.74,129.181 140.5,139.5C 137.833,139.5 135.167,139.5 132.5,139.5C 131.888,133.771 130.888,128.104 129.5,122.5C 127.172,127.825 124.838,133.158 122.5,138.5C 121.311,139.429 119.978,139.762 118.5,139.5C 117.021,133.562 114.854,127.895 112,122.5C 111.211,128.187 110.378,133.853 109.5,139.5C 106.833,139.5 104.167,139.5 101.5,139.5C 103.074,129.149 104.741,118.816 106.5,108.5 Z"/></g>
<g><path style="opacity:1" fill="#33d1a2" d="M 145.5,108.5 C 151.621,108.09 157.621,108.59 163.5,110C 167.446,114.128 167.446,118.295 163.5,122.5C 168.701,125.998 169.868,130.665 167,136.5C 166.25,137.126 165.416,137.626 164.5,138C 158.258,139.37 151.925,139.87 145.5,139.5C 145.5,129.167 145.5,118.833 145.5,108.5 Z"/></g>
<g><path style="opacity:1" fill="#35d1a2" d="M 174.5,108.5 C 177.167,108.5 179.833,108.5 182.5,108.5C 182.5,116.5 182.5,124.5 182.5,132.5C 185.5,132.5 188.5,132.5 191.5,132.5C 191.5,134.833 191.5,137.167 191.5,139.5C 185.833,139.5 180.167,139.5 174.5,139.5C 174.5,129.167 174.5,118.833 174.5,108.5 Z"/></g>
<g><path style="opacity:1" fill="#3fd2a5" d="M 195.5,108.5 C 201.5,108.5 207.5,108.5 213.5,108.5C 213.5,110.833 213.5,113.167 213.5,115.5C 210.167,115.5 206.833,115.5 203.5,115.5C 203.5,117.167 203.5,118.833 203.5,120.5C 206.833,120.5 210.167,120.5 213.5,120.5C 213.5,122.833 213.5,125.167 213.5,127.5C 210.5,127.5 207.5,127.5 204.5,127.5C 204.5,129.167 204.5,130.833 204.5,132.5C 207.5,132.5 210.5,132.5 213.5,132.5C 213.5,134.833 213.5,137.167 213.5,139.5C 207.5,139.5 201.5,139.5 195.5,139.5C 195.5,129.167 195.5,118.833 195.5,108.5 Z"/></g>
<g><path style="opacity:1" fill="#3d564f" d="M 242.5,108.5 C 245.572,108.183 248.572,108.516 251.5,109.5C 255.571,119.382 259.238,129.382 262.5,139.5C 257.645,140.483 254.312,138.817 252.5,134.5C 248.5,133.167 244.5,133.167 240.5,134.5C 239.691,136.071 239.357,137.738 239.5,139.5C 236.482,139.665 233.482,139.498 230.5,139C 234.362,128.777 238.362,118.61 242.5,108.5 Z"/></g>
<g><path style="opacity:1" fill="#3b544d" d="M 274.5,108.5 C 274.5,118.833 274.5,129.167 274.5,139.5C 271.833,139.5 269.167,139.5 266.5,139.5C 266.5,129.167 266.5,118.833 266.5,108.5C 269.167,108.5 271.833,108.5 274.5,108.5 Z"/></g>
<g><path style="opacity:1" fill="#edfaf5" d="M 7.5,114.5 C 12.9343,113.98 14.9343,116.146 13.5,121C 11.6547,122.128 9.65472,122.628 7.5,122.5C 7.5,119.833 7.5,117.167 7.5,114.5 Z"/></g>
<g><path style="opacity:1" fill="#f5fcfa" d="M 153.5,114.5 C 158.159,114.015 159.492,115.848 157.5,120C 156.207,120.49 154.873,120.657 153.5,120.5C 153.5,118.5 153.5,116.5 153.5,114.5 Z"/></g>
<g><path style="opacity:1" fill="#edefef" d="M 245.5,118.5 C 248.341,120.64 249.674,123.64 249.5,127.5C 247.5,127.5 245.5,127.5 243.5,127.5C 244.167,124.5 244.833,121.5 245.5,118.5 Z"/></g>
<g><path style="opacity:1" fill="#f2fbf8" d="M 153.5,126.5 C 158.939,125.502 160.939,127.502 159.5,132.5C 157.591,133.348 155.591,133.682 153.5,133.5C 153.5,131.167 153.5,128.833 153.5,126.5 Z"/></g>
<g><path style="opacity:1" fill="#4a635c" d="M 221.5,130.5 C 227.023,130.562 228.856,133.229 227,138.5C 222.742,141.581 219.909,140.581 218.5,135.5C 218.757,133.308 219.757,131.641 221.5,130.5 Z"/></g>
</svg>
