<?xml version="1.0" encoding="UTF-8"?><svg id="Layer_1" xmlns="http://www.w3.org/2000/svg" viewBox="0 0 382.09 243.16"><defs><style>.cls-1{fill:#ffe600;}.cls-1,.cls-2,.cls-3,.cls-4,.cls-5{stroke-width:0px;}.cls-2{fill:#ff3d5d;}.cls-3{fill:#ffa42c;}.cls-4{fill:#00c3f7;}.cls-5{fill:#00ff85;}</style></defs><rect class="cls-2" x="0" y="0" width="208.42" height="34.74" rx="17.37" ry="17.37"/><rect class="cls-1" x="243.16" y="0" width="138.93" height="34.74" rx="17.37" ry="17.37"/><rect class="cls-3" x="0" y="69.47" width="138.94" height="34.74" rx="17.37" ry="17.37"/><rect class="cls-5" x="173.69" y="69.47" width="104.2" height="34.74" rx="17.37" ry="17.37"/><rect class="cls-3" x="0" y="138.94" width="69.47" height="34.74" rx="17.37" ry="17.37"/><rect class="cls-4" x="104.22" y="138.94" width="104.2" height="34.74" rx="17.37" ry="17.37"/><rect class="cls-1" x="243.16" y="138.94" width="138.93" height="34.74" rx="17.37" ry="17.37"/><rect class="cls-5" x="0" y="208.42" width="69.47" height="34.74" rx="17.37" ry="17.37"/><rect class="cls-2" x="104.22" y="208.42" width="138.94" height="34.74" rx="17.37" ry="17.37"/><rect class="cls-4" x="277.89" y="208.42" width="104.2" height="34.74" rx="17.37" ry="17.37"/><path class="cls-3" d="m312.63,86.84h0c0,9.59,7.78,17.37,17.37,17.37h34.71c9.59,0,17.37-7.78,17.37-17.37h0c0-9.59-7.78-17.37-17.37-17.37h-34.71c-9.59,0-17.37,7.78-17.37,17.37Z"/></svg>