<?xml version="1.0" standalone="no"?>
<!DOCTYPE svg PUBLIC "-//W3C//DTD SVG 20010904//EN"
 "http://www.w3.org/TR/2001/REC-SVG-20010904/DTD/svg10.dtd">
<svg version="1.0" xmlns="http://www.w3.org/2000/svg"
 width="1500.000000pt" height="500.000000pt" viewBox="0 0 1500 500"
 preserveAspectRatio="xMidYMid meet">

<g transform="translate(0.000000,500.000000) scale(0.100000,-0.100000)"
fill="#000000" stroke="none">
<path d="M77 4978 c-23 -14 -45 -38 -57 -63 -20 -41 -20 -65 -20 -2415 0
-2353 0 -2374 20 -2415 13 -26 34 -49 59 -63 l39 -22 7382 0 7382 0 39 22 c25
14 46 37 59 63 20 41 20 62 20 2415 0 2353 0 2374 -20 2415 -13 26 -34 49 -59
63 l-39 22 -7383 0 -7384 0 -38 -22z m10214 -1408 c10 -6 19 -18 19 -28 0 -9
-30 -80 -67 -157 -63 -129 -68 -145 -68 -205 0 -53 6 -77 33 -129 18 -36 29
-68 25 -72 -5 -3 -26 -12 -48 -19 -89 -28 -235 -118 -312 -193 l-43 -41 0 94
c0 196 42 411 105 536 40 78 110 156 167 185 68 35 153 48 189 29z m-6079
-887 l3 -848 218 -3 217 -2 0 -175 0 -175 -415 0 -415 0 0 1018 c0 560 3 1022
7 1025 3 4 91 7 195 7 l188 0 2 -847z m988 -3 l0 -850 220 0 220 0 0 -175 0
-175 -415 0 -415 0 0 1025 0 1025 195 0 195 0 0 -850z m2075 363 c120 -269
221 -492 225 -496 3 -4 101 214 217 485 l210 493 102 3 c76 2 102 -1 105 -10
3 -7 14 -431 25 -943 12 -511 23 -967 26 -1012 l5 -83 -188 0 -189 0 -6 263
c-4 144 -7 327 -7 407 0 80 -3 183 -7 229 l-6 83 -125 -311 -124 -312 -41 3
-40 3 -131 313 -131 313 -6 -223 c-4 -123 -7 -346 -8 -495 l-1 -273 -190 0
-189 0 5 128 c2 70 14 527 25 1016 11 489 22 893 25 898 3 4 49 8 103 8 l98 0
218 -487z m2034 -525 c129 -557 236 -1019 239 -1025 3 -10 -38 -13 -187 -13
-105 0 -191 3 -192 8 0 4 -17 79 -37 167 l-37 160 -175 0 -175 0 -37 -160
c-20 -88 -37 -163 -37 -167 -1 -11 -371 -10 -371 1 0 5 106 464 235 1020 129
555 235 1012 235 1015 0 3 69 6 153 6 l153 0 233 -1012z m1419 917 c2 -12 -24
-59 -62 -113 -39 -57 -67 -109 -71 -131 -6 -34 8 -92 39 -162 7 -15 -6 -17
-116 -17 -68 0 -144 -5 -170 -10 l-48 -9 6 26 c37 169 83 276 152 352 63 70
108 90 197 86 61 -2 70 -4 73 -22z m-48 -575 c43 -11 100 -29 127 -41 56 -24
133 -71 133 -81 0 -6 -77 -143 -116 -206 l-15 -22 -72 39 c-207 114 -427 90
-583 -64 -104 -102 -156 -230 -155 -381 0 -127 44 -226 128 -290 127 -97 313
-100 510 -9 l73 34 9 -37 c32 -123 52 -205 49 -207 -16 -14 -137 -67 -192 -84
-389 -120 -756 57 -852 410 -25 91 -22 259 5 364 78 294 307 517 595 580 96
21 264 19 356 -5z m-4365 -44 c119 -25 195 -73 241 -152 52 -89 54 -108 54
-666 l0 -518 -160 0 -160 0 0 61 0 61 -52 -47 c-70 -63 -120 -87 -195 -93 -81
-6 -139 15 -197 74 -80 80 -117 188 -117 343 1 154 35 253 118 342 51 55 106
84 180 94 60 8 150 -8 206 -36 l37 -19 0 80 c0 102 -17 146 -64 165 -49 21
-156 18 -255 -5 -46 -11 -85 -19 -86 -18 -1 2 -8 53 -14 113 -6 61 -14 124
-17 142 l-6 32 70 21 c39 12 92 25 119 30 75 12 232 11 298 -4z m4305 -471 l0
-85 80 0 80 0 0 -75 0 -75 -80 0 -80 0 0 -85 0 -85 -75 0 -74 0 -3 83 -3 82
-82 3 -83 3 0 74 0 75 85 0 85 0 0 85 0 85 75 0 75 0 0 -85z m550 0 l0 -85 85
0 85 0 0 -75 0 -74 -82 -3 -83 -3 -3 -82 -3 -83 -74 0 -75 0 0 85 0 85 -80 0
-80 0 0 75 0 75 80 0 80 0 0 85 0 85 75 0 75 0 0 -85z"/>
<path d="M8867 2453 c-26 -148 -47 -274 -47 -280 0 -10 27 -13 100 -13 55 0
100 3 100 8 1 20 -95 552 -100 552 -3 0 -27 -120 -53 -267z"/>
<path d="M6123 2080 c-77 -47 -85 -249 -13 -322 23 -22 37 -28 72 -28 93 0 88
-10 88 181 l0 169 -26 10 c-40 15 -86 12 -121 -10z"/>
</g>
</svg>
