<svg width="721" height="131" viewBox="0 0.584915 720.623 130.00009" fill="none" xmlns="http://www.w3.org/2000/svg">
<path d="M157.441 106.965V15.0607H143.13V106.965H157.441Z" fill="black"/>
<path d="M197.882 108.541C205.366 108.541 213.768 104.864 217.576 98.6936V106.965H231.755V45.783H217.576V54.0544C213.768 47.8836 206.416 44.2075 198.276 44.2075C179.239 44.2075 167.816 58.387 167.816 76.374C167.816 94.361 178.188 108.541 197.882 108.541ZM199.983 95.8052C188.823 95.8052 182.127 87.5338 182.127 76.374C182.127 65.2142 188.823 56.9428 199.983 56.9428C212.193 56.9428 218.101 65.8706 218.101 76.374C218.101 86.8774 212.193 95.8052 199.983 95.8052Z" fill="black"/>
<path d="M274.398 94.8862C268.753 94.8862 265.471 93.5732 265.471 82.9386V57.7305H279.519V45.783H265.471V27.2708H251.16V45.783H240.788V57.7305H251.16V86.2209C251.16 106.834 264.026 107.753 270.985 107.753C275.186 107.753 279.388 107.359 281.62 106.965V94.361C280.175 94.6236 276.63 94.8862 274.398 94.8862Z" fill="black"/>
<path d="M298.453 36.9864C304.755 36.9864 309.087 32.2599 309.087 26.3518C309.087 20.4436 304.755 15.7171 298.453 15.7171C292.151 15.7171 287.818 20.4436 287.818 26.3518C287.818 32.2599 292.151 36.9864 298.453 36.9864ZM305.542 106.965V45.783H291.363V106.965H305.542Z" fill="black"/>
<path d="M348.218 94.8862C342.573 94.8862 339.291 93.5732 339.291 82.9386V57.7305H353.339V45.783H339.291V27.2708H324.98V45.783H314.608V57.7305H324.98V86.2209C324.98 106.834 337.846 107.753 344.805 107.753C349.006 107.753 353.207 107.359 355.439 106.965V94.361C353.995 94.6236 350.45 94.8862 348.218 94.8862Z" fill="black"/>
<path d="M387.24 108.541C396.036 108.541 402.47 104.996 406.146 98.431V106.965H420.457V45.783H406.146V80.3128C406.146 89.1093 402.207 96.3304 391.31 96.3304C381.988 96.3304 378.837 90.5535 378.837 80.7066V45.783H364.526V84.2515C364.526 100.663 373.848 108.541 387.24 108.541Z" fill="black"/>
<path d="M480.529 54.0544C476.721 47.8836 469.369 44.2075 461.229 44.2075C442.192 44.2075 430.769 58.387 430.769 76.374C430.769 94.361 441.141 108.541 460.835 108.541C468.319 108.541 476.721 104.864 480.529 98.6936V106.965H494.708V15.0607H480.529V54.0544ZM462.936 95.8052C451.776 95.8052 445.08 87.5338 445.08 76.374C445.08 65.2142 451.776 56.9428 462.936 56.9428C475.146 56.9428 481.054 65.8706 481.054 76.374C481.054 86.8774 475.146 95.8052 462.936 95.8052Z" fill="black"/>
<path d="M565.054 73.223C565.054 56.0237 553.238 44.2075 535.776 44.2075C517.133 44.2075 505.054 56.8115 505.054 76.374C505.054 96.1991 517.001 108.541 536.301 108.541C551.006 108.541 562.56 100.532 564.398 89.1093H549.956C547.592 93.8358 543.391 96.0678 536.301 96.0678C525.929 96.0678 519.627 90.8161 519.233 81.1005H564.66C564.923 77.6869 565.054 75.7175 565.054 73.223ZM519.233 70.2033C519.365 61.538 525.404 55.4986 535.514 55.4986C545.36 55.4986 550.875 60.7503 551.006 70.2033H519.233Z" fill="black"/>
<path d="M582.623 108.015C588.793 108.015 593.783 102.895 593.783 96.8555C593.783 90.8161 588.793 85.827 582.623 85.827C576.452 85.827 571.594 90.8161 571.594 96.8555C571.594 102.895 576.452 108.015 582.623 108.015Z" fill="black"/>
<path d="M628.846 108.541C643.682 108.541 653.003 101.451 653.003 89.5032C653.003 80.8379 647.489 74.5359 638.824 72.0414L626.614 68.4965C620.968 66.921 618.999 64.689 618.999 61.4067C618.999 57.7305 622.675 55.1047 627.795 55.1047C634.491 55.1047 638.43 58.1244 638.43 63.2448H652.478C652.478 51.4285 643.288 44.2075 628.321 44.2075C614.666 44.2075 604.819 51.8224 604.819 62.1945C604.819 70.8597 609.677 77.0305 618.211 79.3937L630.421 82.676C636.986 84.3828 638.43 86.4835 638.43 89.8971C638.43 94.2297 635.016 97.1181 629.633 97.1181C622.281 97.1181 617.161 93.4419 617.161 88.1903H602.85C602.85 99.8753 613.878 108.541 628.846 108.541Z" fill="black"/>
<path d="M698.303 44.2075C689.244 44.2075 682.154 47.7523 678.347 54.3169V15.0607H664.036V106.965H678.347V73.3543C678.347 62.5883 683.599 56.4176 692.92 56.4176C702.898 56.4176 706.312 62.0632 706.312 75.0611V106.965H720.623V68.4965C720.623 52.4789 713.008 44.2075 698.303 44.2075Z" fill="black"/>
<path d="M104.594 97.9726L93.6494 130.585H30.6317L41.5761 97.9726H104.594ZM69.8175 0.584915H30.752L0 92.2205H39.0644L69.8175 0.584915Z" fill="black"/>
</svg>
