<?xml version="1.0" standalone="no"?>
<!DOCTYPE svg PUBLIC "-//W3C//DTD SVG 20010904//EN"
 "http://www.w3.org/TR/2001/REC-SVG-20010904/DTD/svg10.dtd">
<svg version="1.0" xmlns="http://www.w3.org/2000/svg"
 width="256.000000pt" height="50.000000pt" viewBox="24 4 232 40"
 preserveAspectRatio="xMidYMid meet">

<g transform="translate(0.000000,50.000000) scale(0.100000,-0.100000)"
fill="#000000" stroke="none">
<path d="M1650 300 l0 -160 30 0 c17 0 30 5 30 12 0 9 3 9 12 0 20 -20 91 -15
116 8 68 64 30 200 -55 200 -19 0 -43 -5 -54 -10 -18 -10 -19 -7 -19 50 l0 60
-30 0 -30 0 0 -160z m160 -22 c13 -25 13 -31 0 -55 -29 -52 -100 -35 -100 24
0 62 70 83 100 31z"/>
<path d="M695 335 c-14 -13 -25 -31 -25 -38 0 -26 37 -61 76 -72 46 -13 52
-38 11 -43 -18 -2 -29 2 -33 12 -7 18 -22 20 -43 7 -21 -13 3 -47 43 -61 71
-23 136 34 108 96 -8 16 -25 27 -57 35 -33 8 -45 16 -43 28 4 21 32 25 50 7
15 -14 58 -12 58 3 0 4 -10 17 -23 29 -33 31 -90 30 -122 -3z"/>
<path d="M890 270 c0 -77 3 -93 20 -110 23 -23 88 -28 108 -8 9 9 12 9 12 0 0
-7 11 -12 25 -12 l25 0 0 110 0 110 -25 0 c-24 0 -25 -3 -25 -59 0 -80 -13
-111 -44 -111 -34 0 -46 26 -46 104 0 64 -1 66 -25 66 -25 0 -25 -1 -25 -90z"/>
<path d="M1150 210 l0 -150 25 0 c23 0 25 3 25 50 0 47 1 50 19 40 28 -15 83
-12 108 5 50 35 53 137 6 181 -29 27 -90 33 -112 12 -11 -10 -14 -10 -18 0 -3
6 -16 12 -29 12 l-24 0 0 -150z m142 83 c20 -18 23 -54 8 -84 -23 -42 -100
-10 -100 41 0 26 30 60 52 60 12 0 30 -7 40 -17z"/>
<path d="M1436 339 c-32 -25 -33 -45 -4 -52 15 -4 26 0 35 13 17 24 46 26 63
5 16 -19 4 -35 -26 -35 -66 0 -114 -44 -99 -90 12 -38 88 -57 121 -29 10 8 14
8 14 0 0 -6 11 -11 25 -11 25 0 25 1 25 90 0 79 -3 92 -22 110 -30 27 -96 27
-132 -1z m104 -112 c0 -26 -26 -49 -51 -45 -33 4 -33 40 1 49 39 11 50 10 50
-4z"/>
<path d="M1942 340 c-12 -12 -22 -27 -22 -35 0 -22 33 -23 57 -2 25 22 63 15
63 -12 0 -13 -13 -20 -52 -27 -42 -7 -56 -15 -68 -37 -13 -24 -13 -30 0 -54
19 -34 55 -44 98 -27 18 7 32 9 32 3 0 -5 11 -9 25 -9 25 0 25 1 25 85 0 78
-2 88 -25 110 -32 33 -101 35 -133 5z m96 -127 c-3 -24 -8 -28 -33 -28 -39 0
-43 36 -5 46 40 11 41 10 38 -18z"/>
<path d="M2170 340 c-23 -23 -26 -72 -6 -89 7 -6 31 -17 52 -25 41 -14 52 -38
21 -44 -10 -2 -27 4 -38 14 -14 13 -24 15 -40 8 l-22 -10 25 -28 c43 -50 135
-36 151 24 8 32 -16 64 -63 80 -26 9 -45 22 -45 30 0 20 39 25 54 7 12 -15 51
-12 51 4 0 23 -42 49 -80 49 -27 0 -47 -7 -60 -20z"/>
<path d="M2397 349 c-44 -26 -62 -123 -31 -168 37 -52 115 -61 162 -18 44 41
10 66 -43 31 -28 -18 -60 -11 -75 17 -10 18 -7 19 70 19 79 0 80 0 80 25 0 34
-25 82 -49 95 -25 13 -91 13 -114 -1z m84 -39 c36 -20 23 -40 -26 -40 -48 0
-62 19 -27 39 22 13 29 13 53 1z"/>
<path d="M240 259 l0 -51 30 30 c17 17 30 37 30 45 0 9 6 18 13 20 6 3 -7 6
-30 6 l-43 1 0 -51z"/>
</g>
</svg>
