<?xml version="1.0" encoding="UTF-8"?>
<svg id="Layer_1" data-name="Layer 1" xmlns="http://www.w3.org/2000/svg" viewBox="0 0 334.16 67.39">
  <defs>
    <style>
      .cls-1 {
        fill: #231f20;
      }

      .cls-1, .cls-2 {
        stroke-width: 0px;
      }

      .cls-2 {
        fill: #010101;
      }
    </style>
  </defs>
  <g>
    <path class="cls-1" d="m90.51,21.1h13.9l-2.95,24.14h-5.04l2.52-20.42h-8.71l-2.38,19.54-1.15,4.73c-.22.69-.54,1.22-.95,1.58-.41.37-.98.55-1.72.55h-2.04l3.24-26.35-2.09-.34c-.38-.08-.68-.22-.88-.41s-.28-.47-.25-.84l.22-2.18h3.46l.14-1.03c.18-1.5.56-2.88,1.16-4.14.6-1.26,1.41-2.34,2.42-3.25,1.02-.91,2.24-1.62,3.67-2.14,1.43-.51,3.08-.77,4.93-.77.29,0,.6.01.92.04.33.02.65.06.97.1.32.04.62.09.91.14.29.06.54.12.77.2l-.5,2.59c-.08.35-.31.54-.68.56s-.85.04-1.43.04c-1.39,0-2.58.14-3.58.41-.99.27-1.82.68-2.47,1.24-.66.55-1.17,1.25-1.54,2.1-.37.85-.62,1.84-.77,2.98l-.12.94Z"/>
    <path class="cls-1" d="m114.6,27.08c.62-1.3,1.3-2.41,2.03-3.34.73-.93,1.49-1.66,2.28-2.18s1.61-.84,2.45-.94,1.68.04,2.53.41l-.94,4.94c-2.03-.82-3.81-.56-5.34.78-1.53,1.34-2.76,3.86-3.68,7.57l-1.3,10.92h-5.04l2.95-24.53h2.59c.56,0,.99.14,1.28.42.3.28.44.72.44,1.31l-.26,4.63Z"/>
    <path class="cls-1" d="m143.35,40.71c-.83.85-1.65,1.58-2.45,2.2-.8.62-1.62,1.12-2.45,1.52-.83.4-1.7.7-2.62.89-.91.19-1.9.29-2.98.29-1.42,0-2.7-.24-3.84-.72-1.14-.48-2.11-1.16-2.92-2.03-.81-.87-1.43-1.93-1.86-3.17-.43-1.24-.65-2.63-.65-4.16,0-1.28.14-2.54.41-3.78.27-1.24.67-2.42,1.19-3.54.52-1.12,1.15-2.16,1.9-3.11.74-.95,1.59-1.77,2.54-2.46s2-1.23,3.14-1.62,2.37-.59,3.68-.59,2.36.18,3.29.54c.93.36,1.7.82,2.32,1.39.62.57,1.08,1.2,1.38,1.88.3.69.46,1.36.46,2.02,0,1.07-.22,2.06-.66,2.95-.44.9-1.23,1.7-2.36,2.42-1.14.72-2.69,1.34-4.67,1.87-1.98.53-4.51.95-7.6,1.27-.02.1-.02.2-.02.3v.32c0,2.03.44,3.56,1.32,4.6.88,1.03,2.2,1.55,3.96,1.55,1.1,0,2.02-.15,2.76-.46.74-.3,1.36-.64,1.88-1,.52-.36.98-.69,1.37-1,.39-.3.8-.46,1.24-.46.34,0,.65.16.94.48l1.3,1.58Zm-7.18-16.63c-.9,0-1.72.18-2.48.55-.76.37-1.44.88-2.04,1.52-.6.65-1.12,1.42-1.56,2.32s-.78,1.87-1.02,2.93c2.21-.29,3.98-.61,5.33-.96,1.34-.35,2.38-.74,3.1-1.15.72-.42,1.2-.86,1.44-1.33.24-.47.36-.97.36-1.5,0-.26-.06-.53-.17-.82-.11-.29-.29-.54-.54-.77s-.57-.41-.97-.56c-.4-.15-.88-.23-1.44-.23Z"/>
    <path class="cls-1" d="m181.25,20.76l-10.18,24.48h-3.96c-.45,0-.72-.31-.82-.94l-2.64-15.24c-.03-.29-.06-.57-.1-.85-.03-.28-.06-.56-.1-.85-.1.29-.19.58-.29.86-.1.29-.21.58-.34.86l-6.41,15.22c-.24.62-.62.94-1.13.94h-3.79l-4.22-24.48h3.89c.37,0,.66.09.89.28.22.18.36.43.41.73l1.82,14.26c.05.64.09,1.26.12,1.86.03.6.06,1.2.07,1.81.22-.61.45-1.21.67-1.81.22-.6.46-1.22.72-1.86l5.98-14.33c.11-.29.3-.52.55-.71.26-.18.54-.28.86-.28h2.16c.37,0,.66.09.88.28.22.18.34.42.37.71l2.38,14.33c.1.64.18,1.26.25,1.87.07.61.14,1.22.2,1.82.18-.59.36-1.19.54-1.8s.39-1.24.61-1.9l5.42-14.26c.1-.29.28-.53.54-.72s.56-.29.88-.29h3.74Z"/>
    <path class="cls-1" d="m190.83,45.6c-1.34,0-2.58-.23-3.72-.68-1.14-.46-2.12-1.12-2.94-1.99-.82-.87-1.47-1.94-1.93-3.22-.46-1.27-.7-2.72-.7-4.33,0-2.1.33-4.06,1-5.88.66-1.82,1.57-3.41,2.72-4.76,1.15-1.35,2.5-2.42,4.04-3.19,1.54-.78,3.2-1.16,4.96-1.16,1.34,0,2.58.23,3.72.68,1.14.46,2.11,1.12,2.93,1.99.82.87,1.46,1.94,1.92,3.22.46,1.27.7,2.72.7,4.33,0,1.38-.15,2.7-.46,3.98-.3,1.28-.73,2.48-1.27,3.59-.54,1.11-1.2,2.12-1.98,3.04-.78.91-1.63,1.69-2.57,2.34s-1.95,1.15-3.04,1.51c-1.09.36-2.22.54-3.38.54Zm.46-4.03c1.07,0,2.05-.3,2.93-.9.88-.6,1.63-1.4,2.24-2.41.62-1.01,1.09-2.17,1.43-3.49.34-1.32.5-2.7.5-4.14,0-2.11-.39-3.68-1.16-4.69-.78-1.02-1.92-1.52-3.44-1.52-1.09,0-2.07.3-2.94.89s-1.61,1.38-2.22,2.38c-.61.99-1.08,2.15-1.42,3.48-.34,1.33-.5,2.72-.5,4.18,0,4.16,1.53,6.24,4.58,6.24Z"/>
    <path class="cls-1" d="m213.5,27.08c.62-1.3,1.3-2.41,2.03-3.34.73-.93,1.49-1.66,2.28-2.18s1.61-.84,2.45-.94,1.68.04,2.53.41l-.94,4.94c-2.03-.82-3.81-.56-5.34.78-1.53,1.34-2.76,3.86-3.68,7.57l-1.3,10.92h-5.04l2.95-24.53h2.59c.56,0,.99.14,1.28.42.3.28.44.72.44,1.31l-.26,4.63Z"/>
    <path class="cls-1" d="m232.58,9.72l-2.52,20.59h.67c.35,0,.64-.05.85-.16s.45-.3.71-.59l7.25-7.85c.26-.32.52-.56.8-.72.28-.16.63-.24,1.04-.24h4.58l-8.74,9.31c-.5.61-1.05,1.1-1.66,1.46.27.22.51.48.71.77.2.29.39.61.56.96l6.65,11.98h-4.44c-.4,0-.73-.07-.98-.2-.26-.14-.46-.39-.62-.76l-5.45-9.6c-.18-.37-.37-.6-.58-.71-.21-.1-.54-.16-.98-.16h-.82l-1.39,11.42h-5.09l4.37-35.52h5.06Z"/>
    <path class="cls-1" d="m262.68,25.06c-.14.22-.29.38-.44.48-.15.1-.34.14-.56.14-.26,0-.52-.08-.79-.25s-.6-.36-.97-.56-.82-.4-1.33-.56c-.51-.17-1.13-.25-1.85-.25-.67,0-1.28.09-1.81.26-.54.18-1,.42-1.38.72-.38.3-.68.66-.88,1.08s-.3.86-.3,1.32c0,.53.14.97.42,1.33.28.36.65.68,1.12.95.46.27.99.52,1.58.74.59.22,1.2.46,1.81.7.62.24,1.22.52,1.81.83.59.31,1.12.69,1.58,1.13.46.44.83.97,1.12,1.6s.42,1.37.42,2.23c0,1.15-.23,2.26-.68,3.31-.46,1.06-1.11,1.98-1.97,2.77-.86.79-1.89,1.42-3.1,1.9-1.21.47-2.56.71-4.04.71s-2.96-.28-4.21-.85c-1.26-.57-2.26-1.28-3.01-2.15l1.27-1.97c.16-.24.34-.43.55-.56.21-.14.46-.2.77-.2.29,0,.57.11.84.32.27.22.6.46.97.72.38.26.84.5,1.38.72.54.22,1.25.32,2.11.32.72,0,1.36-.1,1.92-.3.56-.2,1.03-.48,1.42-.83.38-.35.68-.76.89-1.22.21-.46.31-.95.31-1.46,0-.58-.14-1.06-.42-1.44s-.65-.72-1.12-1c-.46-.28-.99-.52-1.57-.73-.58-.21-1.18-.42-1.8-.65-.62-.22-1.22-.48-1.8-.77s-1.11-.65-1.57-1.08c-.46-.43-.84-.96-1.12-1.57-.28-.62-.42-1.37-.42-2.27,0-1.06.21-2.08.62-3.08s1.02-1.88,1.8-2.65c.78-.77,1.74-1.38,2.88-1.85,1.14-.46,2.43-.7,3.89-.7s2.86.26,4.02.77c1.16.51,2.15,1.19,2.96,2.04l-1.32,1.87Z"/>
    <path class="cls-1" d="m265.78,42.27c0-.46.08-.9.25-1.31.17-.41.4-.76.71-1.07.3-.3.66-.54,1.06-.72.4-.18.84-.26,1.32-.26s.9.09,1.31.26.76.42,1.06.72c.3.3.53.66.71,1.07.18.41.26.84.26,1.31s-.09.92-.26,1.32-.41.75-.71,1.06c-.3.3-.65.54-1.06.71s-.84.25-1.31.25-.92-.08-1.32-.25c-.4-.17-.75-.4-1.06-.71-.3-.3-.54-.66-.71-1.06s-.25-.84-.25-1.32Z"/>
    <path class="cls-1" d="m292.13,39.53c-.56.93-1.16,1.76-1.79,2.51-.63.74-1.3,1.38-2,1.91-.7.53-1.45.94-2.23,1.22-.78.29-1.6.43-2.45.43-.94,0-1.82-.18-2.62-.55-.8-.37-1.49-.92-2.06-1.66-.58-.74-1.03-1.64-1.36-2.72-.33-1.08-.49-2.33-.49-3.76s.18-2.88.55-4.26c.37-1.38.89-2.69,1.56-3.91s1.48-2.35,2.42-3.37c.94-1.02,2-1.9,3.17-2.64,1.17-.74,2.43-1.31,3.78-1.72,1.35-.41,2.77-.61,4.26-.61,1.07,0,2.14.08,3.19.25s2.09.46,3.1.88l-2.93,23.71h-2.71c-.66,0-1.1-.17-1.34-.5-.24-.34-.36-.75-.36-1.25l.31-3.96Zm1.63-15.31c-.27-.03-.54-.06-.8-.07-.26-.02-.53-.02-.8-.02-1.38,0-2.67.32-3.88.96-1.21.64-2.26,1.5-3.14,2.59-.89,1.09-1.59,2.35-2.1,3.78-.51,1.43-.77,2.94-.77,4.52,0,1.82.29,3.17.88,4.04.58.87,1.41,1.31,2.48,1.31.72,0,1.42-.24,2.11-.71.69-.47,1.34-1.12,1.96-1.94.62-.82,1.19-1.8,1.72-2.92.53-1.12.98-2.34,1.37-3.65l.98-7.9Z"/>
    <path class="cls-1" d="m310.34,20.76l-2.95,24.48h-5.06l2.93-24.48h5.09Zm1.54-7.39c0,.46-.1.9-.29,1.32s-.45.78-.77,1.09c-.32.31-.68.56-1.08.74-.4.18-.82.28-1.25.28s-.84-.09-1.24-.28c-.39-.18-.74-.43-1.03-.74s-.54-.68-.72-1.09-.28-.86-.28-1.32.09-.91.28-1.33c.18-.42.43-.79.73-1.1.3-.31.66-.56,1.06-.74.4-.18.81-.28,1.22-.28s.85.09,1.26.28c.41.18.77.43,1.08.74.31.31.56.68.74,1.09.18.42.28.86.28,1.34Z"/>
  </g>
  <g>
    <path class="cls-2" d="m19.9,22.22l-.25-.14c-.82-.48-1.86-.2-2.34.62-.48.82-.2,1.86.62,2.34l.25.14c.27.16.57.23.86.23.59,0,1.16-.3,1.48-.85.48-.82.2-1.86-.62-2.34h0Z"/>
    <path class="cls-2" d="m12.76,22.02l.25.14c.27.16.57.23.86.23.59,0,1.16-.31,1.48-.85.48-.82.2-1.86-.62-2.34l-.25-.14c-.82-.47-1.86-.2-2.34.62-.48.82-.2,1.86.62,2.34h0Z"/>
    <path class="cls-2" d="m10.54,18.78c.47-.82.2-1.86-.62-2.34l-3.2-1.86c-.82-.48-1.86-.2-2.34.62-.47.82-.2,1.86.62,2.34l3.2,1.86c.27.16.56.23.86.23.59,0,1.16-.3,1.48-.85h0Z"/>
    <path class="cls-2" d="m12.53,36.36c-.16-.93-1.05-1.55-1.98-1.39l-.28.05c-.93.16-1.55,1.05-1.39,1.98.14.83.87,1.42,1.68,1.42.1,0,.19,0,.29-.03l.28-.05c.93-.16,1.55-1.05,1.39-1.98h0Z"/>
    <path class="cls-2" d="m14.78,35.97c.14.83.87,1.42,1.68,1.42.1,0,.2,0,.29-.03l.28-.05c.93-.16,1.55-1.05,1.39-1.98-.16-.93-1.05-1.55-1.98-1.39l-.28.05c-.93.16-1.56,1.05-1.39,1.98h0Z"/>
    <path class="cls-2" d="m5.06,35.96l-3.65.63c-.93.16-1.55,1.05-1.39,1.98.14.83.87,1.42,1.68,1.42.1,0,.19,0,.29-.02l3.65-.63c.93-.16,1.55-1.05,1.39-1.98-.16-.93-1.05-1.55-1.98-1.39h0Z"/>
    <path class="cls-2" d="m21.35,45.15l-.18.22c-.61.72-.52,1.8.2,2.41.32.27.71.4,1.1.4.49,0,.97-.21,1.31-.61l.18-.22c.61-.72.52-1.8-.2-2.41-.72-.61-1.8-.52-2.41.2h0Z"/>
    <path class="cls-2" d="m17.48,49.73l-.18.22c-.61.72-.52,1.8.21,2.41.32.27.71.4,1.1.4.49,0,.97-.21,1.31-.61l.18-.22c.61-.72.52-1.8-.21-2.41-.72-.61-1.8-.52-2.41.21h0Z"/>
    <path class="cls-2" d="m13.89,54.03l-2.39,2.83c-.61.72-.52,1.8.2,2.41.32.27.71.4,1.1.4.49,0,.97-.21,1.31-.61l2.39-2.83c.61-.72.52-1.8-.2-2.41-.72-.61-1.8-.52-2.41.2h0Z"/>
    <path class="cls-2" d="m33.99,54.37h0c-.94,0-1.8,1.27-1.8,2.21v.29c0,.94.85,1.62,1.8,1.62h0c.94,0,1.63-.67,1.63-1.61v-.29c0-.94-.68-2.22-1.62-2.22h0Z"/>
    <path class="cls-2" d="m34.01,48.88h0c-.94,0-1.71.76-1.71,1.7v.49c0,.95.76,1.92,1.7,1.92h0c.94,0,1.61-1.04,1.61-1.98v-.21c0-.94-.66-1.92-1.6-1.92h0Z"/>
    <path class="cls-2" d="m33.98,60.54h0c-.94,0-1.71.74-1.71,1.69v3.58c-.01.94.75,1.59,1.7,1.59h0c.94,0,1.71-.65,1.71-1.59v-3.62c.01-.94-.75-1.64-1.7-1.64h0Z"/>
    <path class="cls-2" d="m50.83,50.34l-.18-.22c-.6-.72-1.68-.82-2.41-.22-.73.6-.82,1.68-.22,2.41l.18.22c.34.41.82.62,1.31.62.39,0,.77-.13,1.09-.4.73-.6.82-1.68.22-2.41h0Z"/>
    <path class="cls-2" d="m46.81,45.53c-.6-.72-1.68-.82-2.41-.22-.73.6-.82,1.68-.22,2.41l.18.22c.34.41.83.62,1.32.62.39,0,.77-.13,1.09-.4.73-.6.82-1.68.22-2.41l-.18-.22Z"/>
    <path class="cls-2" d="m54.22,54.46c-.61-.72-1.68-.82-2.41-.22-.73.61-.82,1.68-.22,2.41l2.37,2.84c.34.41.82.61,1.31.61.39,0,.77-.13,1.09-.4.72-.6.82-1.68.22-2.41l-2.37-2.84Z"/>
    <path class="cls-2" d="m50.06,35.89c-.17.93.45,1.82,1.38,1.99l.28.05c.1.02.2.03.3.03.81,0,1.53-.58,1.68-1.41.17-.93-.45-1.82-1.38-1.99l-.28-.05c-.93-.16-1.82.45-1.98,1.38h0Z"/>
    <path class="cls-2" d="m58.21,35.61l-.28-.05c-.93-.16-1.82.45-1.98,1.38-.17.93.45,1.82,1.38,1.99l.28.05c.1.02.2.03.3.03.81,0,1.53-.58,1.68-1.41.17-.93-.45-1.82-1.38-1.99h0Z"/>
    <path class="cls-2" d="m67.08,37.26l-3.64-.65c-.93-.16-1.82.45-1.99,1.38-.17.93.45,1.82,1.38,1.99l3.64.65c.1.02.2.03.3.03.81,0,1.53-.58,1.68-1.41.17-.93-.45-1.82-1.38-1.99h0Z"/>
    <path class="cls-2" d="m49.82,25.9c.29,0,.58-.07.85-.23l.25-.14c.82-.47,1.1-1.51.63-2.33-.47-.82-1.51-1.1-2.33-.63l-.25.14c-.82.47-1.1,1.51-.63,2.33.32.55.89.86,1.49.86h0Z"/>
    <path class="cls-2" d="m55.01,22.92c.29,0,.58-.07.85-.23l.25-.14c.82-.47,1.1-1.51.63-2.33-.47-.82-1.51-1.1-2.33-.63l-.25.14c-.82.47-1.1,1.51-.63,2.33.32.55.89.86,1.48.86h0Z"/>
    <path class="cls-2" d="m64.56,15.8c-.47-.82-1.51-1.1-2.33-.63l-3.21,1.84c-.82.47-1.1,1.51-.63,2.33.32.55.89.86,1.48.86.29,0,.58-.07.85-.23l3.21-1.84c.82-.47,1.1-1.51.63-2.33h0Z"/>
    <path class="cls-2" d="m41.32,14.35c-.88-.32-1.87.13-2.2,1.02l-.1.27c-.33.89.13,1.87,1.02,2.2.19.07.39.1.59.1.7,0,1.35-.43,1.61-1.12l.1-.27c.33-.89-.13-1.87-1.01-2.2h0Z"/>
    <path class="cls-2" d="m44.3,11.2l.1-.27c.33-.89-.13-1.87-1.01-2.19-.88-.32-1.87.13-2.2,1.02l-.1.27c-.33.89.13,1.87,1.02,2.19.19.07.39.1.59.1.7,0,1.35-.43,1.61-1.12h0Z"/>
    <path class="cls-2" d="m46.51.34c-.89-.33-1.87.13-2.19,1.02l-1.28,3.47c-.33.89.13,1.87,1.02,2.19.19.07.39.1.59.1.7,0,1.35-.43,1.61-1.12l1.27-3.47c.33-.89-.13-1.87-1.01-2.19h0Z"/>
    <path class="cls-2" d="m28.06,9.82l-.1-.27c-.32-.89-1.3-1.35-2.19-1.03-.89.32-1.35,1.3-1.03,2.19l.1.27c.25.7.91,1.13,1.61,1.13.19,0,.39-.03.58-.1.89-.32,1.35-1.3,1.03-2.19h0Z"/>
    <path class="cls-2" d="m29.99,15.18c-.32-.89-1.3-1.35-2.19-1.03-.89.32-1.35,1.3-1.03,2.19l.1.27c.25.7.91,1.13,1.61,1.13.19,0,.39-.03.58-.1.89-.32,1.35-1.3,1.03-2.19l-.1-.27Z"/>
    <path class="cls-2" d="m26.19,4.61l-1.26-3.48c-.32-.89-1.3-1.35-2.19-1.03-.89.32-1.35,1.3-1.03,2.19l1.26,3.48c.25.7.91,1.13,1.61,1.13.19,0,.39-.03.58-.1.89-.32,1.35-1.3,1.03-2.19h0Z"/>
  </g>
</svg>