<svg width="146" height="16" viewBox="0 0 145.807 16" fill="none" xmlns="http://www.w3.org/2000/svg">
<g clip-path="url(#clip0_291_188774)">
<path fill-rule="evenodd" clip-rule="evenodd" d="M63.157 1.00781C63.8243 1.00781 64.4264 1.07096 64.9499 1.19501C65.4779 1.32132 65.9699 1.51303 66.4103 1.76564C66.8461 2.01599 67.2595 2.32949 67.6347 2.69713C67.9987 3.05574 68.3717 3.47299 68.7379 3.94212L69.003 4.28269L67.3404 5.34725L67.118 5.06307C66.8147 4.67514 66.5204 4.33908 66.2418 4.05941C65.9767 3.79552 65.6913 3.57674 65.3925 3.4121C65.096 3.24745 64.7702 3.12115 64.4242 3.03995C63.6311 2.85501 62.5415 2.86628 61.4114 3.17753C60.7958 3.34669 60.2206 3.63539 59.7016 4.03234C59.1894 4.42478 58.758 4.95255 58.421 5.59535C58.0862 6.23364 57.9177 7.04334 57.9177 8.00415C57.9177 8.81836 58.057 9.54912 58.3311 10.1784C58.6052 10.8054 58.9849 11.3377 59.4612 11.7617C59.942 12.188 60.5127 12.5173 61.1552 12.7405C62.3213 13.142 63.6895 13.2029 65.0937 12.833C65.6374 12.6887 66.1519 12.4857 66.6282 12.2241V9.87615H61.7439V7.93197H68.6143V13.248L68.4391 13.3653C67.9875 13.6653 67.5449 13.9201 67.118 14.1231C66.6911 14.3261 66.2575 14.4953 65.8306 14.6238C65.4038 14.7524 64.9634 14.8471 64.523 14.9058C64.0849 14.9644 63.6221 14.9937 63.1481 14.9937C62.2089 14.9937 61.2968 14.8403 60.4385 14.5359C59.5735 14.2291 58.7984 13.7713 58.1334 13.1758C57.4684 12.5782 56.9292 11.8384 56.5315 10.9768C56.1338 10.113 55.9316 9.11607 55.9316 8.01317C55.9316 6.74787 56.1675 5.65399 56.6326 4.7631C57.0954 3.87897 57.6908 3.14821 58.4075 2.58887C59.1175 2.03403 59.9038 1.62806 60.7463 1.38221C61.5776 1.13863 62.3842 1.01458 63.1481 1.01458L63.157 1.00781ZM123.29 1.24238C125.541 1.24238 127.172 1.57392 128.273 2.25732C129.419 2.96778 130.001 3.99851 130.001 5.3247C130.001 5.8863 129.88 6.41182 129.639 6.88546C129.403 7.34556 129.082 7.76056 128.682 8.11692C128.287 8.46877 127.817 8.76197 127.287 8.98977C126.986 9.11833 126.669 9.22659 126.341 9.31455L131.998 14.7569H129.177L123.836 9.57618H120.468V14.7569H118.482V1.24238H123.29ZM78.1875 1.24238L84.1975 14.7569H82.0384L80.1691 10.5979H74.9208L73.0673 14.7569H70.9239L76.9159 1.24238H78.1875ZM89.2188 1.24238L94.6357 7.91168C95.7141 9.24012 96.6307 10.3678 97.3856 11.2948C97.3789 10.4039 97.3744 9.35289 97.3699 8.14173C97.3654 6.65089 97.3632 4.87361 97.3609 2.8099V2.11072C97.3609 1.95284 97.3609 1.79496 97.3609 1.63257V1.24012H99.365V14.7546H97.7024L97.5833 14.608C95.4962 12.0368 93.7325 9.86939 92.2946 8.10113C91.2184 6.77719 90.2995 5.64497 89.5356 4.70446C89.5424 5.59535 89.5469 6.64638 89.5514 7.8598C89.5559 9.40477 89.5581 11.2452 89.5604 13.3879V14.7524H87.5563V1.24238H89.2188ZM114.892 1.24238V3.17077H109.974V14.7569H107.988V3.18656H103.07V1.24238H114.892ZM134.402 1.24238L137.08 4.8037C137.44 5.28636 137.795 5.75774 138.141 6.2201C138.386 6.54489 138.633 6.87192 138.882 7.20122C139.134 6.8629 139.383 6.5291 139.628 6.19755C139.976 5.72617 140.331 5.25478 140.693 4.7834L143.371 1.24238H145.807L139.887 9.09577V14.7569H137.901V9.09577L131.962 1.24238H134.4H134.402ZM77.5405 4.58718C77.4798 4.73152 77.4191 4.87587 77.3607 5.02022C77.1832 5.45326 76.9968 5.8863 76.808 6.30581L75.7835 8.6695H79.3154L78.3223 6.36896C78.1313 5.93367 77.9404 5.50062 77.7517 5.07209C77.6798 4.91196 77.6101 4.74957 77.5382 4.58718H77.5405ZM123.155 3.16851H120.468V7.66358H124.283C124.937 7.66358 125.508 7.58689 125.984 7.43804C126.456 7.29143 126.849 7.09972 127.155 6.86967C127.449 6.64864 127.667 6.40054 127.808 6.13214C127.948 5.86149 128.017 5.59761 128.017 5.32244C128.017 5.08111 127.968 4.83076 127.867 4.5759C127.779 4.35261 127.584 4.13835 127.283 3.93987C126.955 3.72109 126.463 3.5384 125.822 3.3918C125.164 3.24294 124.267 3.16626 123.155 3.16626V3.16851Z" fill="currentColor"></path>
<path fill-rule="evenodd" clip-rule="evenodd" d="M32.2268 0C31.8628 0 31.5685 0.295461 31.5685 0.66084C31.5685 1.02622 31.8628 1.32168 32.2268 1.32168H45.6913L24.9924 14.1505V1.84719L33.1973 6.93318C33.5074 7.12489 33.9118 7.02791 34.1028 6.71666C34.2937 6.40541 34.1971 5.99718 33.8871 5.80547L24.6801 0.0992388C24.6531 0.0811954 24.6239 0.0676628 24.5947 0.0541302C24.588 0.0518748 24.5835 0.0496194 24.5767 0.047364C24.5453 0.0360868 24.5161 0.0248097 24.4846 0.0180434C24.4734 0.015788 24.4644 0.0135326 24.4532 0.0112771C24.3768 -0.00225543 24.2959 -0.00225543 24.2195 0.0112771C24.2083 0.0112771 24.1993 0.015788 24.188 0.0180434C24.1566 0.0248097 24.1251 0.0360868 24.0959 0.047364C24.0892 0.0496194 24.0847 0.0518748 24.078 0.0541302C24.0487 0.0676628 24.0195 0.0811954 23.9926 0.0992388L14.7856 5.80772C14.4755 5.99944 14.3812 6.40767 14.5699 6.71892C14.6935 6.92191 14.9091 7.03242 15.1316 7.03242C15.2484 7.03242 15.3675 7.00085 15.4753 6.93318L23.6803 1.84719V14.1528L2.97913 1.32394H16.4436C16.8076 1.32394 17.1019 1.02847 17.1019 0.663096C17.1019 0.297716 16.8076 0.00225543 16.4436 0.00225543H0.658285C0.294319 0 0 0.295461 0 0.66084V15.3369C0 15.576 0.128062 15.797 0.337006 15.9143C0.435861 15.9707 0.548196 15.9977 0.658285 15.9977C0.777361 15.9977 0.898683 15.9639 1.00428 15.8985L10.2113 10.1923C10.5213 10.0006 10.6157 9.59233 10.427 9.28108C10.236 8.96983 9.83159 8.87285 9.52154 9.06456L1.31432 14.1528V1.84719L23.9881 15.9008C24.015 15.9188 24.0443 15.9323 24.0735 15.9459C24.0802 15.9481 24.0869 15.9504 24.0937 15.9526C24.1229 15.9639 24.1543 15.9729 24.1858 15.982C24.197 15.9842 24.2083 15.9865 24.2195 15.9887C24.2577 15.9955 24.2981 16 24.3363 16C24.3745 16 24.415 15.9955 24.4532 15.9887C24.4644 15.9887 24.4756 15.9842 24.4869 15.982C24.5183 15.9752 24.5475 15.9662 24.579 15.9526C24.5857 15.9504 24.5925 15.9481 24.5992 15.9459C24.6284 15.9323 24.6576 15.9188 24.6846 15.9008L47.3538 1.84719V14.1528L39.1444 9.06456C38.8343 8.87285 38.4299 8.96983 38.239 9.28108C38.048 9.59233 38.1446 10.0006 38.4546 10.1923L47.6661 15.9008C47.7717 15.9662 47.8908 16 48.0121 16C48.1222 16 48.2323 15.9729 48.3334 15.9165C48.5424 15.7993 48.6704 15.5782 48.6704 15.3392V0.66084C48.6704 0.295461 48.3761 0 48.0121 0H32.2268Z" fill="currentColor"></path>
</g>
<defs>
<clipPath id="clip0_291_188774">
<rect width="146" height="16" fill="currentColor"></rect>
</clipPath>
</defs>
</svg>
