<svg width="883" height="228" viewBox="0 0 883 228" fill="none" xmlns="http://www.w3.org/2000/svg" class="h-8 w-auto -mt-1.5"><mask id="mask0_2452_372" style="mask-type:alpha" maskUnits="userSpaceOnUse" x="243" y="48" width="640" height="164"><path d="M763.93 206.507L758.534 211.742C751.257 210.988 743.359 213.459 736.227 209.648L706.436 125.851V206.172L700.524 211.7C693.143 210.841 684.853 213.794 677.266 208.748V51.2873C684.812 46.0945 693.143 49.4656 700.834 48.1465C707.449 55.831 708.896 65.421 712.204 74.1316C716.89 86.4576 721.411 98.8604 725.766 111.34C728.66 119.548 731.141 127.924 733.808 136.215C734.074 136.068 734.323 135.893 734.552 135.692C734.778 135.459 734.924 135.157 734.966 134.833C734.966 106.964 734.966 79.115 734.966 51.4338C742.615 46.2201 750.926 49.1934 758.596 48.314L763.909 53.5905L763.93 206.507Z" fill="black"></path><path d="M542.391 208.656C534.631 213.378 526.445 210.745 518.45 211.602C512.88 206.462 511.37 199.253 508.84 192.65C505.629 184.292 503.822 175.182 500.037 167.013C496.253 158.843 494.956 149.712 490.236 141.709C487.131 136.444 486.408 129.841 483.602 124.033V208.53C479.269 210.505 474.583 211.621 469.811 211.815C465.039 212.009 460.275 211.276 455.791 209.659V50.3793C464.351 47.2642 473.788 47.4133 482.241 50.7972C492.163 77.9183 501.993 104.956 511.731 131.91C512.004 131.812 512.261 131.678 512.497 131.513C512.753 131.298 512.925 131.003 512.986 130.677C512.986 105.248 512.986 79.8407 512.986 53.618L519.365 48.4779C526.466 49.3137 534.652 46.4929 542.455 51.3613L542.391 208.656Z" fill="black"></path><path d="M324.189 189.252C321.283 200.375 315.47 206.135 303.947 209.612C287.911 213.655 268.535 210.785 248.912 211.707L243.944 205.569V53.0764L250.705 48.1539C249.097 48.5519 249.716 48.2587 250.355 48.2587C262.722 48.2587 275.09 48.0073 287.457 48.2587C293.641 48.4263 300.361 48.4053 306.009 50.5838C312.027 52.8879 318.995 55.4015 321.365 63.1518C322.167 65.146 323.111 67.0782 324.189 68.9332V121.133C321.757 123.814 319.036 126.809 316.232 129.93C318.685 132.737 321.53 135.984 324.189 138.979V189.252ZM272.987 77.7728V115.079H294.486C295.311 114.241 296.651 113.508 296.671 112.775C296.795 101.862 296.671 90.9273 296.671 80.056L294.424 77.7728H272.987ZM297.393 146.353C288.941 142.98 280.758 145.012 272.967 144.928V182.088H294.445L297.393 179.176V146.353Z" fill="black"></path><path d="M372.994 50.4281C384.316 47.1554 396.333 47.1917 407.635 50.5327C418.995 103.055 430.354 155.536 441.713 207.974C434.226 213.75 425.8 210.653 417.187 211.699L412.62 205.275L407.427 178.344H372.994C371.34 187.593 369.664 196.988 367.968 206.53C366.467 208.1 364.777 209.857 363.213 211.531H345.048L339 208.414C350.283 156.017 361.566 103.557 372.994 50.4281ZM402.192 152.648C398.188 131.367 394.329 110.797 390.284 89.3281L378.438 152.648H402.192Z" fill="black"></path><path d="M592.498 50.5746C603.82 47.3019 615.837 47.3382 627.139 50.6792C638.498 103.201 649.858 155.682 661.217 208.121C653.73 213.896 645.304 210.799 636.691 211.845L632.124 205.421L626.931 178.491H592.498C590.844 187.739 589.168 197.135 587.472 206.677C585.971 208.246 584.281 210.004 582.717 211.678H564.552L558.504 208.56C569.787 156.163 581.07 103.704 592.498 50.5746ZM621.696 152.794C617.692 131.513 613.833 110.944 609.787 89.4746L597.942 152.794H621.696Z" fill="black"></path><path d="M813.994 50.4281C825.316 47.1554 837.333 47.1917 848.635 50.5327C859.995 103.055 871.354 155.536 882.713 207.974C875.226 213.75 866.8 210.653 858.187 211.699L853.62 205.275L848.427 178.344H813.994C812.34 187.593 810.664 196.988 808.968 206.53C807.467 208.1 805.777 209.857 804.213 211.531H786.048L780 208.414C791.283 156.017 802.566 103.557 813.994 50.4281ZM843.192 152.648C839.188 131.367 835.329 110.797 831.284 89.3281L819.438 152.648H843.192Z" fill="black"></path></mask><g mask="url(#mask0_2452_372)"><rect x="227.896" y="-9.62988" width="674.054" height="259.992" fill="url(#paint0_linear_2452_372)"></rect></g><path d="M20.7554 79.6871C26.9373 77.4232 29.6721 80.8902 32.459 85.0033C39.2845 95.0501 46.9695 104.159 58.5396 109.285C80.3918 119 114.756 119.423 135.547 96.1318C141.966 89.0795 149.636 83.2723 158.17 79.0015C164.787 75.5686 169.315 67.9966 176.25 60.7934C179.399 60.413 182.591 61.0193 185.385 62.5287C188.178 64.038 190.434 66.3756 191.841 69.2183C187.501 71.5288 183.159 73.1766 179.75 75.8667C176.341 78.5568 173.527 82.5965 169.891 86.5795C174.178 96.9786 172.382 107.065 166.758 116.47C158.041 130.975 147.418 143.852 131.369 150.581C106.721 160.896 82.1817 160.473 57.865 148.542C44.9955 142.15 32.8947 134.921 23.3773 123.992C12.943 111.946 8.77314 95.3 20.7554 79.6871Z" fill="white"></path><path d="M20.7554 79.6871C26.9373 77.4232 29.6721 80.8901 32.459 85.0033C39.2845 95.0501 46.9695 104.159 58.5396 109.285C80.3918 119 114.756 119.423 135.547 96.1318C141.966 89.0795 149.636 83.2723 158.17 79.0015C164.787 75.5686 169.315 67.9966 176.25 60.7934C179.399 60.413 182.591 61.0193 185.385 62.5287C188.178 64.038 190.434 66.3756 191.841 69.2183C187.501 71.5288 183.159 73.1766 179.75 75.8667C176.341 78.5568 173.527 82.5965 169.891 86.5795C174.178 96.9785 172.382 107.065 166.758 116.47C158.041 130.975 147.418 143.852 131.369 150.581C106.721 160.896 82.1817 160.473 57.865 148.542C44.9955 142.15 32.8947 134.921 23.3773 123.992C12.943 111.946 8.77315 95.3 20.7554 79.6871ZM177.391 70.6427L175.268 68.8649C173.028 71.1636 170.887 73.512 168.547 75.7197C165.901 78.2512 163.239 80.7743 160.376 83.0741C153.236 88.8112 144.623 93.3411 139.006 100.269C119.62 124.196 69.1093 128.655 44.5111 105.812C40.1682 101.446 36.0756 96.8392 32.2529 92.0129C30.0193 89.4151 28.1237 86.2202 24.0184 89.0606C23.3721 100.421 29.4814 111.993 40.1021 120.617C49.5604 128.147 60.5106 133.585 72.2258 136.57C98.7229 143.527 123.762 142.275 145.299 123.241C154.389 115.165 162.703 106.103 164.556 93.5231C165.332 87.7508 167.884 82.3649 171.859 78.1086C173.949 75.7356 175.566 73.1064 177.391 70.6427Z" fill="url(#paint1_linear_2452_372)"></path><path d="M2.61202 166.93C8.72584 160.482 14.113 163.032 19.9512 166.331C34.2335 174.378 48.9919 180.776 66.0554 180.026C98.3033 178.652 140.098 158.533 151.248 117.896C154.774 105.517 160.559 93.8933 168.312 83.6071C174.25 75.4847 175.177 63.6135 179.236 50.7427C182.815 48.3921 187.038 47.2088 191.32 47.3566C195.602 47.5043 199.733 48.9758 203.14 51.5674C199.282 56.9657 195.022 61.5642 192.516 66.8625C190.011 72.1608 189.033 78.7337 187.029 85.7314C198.455 95.7282 202.338 108.999 201.186 123.744C199.357 146.512 194.245 168.455 178.885 186.224C155.282 213.49 125.364 227.711 88.8068 227.886C69.413 227.886 50.4451 226.411 32.3793 218.914C12.5344 210.616 -2.49954 192.997 2.61202 166.93Z" fill="white"></path><path d="M2.61202 166.94C8.72584 160.492 14.113 163.041 19.9512 166.34C34.2335 174.387 48.9919 180.785 66.0554 180.035C98.3033 178.661 140.098 158.542 151.248 117.905C154.774 105.527 160.559 93.9026 168.312 83.6164C174.25 75.494 175.177 63.6228 179.236 50.7519C182.815 48.4014 187.038 47.2181 191.32 47.3658C195.602 47.5136 199.733 48.9851 203.14 51.5767C199.282 56.9749 195.022 61.5735 192.516 66.8718C190.011 72.1701 189.033 78.743 187.029 85.7407C198.455 95.7375 202.338 109.008 201.186 123.754C199.357 146.521 194.245 168.464 178.885 186.233C155.282 213.5 125.364 227.72 88.8069 227.895C69.413 227.895 50.4451 226.421 32.3793 218.923C12.5344 210.626 -2.49954 193.006 2.61202 166.94ZM186.528 61.9733L182.895 61.0986C181.567 65.2223 180.389 69.346 178.885 73.4197C177.207 78.0682 175.503 82.7167 173.423 87.2152C168.236 98.4366 160.544 109.083 157.913 120.829C148.843 161.391 90.4606 197.105 47.0124 184.259C39.1416 181.589 31.4285 178.476 23.9102 174.937C19.6505 173.138 15.441 170.414 12.1837 176.312C18.2223 190.432 32.5547 200.754 50.5704 204.803C66.5243 208.227 83.026 208.227 98.9799 204.803C135.187 197.305 164.703 180.76 179.311 144.822C185.45 129.602 190.061 113.657 184.749 97.337C182.221 89.8934 182.073 81.8509 184.323 74.3194C185.425 70.1957 185.801 66.047 186.528 61.9733Z" fill="url(#paint2_linear_2452_372)"></path><defs><linearGradient id="paint0_linear_2452_372" x1="340.292" y1="10.9213" x2="487.516" y2="363.077" gradientUnits="userSpaceOnUse"><stop stop-color="#B0DB43"></stop><stop offset="1" stop-color="#12EAEA"></stop></linearGradient><linearGradient id="paint1_linear_2452_372" x1="36.0053" y1="30.0826" x2="176.667" y2="192.582" gradientUnits="userSpaceOnUse"><stop stop-color="#B0DB43"></stop><stop offset="1" stop-color="#12EAEA"></stop></linearGradient><linearGradient id="paint2_linear_2452_372" x1="35.2105" y1="61.6245" x2="178.789" y2="209.495" gradientUnits="userSpaceOnUse"><stop stop-color="#B0DB43"></stop><stop offset="1" stop-color="#12EAEA"></stop></linearGradient></defs></svg>
