<?xml version="1.0" encoding="UTF-8"?>
<!DOCTYPE svg PUBLIC "-//W3C//DTD SVG 1.1//EN" "http://www.w3.org/Graphics/SVG/1.1/DTD/svg11.dtd">
<svg xmlns="http://www.w3.org/2000/svg" version="1.1" width="200px" height="200px" style="shape-rendering:geometricPrecision; text-rendering:geometricPrecision; image-rendering:optimizeQuality; fill-rule:evenodd; clip-rule:evenodd" xmlns:xlink="http://www.w3.org/1999/xlink">
<g><path style="opacity:1" fill="#0c0f0b" d="M -0.5,-0.5 C 66.1667,-0.5 132.833,-0.5 199.5,-0.5C 199.5,66.1667 199.5,132.833 199.5,199.5C 132.833,199.5 66.1667,199.5 -0.5,199.5C -0.5,132.833 -0.5,66.1667 -0.5,-0.5 Z"/></g>
<g><path style="opacity:1" fill="#79e35f" d="M 48.5,54.5 C 60.8378,54.3335 73.1712,54.5001 85.5,55C 90.3333,63.1667 95.1667,71.3333 100,79.5C 104.707,71.2509 109.541,63.0842 114.5,55C 126.847,54.1674 139.18,54.3341 151.5,55.5C 162.833,75.1667 174.167,94.8333 185.5,114.5C 179.833,124.5 174.167,134.5 168.5,144.5C 156.18,145.666 143.847,145.833 131.5,145C 121.032,127.036 110.366,109.202 99.5,91.5C 89.2929,109.415 78.9596,127.248 68.5,145C 56.1532,145.833 43.8198,145.666 31.5,144.5C 25.6164,134.451 19.9498,124.284 14.5,114C 25.9647,94.2367 37.298,74.4034 48.5,54.5 Z"/></g>
<g><path style="opacity:1" fill="#0d110c" d="M 55.5,60.5 C 64.3238,59.3427 73.3238,59.176 82.5,60C 86.6268,67.086 90.6268,74.2526 94.5,81.5C 85.5,82.8333 76.5,82.8333 67.5,81.5C 63.7258,74.2745 59.7258,67.2745 55.5,60.5 Z"/></g>
<g><path style="opacity:1" fill="#0d110c" d="M 121.5,59.5 C 130.525,59.1685 139.525,59.5018 148.5,60.5C 157.787,77.578 167.454,94.4113 177.5,111C 168.482,111.832 159.482,111.665 150.5,110.5C 140.556,93.6078 130.89,76.6078 121.5,59.5 Z"/></g>
<g><path style="opacity:1" fill="#0e120c" d="M 49.5,62.5 C 54.749,69.4682 59.4157,76.9682 63.5,85C 53.6334,102.565 43.6334,120.065 33.5,137.5C 28.9175,130.005 24.5841,122.338 20.5,114.5C 30.2228,97.1326 39.8895,79.7992 49.5,62.5 Z"/></g>
<g><path style="opacity:1" fill="#0e120c" d="M 115.5,62.5 C 126.311,79.4393 136.644,96.7726 146.5,114.5C 142.504,122.496 138.004,130.162 133,137.5C 123.033,120.037 112.866,102.703 102.5,85.5C 107.11,77.9409 111.444,70.2742 115.5,62.5 Z"/></g>
<g><path style="opacity:1" fill="#0e120c" d="M 68.5,87.5 C 77.1922,87.1686 85.8589,87.502 94.5,88.5C 84.96,105.748 75.2933,122.914 65.5,140C 56.5,140.667 47.5,140.667 38.5,140C 48.3854,122.391 58.3854,104.891 68.5,87.5 Z"/></g>
<g><path style="opacity:1" fill="#0d110c" d="M 150.5,117.5 C 159.506,117.334 168.506,117.5 177.5,118C 173.419,125.498 169.085,132.831 164.5,140C 155.814,140.832 147.147,140.665 138.5,139.5C 142.958,132.386 146.958,125.052 150.5,117.5 Z"/></g>
</svg>
