<?xml version="1.0" standalone="no"?>
<!DOCTYPE svg PUBLIC "-//W3C//DTD SVG 20010904//EN"
 "http://www.w3.org/TR/2001/REC-SVG-20010904/DTD/svg10.dtd">
<svg version="1.0" xmlns="http://www.w3.org/2000/svg"
 width="458.000000pt" height="400.000000pt" viewBox="0 0 458.000000 400.000000"
 preserveAspectRatio="xMidYMid meet">

<g transform="translate(0.000000,400.000000) scale(0.100000,-0.100000)"
fill="#000000" stroke="none">
<path d="M4131 3967 c-25 -12 -52 -34 -60 -49 -9 -16 -21 -28 -26 -28 -14 0
-68 -50 -89 -83 -10 -14 -26 -29 -36 -32 -10 -3 -44 -37 -74 -75 -54 -66 -114
-109 -135 -96 -11 7 -45 -37 -61 -78 -9 -25 -18 -30 -51 -27 -10 1 -32 -21
-54 -54 -20 -31 -48 -61 -61 -67 -14 -6 -34 -26 -45 -45 -12 -18 -29 -33 -39
-33 -11 0 -32 -19 -51 -46 -19 -28 -46 -53 -70 -63 -21 -10 -47 -29 -58 -42
-11 -14 -40 -36 -65 -49 -33 -17 -46 -29 -46 -45 0 -16 -14 -28 -60 -50 -33
-16 -60 -32 -60 -37 0 -4 -17 -17 -37 -28 -21 -12 -67 -39 -103 -61 -36 -22
-73 -42 -82 -45 -10 -4 -18 -12 -18 -19 0 -7 -12 -18 -27 -24 -16 -6 -46 -25
-68 -41 -22 -17 -55 -37 -73 -45 -18 -8 -35 -21 -38 -30 -4 -8 -18 -15 -33
-15 -15 0 -32 -5 -39 -12 -9 -9 -12 -9 -12 0 0 7 -9 22 -20 34 -11 12 -20 33
-20 46 0 13 -13 36 -29 52 -32 32 -39 58 -50 175 -8 81 -27 147 -56 188 -8 12
-15 36 -15 54 0 47 -33 186 -56 242 -8 18 -18 54 -21 80 -3 25 -17 68 -29 95
-15 32 -21 59 -17 78 l6 28 -61 0 c-53 0 -64 4 -92 30 -18 17 -34 30 -35 30
-2 0 -5 -12 -7 -27 -2 -16 -10 -29 -19 -31 -13 -2 -19 8 -24 48 -4 30 -13 54
-21 57 -13 5 -12 8 2 24 11 12 14 27 10 45 l-7 27 -28 -33 c-15 -19 -43 -39
-62 -45 -19 -7 -39 -21 -45 -33 -13 -27 -76 -92 -89 -92 -5 0 -21 -11 -35 -25
-14 -14 -37 -36 -51 -48 -14 -12 -33 -39 -43 -60 -10 -21 -34 -54 -55 -72 -20
-19 -54 -67 -74 -107 -37 -71 -97 -153 -97 -131 0 6 9 31 21 57 21 47 19 66
-7 66 -8 0 -14 -10 -14 -22 0 -13 -6 -35 -14 -50 -8 -15 -22 -53 -31 -85 -9
-32 -20 -60 -25 -63 -4 -3 -17 -24 -29 -48 -12 -24 -42 -73 -67 -108 -24 -36
-44 -71 -44 -79 0 -7 -15 -35 -32 -63 -18 -27 -46 -71 -61 -98 -15 -27 -48
-83 -72 -124 -25 -41 -45 -83 -45 -93 0 -24 -39 -100 -56 -110 -8 -4 -14 -14
-14 -22 0 -7 -6 -20 -13 -27 -7 -7 -25 -47 -40 -88 -15 -41 -41 -93 -57 -114
-17 -22 -30 -45 -30 -51 0 -7 -13 -29 -30 -50 -16 -21 -30 -44 -30 -51 0 -7
-11 -25 -24 -41 -13 -15 -27 -43 -31 -61 -4 -18 -15 -41 -25 -50 -10 -9 -28
-44 -41 -77 -12 -33 -28 -66 -36 -73 -7 -7 -13 -22 -13 -32 0 -11 -11 -36 -25
-56 -14 -20 -25 -50 -25 -66 0 -17 -6 -42 -14 -56 -8 -15 -17 -34 -20 -42 -4
-8 -15 -28 -26 -45 -30 -45 -60 -108 -60 -127 0 -10 -7 -18 -16 -18 -15 0 -44
-56 -44 -86 0 -9 -7 -30 -15 -47 -45 -97 -111 -291 -125 -366 -4 -24 -14 -47
-22 -52 -8 -5 -21 -30 -28 -56 -7 -27 -19 -57 -27 -68 -14 -22 -18 -55 -5 -55
5 0 28 24 53 53 40 46 79 132 79 173 0 17 42 28 74 20 23 -6 23 -7 11 -59 -7
-29 -19 -66 -27 -82 -9 -17 -26 -70 -38 -120 -13 -49 -29 -102 -37 -117 -19
-38 -16 -48 11 -48 19 0 26 7 31 30 4 16 20 39 36 51 20 14 29 29 29 49 0 22
14 42 59 85 37 35 61 67 65 86 8 41 26 27 26 -21 0 -21 4 -41 9 -44 5 -4 26
13 46 36 20 24 34 34 30 23 -14 -38 -17 -73 -6 -79 6 -4 11 0 11 8 0 9 5 16
11 16 5 0 15 14 20 30 6 16 15 30 20 30 5 0 9 6 9 13 0 7 13 26 28 43 16 17
34 45 41 62 8 18 18 29 26 26 8 -4 16 6 20 25 4 17 11 31 16 31 5 0 15 11 21
25 6 14 15 25 20 25 5 0 5 -8 0 -17 -5 -10 -12 -52 -15 -93 -2 -43 -13 -94
-25 -120 -29 -67 -36 -101 -17 -94 14 6 125 221 125 243 0 6 4 11 9 11 4 0 16
20 25 44 21 55 39 72 55 52 8 -10 8 -21 1 -40 -13 -35 -13 -35 8 -29 18 4 72
96 72 120 0 7 11 20 25 29 14 9 25 24 23 33 -3 20 21 81 33 81 13 0 39 56 39
85 0 14 11 37 25 51 14 14 27 37 31 52 3 15 9 36 14 47 5 11 11 33 15 49 3 15
14 30 24 33 9 2 23 16 29 31 16 36 37 71 51 85 6 6 11 28 11 49 0 40 14 51 23
18 9 -36 35 -11 68 68 40 97 68 153 86 172 28 31 61 89 77 138 10 28 25 61 35
74 10 13 21 40 24 62 3 21 14 50 24 65 10 14 18 35 18 46 0 15 8 21 31 23 l31
3 -5 -53 c-5 -62 15 -139 86 -340 45 -127 72 -178 94 -178 4 0 6 11 2 25 -10
42 21 30 41 -15 10 -22 24 -40 32 -40 7 0 13 -5 13 -11 0 -6 -15 -2 -35 10
-51 30 -47 -1 4 -34 22 -13 43 -31 48 -39 4 -8 36 -24 70 -35 l61 -21 46 26
c38 21 46 23 46 10 0 -9 -5 -16 -12 -16 -8 0 -9 -3 -2 -10 11 -11 93 8 112 27
7 7 23 13 35 13 13 0 38 13 57 29 19 15 51 36 70 46 19 10 47 31 63 46 16 16
33 29 38 29 6 0 58 41 117 91 59 50 117 96 130 102 12 5 22 15 22 20 0 24 33
46 61 40 24 -5 32 0 60 41 18 25 36 46 40 46 13 0 99 95 99 109 0 11 3 11 15
1 25 -20 18 -35 -30 -66 -50 -31 -174 -174 -151 -174 7 0 19 7 26 15 11 13 15
13 21 3 13 -20 11 -25 -11 -31 -14 -4 -20 -14 -20 -35 0 -21 -8 -35 -25 -46
-19 -13 -25 -25 -25 -55 0 -31 -5 -40 -25 -49 -16 -7 -25 -20 -25 -34 0 -13
-22 -69 -50 -125 -27 -56 -50 -110 -50 -120 0 -11 -5 -24 -11 -30 -5 -5 -14
-38 -19 -73 -5 -34 -15 -69 -23 -79 -8 -9 -18 -31 -22 -50 -4 -18 -16 -42 -28
-54 -11 -11 -35 -61 -54 -111 -19 -50 -45 -108 -59 -130 -19 -29 -24 -46 -20
-68 6 -31 -7 -79 -43 -158 -11 -25 -21 -55 -21 -66 0 -12 -10 -28 -22 -36 -15
-10 -21 -24 -21 -49 1 -19 -10 -69 -24 -112 -23 -70 -24 -79 -10 -90 14 -11
13 -18 -5 -72 -46 -137 -83 -335 -63 -335 3 0 24 39 46 88 86 183 123 257 134
267 21 17 51 68 69 115 40 105 41 106 64 91 10 -6 7 -22 -14 -72 -15 -35 -33
-70 -40 -78 -11 -12 -10 -20 3 -45 11 -21 18 -26 20 -16 3 8 13 35 23 60 10
25 21 68 25 95 3 28 13 60 21 72 8 12 14 31 14 41 0 11 7 25 15 32 8 7 15 23
15 37 0 39 45 128 72 140 18 8 29 29 48 89 13 44 31 90 40 104 9 14 22 39 29
57 7 18 20 38 29 45 13 11 14 11 8 0 -5 -8 -1 -20 8 -31 15 -16 14 -20 -13
-45 -16 -15 -35 -44 -44 -64 -8 -20 -26 -64 -40 -97 -40 -95 -40 -101 -17
-133 21 -28 21 -29 4 -68 -10 -21 -25 -47 -33 -57 -11 -13 -12 -20 -3 -29 7
-7 12 -21 12 -31 0 -13 5 -17 16 -13 9 3 18 6 20 6 2 0 4 6 4 14 0 21 40 7 49
-17 7 -18 11 -14 30 27 26 53 20 74 -9 36 -11 -14 -20 -20 -20 -14 0 6 22 32
50 58 37 35 53 59 65 99 20 69 56 128 64 106 10 -25 45 -65 63 -72 19 -7 48
26 48 55 0 21 12 29 28 19 10 -6 9 -17 -3 -50 -8 -24 -12 -47 -10 -52 3 -5 -4
-31 -16 -58 -11 -27 -18 -55 -14 -62 7 -11 30 27 92 151 10 19 22 38 26 41 4
3 10 23 14 45 3 21 12 48 19 59 8 11 14 27 14 36 0 21 38 55 59 51 34 -5 69
50 107 168 20 63 60 162 89 220 29 58 58 124 64 145 6 22 16 47 21 55 9 13 12
13 23 -2 18 -22 32 -11 55 42 11 25 33 68 49 95 16 28 40 77 52 110 13 33 38
92 56 130 18 39 43 95 55 125 11 30 34 82 50 115 43 88 56 130 70 229 8 48 19
93 25 100 7 6 15 35 19 64 l7 53 -32 -33 c-17 -18 -38 -49 -46 -68 -8 -19 -21
-39 -28 -45 -7 -5 -25 -41 -40 -80 -15 -38 -36 -86 -46 -105 -11 -19 -19 -40
-19 -46 0 -7 -7 -14 -15 -18 -10 -3 -15 1 -15 12 0 10 -5 23 -11 29 -9 9 -3
31 25 90 36 74 47 96 103 203 13 24 30 48 38 53 8 4 15 13 15 19 0 17 50 79
60 73 4 -3 20 21 35 53 42 89 54 105 70 92 12 -10 7 -25 -27 -91 -22 -43 -44
-79 -49 -79 -5 0 -9 -9 -9 -20 0 -16 7 -20 33 -20 36 0 32 -5 111 145 17 33
37 69 43 80 7 11 32 62 58 114 25 51 55 105 65 119 11 13 20 29 20 34 0 7 102
227 131 280 14 27 11 58 -7 65 -9 3 -20 0 -24 -7 -6 -10 -14 -8 -35 8 -14 11
-33 18 -41 15 -8 -3 -14 1 -14 11 0 9 4 16 10 16 5 0 12 11 16 24 8 32 -35 99
-75 116 -25 10 -31 18 -31 41 0 23 -7 32 -27 41 -16 7 -29 13 -31 13 -1 1 9
32 22 69 26 70 26 106 0 85 -8 -6 -14 -19 -14 -28 0 -10 -6 -26 -14 -36 -13
-19 -15 -17 -31 22 -24 59 -69 69 -144 30z m169 -196 c-6 -12 -16 -21 -22 -21
-6 0 -4 8 5 18 10 10 17 25 18 33 0 9 2 10 5 2 3 -7 0 -21 -6 -32z m52 -217
c-5 -25 -10 -30 -22 -18 -13 13 -2 46 14 41 6 -2 9 -13 8 -23z m-602 -1 c0 -5
-16 -21 -35 -36 -41 -33 -46 -25 -8 15 26 27 43 35 43 21z m-1702 -99 c-4 -30
-5 -29 -26 36 l-12 34 21 -20 c14 -15 19 -30 17 -50z m47 -17 c13 -42 12 -46
-4 -44 -13 1 -17 12 -19 51 -3 58 4 56 23 -7z m2306 -47 c18 -10 17 -14 -23
-71 -55 -79 -90 -139 -85 -152 3 -11 -51 -72 -58 -65 -9 9 28 104 54 138 15
19 30 43 34 53 3 9 11 17 16 17 5 0 15 20 22 45 15 50 13 49 40 35z m-2261
-72 c0 -44 -24 -29 -28 17 -3 34 -2 37 12 26 9 -8 16 -27 16 -43z m-53 -5 c-3
-10 -5 -4 -5 12 0 17 2 24 5 18 2 -7 2 -21 0 -30z m3 -55 c0 -17 -30 -7 -40
12 -17 32 0 47 21 19 10 -13 19 -27 19 -31z m60 2 c0 -5 -2 -10 -4 -10 -3 0
-8 5 -11 10 -3 6 -1 10 4 10 6 0 11 -4 11 -10z m12 -54 c4 -17 1 -23 -9 -19
-14 6 -18 43 -4 43 5 0 11 -11 13 -24z m-157 -26 c-5 -8 -11 -8 -21 1 -12 10
-12 14 -2 20 16 10 33 -5 23 -21z m75 14 c0 -8 -4 -12 -10 -9 -5 3 -10 10 -10
16 0 5 5 9 10 9 6 0 10 -7 10 -16z m-70 -69 c0 -8 -4 -17 -10 -20 -6 -4 -10 5
-10 20 0 15 4 24 10 20 6 -3 10 -12 10 -20z m205 -102 c3 -14 20 -56 37 -92
30 -65 30 -65 10 -81 -17 -14 -19 -23 -12 -51 5 -21 9 -27 10 -14 2 17 3 16
10 -5 4 -14 8 -41 9 -61 1 -20 8 -42 16 -49 16 -13 20 -40 7 -40 -15 0 -39 34
-46 65 -19 81 -45 108 -77 79 -18 -16 -20 -16 -38 0 -11 10 -29 42 -41 72 -19
45 -20 57 -9 70 12 14 14 14 26 -2 7 -10 13 -27 13 -38 1 -12 12 -34 25 -51
22 -26 25 -28 25 -10 0 12 -9 38 -20 60 -11 22 -20 51 -20 65 1 24 1 24 15 6
13 -17 15 -17 21 -3 3 9 1 24 -4 33 -7 13 -5 27 6 50 17 37 27 36 37 -3z
m-185 12 c0 -8 5 -15 10 -15 6 0 10 -7 10 -15 0 -20 -26 -19 -34 1 -9 24 -7
44 4 44 6 0 10 -7 10 -15z m2220 -25 c0 -24 -26 -44 -46 -36 -16 6 -16 8 0 24
9 10 16 27 16 37 0 14 3 15 15 5 8 -7 15 -20 15 -30z m-1940 -21 c0 -45 -17
-52 -26 -11 -3 15 -7 32 -9 39 -5 15 4 23 21 16 9 -3 14 -20 14 -44z m1484
-561 c-14 -26 -19 -29 -22 -15 -4 20 29 78 35 60 2 -6 -4 -27 -13 -45z m-2211
-111 c-11 -12 -33 -44 -49 -72 -27 -47 -29 -48 -32 -23 -2 16 7 42 25 69 15
23 34 53 42 68 l14 25 10 -22 c8 -18 6 -27 -10 -45z m2142 -156 c3 -5 0 -13
-5 -16 -6 -4 -16 -18 -21 -32 -14 -39 -23 -20 -9 21 11 36 23 45 35 27z
m-2205 -15 c0 -21 -26 -67 -33 -59 -9 8 -9 58 0 66 11 12 33 7 33 -7z m2252
-89 c-29 -76 -12 -100 21 -28 15 30 28 48 32 41 5 -8 11 -5 21 7 7 10 14 13
14 7 0 -12 -23 -82 -39 -119 -99 -230 -124 -272 -127 -219 -1 12 4 25 12 28 8
3 14 12 14 20 0 7 7 27 15 42 8 16 15 37 15 46 0 9 5 20 11 23 6 5 4 12 -7 20
-10 7 -15 19 -11 29 4 9 2 16 -3 16 -5 0 -13 12 -16 26 -5 19 -1 29 14 40 12
8 23 31 27 55 5 29 10 38 18 30 7 -7 4 -26 -11 -64z m-127 -66 c-15 -31 -45
-43 -45 -18 0 14 28 58 44 69 18 12 18 -18 1 -51z m-1825 -46 c0 -8 -2 -15 -4
-15 -2 0 -6 7 -10 15 -3 8 -1 15 4 15 6 0 10 -7 10 -15z m30 -60 c0 -8 -4 -15
-10 -15 -5 0 -10 7 -10 15 0 8 5 15 10 15 6 0 10 -7 10 -15z m-560 -75 c0 -5
-6 -13 -14 -17 -11 -7 -75 -131 -77 -151 -1 -11 -69 -65 -75 -60 -8 8 14 58
26 58 6 0 22 26 36 58 34 78 65 122 87 122 9 0 17 -4 17 -10z m1980 -25 c0 -9
-9 -15 -21 -15 -18 0 -19 2 -9 15 7 8 16 15 21 15 5 0 9 -7 9 -15z m356 -23
c7 -4 -4 -27 -32 -65 -36 -49 -44 -54 -49 -38 -6 19 10 54 43 94 17 19 22 20
38 9z m-440 -123 c4 -7 0 -16 -9 -20 -9 -5 -26 -31 -38 -57 -34 -74 -35 -76
-47 -80 -7 -2 -12 7 -12 22 0 24 31 78 64 111 9 9 16 21 16 26 0 13 17 11 26
-2z m-2082 -62 c8 -13 7 -20 -4 -27 -11 -7 -12 -12 -3 -21 13 -13 33 -4 33 17
0 8 5 14 10 14 18 0 11 -23 -16 -52 -26 -26 -84 -148 -84 -175 0 -7 -4 -13
-10 -13 -5 0 -10 -9 -10 -19 0 -11 -5 -23 -10 -26 -7 -4 -7 -12 0 -25 7 -13 5
-21 -6 -31 -8 -7 -22 -26 -31 -42 -11 -22 -17 -26 -23 -17 -6 9 -9 7 -12 -10
-4 -31 -25 -37 -33 -10 -9 28 13 80 31 73 8 -3 15 5 19 24 3 15 10 36 16 45 5
10 9 29 9 43 0 14 6 25 13 25 16 0 71 129 73 169 0 14 2 39 2 54 2 31 18 32
36 4z m-66 -29 c17 -17 15 -28 -7 -28 -22 0 -35 15 -26 30 8 13 18 13 33 -2z
m2007 -158 c3 -5 -1 -10 -10 -10 -9 0 -13 5 -10 10 3 6 8 10 10 10 2 0 7 -4
10 -10z m416 -71 c-5 -13 -10 -19 -10 -12 -1 15 10 45 15 40 3 -2 0 -15 -5
-28z m-451 -24 c0 -13 -42 -87 -46 -82 -8 7 7 57 17 57 5 0 9 7 9 15 0 8 5 15
10 15 6 0 10 -2 10 -5z m-52 -117 c-2 -6 -10 -14 -16 -16 -7 -2 -10 2 -6 12 7
18 28 22 22 4z m-2356 -214 c-3 -17 -8 -22 -15 -15 -7 7 -6 15 3 26 17 20 18
19 12 -11z m-32 -78 c0 -24 -16 -43 -27 -32 -8 8 6 56 17 56 6 0 10 -11 10
-24z m-60 -105 c0 -6 -4 -13 -10 -16 -5 -3 -10 1 -10 9 0 9 5 16 10 16 6 0 10
-4 10 -9z"/>
<path d="M1950 3831 c0 -11 29 -35 35 -29 10 9 -7 38 -21 38 -8 0 -14 -4 -14
-9z"/>
<path d="M2010 3809 c0 -15 4 -19 16 -15 9 3 20 6 25 6 5 0 9 7 9 15 0 9 -9
15 -25 15 -19 0 -25 -5 -25 -21z"/>
<path d="M2070 3773 c1 -35 52 -43 58 -10 3 13 -3 17 -27 17 -17 0 -31 -3 -31
-7z"/>
<path d="M2876 1964 c-4 -9 -4 -19 -1 -22 2 -3 7 3 11 12 4 9 4 19 1 22 -2 3
-7 -3 -11 -12z"/>
<path d="M3641 1560 c-19 -43 -19 -66 0 -54 18 11 40 77 30 87 -7 7 -17 -4
-30 -33z"/>
<path d="M1993 1553 c9 -2 23 -2 30 0 6 3 -1 5 -18 5 -16 0 -22 -2 -12 -5z"/>
<path d="M2741 722 c-6 -12 -11 -27 -11 -34 1 -7 8 0 16 15 9 16 13 31 11 34
-3 2 -10 -4 -16 -15z"/>
</g>
</svg>
