<svg id="SvgjsSvg1001" width="163.50197982788086" height="163.50197982788086" xmlns="http://www.w3.org/2000/svg" version="1.1" xmlns:xlink="http://www.w3.org/1999/xlink" xmlns:svgjs="http://svgjs.com/svgjs" viewBox="0 0 163.50198 163.50198"><defs id="SvgjsDefs1002"></defs><rect id="SvgjsRect1008" width="163.50197982788086" height="163.50197982788086" fill="#ffffff"></rect><g id="SvgjsG1009" transform="matrix(1,0,0,1,21.858779907226562,-0.7563323974609375)"><path id="color_1" d="M90.33786,61.12228l-.00482-.00043c-11.9812,0-21.868,6.37-31.30549,13.1141-10.69448-7.28332-20.62922-13.11377-31.989-13.11377-10.494,0-21.647,7.42267-21.647,21.17876,0,13.11645,8.861,21.59173,22.5746,21.59173A41.21095,41.21095,0,0,0,44.017,100.68276a82.52109,82.52109,0,0,0,16.11165-8.99582c10.48974,6.65227,19.81438,12.20573,32.09567,12.20573,13.25962,0,22.16855-8.67708,22.16855-21.59173C114.39283,69.43688,104.95081,61.12432,90.33786,61.12228ZM72.10075,84.202l-.0999.00183a.86793.86793,0,0,1-.7047-.34335l.09652-.0655Q71.7473,83.99947,72.10075,84.202ZM67.405,86.7505a.943.943,0,0,1-.92606.927l-.65947.01045q.77976-.5553,1.55471-1.10438A.89316.89316,0,0,1,67.405,86.7505ZM45.1565,76.47986a.814.814,0,0,1,.78467-.78466l.72373-.02477a.83774.83774,0,1,1,.0574,1.6745h-.0574l-.72373-.02471A.81279.81279,0,0,1,45.1565,76.47986Zm.47187,3.40822a.82414.82414,0,0,1-.285.64387q-.96531-.55714-1.92447-1.08208a.80568.80568,0,0,1,.61975-.34555l.72373-.02476A.83809.83809,0,0,1,45.62837,79.88808Zm2.75342-.87305.72373-.01324a.91517.91517,0,0,1,.03269,1.83h-.03269l-.72373-.01238a.90235.90235,0,0,1,0-1.80442Zm21.68563,6.843h.03093l.72372.01324a.8648.8648,0,0,1,0,1.72932l-.72372.01233a.87758.87758,0,0,1-.03093-1.75489ZM55.35113,75.54234a.95263.95263,0,0,1,.91309.67918q-.85727.6189-1.70906,1.23211a.95524.95524,0,0,1,.0723-1.90781Zm-2.68266-3.39391q.85573.55393,1.71609,1.12475a.95057.95057,0,0,1-.9244.78992h-.01061l-.72459-.00354a.95643.95643,0,0,1-.05649-1.91113ZM51.008,75.59266a.91516.91516,0,0,1,.03178,1.83H51.008l-.72373-.01324a.90235.90235,0,0,1,0-1.80441Zm-.85344-5.03072a.87765.87765,0,0,1-.568-.34586C49.77586,70.33019,49.96538,70.44612,50.15458,70.56194Zm-1.77279,1.634.72373-.01238a.91473.91473,0,1,1,.03269,1.82917h-.03269l-.72373-.01238a.90235.90235,0,0,1,0-1.80441Zm-2.44062-3.31984.72373-.02476a.83774.83774,0,1,1,.0574,1.6745c-.01855.00091-.03977.00091-.0574,0l-.72373-.02471a.813.813,0,0,1,0-1.625Zm-1.9025,3.40908.72373-.02471a.83774.83774,0,1,1,.0574,1.67449c-.01854.00092-.03886.00092-.0574,0l-.72373-.0247a.813.813,0,0,1,0-1.62508ZM41.59714,69.0245l.72458-.02471a.68921.68921,0,0,1,.04685,1.37762h-.04685l-.72458-.02477a.66448.66448,0,0,1,0-1.32814Zm1.43593,7.45976a.68772.68772,0,0,1-.6645.71135.40227.40227,0,0,1-.04685,0l-.72458-.02471a.664.664,0,0,1,0-1.32729l.72458-.02471A.68786.68786,0,0,1,43.03307,76.48426ZM39.69555,65.61542l.72367-.02476c.00574-.00021.01056.00273.01624.00268a.68721.68721,0,0,1,.03061,1.374.40234.40234,0,0,1-.04685,0l-.72367-.02471a.664.664,0,0,1,0-1.32724Zm0,6.81911.72367-.02476a.68875.68875,0,1,1,.04685,1.37671.40234.40234,0,0,1-.04685,0l-.72367-.02471a.664.664,0,0,1,0-1.32724ZM37.254,69.17387l.72373-.02476a.54023.54023,0,0,1,.03709,1.07983h-.03709l-.72373-.02562a.515.515,0,0,1,0-1.02945Zm1.28216,7.31484a.5297.5297,0,0,1-.2228.44416c-.50623-.22039-1.01107-.4268-1.51483-.62516a.51678.51678,0,0,1,.45547-.31564l.72373-.02471A.54016.54016,0,0,1,38.53618,76.48871Zm-3.1838-10.72488.72373-.02471a.54021.54021,0,1,1,.03709,1.07978.25222.25222,0,0,1-.03709,0l-.72373-.02471a.51548.51548,0,0,1,0-1.03036Zm0,6.81912.72373-.02471a.54023.54023,0,1,1,.03709,1.07983h-.03709l-.72373-.02476a.51548.51548,0,0,1,0-1.03036ZM32.9109,69.40536l.72368-.04063a.32437.32437,0,1,1,.03623.64773h-.03623l-.72368-.04068a.28368.28368,0,0,1,0-.56642Zm-1.9025-3.40913.72459-.04062a.32391.32391,0,0,1,.03623.64681.24066.24066,0,0,1-.03623,0l-.72459-.04063a.28323.28323,0,0,1,0-.56556Zm0,6.81911.72459-.04062a.32391.32391,0,0,1,.03623.64681.24066.24066,0,0,1-.03623,0l-.72459-.04062a.28323.28323,0,0,1,0-.56557Zm-1.71694-3.18112a.05449.05449,0,0,1,.00793.1087h-.00793l-.72373-.05392ZM27.389,66.22509a.05453.05453,0,1,1,.00884.1087H27.389l-.72373-.05478Zm0,6.81826a.05589.05589,0,0,1,.05922.05038.05452.05452,0,0,1-.05038.05831H27.389l-.72373-.05391Zm-7.10367,9.25759c0-4.33975,3.76657-6.31621,7.26623-6.31621,6.53831,0,11.88108,2.90306,18.73873,7.09428-5.15223,3.1904-10.306,5.55877-15.72172,6.00261-.584.03328-1.16672.06968-1.76283.074-.02171.00005-.043.00262-.06474.00262H28.7371C24.6505,89.15709,20.28529,87.3554,20.28529,82.30094Zm43.753,8.81835-.72458.0044a.97787.97787,0,0,1-.98271-.96487c.47048-.33053.94063-.66037,1.40527-.98984l.302.00183a.97426.97426,0,0,1,0,1.94848Zm3.15143,3.01192q-1.07127-.60861-2.13425-1.2402a.95108.95108,0,0,1,.66884-.28985h.03093l.72373.01238a.94025.94025,0,0,1,.92606.95607A.92171.92171,0,0,1,67.18971,94.13121Zm1.19175-3.04461-.72373.01147a.95315.95315,0,1,1-.03093-1.906h.03093l.72373.01147a.94168.94168,0,0,1,0,1.8831Zm1.71689,3.34545a.87758.87758,0,0,1-.03093-1.75489h.03093l.72372.01324a.86434.86434,0,0,1,0,1.72841Zm3.35054,2.95484q-1.055-.49315-2.1022-1.02168a.87341.87341,0,0,1,.62323-.27892h.03093l.72372.01324a.86467.86467,0,0,1,.8492.88012A.83836.83836,0,0,1,73.44889,97.38689Zm-.72432-6.3772-.72372.01329a.87761.87761,0,1,1-.03093-1.755h.03093l.72372.01238a.86478.86478,0,0,1,0,1.72928Zm1.71695,3.30841a.76392.76392,0,0,1-.05215-1.52694h.05215l.72459.02471a.73921.73921,0,0,1,0,1.47747ZM73.6524,86.762a.76417.76417,0,0,1,.737-.79h.05215l.72459.02567a.73874.73874,0,0,1,0,1.47656l-.72459.02476A.76283.76283,0,0,1,73.6524,86.762Zm3.41529,10.94045-.72367.02476a.7635.7635,0,1,1-.05306-1.52608.5159.5159,0,0,1,.05306,0l.72367.02476a.73871.73871,0,0,1,0,1.47656Zm0-6.81911L76.344,90.909A.76394.76394,0,0,1,76.291,89.382a.5159.5159,0,0,1,.05306,0l.72367.02471a.73874.73874,0,0,1,0,1.47662Zm1.08251,2.69247a.61355.61355,0,0,1,.5929-.63449.34946.34946,0,0,1,.04245,0l.72367.02476a.58886.58886,0,0,1,0,1.177l-.72367.02562A.61427.61427,0,0,1,78.1502,93.57583Zm1.18628,6.20263.17274.0059a.58611.58611,0,0,1,.41421.19338C79.72747,99.91332,79.532,99.84541,79.33648,99.77846Zm2.07439-2.22531-.72373.0247a.61406.61406,0,0,1-.0424-1.22738.34865.34865,0,0,1,.0424,0l.72373.02476a.5893.5893,0,0,1,0,1.17792Zm0-6.81917-.72373.02476a.61406.61406,0,0,1-.0424-1.22738h.0424l.72373.02476a.58926.58926,0,0,1,0,1.17786Zm2.44147,10.04183-.72367.04062a.44343.44343,0,1,1-.05038-.88543.49221.49221,0,0,1,.05038,0l.72367.04068a.40272.40272,0,0,1,0,.80413Zm0-6.81912-.72367.04063a.44343.44343,0,1,1-.05038-.88543.49221.49221,0,0,1,.05038,0l.72367.04068a.40272.40272,0,0,1,0,.80412Zm1.9025,3.40908-.72458.04068a.44341.44341,0,1,1-.04947-.88543.47451.47451,0,0,1,.04947,0l.72458.04154a.40223.40223,0,0,1,0,.80321Zm-1.192-7.19553a.43327.43327,0,0,1,.084-.27378q.72783.20124,1.464.36506a.39921.39921,0,0,1-.35594.286l-.72458.04062A.44414.44414,0,0,1,84.56283,90.17024Zm3.63269,10.35988-.72373.04153a.19824.19824,0,1,1-.02209-.39587.09489.09489,0,0,1,.02209,0l.72373.04068a.15848.15848,0,0,1,.14846.1661A.15673.15673,0,0,1,88.19552,100.53012Zm0-6.81821-.72373.04063a.19824.19824,0,1,1-.02209-.39587h.02209l.72373.04068a.15753.15753,0,0,1,0,.31456ZM90.098,97.121l-.72372.04063a.19784.19784,0,1,1-.023-.395.10284.10284,0,0,1,.023,0l.72372.04068a.15713.15713,0,0,1,0,.3137Zm1.61329-7.96267c-6.71711,0-12.546-2.59032-19.01036-6.23206,6.01515-3.94247,11.888-6.92314,17.87468-6.92684l.011-.00027c5.48614,0,8.89415,2.41468,8.89415,6.30174C99.48081,87.36248,95.29543,89.15837,91.7113,89.15837Z" fill="#000000"></path></g></svg>