<svg width="176" height="28" viewBox="1.1655205 0.74027485 174.29091 25.968327" fill="none" xmlns="http://www.w3.org/2000/svg"><path d="M34.1582 13.8639C34.6953 18.0785 35.1937 22.0356 35.7111 25.9884C35.7724 26.4619 35.6744 26.629 35.144 26.6556C31.9505 26.8142 31.9523 26.8269 30.7978 23.9188C30.3172 22.7088 29.8488 21.4939 29.3368 20.2959C29.2242 20.099 29.1826 19.8704 29.2189 19.6473C29.2552 19.4241 29.3672 19.2197 29.5367 19.0672C31.0474 17.4168 32.5188 15.7218 34.1582 13.8639Z" fill="#00A587"></path><path d="M15.3872 17.3963C15.8445 19.7162 16.2958 21.8968 16.693 24.0871C16.8157 24.7651 17.3675 25.6265 16.8954 26.0849C16.4883 26.4788 15.5846 25.9215 14.89 25.9468C13.0445 26.0156 12.1856 25.1626 11.8858 23.3717C11.7099 22.3203 11.632 21.5922 12.513 20.7779C13.5414 19.7104 14.5013 18.581 15.3872 17.3963V17.3963Z" fill="#00A587"></path><path d="M20.598 21.6278C20.598 20.3249 20.5777 19.022 20.6078 17.7196C20.6194 17.2081 20.4748 17.0356 19.9224 17.0175C16.1539 16.8948 12.3862 16.746 8.61941 16.5711C8.02778 16.544 7.7942 16.7092 7.66851 17.2847C7.0873 19.9497 6.42761 22.599 5.85989 25.267C5.70048 26.0162 5.40989 26.2924 4.61348 26.2074C3.72982 26.1173 2.84021 26.0971 1.95327 26.1471C1.285 26.1802 1.15625 25.9058 1.16606 25.3333C1.22369 21.3316 1.30892 17.33 1.26968 13.3295C1.26244 12.0984 1.6803 10.9015 2.45479 9.93461C4.5393 7.08445 6.54717 4.18302 8.56669 1.28882C8.67561 1.09064 8.84705 0.932649 9.05515 0.83865C9.26326 0.744651 9.49677 0.719727 9.72052 0.767639C17.2505 1.56026 24.7834 2.32814 32.3191 3.07129C32.7904 3.12688 33.2404 3.29617 33.6292 3.56412C38.1134 6.43117 42.5895 9.30848 47.0964 12.1405C47.7708 12.5628 47.7892 12.8041 47.1411 13.1859C47.0016 13.26 46.8769 13.3586 46.7733 13.4767C45.4754 15.1264 43.9531 15.0522 42.1138 14.3211C39.8907 13.4399 37.5463 12.8554 35.2668 12.1062C35.0498 12.0196 34.8146 11.9869 34.5818 12.0107C34.3489 12.0346 34.1256 12.1144 33.9315 12.2431C31.8347 13.5243 29.7283 14.7898 27.6124 16.0397C27.4218 16.1401 27.259 16.2848 27.1381 16.4612C27.0173 16.6376 26.942 16.8404 26.9189 17.0519C26.4548 19.8025 25.9239 22.5411 25.4972 25.2989C25.3746 26.0891 25.0883 26.3395 24.29 26.2846C23.2763 26.2256 22.2599 26.224 21.246 26.2798C20.6446 26.3063 20.4907 26.0988 20.5103 25.5348C20.5495 24.2325 20.5226 22.9283 20.5226 21.6254L20.598 21.6278Z" fill="#00A587"></path><path d="M65.6332 13.7367C67.1505 11.4848 69.3435 10.8347 71.8768 11.1709C73.283 11.2851 74.5916 11.9238 75.5348 12.9562C76.478 13.9886 76.9845 15.3367 76.9506 16.7244C77.0477 19.5922 76.9591 22.4663 77.0016 25.3369C77.0123 26.0728 76.5954 26.0275 76.0969 26.0345C75.551 26.0394 75.1149 26.0666 75.1298 25.279C75.1766 22.8374 75.1532 20.3959 75.1411 17.9578C75.1321 17.4569 75.0928 16.957 75.0234 16.4607C74.5746 12.9344 71.4273 12.345 69.0677 13.1263C67.5788 13.6146 66.64 15.0942 66.6202 16.977C66.5918 19.6325 66.5932 22.2882 66.6244 24.9441C66.6329 25.6703 66.528 26.0603 65.6268 26.0603C64.7108 26.0603 64.6278 25.632 64.6342 24.9274C64.6569 22.4161 64.6838 19.9047 64.6342 17.3934C64.5633 14.0373 62.1938 12.2145 59.0415 13.0279C58.274 13.22 57.5898 13.6501 57.0902 14.2545C56.5905 14.859 56.3019 15.6056 56.2671 16.384C56.0555 19.2464 56.0188 22.1186 56.1572 24.9853C56.1693 26.1266 55.5843 26.0805 54.81 26.0317C54.4747 26.0115 54.2428 25.9263 54.2542 25.5385C54.3407 22.3854 54.0181 19.2204 54.4229 16.0792C54.7349 13.6578 56.0586 11.9013 58.548 11.3355C61.2082 10.7272 63.6622 11.1088 65.4134 13.4702C65.4687 13.542 65.5361 13.6174 65.6332 13.7367Z" fill="black"></path><path d="M162.366 13.6634C163.308 12.5526 164.566 11.7439 165.978 11.3409C167.391 10.9379 168.894 10.9588 170.294 11.4011C173.886 12.3554 175.709 15.3872 175.426 19.7192C175.348 21.1441 174.839 22.5136 173.964 23.6513C173.088 24.7891 171.887 25.6432 170.514 26.1035C169.087 26.5849 167.547 26.647 166.084 26.2822C164.621 25.9174 163.298 25.1415 162.276 24.0491C161.075 22.6744 160.427 20.9149 160.453 19.1025C160.421 13.3655 160.445 7.62785 160.436 1.89087C160.436 1.24909 160.511 0.764956 161.353 0.746121C162.228 0.726588 162.378 1.18002 162.375 1.89924C162.356 5.73459 162.366 9.56994 162.366 13.6634ZM162.366 18.7802C162.258 23.4966 166.238 25.678 170.228 24.2814C172.698 23.4171 174.045 20.5549 173.523 17.5846C173.134 15.3718 172.083 13.6683 169.742 13.0502C165.522 11.9264 162.358 14.4029 162.366 18.7795V18.7802Z" fill="black"></path><path d="M153.718 13.6997C153.718 9.57972 153.724 5.71438 153.711 1.84973C153.711 1.1919 153.803 0.733578 154.648 0.744042C155.346 0.755203 155.62 0.991688 155.617 1.69904C155.593 7.55113 155.656 13.4032 155.574 19.2539C155.513 23.6097 152.303 26.5186 147.85 26.4509C143.646 26.3875 140.596 23.2643 140.576 19.0014C140.557 15.0251 142.437 12.2006 145.834 11.3732C148.762 10.6582 151.436 11.1416 153.718 13.6997ZM148.064 24.67C151.517 24.6749 153.71 22.3931 153.718 18.7865C153.726 15.083 151.562 12.8005 148.053 12.8096C144.607 12.8186 142.452 15.0963 142.443 18.7454C142.431 22.3463 144.629 24.6644 148.064 24.6693V24.67Z" fill="black"></path><path d="M118.709 13.9921C118.709 9.93217 118.721 6.00334 118.699 2.07451C118.696 1.38529 118.835 0.977206 119.655 1.00302C120.305 1.02325 120.561 1.25973 120.558 1.90989C120.536 7.86312 120.614 13.8177 120.503 19.7682C120.426 23.8686 117.202 26.7281 112.987 26.7085C112.026 26.7343 111.068 26.5719 110.17 26.2306C109.273 25.8894 108.453 25.3762 107.758 24.7207C107.064 24.0653 106.509 23.2807 106.125 22.4124C105.741 21.5442 105.536 20.6096 105.522 19.6629C105.368 15.8512 106.936 12.9744 109.972 11.905C113.228 10.7581 116.216 11.1941 118.709 13.9921ZM113.074 24.9269C116.485 24.9108 118.746 22.5223 118.707 18.9841C118.663 15.3029 116.453 13.0344 112.942 13.0657C109.523 13.0964 107.363 15.4271 107.385 19.0608C107.407 22.6492 109.631 24.9429 113.074 24.9269V24.9269Z" fill="black"></path><path d="M130.896 26.4572C128.865 26.4426 127.051 25.9417 125.835 24.1998C125.516 23.7443 125.1 23.1988 125.828 22.7258C126.442 22.3261 126.852 22.5751 127.29 23.1151C128.102 24.0049 129.207 24.5854 130.41 24.7546C131.613 24.9239 132.838 24.6712 133.871 24.0408C134.215 23.8348 134.494 23.5371 134.673 23.1821C134.853 22.827 134.927 22.4291 134.886 22.0345C134.862 21.6546 134.72 21.2912 134.479 20.9936C134.238 20.6959 133.91 20.4784 133.539 20.3707C132.152 19.9188 130.736 19.5594 129.301 19.2951C128.697 19.1548 128.107 18.9649 127.536 18.7272C127.014 18.5073 126.551 18.1724 126.181 17.7484C125.812 17.3244 125.546 16.8227 125.405 16.2818C125.264 15.7409 125.251 15.1753 125.367 14.6287C125.483 14.0821 125.726 13.569 126.075 13.1291C127.902 10.5933 134.278 10.1378 136.199 13.4276C136.447 13.8539 137.001 14.3296 136.279 14.8026C135.663 15.2065 135.215 15.1004 134.739 14.4419C133.42 12.6086 129.861 12.2389 128.11 13.6795C127.79 13.8935 127.539 14.1932 127.386 14.5431C127.234 14.893 127.186 15.2785 127.249 15.6542C127.311 16.0299 127.482 16.3801 127.74 16.6636C127.999 16.947 128.334 17.1518 128.707 17.2539C129.875 17.6508 131.11 17.8587 132.316 18.1468C133.172 18.3305 133.999 18.6298 134.772 19.0362C135.388 19.3399 135.907 19.8056 136.27 20.3817C136.634 20.9578 136.828 21.6217 136.831 22.2998C136.834 22.9779 136.646 23.6435 136.288 24.2229C135.93 24.8022 135.416 25.2726 134.802 25.5817C133.608 26.2231 132.256 26.5261 130.896 26.4572V26.4572Z" fill="black"></path><path d="M102.147 21.2546C102.147 22.5458 102.111 23.8357 102.161 25.1283C102.188 25.8259 101.975 26.0694 101.239 26.0477C100.568 26.0275 100.246 25.9026 100.256 25.1506C100.297 22.7474 100.291 20.3436 100.267 17.9404C100.229 14.2738 97.5146 12.1901 93.8858 13.0175C92.9099 13.2226 92.0343 13.7492 91.4038 14.5102C90.7733 15.2713 90.4255 16.2212 90.418 17.203C90.3102 19.7841 90.3422 22.3652 90.3599 24.9463C90.3649 25.6717 90.2642 26.0477 89.3672 26.0582C88.4165 26.0694 88.3945 25.6055 88.4172 24.926C88.5101 22.2054 88.2236 19.473 88.5725 16.76C89.0461 13.0719 91.6829 10.9979 95.6825 11.097C96.508 11.0815 97.3285 11.2262 98.0971 11.5228C98.8657 11.8195 99.5673 12.2623 100.162 12.826C100.756 13.3896 101.232 14.0631 101.562 14.8078C101.892 15.5525 102.069 16.3538 102.084 17.166C102.176 18.5228 102.099 19.8866 102.099 21.2525L102.147 21.2546Z" fill="black"></path><path d="M83.6405 18.8186C83.6405 20.8967 83.6122 22.9749 83.6562 25.0523C83.6718 25.7813 83.4824 26.0394 82.6891 26.0484C81.8283 26.0582 81.761 25.671 81.7673 25.0021C81.7886 20.9184 81.7822 16.834 81.7737 12.7496C81.7737 12.0994 81.7538 11.5337 82.6954 11.5128C83.637 11.4918 83.659 12.0164 83.6526 12.6924C83.6285 14.7349 83.6405 16.7768 83.6405 18.8186Z" fill="black"></path><path d="M81.1182 6.99374C81.1241 6.57998 81.2943 6.18491 81.5924 5.89303C81.8906 5.60115 82.2929 5.43562 82.7135 5.43183C82.9311 5.42603 83.1474 5.46551 83.3484 5.5477C83.5494 5.62988 83.7306 5.75291 83.8799 5.90872C84.0292 6.06454 84.1434 6.24963 84.215 6.45187C84.2866 6.65412 84.3139 6.86896 84.2953 7.08233C84.2739 7.49032 84.0912 7.87389 83.7861 8.15101C83.481 8.42813 83.0778 8.5768 82.6627 8.56523C82.2477 8.55366 81.8537 8.38275 81.5651 8.08908C81.2764 7.7954 81.116 7.40226 81.1182 6.99374V6.99374Z" fill="black"></path></svg>
