<svg version="1.1" xmlns="http://www.w3.org/2000/svg" width="4578" height="619" viewBox="71.95 19.662447 4415.8496 579.73755" style="width: 100%; height: auto; display: block;" xml:space="preserve">
    <defs>
        <style>
            .coreweave-brand__blue { fill: #2272ad; }
            .coreweave-brand__white { fill:#fff;}
            .coreweave-brand__navy {fill: #1b1e37; }
        </style>
    </defs>
    <g class="coreweave-brand__logo">
        <path class="coreweave-brand__blue" d="M472.7 456.7H326.1c-9.5 0-18.2-5.1-22.8-13.3l-68.1-121c-4.5-8-4.5-17.7 0-25.7l68.1-121c4.6-8.2 13.4-13.3 22.8-13.3h83.3c9.5 0 18.2-5.1 22.8-13.3L494 39.2c4.9-8.7-1.4-19.5-11.4-19.5H258c-18.9 0-36.4 10.2-45.6 26.7L78.7 283.8c-9 15.9-9 35.4 0 51.4l133.6 237.5c9.3 16.5 26.7 26.7 45.6 26.7h287.9c10 0 16.3-10.8 11.4-19.5L495.5 470c-4.6-8.2-13.3-13.3-22.8-13.3z"></path>
        <g class="coreweave-brand__white">
            <path d="m867.4 123.2-56.8-97.1c-5.1-8.7-17.7-8.6-22.7.2L546.8 454.6c-4.5 8-4.5 17.7 0 25.7l62.8 112.3c5 8.9 17.8 8.9 22.8.1l235.4-417.4c9.1-16.2 9-36-.4-52.1z"></path>
            <path d="m578 319.6 71.3-126.9c4.6-8.1 4.5-18-.2-26L567.6 26.2c-5.1-8.8-17.8-8.7-22.7.1l-69.3 123.2c-4.4 7.9-4.5 17.5-.1 25.5l79.7 144.5c4.9 9 17.8 9.1 22.8.1z"></path>
            <path d="m1079 123.2-56.8-97.1c-5.1-8.7-17.7-8.6-22.7.2L758.2 454.6c-4.5 8-4.5 17.7 0 25.7l63.3 112.3c5 8.9 17.8 8.9 22.8 0l235.2-417.4c9.1-16.1 8.9-35.9-.5-52z"></path>
        </g>
    </g>
    <g class="coreweave-brand__copy coreweave-brand__white">
        <path d="M3138.7 80.2h33.7c8 0 14 7.4 12.3 15.3L3092 512.8c-1.9 8.6-9.6 14.7-18.4 14.7h-43.8c-8.6 0-16.1-5.8-18.2-14.1L2931.9 206c-2.4-9.4-15.7-9.4-18.2-.1l-81.9 307.6c-2.2 8.2-9.7 14-18.2 14h-43.9c-8.9 0-16.5-6.2-18.4-14.8l-90.8-417.2c-1.7-7.8 4.3-15.2 12.3-15.2h37.4c9 0 16.7 6.4 18.5 15.2l59.6 301c1.9 9.8 15.7 10.2 18.3.6l82.4-303c2.2-8.2 9.7-13.9 18.2-13.9h34c8.5 0 16 5.7 18.2 13.9l81.4 303c2.6 9.6 16.3 9.2 18.3-.6l61.2-301.3c1.7-8.7 9.4-15 18.4-15zM1445 326.5c0 29.7 1.7 53.9 5 72.6 3.3 18.6 9.4 33.2 18.2 43.7 8.8 10.5 20.8 17.6 36.1 21.4 15.3 3.8 34.9 5.7 58.7 5.7 12 0 64.3-.7 89.2-1.1 8-.1 15.2 4.8 17.9 12.3l10.9 29.8c3 8.1-3 16.8-11.6 16.9-32.6.4-99.5 1.1-106.4 1.1-36 0-66.1-3.7-90.1-11-24.1-7.3-43.3-18.9-57.8-34.9-14.4-15.9-24.6-36.7-30.5-62.5-5.9-25.8-8.8-57.1-8.8-93.9v-45.9c0-38.5 3.2-70.7 9.7-96.4 6.5-25.8 17.1-46.5 31.7-62.2 14.7-15.7 33.8-26.8 57.5-33.3 23.7-6.5 52.9-9.7 87.6-9.7 11.2 0 75.1.7 106.8 1.1 8.7.1 14.7 8.8 11.6 17l-11.4 29.9c-2.8 7.4-9.9 12.3-17.8 12.1-26.5-.3-84.4-1.1-90.5-1.1-24.3 0-44 1.7-59 5-15.1 3.4-26.9 10.2-35.5 20.4-8.6 10.3-14.3 24.7-17.3 43.3-2.9 18.6-4.4 43.2-4.4 73.8l.2 45.9zm428.4-133.8c27.2 0 50.3 2.4 69.4 7.2 19.1 4.8 34.6 13.2 46.8 25.1 12.1 11.9 21 27.9 26.7 47.7 5.7 19.9 8.5 44.9 8.5 75.1v34.6c0 30.2-2.8 55.2-8.5 75.1-5.7 19.9-14.6 35.8-26.7 47.7-12.2 11.9-27.7 20.3-46.8 25.1-19.1 4.8-42.2 7.2-69.4 7.2-27.2 0-50.4-2.4-69.4-7.2-19.1-4.8-34.7-13.2-46.8-25.1-12.2-11.9-21-27.8-26.7-47.7-5.7-19.9-8.5-44.9-8.5-75.1v-34.6c0-30.2 2.8-55.2 8.5-75.1 5.7-19.9 14.5-35.8 26.7-47.7 12.1-11.9 27.7-20.3 46.8-25.1 19.1-4.8 42.2-7.2 69.4-7.2zm84.2 155.1c0-22.2-1.2-39.9-3.5-53.1-2.3-13.2-6.5-23.3-12.6-30.5-6.1-7.1-14.6-11.8-25.4-14.1-10.9-2.3-25.1-3.5-42.7-3.5s-31.8 1.2-42.7 3.5c-10.9 2.3-19.4 7-25.4 14.1-6.1 7.1-10.3 17.3-12.6 30.5-2.3 13.2-3.5 30.9-3.5 53.1v34.6c0 22.2 1.1 39.9 3.5 53.1 2.3 13.2 6.5 23.4 12.6 30.5 6.1 7.1 14.5 11.8 25.4 14.1 10.9 2.3 25.1 3.5 42.7 3.5s31.8-1.1 42.7-3.5c10.9-2.3 19.4-7 25.4-14.1 6.1-7.1 10.3-17.3 12.6-30.5 2.3-13.2 3.5-30.9 3.5-53.1v-34.6zm145.1 179.7c-6.9 0-12.5-5.6-12.5-12.5V305.1c0-18.8 2.9-34.9 8.8-48.1 5.9-13.2 14.1-23.9 24.8-32 10.7-8.2 23.6-14.1 38.6-17.9 15.1-3.8 31.8-5.7 50.3-5.7 13.2 0 44.9.3 65.1.5 8.8.1 14.7 8.9 11.6 17l-9.8 25.5c-2.8 7.4-9.9 12.2-17.8 12.1-15.3-.2-38.9-.5-42.8-.5-14.7 0-26.2 1.4-34.6 4.1-8.4 2.7-14.7 6.8-18.8 12.3-4.2 5.4-6.8 12.1-7.9 20.1-1.1 8-1.6 17-1.6 27v195.4c0 6.9-5.6 12.5-12.5 12.5h-40.9zm287.9-138.2c-7.1 0-12.8 5.9-12.5 13 .4 11.7 1.2 21.7 2.6 29.7 1.9 10.9 5.7 19.5 11.3 25.8 5.7 6.3 13.5 10.6 23.6 12.9 10 2.3 23.4 3.5 40.2 3.5 9.5 0 78.5-.8 108-1.1 8-.1 15.1 4.9 17.9 12.4l9.3 25.5c3 8.1-3 16.8-11.7 16.9-36.3.3-116.1 1.1-123.5 1.1-29.7 0-53.9-3.5-72.6-10.4-18.6-6.9-33.3-16.7-44-29.5-10.7-12.8-17.9-28.3-21.7-46.5-3.8-18.2-5.7-38.4-5.7-60.6v-35.2c0-23.9 2-45.3 6-64.4 4-19.1 11.3-35.2 22-48.4 10.7-13.2 25.5-23.3 44.6-30.5 19-7.1 43.9-10.7 74.4-10.7 28.1 0 51 3.3 68.8 9.7 17.8 6.5 31.8 15.3 42.1 26.4 10.3 11.1 17.3 23.9 21 38.3 3.8 14.4 5.7 29.4 5.7 44.9v9.4c0 15.1-.8 27-2.5 35.8-1.7 8.8-4.4 15.6-8.2 20.4-3.8 4.8-8.5 8-14.1 9.4-5.7 1.5-12.5 2.2-20.4 2.2h-160.6zm65.1-144.5c-16.8 0-30.2 1.3-40.2 3.8-10 2.5-17.9 7.2-23.6 14.1-5.7 6.9-9.4 16.4-11.3 28.6-1.4 9.3-2.3 20.7-2.7 34.2-.2 7.1 5.5 12.9 12.5 12.9h131.2c6.9 0 12.5-5.6 12.5-12.5v-8.8c0-13.8-1.2-25.4-3.5-34.9-2.3-9.4-6.5-16.9-12.6-22.3-6.1-5.4-14.1-9.3-24.2-11.6-9.8-2.3-22.6-3.5-38.1-3.5zm833.6 144.5c-7.1 0-12.8 5.9-12.5 13 .4 11.7 1.2 21.7 2.6 29.7 1.9 10.9 5.7 19.5 11.3 25.8 5.7 6.3 13.5 10.6 23.6 12.9 10 2.3 23.4 3.5 40.2 3.5 9.5 0 78.5-.8 108-1.1 8-.1 15.1 4.9 17.9 12.4l9.3 25.5c3 8.1-3 16.8-11.7 16.9-36.3.3-116.1 1.1-123.5 1.1-29.7 0-53.9-3.5-72.6-10.4-18.6-6.9-33.3-16.7-44-29.5-10.7-12.8-17.9-28.3-21.7-46.5-3.8-18.2-5.7-38.4-5.7-60.6v-35.2c0-23.9 2-45.3 6-64.4 4-19.1 11.3-35.2 22-48.4 10.7-13.2 25.5-23.3 44.6-30.5 19-7.1 43.9-10.7 74.4-10.7 28.1 0 51 3.3 68.8 9.7 17.8 6.5 31.8 15.3 42.1 26.4 10.3 11.1 17.3 23.9 21 38.3 3.8 14.4 5.7 29.4 5.7 44.9v9.4c0 15.1-.8 27-2.5 35.8-1.7 8.8-4.4 15.6-8.2 20.4-3.8 4.8-8.5 8-14.1 9.4-5.7 1.5-12.5 2.2-20.4 2.2h-160.6zm65.2-144.5c-16.8 0-30.2 1.3-40.2 3.8-10 2.5-17.9 7.2-23.6 14.1-5.7 6.9-9.4 16.4-11.3 28.6-1.4 9.3-2.3 20.7-2.7 34.2-.2 7.1 5.5 12.9 12.5 12.9h131.2c6.9 0 12.5-5.6 12.5-12.5v-8.8c0-13.8-1.2-25.4-3.5-34.9-2.3-9.4-6.5-16.9-12.6-22.3-6.1-5.4-14.1-9.3-24.2-11.6-9.9-2.3-22.6-3.5-38.1-3.5zM4282 389.3c-7.1 0-12.8 5.9-12.5 13 .4 11.7 1.2 21.7 2.6 29.7 1.9 10.9 5.7 19.5 11.3 25.8 5.7 6.3 13.5 10.6 23.6 12.9 10 2.3 23.4 3.5 40.2 3.5 9.5 0 78.5-.8 108-1.1 8-.1 15.1 4.9 17.9 12.4l9.3 25.5c3 8.1-3 16.8-11.7 16.9-36.3.3-116.1 1.1-123.5 1.1-29.7 0-53.9-3.5-72.6-10.4-18.6-6.9-33.3-16.7-44-29.5-10.7-12.8-17.9-28.3-21.7-46.5-3.8-18.2-5.7-38.4-5.7-60.6v-35.2c0-23.9 2-45.3 6-64.4 4-19.1 11.3-35.2 22-48.4 10.7-13.2 25.5-23.3 44.6-30.5 19-7.1 43.9-10.7 74.4-10.7 28.1 0 51 3.3 68.8 9.7 17.8 6.5 31.8 15.3 42.1 26.4 10.3 11.1 17.3 23.9 21 38.3 3.8 14.4 5.7 29.4 5.7 44.9v9.4c0 15.1-.8 27-2.5 35.8-1.7 8.8-4.4 15.6-8.2 20.4-3.8 4.8-8.5 8-14.1 9.4-5.7 1.5-12.5 2.2-20.4 2.2H4282zm65.2-144.5c-16.8 0-30.2 1.3-40.2 3.8-10 2.5-17.9 7.2-23.6 14.1-5.7 6.9-9.4 16.4-11.3 28.6-1.4 9.3-2.3 20.7-2.7 34.2-.2 7.1 5.5 12.9 12.5 12.9h131.2c6.9 0 12.5-5.6 12.5-12.5v-8.8c0-13.8-1.2-25.4-3.5-34.9-2.3-9.4-6.5-16.9-12.6-22.3-6.1-5.4-14.1-9.3-24.2-11.6-9.8-2.3-22.6-3.5-38.1-3.5zm-519.1 228.7c0 20.1-4.6 34.1-13.8 42.1-9.2 8-26 11.9-50.3 11.9h-94.2c-44 0-75.5-8.1-94.5-24.2-19.1-16.1-28.6-40.3-28.6-72.6v-13.8c0-35.2 10.4-60.3 31.1-75.4s53.1-22.6 97.1-22.6c25.1 0 44.8 2 59 6 7.1 2 13.3 4.1 18.5 6.2 6.2 2.5 12.9-2.1 12.9-8.8v-3.4c0-10.5-.7-19.6-2.2-27.3-1.5-7.7-5-14.2-10.7-19.5-5.7-5.2-13.8-9.2-24.5-11.9-10.7-2.7-25.2-4.1-43.7-4.1-13.6 0-76.4.8-104.2 1.1-8 .1-15.2-4.9-17.9-12.4l-9.3-25.5c-3-8.1 3-16.8 11.6-16.9 34.1-.3 106.5-1.1 119.8-1.1 50.7 0 87.3 8.9 109.9 26.7 22.6 17.8 33.9 44.1 33.9 78.8v166.7zm-219.9-43.4c0 14.7 4.4 25.7 13.2 33 8.8 7.3 24.9 11 48.4 11h82.9c6.9 0 12.5-5.6 12.5-12.5v-45.2c0-8-.8-14.9-2.5-20.7-1.7-5.9-5-10.6-10.1-14.1-5-3.6-12.4-6.2-22-7.9-9.6-1.7-22.4-2.5-38.3-2.5h-14.4c-13.8 0-25.2.7-34.2 2.2-9 1.5-16.1 4-21.4 7.5-5.2 3.6-8.9 8.3-11 14.1-2.1 5.9-3.1 13.2-3.1 22v13.1zm324.2-214.8 75.4 215.5c2.9 8.4 14.7 8.4 17.7.1l77.6-215.7c2.7-7.5 9.8-12.5 17.7-12.5h36.9c8.8 0 14.9 8.9 11.7 17.1L4055 515.5c-2.8 7.3-9.8 12-17.6 12h-43.9c-7.8 0-14.7-4.8-17.6-12l-114.4-295.7c-3.2-8.2 2.9-17.1 11.7-17.1h41.2c8.2 0 15.3 5.1 18 12.6z"></path>
    </g></svg>
