<?xml version="1.0" standalone="no"?>
<!DOCTYPE svg PUBLIC "-//W3C//DTD SVG 20010904//EN"
 "http://www.w3.org/TR/2001/REC-SVG-20010904/DTD/svg10.dtd">
<svg version="1.0" xmlns="http://www.w3.org/2000/svg"
 width="200.000000pt" height="200.000000pt" viewBox="0 0 200 200"
 preserveAspectRatio="xMidYMid meet">

<g transform="translate(0.000000,200.000000) scale(0.100000,-0.100000)"
fill="#000000" stroke="none">
<path d="M0 1000 l0 -1000 1000 0 1000 0 0 1000 0 1000 -1000 0 -1000 0 0
-1000z m570 665 c7 -8 16 -15 21 -15 5 0 9 7 9 15 0 25 19 17 65 -29 57 -58
82 -138 98 -313 l11 -133 121 0 c163 0 277 -16 350 -48 49 -21 76 -26 146 -27
61 0 91 -4 104 -15 46 -38 61 -154 25 -190 -11 -11 -25 -20 -31 -20 -12 0 -8
-73 11 -235 7 -55 12 -111 12 -125 -1 -20 -19 -199 -21 -207 -2 -6 -71 -3 -71
3 0 3 7 12 15 20 10 11 15 35 15 77 -1 59 -3 64 -44 108 l-42 47 -12 -57 c-7
-31 -23 -72 -36 -92 -13 -19 -26 -49 -28 -65 -2 -25 -8 -29 -35 -32 -27 -3
-33 0 -33 16 0 11 7 23 16 26 8 3 24 27 36 52 28 65 21 118 -26 179 -21 28
-36 59 -36 75 l0 27 -52 -14 c-35 -10 -85 -13 -149 -10 l-96 4 -6 -72 c-4 -40
-11 -85 -17 -99 -5 -15 -10 -54 -10 -86 0 -86 -14 -110 -62 -110 -35 0 -38 2
-28 19 5 11 15 23 20 26 13 8 13 155 1 155 -5 0 -13 -15 -16 -32 -4 -18 -20
-61 -36 -95 -23 -53 -32 -63 -53 -63 -33 0 -41 15 -18 37 39 38 44 74 37 233
l-8 150 -48 36 c-68 49 -99 106 -99 176 0 31 -7 69 -15 84 -8 16 -15 55 -15
86 0 32 -5 78 -12 102 -12 44 -9 69 18 189 5 21 3 27 -10 27 -26 0 -74 28 -86
50 -14 26 3 60 30 60 10 0 31 5 46 12 24 11 26 16 22 60 -5 50 1 59 22 33z"/>
</g>
</svg>
