<svg xmlns="http://www.w3.org/2000/svg" width="100%" height="100%" viewBox="0.0791016 0.7190137 122.6539 22.051586" fill="none" preserveAspectRatio="xMidYMid meet" aria-hidden="true" role="img">
<path d="M17.5758 6.60546V22.3792H14.8664L14.5377 20.46C13.0555 21.9049 10.9884 22.7706 8.60134 22.7706C3.72722 22.7706 0.0791016 19.2196 0.0791016 14.4912C0.0791016 9.76263 3.7247 6.23098 8.60134 6.23098C11.0159 6.23098 13.1005 7.10878 14.589 8.579L14.9838 6.60666L17.5758 6.60546ZM14.2015 14.49C14.2015 11.5182 11.9519 9.31229 8.86129 9.31229C5.77065 9.31229 3.49359 11.5399 3.49359 14.49C3.49359 17.4401 5.77184 19.6676 8.85623 19.6676C11.9406 19.6676 14.2015 17.4617 14.2015 14.49ZM31.6982 6.52599V9.58804H29.9173C27.1353 9.58804 25.7456 11.1173 25.7456 13.9746V22.3841H22.3812V6.61027H24.657L25.2269 8.76081C26.3979 7.26652 28.0039 6.52117 30.2385 6.52117L31.6982 6.52599ZM32.6742 14.4827C32.6742 9.77106 36.3672 6.22978 41.2626 6.22978C45.3082 6.22978 48.4675 8.61752 49.3773 12.2359H46.0392C45.1781 10.4213 43.3835 9.32314 41.2488 9.32314C38.3032 9.32314 36.0962 11.5676 36.0962 14.49C36.0962 17.4124 38.3319 19.6736 41.2488 19.6736C43.3909 19.6736 45.1231 18.5599 46.018 16.6405H49.4136C48.5125 20.3274 45.2893 22.7694 41.2488 22.7694C36.3735 22.7694 32.6705 19.1933 32.6705 14.4827H32.6742ZM68.2187 15.6025H54.9287C55.3499 18.1588 57.2608 19.7302 59.9415 19.7302C61.8962 19.7302 63.4809 18.8573 64.3445 17.4195H67.8864C66.5841 20.7501 63.5947 22.7694 59.9415 22.7694C55.1549 22.7694 51.5306 19.2088 51.5306 14.4996C51.5306 9.79033 55.1462 6.22978 59.9415 6.22978C64.9506 6.22978 68.2863 9.94686 68.2863 14.5382C68.2817 14.8939 68.2579 15.2491 68.215 15.6025H68.2187ZM55.0138 12.968H64.9119C64.3082 10.5718 62.4336 9.15336 59.9415 9.15336C57.4096 9.15336 55.5648 10.6272 55.0138 12.968ZM87.3527 15.6025H74.0626C74.4838 18.1588 76.3948 19.7302 79.0742 19.7302C81.0289 19.7302 82.6135 18.8573 83.4783 17.4195H87.0202C85.7166 20.7501 82.7285 22.7694 79.0742 22.7694C74.2889 22.7694 70.6646 19.2088 70.6646 14.4996C70.6646 9.79033 74.2788 6.22978 79.0742 6.22978C84.0844 6.22978 87.4188 9.94686 87.4188 14.5382C87.4166 14.8939 87.3944 15.2491 87.3527 15.6025ZM74.1476 12.968H84.0444C83.4409 10.5718 81.5675 9.15336 79.0742 9.15336C76.5422 9.15336 74.6975 10.6272 74.1476 12.968ZM114.239 6.60546V22.3792H111.525L111.199 20.46C109.716 21.9049 107.648 22.7706 105.262 22.7706C100.388 22.7706 96.7396 19.2196 96.7396 14.4912C96.7396 9.76263 100.386 6.23098 105.262 6.23098C107.674 6.23098 109.761 7.10878 111.25 8.579L111.642 6.60666L114.239 6.60546ZM110.865 14.49C110.865 11.5182 108.607 9.31229 105.523 9.31229C102.439 9.31229 100.16 11.5351 100.16 14.49C100.16 17.4448 102.437 19.6676 105.523 19.6676C108.609 19.6676 110.868 17.4617 110.868 14.49H110.865ZM119.042 6.6151H122.407V22.3889H119.047L119.042 6.6151ZM94.0889 20.5225C94.0889 20.1414 93.9716 19.7691 93.7518 19.4522C93.5322 19.1354 93.2199 18.8885 92.8544 18.7426C92.4891 18.5967 92.0871 18.5586 91.6992 18.633C91.3113 18.7074 90.955 18.8908 90.6753 19.1602C90.3956 19.4296 90.2052 19.773 90.1281 20.1466C90.0509 20.5204 90.0905 20.9077 90.2418 21.2598C90.3932 21.6119 90.6494 21.9127 90.9783 22.1244C91.3071 22.3361 91.6937 22.4491 92.0893 22.4491C92.3521 22.4495 92.6126 22.4001 92.8556 22.3035C93.0986 22.2069 93.3195 22.065 93.5055 21.8861C93.6916 21.7071 93.8394 21.4946 93.94 21.2607C94.0407 21.0266 94.0926 20.7758 94.0926 20.5225H94.0889ZM122.733 2.65118C122.733 2.27013 122.615 1.89766 122.395 1.58083C122.175 1.26401 121.863 1.01708 121.498 0.87126C121.132 0.725444 120.731 0.687292 120.343 0.761629C119.955 0.835966 119.598 1.01945 119.319 1.28889C119.039 1.55833 118.849 1.9016 118.772 2.27533C118.694 2.64905 118.733 3.03642 118.885 3.38845C119.036 3.74048 119.293 4.04137 119.622 4.25307C119.95 4.46475 120.337 4.57775 120.732 4.57775C121.263 4.57775 121.771 4.37477 122.147 4.01347C122.522 3.65217 122.733 3.16213 122.733 2.65118Z" fill="currentColor"></path>
</svg>
