<?xml version="1.0" encoding="UTF-8" standalone="no"?>
<!DOCTYPE svg PUBLIC "-//W3C//DTD SVG 1.1//EN" "http://www.w3.org/Graphics/SVG/1.1/DTD/svg11.dtd">
<!-- Created with Vectornator (http://vectornator.io/) -->
<svg height="100%" stroke-miterlimit="10" style="fill-rule:nonzero;clip-rule:evenodd;stroke-linecap:round;stroke-linejoin:round;" version="1.1" viewBox="44.9629 99.3274 934.0741 825.3456" width="100%" xml:space="preserve" xmlns="http://www.w3.org/2000/svg" xmlns:vectornator="http://vectornator.io" xmlns:xlink="http://www.w3.org/1999/xlink">
<defs>
<linearGradient gradientTransform="matrix(1 0 0 1 0 0)" gradientUnits="userSpaceOnUse" id="LinearGradient" x1="324.385" x2="699.615" y1="401.085" y2="401.085">
<stop offset="0" stop-color="#009efd"/>
<stop offset="1" stop-color="#2af598"/>
</linearGradient>
</defs>
<g id="Layer-1" vectornator:layerName="Layer 1">
<g opacity="1" vectornator:layerName="Group 1">
<g opacity="1">
<path d="M107.81 922.487L57.0329 785.867L44.9629 784.202L44.9629 770.988L92.8268 770.988L92.8268 784.202L78.9879 786.388L112.909 882.74L116.447 894.706L117.071 894.706L120.817 882.74L155.986 786.284L140.587 784.202L140.587 770.988L188.346 770.988L188.346 784.202L176.172 785.867L125.395 922.487L107.81 922.487ZM234.441 924.673C222.718 924.673 213.804 921.811 207.7 916.088C201.596 910.365 198.544 902.301 198.544 891.896C198.544 884.751 200.503 878.526 204.422 873.219C208.342 867.912 214.013 863.785 221.435 860.837C228.857 857.889 237.736 856.415 248.072 856.415L268.154 856.415L268.154 845.385C268.154 838.587 266.091 833.315 261.963 829.569C257.836 825.823 252.026 823.95 244.534 823.95C239.817 823.95 235.725 824.523 232.256 825.667C228.788 826.812 225.632 828.39 222.788 830.402L220.603 846.113L204.787 846.113L204.787 820.308C209.851 816.216 215.747 813.112 222.475 810.996C229.204 808.88 236.661 807.822 244.847 807.822C258.512 807.822 269.229 811.083 276.999 817.603C284.768 824.124 288.653 833.454 288.653 845.593L288.653 899.804C288.653 901.261 288.67 902.683 288.705 904.07C288.739 905.458 288.826 906.845 288.965 908.232L299.89 909.377L299.89 922.487L270.443 922.487C269.819 919.435 269.334 916.695 268.987 914.267C268.64 911.84 268.397 909.412 268.258 906.984C264.304 912.048 259.362 916.262 253.431 919.626C247.5 922.99 241.17 924.673 234.441 924.673ZM237.459 907.504C244.257 907.504 250.465 905.874 256.084 902.614C261.703 899.353 265.726 895.434 268.154 890.856L268.154 870.462L247.344 870.462C237.91 870.462 230.834 872.716 226.117 877.225C221.4 881.734 219.042 886.763 219.042 892.312C219.042 897.238 220.568 901.001 223.62 903.602C226.672 906.203 231.285 907.504 237.459 907.504ZM315.81 922.487L315.81 909.377L332.771 906.463L332.771 826.031L315.81 823.118L315.81 809.903L351.084 809.903L352.54 826.656C356.286 820.69 360.986 816.06 366.639 812.765C372.293 809.47 378.727 807.822 385.941 807.822C398.08 807.822 407.48 811.377 414.139 818.488C420.798 825.598 424.128 836.575 424.128 851.42L424.128 906.463L441.089 909.377L441.089 922.487L386.669 922.487L386.669 909.377L403.63 906.463L403.63 851.836C403.63 841.917 401.67 834.876 397.751 830.714C393.832 826.552 387.849 824.471 379.802 824.471C373.906 824.471 368.686 825.893 364.142 828.737C359.599 831.581 355.974 835.465 353.269 840.391L353.269 906.463L370.229 909.377L370.229 922.487L315.81 922.487ZM455.552 922.487L455.552 909.377L472.512 906.463L472.512 826.031L455.552 823.118L455.552 809.903L490.825 809.903L492.282 826.656C496.028 820.69 500.728 816.06 506.381 812.765C512.035 809.47 518.469 807.822 525.683 807.822C537.822 807.822 547.222 811.377 553.881 818.488C560.54 825.598 563.87 836.575 563.87 851.42L563.87 906.463L580.83 909.377L580.83 922.487L526.411 922.487L526.411 909.377L543.372 906.463L543.372 851.836C543.372 841.917 541.412 834.876 537.493 830.714C533.573 826.552 527.59 824.471 519.544 824.471C513.647 824.471 508.428 825.893 503.884 828.737C499.34 831.581 495.716 835.465 493.011 840.391L493.011 906.463L509.971 909.377L509.971 922.487L455.552 922.487ZM631.712 924.673C619.989 924.673 611.075 921.811 604.97 916.088C598.866 910.365 595.814 902.301 595.814 891.896C595.814 884.751 597.773 878.526 601.693 873.219C605.612 867.912 611.283 863.785 618.705 860.837C626.128 857.889 635.007 856.415 645.343 856.415L665.425 856.415L665.425 845.385C665.425 838.587 663.361 833.315 659.233 829.569C655.106 825.823 649.297 823.95 641.805 823.95C637.088 823.95 632.995 824.523 629.527 825.667C626.058 826.812 622.902 828.39 620.058 830.402L617.873 846.113L602.057 846.113L602.057 820.308C607.121 816.216 613.017 813.112 619.746 810.996C626.474 808.88 633.932 807.822 642.117 807.822C655.782 807.822 666.5 811.083 674.269 817.603C682.038 824.124 685.923 833.454 685.923 845.593L685.923 899.804C685.923 901.261 685.94 902.683 685.975 904.07C686.01 905.458 686.096 906.845 686.235 908.232L697.16 909.377L697.16 922.487L667.714 922.487C667.089 919.435 666.604 916.695 666.257 914.267C665.91 911.84 665.667 909.412 665.529 906.984C661.575 912.048 656.632 916.262 650.701 919.626C644.77 922.99 638.44 924.673 631.712 924.673ZM634.729 907.504C641.527 907.504 647.736 905.874 653.355 902.614C658.973 899.353 662.997 895.434 665.425 890.856L665.425 870.462L644.614 870.462C635.18 870.462 628.105 872.716 623.388 877.225C618.671 881.734 616.312 886.763 616.312 892.312C616.312 897.238 617.838 901.001 620.89 903.602C623.943 906.203 628.556 907.504 634.729 907.504ZM720.468 922.487L720.468 901.469L740.966 901.469L740.966 922.487L720.468 922.487ZM763.962 922.487L763.962 909.377L775.199 907.816L828.162 770.988L845.747 770.988L897.773 907.816L908.906 909.377L908.906 922.487L865.412 922.487L865.412 909.377L876.858 907.4L866.869 879.514L806.207 879.514L795.906 907.4L807.351 909.377L807.351 922.487L763.962 922.487ZM812.554 862.345L860.626 862.345L838.359 800.747L837.11 797.313L836.486 797.313L835.237 800.747L812.554 862.345ZM924.618 922.487L924.618 909.377L941.578 906.463L941.578 787.116L924.618 784.202L924.618 770.988L979.037 770.988L979.037 784.202L962.077 787.116L962.077 906.463L979.037 909.377L979.037 922.487L924.618 922.487Z" fill="#374151" fill-rule="nonzero" opacity="1" stroke="none" vectornator:layerName="Curve 1"/>
</g>
</g>
<g opacity="1" vectornator:layerName="Group 2">
<path d="M264.741 223.485C264.741 154.915 320.328 99.3274 388.898 99.3274L635.102 99.3274C703.672 99.3274 759.259 154.915 759.259 223.485L759.259 578.684C759.259 647.254 703.672 702.842 635.102 702.842L388.898 702.842C320.328 702.842 264.741 647.254 264.741 578.684L264.741 223.485Z" fill="#0f172a" fill-rule="nonzero" opacity="1" stroke="#374151" stroke-linecap="butt" stroke-linejoin="round" stroke-width="20" vectornator:layerName="Rectangle 1"/>
<path d="M324.385 214.982C324.553 256.327 324.888 339.018 324.888 339.018C324.888 339.018 511.693 586.871 513.25 587.764C575.285 505.065 699.355 339.668 699.355 339.668C699.355 339.668 699.528 256.16 699.615 214.405C606.133 307.628 606.133 307.628 512.651 400.851C418.518 307.916 418.518 307.916 324.385 214.982Z" fill="url(#LinearGradient)" fill-rule="nonzero" opacity="1" stroke="none"/>
</g>
</g>
</svg>
